G04 #@! TF.FileFunction,Paste,Bot*
%FSLAX46Y46*%
G04 Gerber Fmt 4.6, Leading zero omitted, Abs format (unit mm)*
G04 Created by KiCad (PCBNEW 4.0.5) date Sun Feb 12 14:34:10 2017*
%MOMM*%
%LPD*%
G01*
G04 APERTURE LIST*
%ADD10C,0.020000*%
%ADD11R,0.600000X0.400000*%
%ADD12R,0.400000X0.600000*%
%ADD13R,1.000000X1.250000*%
%ADD14R,0.500000X0.600000*%
%ADD15R,0.350000X0.300000*%
%ADD16R,0.800000X0.750000*%
%ADD17R,0.750000X0.800000*%
%ADD18R,0.600000X0.500000*%
%ADD19R,1.000000X1.600000*%
%ADD20R,1.250000X1.000000*%
%ADD21R,1.220000X0.910000*%
%ADD22R,1.000000X0.250000*%
%ADD23R,2.100000X1.400000*%
%ADD24R,3.000000X8.200000*%
%ADD25R,3.300000X8.200000*%
%ADD26R,2.540000X1.021080*%
%ADD27R,1.021080X2.540000*%
%ADD28R,0.800100X0.800100*%
%ADD29R,0.320000X0.500000*%
%ADD30R,0.650000X0.300000*%
%ADD31R,0.465000X0.744000*%
%ADD32R,1.060000X0.650000*%
%ADD33R,0.800000X0.300000*%
%ADD34R,0.450000X1.450000*%
%ADD35R,0.250000X1.000000*%
%ADD36R,0.600000X2.200000*%
%ADD37R,3.500000X2.200000*%
%ADD38O,0.750000X0.300000*%
%ADD39O,0.300000X0.750000*%
%ADD40R,0.540000X0.540000*%
%ADD41R,0.650000X1.060000*%
%ADD42R,0.700000X0.250000*%
%ADD43R,0.250000X0.700000*%
%ADD44R,0.495000X0.795000*%
%ADD45R,1.050000X1.300000*%
%ADD46R,2.370000X2.430000*%
%ADD47R,0.500000X0.320000*%
%ADD48R,0.430000X0.280000*%
%ADD49R,0.280000X0.430000*%
%ADD50R,0.772500X0.772500*%
%ADD51R,1.500000X0.450000*%
%ADD52R,0.300000X0.350000*%
%ADD53R,2.200000X0.600000*%
%ADD54R,2.200000X3.500000*%
%ADD55R,0.900000X1.700000*%
G04 APERTURE END LIST*
D10*
D11*
X26370000Y-52270000D03*
X26370000Y-53170000D03*
D12*
X48250000Y-94200000D03*
X49150000Y-94200000D03*
D11*
X66480000Y-70650000D03*
X66480000Y-71550000D03*
D13*
X72950000Y-54900000D03*
X74950000Y-54900000D03*
D14*
X48400000Y-83250000D03*
X48400000Y-82150000D03*
D15*
X62500000Y-70755000D03*
X62500000Y-71305000D03*
D16*
X127450000Y-117250000D03*
X125950000Y-117250000D03*
D14*
X129650000Y-113050000D03*
X129650000Y-111950000D03*
D17*
X151800000Y-91600000D03*
X151800000Y-93100000D03*
X123100000Y-115200000D03*
X123100000Y-116700000D03*
X157500000Y-91500000D03*
X157500000Y-93000000D03*
D14*
X120150000Y-99250000D03*
X120150000Y-100350000D03*
X126750000Y-99050000D03*
X126750000Y-100150000D03*
X131650000Y-93450000D03*
X131650000Y-92350000D03*
D18*
X136100000Y-104650000D03*
X135000000Y-104650000D03*
D14*
X131740000Y-98030000D03*
X131740000Y-96930000D03*
D18*
X137300000Y-90000000D03*
X136200000Y-90000000D03*
D14*
X147600000Y-105500000D03*
X147600000Y-106600000D03*
D18*
X146350000Y-93500000D03*
X147450000Y-93500000D03*
D14*
X146450000Y-101400000D03*
X146450000Y-102500000D03*
D13*
X146550000Y-91700000D03*
X148550000Y-91700000D03*
D18*
X141780000Y-104170000D03*
X142880000Y-104170000D03*
X144600000Y-108500000D03*
X145700000Y-108500000D03*
D13*
X140700000Y-106610000D03*
X142700000Y-106610000D03*
X137850000Y-106250000D03*
X135850000Y-106250000D03*
D18*
X138400000Y-104650000D03*
X137300000Y-104650000D03*
D13*
X92050000Y-103300000D03*
X94050000Y-103300000D03*
X97750000Y-103300000D03*
X95750000Y-103300000D03*
X79900000Y-103250000D03*
X81900000Y-103250000D03*
X86150000Y-103250000D03*
X84150000Y-103250000D03*
D18*
X124260000Y-75950000D03*
X123160000Y-75950000D03*
X120850000Y-74750000D03*
X121950000Y-74750000D03*
X134480000Y-70230000D03*
X135580000Y-70230000D03*
X124250000Y-74750000D03*
X123150000Y-74750000D03*
D14*
X119660000Y-74750000D03*
X119660000Y-75850000D03*
D18*
X120860000Y-75950000D03*
X121960000Y-75950000D03*
D14*
X117930000Y-68330000D03*
X117930000Y-69430000D03*
X113480000Y-67360000D03*
X113480000Y-68460000D03*
D18*
X134050000Y-51600000D03*
X132950000Y-51600000D03*
X117750000Y-51550000D03*
X116650000Y-51550000D03*
X116320000Y-56940000D03*
X117420000Y-56940000D03*
X116310000Y-58290000D03*
X117410000Y-58290000D03*
D14*
X135100000Y-53380000D03*
X135100000Y-54480000D03*
X139600000Y-50550000D03*
X139600000Y-51650000D03*
X124630000Y-49250000D03*
X124630000Y-48150000D03*
X117750000Y-52900000D03*
X117750000Y-54000000D03*
X133200000Y-49100000D03*
X133200000Y-50200000D03*
X123350000Y-60500000D03*
X123350000Y-59400000D03*
D18*
X117850000Y-60400000D03*
X116750000Y-60400000D03*
X138750000Y-53200000D03*
X139850000Y-53200000D03*
D14*
X139600000Y-49250000D03*
X139600000Y-48150000D03*
D18*
X134140000Y-60970000D03*
X133040000Y-60970000D03*
D14*
X123350000Y-49250000D03*
X123350000Y-48150000D03*
X116400000Y-53830000D03*
X116400000Y-52730000D03*
D18*
X138650000Y-58000000D03*
X139750000Y-58000000D03*
D14*
X124620000Y-50520000D03*
X124620000Y-51620000D03*
D18*
X133050000Y-57150000D03*
X134150000Y-57150000D03*
X123400000Y-56350000D03*
X122300000Y-56350000D03*
X122400000Y-54750000D03*
X123500000Y-54750000D03*
D14*
X139600000Y-60500000D03*
X139600000Y-59400000D03*
D18*
X138700000Y-54800000D03*
X139800000Y-54800000D03*
D14*
X138950000Y-75600000D03*
X138950000Y-76700000D03*
D18*
X147400000Y-71000000D03*
X148500000Y-71000000D03*
D13*
X129860000Y-81040000D03*
X131860000Y-81040000D03*
X111290000Y-77660000D03*
X109290000Y-77660000D03*
D14*
X128170000Y-80710000D03*
X128170000Y-81810000D03*
X119050000Y-78680000D03*
X119050000Y-77580000D03*
X121330000Y-78640000D03*
X121330000Y-77540000D03*
X122840000Y-78640000D03*
X122840000Y-77540000D03*
D19*
X98500000Y-39500000D03*
X95500000Y-39500000D03*
D18*
X98550000Y-41500000D03*
X97450000Y-41500000D03*
X146450000Y-46800000D03*
X145350000Y-46800000D03*
D16*
X102450000Y-108800000D03*
X103950000Y-108800000D03*
D19*
X102550000Y-111100000D03*
X105550000Y-111100000D03*
D20*
X122030000Y-88970000D03*
X122030000Y-86970000D03*
D14*
X120340000Y-88930000D03*
X120340000Y-87830000D03*
X129660000Y-78340000D03*
X129660000Y-79440000D03*
D20*
X126390000Y-88970000D03*
X126390000Y-86970000D03*
D17*
X124240000Y-77250000D03*
X124240000Y-78750000D03*
X125730000Y-77670000D03*
X125730000Y-76170000D03*
D18*
X120410000Y-81280000D03*
X121510000Y-81280000D03*
X122010000Y-83750000D03*
X123110000Y-83750000D03*
D14*
X116920000Y-82250000D03*
X116920000Y-81150000D03*
X117900000Y-89650000D03*
X117900000Y-90750000D03*
X126840000Y-81820000D03*
X126840000Y-80720000D03*
D18*
X123210000Y-81270000D03*
X124310000Y-81270000D03*
X119210000Y-82510000D03*
X118110000Y-82510000D03*
D13*
X109320000Y-79810000D03*
X111320000Y-79810000D03*
D20*
X124030000Y-88970000D03*
X124030000Y-86970000D03*
D14*
X119130000Y-88930000D03*
X119130000Y-87830000D03*
D18*
X119220000Y-81280000D03*
X118120000Y-81280000D03*
X121500000Y-82550000D03*
X120400000Y-82550000D03*
X122700000Y-82550000D03*
X123800000Y-82550000D03*
X117700000Y-79960000D03*
X116600000Y-79960000D03*
D14*
X112690000Y-84080000D03*
X112690000Y-85180000D03*
D18*
X69500000Y-78650000D03*
X68400000Y-78650000D03*
D14*
X68790000Y-83840000D03*
X68790000Y-84940000D03*
D18*
X66450000Y-83700000D03*
X67550000Y-83700000D03*
D14*
X65350000Y-76300000D03*
X65350000Y-75200000D03*
D17*
X71000000Y-78500000D03*
X71000000Y-77000000D03*
D16*
X68950000Y-90450000D03*
X67450000Y-90450000D03*
D18*
X65450000Y-80090000D03*
X66550000Y-80090000D03*
D16*
X67500000Y-73550000D03*
X69000000Y-73550000D03*
X72820000Y-90860000D03*
X71320000Y-90860000D03*
D17*
X63800000Y-78950000D03*
X63800000Y-77450000D03*
D18*
X67550000Y-81300000D03*
X66450000Y-81300000D03*
D14*
X69450000Y-82500000D03*
X69450000Y-81400000D03*
D18*
X65450000Y-78700000D03*
X66550000Y-78700000D03*
D14*
X66550000Y-76300000D03*
X66550000Y-75200000D03*
D18*
X67550000Y-82500000D03*
X66450000Y-82500000D03*
D14*
X65250000Y-82580000D03*
X65250000Y-81480000D03*
D18*
X70500000Y-79950000D03*
X69400000Y-79950000D03*
D16*
X65100000Y-84050000D03*
X63600000Y-84050000D03*
D18*
X68400000Y-75050000D03*
X69500000Y-75050000D03*
X66550000Y-77500000D03*
X65450000Y-77500000D03*
X68400000Y-77450000D03*
X69500000Y-77450000D03*
X69500000Y-76250000D03*
X68400000Y-76250000D03*
D14*
X49250000Y-74100000D03*
X49250000Y-75200000D03*
D18*
X44550000Y-80700000D03*
X43450000Y-80700000D03*
D14*
X49200000Y-77800000D03*
X49200000Y-76700000D03*
X42550000Y-75950000D03*
X42550000Y-77050000D03*
X62910000Y-85710000D03*
X62910000Y-86810000D03*
D13*
X79100000Y-89500000D03*
X81100000Y-89500000D03*
X62650000Y-89600000D03*
X60650000Y-89600000D03*
X66700000Y-93200000D03*
X64700000Y-93200000D03*
D18*
X65500000Y-88450000D03*
X64400000Y-88450000D03*
X75450000Y-88500000D03*
X76550000Y-88500000D03*
X64500000Y-85500000D03*
X65600000Y-85500000D03*
X68500000Y-87500000D03*
X67400000Y-87500000D03*
X60500000Y-83500000D03*
X61600000Y-83500000D03*
X74400000Y-85500000D03*
X75500000Y-85500000D03*
X61500000Y-86500000D03*
X60400000Y-86500000D03*
X72550000Y-89500000D03*
X71450000Y-89500000D03*
D13*
X60220000Y-93240000D03*
X62220000Y-93240000D03*
D18*
X59500000Y-70500000D03*
X60600000Y-70500000D03*
X76450000Y-81500000D03*
X77550000Y-81500000D03*
X60500000Y-73500000D03*
X61600000Y-73500000D03*
X72500000Y-79500000D03*
X73600000Y-79500000D03*
D14*
X63630000Y-74690000D03*
X63630000Y-73590000D03*
D18*
X73450000Y-82500000D03*
X74550000Y-82500000D03*
X61550000Y-76450000D03*
X60450000Y-76450000D03*
X78500000Y-87500000D03*
X79600000Y-87500000D03*
D13*
X59500000Y-65900000D03*
X57500000Y-65900000D03*
D15*
X69550000Y-69300000D03*
X69550000Y-68750000D03*
D18*
X77550000Y-74500000D03*
X76450000Y-74500000D03*
X74450000Y-75550000D03*
X73350000Y-75550000D03*
D13*
X58900000Y-68520000D03*
X56900000Y-68520000D03*
D18*
X78450000Y-77500000D03*
X79550000Y-77500000D03*
X70450000Y-73500000D03*
X71550000Y-73500000D03*
D20*
X82900000Y-69300000D03*
X82900000Y-67300000D03*
D18*
X79500000Y-70550000D03*
X80600000Y-70550000D03*
X72450000Y-69500000D03*
X73550000Y-69500000D03*
X76550000Y-68500000D03*
X77650000Y-68500000D03*
X76500000Y-71500000D03*
X77600000Y-71500000D03*
D20*
X82900000Y-73900000D03*
X82900000Y-75900000D03*
D13*
X49300000Y-55650000D03*
X51300000Y-55650000D03*
D16*
X49700000Y-53750000D03*
X51200000Y-53750000D03*
D14*
X30240000Y-54030000D03*
X30240000Y-55130000D03*
D18*
X70490000Y-50520000D03*
X69390000Y-50520000D03*
D14*
X43000000Y-49350000D03*
X43000000Y-50450000D03*
D19*
X64100000Y-48300000D03*
X61100000Y-48300000D03*
D18*
X52850000Y-50200000D03*
X51750000Y-50200000D03*
X49300000Y-50350000D03*
X50400000Y-50350000D03*
D14*
X52350000Y-51500000D03*
X52350000Y-52600000D03*
D19*
X54350000Y-50800000D03*
X57350000Y-50800000D03*
D13*
X46950000Y-102700000D03*
X48950000Y-102700000D03*
D14*
X25120000Y-51970000D03*
X25120000Y-53070000D03*
D13*
X52550000Y-102700000D03*
X50550000Y-102700000D03*
X71150000Y-55550000D03*
X69150000Y-55550000D03*
X47660000Y-55690000D03*
X45660000Y-55690000D03*
D19*
X53750000Y-48350000D03*
X56750000Y-48350000D03*
D18*
X28330000Y-91250000D03*
X29430000Y-91250000D03*
D20*
X26700000Y-87900000D03*
X26700000Y-85900000D03*
D13*
X31700000Y-100050000D03*
X33700000Y-100050000D03*
D20*
X24700000Y-87900000D03*
X24700000Y-85900000D03*
D17*
X24850000Y-99200000D03*
X24850000Y-100700000D03*
D20*
X27050000Y-102650000D03*
X27050000Y-104650000D03*
X27600000Y-95200000D03*
X27600000Y-93200000D03*
X25280000Y-97180000D03*
X25280000Y-95180000D03*
D16*
X39850000Y-93400000D03*
X38350000Y-93400000D03*
D19*
X37750000Y-100700000D03*
X40750000Y-100700000D03*
D16*
X38400000Y-96200000D03*
X39900000Y-96200000D03*
D20*
X49800000Y-97100000D03*
X49800000Y-99100000D03*
D14*
X105450000Y-34150000D03*
X105450000Y-35250000D03*
D18*
X109950000Y-34100000D03*
X108850000Y-34100000D03*
X140550000Y-111150000D03*
X141550000Y-111150000D03*
D21*
X47550000Y-97065000D03*
X47550000Y-100335000D03*
D22*
X27350000Y-81250000D03*
X32650000Y-81250000D03*
X27350000Y-80750000D03*
X32650000Y-80750000D03*
X27350000Y-80250000D03*
X32650000Y-80250000D03*
X27350000Y-79750000D03*
X32650000Y-79750000D03*
X27350000Y-79250000D03*
X32650000Y-79250000D03*
X27350000Y-78750000D03*
X32650000Y-78750000D03*
X27350000Y-78250000D03*
X32650000Y-78250000D03*
X27350000Y-77750000D03*
X32650000Y-77750000D03*
X27350000Y-77250000D03*
X32650000Y-77250000D03*
X27350000Y-76750000D03*
X32650000Y-76750000D03*
X27350000Y-76250000D03*
X32650000Y-76250000D03*
X27350000Y-75750000D03*
X32650000Y-75750000D03*
X27350000Y-75250000D03*
X32650000Y-75250000D03*
X27350000Y-74750000D03*
X32650000Y-74750000D03*
X27350000Y-74250000D03*
X32650000Y-74250000D03*
X27350000Y-73750000D03*
X32650000Y-73750000D03*
X27350000Y-73250000D03*
X32650000Y-73250000D03*
X27350000Y-72750000D03*
X32650000Y-72750000D03*
X27350000Y-72250000D03*
X32650000Y-72250000D03*
X27350000Y-71750000D03*
X32650000Y-71750000D03*
X27350000Y-71250000D03*
X32650000Y-71250000D03*
X27350000Y-70750000D03*
X32650000Y-70750000D03*
X27350000Y-70250000D03*
X32650000Y-70250000D03*
X27350000Y-69750000D03*
X32650000Y-69750000D03*
X27350000Y-69250000D03*
X32650000Y-69250000D03*
X27350000Y-68750000D03*
X32650000Y-68750000D03*
X27350000Y-68250000D03*
X32650000Y-68250000D03*
X27350000Y-67750000D03*
X32650000Y-67750000D03*
X27350000Y-67250000D03*
X32650000Y-67250000D03*
X27350000Y-66750000D03*
X32650000Y-66750000D03*
D23*
X30000000Y-83500000D03*
X30000000Y-64500000D03*
D16*
X135850000Y-108000000D03*
X137350000Y-108000000D03*
X142200000Y-108400000D03*
X140700000Y-108400000D03*
D24*
X73130000Y-45540000D03*
X66930000Y-45540000D03*
D25*
X45850000Y-45250000D03*
X50550000Y-45250000D03*
D26*
X32250000Y-95854460D03*
X32250000Y-98145540D03*
D27*
X45195540Y-100000000D03*
X42904460Y-100000000D03*
D28*
X142650000Y-77500760D03*
X140750000Y-77500760D03*
X141700000Y-75501780D03*
X110650000Y-89650760D03*
X108750000Y-89650760D03*
X109700000Y-87651780D03*
X116450000Y-91300760D03*
X114550000Y-91300760D03*
X115500000Y-89301780D03*
D11*
X129550000Y-115200000D03*
X129550000Y-114300000D03*
X123300000Y-113250000D03*
X123300000Y-112350000D03*
D12*
X125200000Y-101900000D03*
X124300000Y-101900000D03*
D11*
X128200000Y-100350000D03*
X128200000Y-101250000D03*
D12*
X148950000Y-102350000D03*
X149850000Y-102350000D03*
X148950000Y-100700000D03*
X149850000Y-100700000D03*
X149000000Y-97450000D03*
X149900000Y-97450000D03*
X149000000Y-98950000D03*
X149900000Y-98950000D03*
D11*
X133950000Y-106350000D03*
X133950000Y-107250000D03*
X140510000Y-104060000D03*
X140510000Y-104960000D03*
D12*
X127800000Y-95650000D03*
X128700000Y-95650000D03*
X127800000Y-93050000D03*
X128700000Y-93050000D03*
X127800000Y-94350000D03*
X128700000Y-94350000D03*
X127800000Y-91750000D03*
X128700000Y-91750000D03*
D11*
X99700000Y-104700000D03*
X99700000Y-105600000D03*
X99700000Y-106750000D03*
X99700000Y-107650000D03*
X88500000Y-103550000D03*
X88500000Y-104450000D03*
X88500000Y-105800000D03*
X88500000Y-106700000D03*
X118650000Y-53970000D03*
X118650000Y-53070000D03*
D12*
X142300000Y-79100000D03*
X141400000Y-79100000D03*
X140150000Y-73800000D03*
X141050000Y-73800000D03*
X159550000Y-74400000D03*
X158650000Y-74400000D03*
X132260000Y-77030000D03*
X133160000Y-77030000D03*
D11*
X133420000Y-80010000D03*
X133420000Y-80910000D03*
D12*
X112190000Y-91100000D03*
X111290000Y-91100000D03*
X115950000Y-92800000D03*
X115050000Y-92800000D03*
X77550000Y-85510000D03*
X76650000Y-85510000D03*
D11*
X42500000Y-78200000D03*
X42500000Y-79100000D03*
D12*
X43650000Y-77250000D03*
X44550000Y-77250000D03*
D11*
X68850000Y-95650000D03*
X68850000Y-94750000D03*
X68850000Y-93550000D03*
X68850000Y-92650000D03*
X70300000Y-95650000D03*
X70300000Y-94750000D03*
X70300000Y-93550000D03*
X70300000Y-92650000D03*
X71750000Y-95650000D03*
X71750000Y-94750000D03*
X71750000Y-93550000D03*
X71750000Y-92650000D03*
X61500000Y-77550000D03*
X61500000Y-78450000D03*
X43050000Y-52700000D03*
X43050000Y-51800000D03*
X30240000Y-57150000D03*
X30240000Y-56250000D03*
X66800000Y-51200000D03*
X66800000Y-52100000D03*
X66800000Y-53100000D03*
X66800000Y-54000000D03*
X51000000Y-52370000D03*
X51000000Y-51470000D03*
D12*
X33050000Y-103000000D03*
X33950000Y-103000000D03*
X54750000Y-52900000D03*
X53850000Y-52900000D03*
X53830000Y-54320000D03*
X54730000Y-54320000D03*
D11*
X49500000Y-52450000D03*
X49500000Y-51550000D03*
D12*
X25220000Y-54320000D03*
X26120000Y-54320000D03*
D11*
X54800000Y-103700000D03*
X54800000Y-104600000D03*
X54800000Y-105600000D03*
X54800000Y-106500000D03*
X31850000Y-88250000D03*
X31850000Y-89150000D03*
X28700000Y-104000000D03*
X28700000Y-103100000D03*
X30000000Y-104000000D03*
X30000000Y-103100000D03*
D12*
X32200000Y-101700000D03*
X33100000Y-101700000D03*
X39600000Y-97600000D03*
X38700000Y-97600000D03*
X39600000Y-98900000D03*
X38700000Y-98900000D03*
X24150000Y-81300000D03*
X23250000Y-81300000D03*
X24150000Y-80000000D03*
X23250000Y-80000000D03*
X24150000Y-78700000D03*
X23250000Y-78700000D03*
X23250000Y-82600000D03*
X24150000Y-82600000D03*
X23250000Y-83900000D03*
X24150000Y-83900000D03*
X39500000Y-94800000D03*
X38600000Y-94800000D03*
X49150000Y-95500000D03*
X48250000Y-95500000D03*
X107050000Y-38050000D03*
X107950000Y-38050000D03*
X106650000Y-34050000D03*
X107550000Y-34050000D03*
D29*
X58250000Y-40500000D03*
X59250000Y-40500000D03*
X58750000Y-40500000D03*
X59750000Y-40500000D03*
X58750000Y-41500000D03*
X58250000Y-41500000D03*
X59250000Y-41500000D03*
X59750000Y-41500000D03*
D30*
X128150000Y-113400000D03*
X128150000Y-113900000D03*
X128150000Y-114400000D03*
X128150000Y-114900000D03*
X128150000Y-115400000D03*
X125050000Y-115400000D03*
X125050000Y-114900000D03*
X125050000Y-114400000D03*
X125050000Y-113900000D03*
X125050000Y-113400000D03*
D31*
X126212500Y-115020000D03*
X126212500Y-113780000D03*
X126987500Y-115020000D03*
X126987500Y-113780000D03*
D32*
X153650000Y-93200000D03*
X153650000Y-92250000D03*
X153650000Y-91300000D03*
X155850000Y-91300000D03*
X155850000Y-93200000D03*
D33*
X125300000Y-100800000D03*
X122200000Y-100800000D03*
X125300000Y-100300000D03*
X122200000Y-100300000D03*
X125300000Y-99800000D03*
X122200000Y-99800000D03*
X125300000Y-99300000D03*
X122200000Y-99300000D03*
D34*
X154845000Y-101300000D03*
X154195000Y-101300000D03*
X153545000Y-101300000D03*
X152895000Y-101300000D03*
X152895000Y-95400000D03*
X153545000Y-95400000D03*
X154195000Y-95400000D03*
X154845000Y-95400000D03*
D35*
X142750000Y-102700000D03*
X142250000Y-102700000D03*
X141750000Y-102700000D03*
X141250000Y-102700000D03*
X140750000Y-102700000D03*
X140250000Y-102700000D03*
X139750000Y-102700000D03*
X139250000Y-102700000D03*
X138750000Y-102700000D03*
X138250000Y-102700000D03*
X137750000Y-102700000D03*
X137250000Y-102700000D03*
X136750000Y-102700000D03*
X136250000Y-102700000D03*
X135750000Y-102700000D03*
X135250000Y-102700000D03*
D22*
X133300000Y-100750000D03*
X133300000Y-100250000D03*
X133300000Y-99750000D03*
X133300000Y-99250000D03*
X133300000Y-98750000D03*
X133300000Y-98250000D03*
X133300000Y-97750000D03*
X133300000Y-97250000D03*
X133300000Y-96750000D03*
X133300000Y-96250000D03*
X133300000Y-95750000D03*
X133300000Y-95250000D03*
X133300000Y-94750000D03*
X133300000Y-94250000D03*
X133300000Y-93750000D03*
X133300000Y-93250000D03*
D35*
X135250000Y-91300000D03*
X135750000Y-91300000D03*
X136250000Y-91300000D03*
X136750000Y-91300000D03*
X137250000Y-91300000D03*
X137750000Y-91300000D03*
X138250000Y-91300000D03*
X138750000Y-91300000D03*
X139250000Y-91300000D03*
X139750000Y-91300000D03*
X140250000Y-91300000D03*
X140750000Y-91300000D03*
X141250000Y-91300000D03*
X141750000Y-91300000D03*
X142250000Y-91300000D03*
X142750000Y-91300000D03*
D22*
X144700000Y-93250000D03*
X144700000Y-93750000D03*
X144700000Y-94250000D03*
X144700000Y-94750000D03*
X144700000Y-95250000D03*
X144700000Y-95750000D03*
X144700000Y-96250000D03*
X144700000Y-96750000D03*
X144700000Y-97250000D03*
X144700000Y-97750000D03*
X144700000Y-98250000D03*
X144700000Y-98750000D03*
X144700000Y-99250000D03*
X144700000Y-99750000D03*
X144700000Y-100250000D03*
X144700000Y-100750000D03*
D36*
X92910000Y-105950000D03*
X94180000Y-105950000D03*
X95450000Y-105950000D03*
X96720000Y-105950000D03*
X97990000Y-105950000D03*
D37*
X95450000Y-112150000D03*
D36*
X80960000Y-105750000D03*
X82230000Y-105750000D03*
X83500000Y-105750000D03*
X84770000Y-105750000D03*
X86040000Y-105750000D03*
D37*
X83500000Y-111950000D03*
D32*
X71100000Y-51850000D03*
X71100000Y-52800000D03*
X71100000Y-53750000D03*
X68900000Y-53750000D03*
X68900000Y-51850000D03*
X68900000Y-52800000D03*
D38*
X44775000Y-52700000D03*
X44775000Y-52200000D03*
X44775000Y-51700000D03*
X44775000Y-51200000D03*
D39*
X45500000Y-50475000D03*
X46000000Y-50475000D03*
X46500000Y-50475000D03*
X47000000Y-50475000D03*
D38*
X47725000Y-51200000D03*
X47725000Y-51700000D03*
X47725000Y-52200000D03*
X47725000Y-52700000D03*
D39*
X47000000Y-53425000D03*
X46500000Y-53425000D03*
X46000000Y-53425000D03*
X45500000Y-53425000D03*
D40*
X46700000Y-51500000D03*
X46700000Y-52400000D03*
X45800000Y-51500000D03*
X45800000Y-52400000D03*
D36*
X47960000Y-105250000D03*
X49230000Y-105250000D03*
X50500000Y-105250000D03*
X51770000Y-105250000D03*
X53040000Y-105250000D03*
D37*
X50500000Y-111450000D03*
D41*
X28450000Y-87900000D03*
X29400000Y-87900000D03*
X30350000Y-87900000D03*
X30350000Y-90100000D03*
X28450000Y-90100000D03*
X29400000Y-90100000D03*
D42*
X29400000Y-97750000D03*
X29400000Y-98250000D03*
X29400000Y-98750000D03*
X29400000Y-99250000D03*
X29400000Y-99750000D03*
X29400000Y-100250000D03*
D43*
X28750000Y-100900000D03*
X28250000Y-100900000D03*
X27750000Y-100900000D03*
X27250000Y-100900000D03*
D42*
X26600000Y-100250000D03*
X26600000Y-99750000D03*
X26600000Y-99250000D03*
X26600000Y-98750000D03*
X26600000Y-98250000D03*
X26600000Y-97750000D03*
D43*
X27250000Y-97100000D03*
X27750000Y-97100000D03*
X28250000Y-97100000D03*
X28750000Y-97100000D03*
D44*
X27587500Y-99662500D03*
X27587500Y-98337500D03*
X28412500Y-99662500D03*
X28412500Y-98337500D03*
D38*
X41775000Y-96750000D03*
X41775000Y-96250000D03*
X41775000Y-95750000D03*
X41775000Y-95250000D03*
D39*
X42500000Y-94525000D03*
X43000000Y-94525000D03*
X43500000Y-94525000D03*
X44000000Y-94525000D03*
D38*
X44725000Y-95250000D03*
X44725000Y-95750000D03*
X44725000Y-96250000D03*
X44725000Y-96750000D03*
D39*
X44000000Y-97475000D03*
X43500000Y-97475000D03*
X43000000Y-97475000D03*
X42500000Y-97475000D03*
D40*
X43700000Y-95550000D03*
X43700000Y-96450000D03*
X42800000Y-95550000D03*
X42800000Y-96450000D03*
D45*
X146075000Y-104750000D03*
X146075000Y-107050000D03*
X144225000Y-107050000D03*
X144225000Y-104750000D03*
D46*
X46830000Y-67350000D03*
X53070000Y-67350000D03*
D47*
X161800000Y-100000000D03*
X161800000Y-99000000D03*
X161800000Y-99500000D03*
X161800000Y-98500000D03*
X162800000Y-99500000D03*
X162800000Y-100000000D03*
X162800000Y-99000000D03*
X162800000Y-98500000D03*
X161900000Y-104400000D03*
X161900000Y-103400000D03*
X161900000Y-103900000D03*
X161900000Y-102900000D03*
X162900000Y-103900000D03*
X162900000Y-104400000D03*
X162900000Y-103400000D03*
X162900000Y-102900000D03*
D48*
X68200000Y-63645000D03*
X68200000Y-64155000D03*
X67100000Y-63645000D03*
X67100000Y-64155000D03*
X66000000Y-63645000D03*
X66000000Y-64155000D03*
X64900000Y-63645000D03*
X64900000Y-64155000D03*
X69300000Y-63645000D03*
X69300000Y-64155000D03*
X70400000Y-63645000D03*
X70400000Y-64155000D03*
X71500000Y-63645000D03*
X71500000Y-64155000D03*
X72600000Y-63645000D03*
X72600000Y-64155000D03*
X77000000Y-63645000D03*
X77000000Y-64155000D03*
X75900000Y-63645000D03*
X75900000Y-64155000D03*
X74800000Y-63645000D03*
X74800000Y-64155000D03*
X73700000Y-63645000D03*
X73700000Y-64155000D03*
X78100000Y-63645000D03*
X78100000Y-64155000D03*
X79200000Y-63645000D03*
X79200000Y-64155000D03*
X80300000Y-63645000D03*
X80300000Y-64155000D03*
X81400000Y-63645000D03*
X81400000Y-64155000D03*
X85800000Y-63645000D03*
X85800000Y-64155000D03*
X84700000Y-63645000D03*
X84700000Y-64155000D03*
X83600000Y-63645000D03*
X83600000Y-64155000D03*
X82500000Y-63645000D03*
X82500000Y-64155000D03*
D49*
X67655000Y-62700000D03*
X67145000Y-62700000D03*
X65955000Y-62700000D03*
X65445000Y-62700000D03*
X69845000Y-62700000D03*
X70355000Y-62700000D03*
X71545000Y-62700000D03*
X72055000Y-62700000D03*
X76455000Y-62700000D03*
X75945000Y-62700000D03*
X74755000Y-62700000D03*
X74245000Y-62700000D03*
X78645000Y-62700000D03*
X79155000Y-62700000D03*
X80345000Y-62700000D03*
X80855000Y-62700000D03*
X85300000Y-62700000D03*
X84790000Y-62700000D03*
X83555000Y-62700000D03*
X83045000Y-62700000D03*
X86655000Y-69100000D03*
X86145000Y-69100000D03*
X86655000Y-68000000D03*
X86145000Y-68000000D03*
X86655000Y-66900000D03*
X86145000Y-66900000D03*
X86655000Y-65800000D03*
X86145000Y-65800000D03*
X86655000Y-73500000D03*
X86145000Y-73500000D03*
X86655000Y-72400000D03*
X86145000Y-72400000D03*
X86655000Y-71300000D03*
X86145000Y-71300000D03*
X86655000Y-70200000D03*
X86145000Y-70200000D03*
D48*
X87600000Y-68555000D03*
X87600000Y-68045000D03*
X87600000Y-66855000D03*
X87600000Y-66345000D03*
X87600000Y-72955000D03*
X87600000Y-72445000D03*
X87600000Y-71255000D03*
X87600000Y-70745000D03*
D12*
X93950000Y-82000000D03*
X94850000Y-82000000D03*
X94850000Y-80500000D03*
X93950000Y-80500000D03*
X93350000Y-84800000D03*
X94250000Y-84800000D03*
X93350000Y-83500000D03*
X94250000Y-83500000D03*
D49*
X102755000Y-75800000D03*
X102245000Y-75800000D03*
X100945000Y-75800000D03*
X101455000Y-75800000D03*
X101155000Y-76900000D03*
X100645000Y-76900000D03*
X99345000Y-76900000D03*
X99855000Y-76900000D03*
X99555000Y-75800000D03*
X99045000Y-75800000D03*
X97745000Y-75800000D03*
X98255000Y-75800000D03*
X97955000Y-76900000D03*
X97445000Y-76900000D03*
X96145000Y-76900000D03*
X96655000Y-76900000D03*
D43*
X102550000Y-86400000D03*
X102050000Y-86400000D03*
X101550000Y-86400000D03*
X101050000Y-86400000D03*
X100550000Y-86400000D03*
X100050000Y-86400000D03*
X99550000Y-86400000D03*
X99050000Y-86400000D03*
X98550000Y-86400000D03*
X98050000Y-86400000D03*
X97550000Y-86400000D03*
X97050000Y-86400000D03*
D42*
X96400000Y-85750000D03*
X96400000Y-85250000D03*
X96400000Y-84750000D03*
X96400000Y-84250000D03*
X96400000Y-83750000D03*
X96400000Y-83250000D03*
X96400000Y-82750000D03*
X96400000Y-82250000D03*
X96400000Y-81750000D03*
X96400000Y-81250000D03*
X96400000Y-80750000D03*
X96400000Y-80250000D03*
D43*
X97050000Y-79600000D03*
X97550000Y-79600000D03*
X98050000Y-79600000D03*
X98550000Y-79600000D03*
X99050000Y-79600000D03*
X99550000Y-79600000D03*
X100050000Y-79600000D03*
X100550000Y-79600000D03*
X101050000Y-79600000D03*
X101550000Y-79600000D03*
X102050000Y-79600000D03*
X102550000Y-79600000D03*
D42*
X103200000Y-80250000D03*
X103200000Y-80750000D03*
X103200000Y-81250000D03*
X103200000Y-81750000D03*
X103200000Y-82250000D03*
X103200000Y-82750000D03*
X103200000Y-83250000D03*
X103200000Y-83750000D03*
X103200000Y-84250000D03*
X103200000Y-84750000D03*
X103200000Y-85250000D03*
X103200000Y-85750000D03*
D50*
X97868750Y-81068750D03*
X99156250Y-81068750D03*
X100443750Y-81068750D03*
X101731250Y-81068750D03*
X97868750Y-82356250D03*
X99156250Y-82356250D03*
X100443750Y-82356250D03*
X101731250Y-82356250D03*
X97868750Y-83643750D03*
X99156250Y-83643750D03*
X100443750Y-83643750D03*
X101731250Y-83643750D03*
X97868750Y-84931250D03*
X99156250Y-84931250D03*
X100443750Y-84931250D03*
X101731250Y-84931250D03*
D15*
X129620000Y-76765000D03*
X129620000Y-77315000D03*
D18*
X94630000Y-31590000D03*
X93530000Y-31590000D03*
D51*
X98110000Y-32955000D03*
X98110000Y-33605000D03*
X98110000Y-34255000D03*
X98110000Y-34905000D03*
X98110000Y-35555000D03*
X98110000Y-36205000D03*
X98110000Y-36855000D03*
X98110000Y-37505000D03*
X92210000Y-37505000D03*
X92210000Y-36855000D03*
X92210000Y-36205000D03*
X92210000Y-35555000D03*
X92210000Y-34905000D03*
X92210000Y-34255000D03*
X92210000Y-33605000D03*
X92210000Y-32955000D03*
D15*
X63490000Y-69395000D03*
X63490000Y-68845000D03*
X65510000Y-69305000D03*
X65510000Y-68755000D03*
D52*
X62415000Y-69060000D03*
X61865000Y-69060000D03*
D20*
X41500000Y-106000000D03*
X41500000Y-108000000D03*
X41500000Y-112000000D03*
X41500000Y-110000000D03*
D12*
X39700000Y-113000000D03*
X38800000Y-113000000D03*
X37450000Y-113000000D03*
X36550000Y-113000000D03*
D53*
X38250000Y-106210000D03*
X38250000Y-107480000D03*
X38250000Y-108750000D03*
X38250000Y-110020000D03*
X38250000Y-111290000D03*
D54*
X32050000Y-108750000D03*
D11*
X93500000Y-96200000D03*
X93500000Y-95300000D03*
D51*
X90460000Y-95205000D03*
X90460000Y-95855000D03*
X90460000Y-96505000D03*
X90460000Y-97155000D03*
X90460000Y-97805000D03*
X90460000Y-98455000D03*
X90460000Y-99105000D03*
X90460000Y-99755000D03*
X84560000Y-99755000D03*
X84560000Y-99105000D03*
X84560000Y-98455000D03*
X84560000Y-97805000D03*
X84560000Y-97155000D03*
X84560000Y-96505000D03*
X84560000Y-95855000D03*
X84560000Y-95205000D03*
D55*
X53780000Y-62990000D03*
X50880000Y-62990000D03*
D12*
X95390000Y-96240000D03*
X96290000Y-96240000D03*
X95390000Y-94940000D03*
X96290000Y-94940000D03*
D52*
X94675000Y-79200000D03*
X94125000Y-79200000D03*
X104625000Y-87200000D03*
X105175000Y-87200000D03*
X104625000Y-86100000D03*
X105175000Y-86100000D03*
D15*
X104500000Y-80425000D03*
X104500000Y-80975000D03*
X105800000Y-80425000D03*
X105800000Y-80975000D03*
X104000000Y-90075000D03*
X104000000Y-89525000D03*
X102900000Y-90075000D03*
X102900000Y-89525000D03*
X99600000Y-90075000D03*
X99600000Y-89525000D03*
X98500000Y-90075000D03*
X98500000Y-89525000D03*
X101800000Y-90075000D03*
X101800000Y-89525000D03*
X100700000Y-90075000D03*
X100700000Y-89525000D03*
X97400000Y-90075000D03*
X97400000Y-89525000D03*
X96300000Y-90075000D03*
X96300000Y-89525000D03*
D52*
X104625000Y-82600000D03*
X105175000Y-82600000D03*
X95175000Y-86200000D03*
X94625000Y-86200000D03*
X104625000Y-84800000D03*
X105175000Y-84800000D03*
X104625000Y-83700000D03*
X105175000Y-83700000D03*
D15*
X65000000Y-73625000D03*
X65000000Y-74175000D03*
X64500000Y-71275000D03*
X64500000Y-70725000D03*
X68530000Y-71385000D03*
X68530000Y-70835000D03*
D52*
X65965000Y-72580000D03*
X65415000Y-72580000D03*
X69505000Y-71730000D03*
X70055000Y-71730000D03*
D15*
X110890000Y-35815000D03*
X110890000Y-35265000D03*
D18*
X157150000Y-89550000D03*
X156050000Y-89550000D03*
D11*
X44490000Y-79300000D03*
X44490000Y-78400000D03*
M02*
