M48
;DRILL file {KiCad 4.0.5} date Sun Feb 12 14:34:16 2017
;FORMAT={-:-/ absolute / inch / decimal}
FMAT,2
INCH,TZ
T1C0.008
T2C0.012
T3C0.020
T4C0.024
T5C0.031
T6C0.039
T7C0.040
T8C0.051
T9C0.091
T10C0.126
%
G90
G05
M72
T1
X0.8134Y-2.874
X0.8146Y-2.7473
X0.8146Y-2.7661
X0.8161Y-2.9051
X0.8177Y-2.6764
X0.8193Y-2.9256
X0.8193Y-2.9444
X0.826Y-2.7228
X0.826Y-2.9717
X0.8276Y-2.8056
X0.8276Y-2.8244
X0.8398Y-2.5728
X0.8465Y-2.6871
X0.8465Y-2.7058
X0.8492Y-2.6543
X0.8732Y-2.8662
X0.8732Y-2.885
X0.8776Y-2.9059
X0.8783Y-2.9807
X0.8787Y-2.8449
X0.8799Y-2.7311
X0.8803Y-2.7874
X0.8815Y-2.9551
X0.887Y-2.6622
X0.889Y-2.574
X0.9024Y-2.5146
X0.9094Y-2.6209
X0.926Y-2.6402
X0.9465Y-2.6713
X0.9472Y-2.7311
X0.9472Y-2.7909
X0.9476Y-2.6083
X0.9504Y-2.9685
X0.9512Y-2.848
X0.9524Y-2.9051
X0.9547Y-3.835
X0.9756Y-3.0126
X1.0028Y-2.9051
X1.0039Y-2.6736
X1.0043Y-2.848
X1.0055Y-2.7217
X1.0185Y-2.6469
X1.0268Y-3.1594
X1.0311Y-2.7953
X1.0311Y-2.8449
X1.0327Y-2.628
X1.0354Y-2.9043
X1.0382Y-3.1429
X1.0394Y-3.1224
X1.0398Y-2.6689
X1.0409Y-3.1791
X1.0413Y-3.0429
X1.0441Y-3.0618
X1.0441Y-3.2012
X1.0445Y-3.002
X1.0449Y-3.0217
X1.065Y-4.0177
X1.0917Y-2.1449
X1.1146Y-2.0902
X1.1287Y-4.022
X1.1783Y-4.0386
X1.1882Y-2.2669
X1.1976Y-2.1953
X1.2091Y-4.0996
X1.2138Y-2.1299
X1.239Y-2.4051
X1.252Y-2.3276
X1.2795Y-4.0551
X1.2827Y-3.5185
X1.2913Y-2.3201
X1.2921Y-2.4067
X1.2972Y-3.4248
X1.31Y-2.5041
X1.3114Y-2.3181
X1.3126Y-2.4484
X1.3161Y-3.4402
X1.3193Y-2.628
X1.3193Y-3.0012
X1.3197Y-2.8177
X1.3201Y-3.1205
X1.3201Y-3.1988
X1.3205Y-2.8839
X1.3209Y-3.1004
X1.3213Y-3.1583
X1.3217Y-3.1776
X1.3224Y-3.1398
X1.3339Y-2.6461
X1.3343Y-2.437
X1.3362Y-2.7067
X1.3497Y-2.5357
X1.3543Y-2.6906
X1.3629Y-2.5489
X1.3744Y-4.0571
X1.3835Y-2.6748
X1.3858Y-2.7362
X1.3909Y-2.2937
X1.4102Y-3.3303
X1.4146Y-2.9898
X1.415Y-3.4398
X1.4193Y-2.8213
X1.4234Y-2.513
X1.4252Y-3.0283
X1.4295Y-3.1319
X1.4299Y-2.8713
X1.4335Y-3.6028
X1.435Y-2.9929
X1.4362Y-2.8476
X1.4362Y-3.2083
X1.4367Y-2.5263
X1.4378Y-3.0453
X1.4453Y-2.674
X1.4528Y-2.6264
X1.4602Y-2.7886
X1.4646Y-2.3594
X1.472Y-2.9551
X1.4768Y-2.4161
X1.4772Y-1.8268
X1.4831Y-2.935
X1.4846Y-3.0783
X1.4864Y-3.0089
X1.4933Y-2.9768
X1.4945Y-2.3299
X1.5087Y-2.6736
X1.513Y-2.7839
X1.515Y-2.6217
X1.5157Y-4.0748
X1.5169Y-2.9894
X1.5252Y-2.5996
X1.5335Y-3.052
X1.539Y-1.8543
X1.5587Y-3.0083
X1.5606Y-4.2028
X1.5661Y-2.9098
X1.5815Y-2.3268
X1.5925Y-2.852
X1.6047Y-2.3988
X1.6091Y-1.9594
X1.624Y-2.513
X1.624Y-4.0748
X1.6244Y-2.3839
X1.6535Y-2.4846
X1.6535Y-3.5236
X1.6571Y-2.652
X1.6693Y-3.1295
X1.6697Y-3.3815
X1.6713Y-3.1594
X1.6795Y-2.1173
X1.6961Y-2.9142
X1.6965Y-2.9776
X1.698Y-3.0071
X1.6984Y-2.8803
X1.6984Y-3.2217
X1.6988Y-3.3169
X1.6992Y-2.9425
X1.6992Y-3.0701
X1.7Y-3.2551
X1.7Y-3.2866
X1.7004Y-3.1949
X1.7012Y-3.3508
X1.7035Y-3.1291
X1.7043Y-3.0933
X1.7051Y-3.3811
X1.7126Y-3.5236
X1.7213Y-2.4165
X1.7244Y-2.1882
X1.7264Y-2.9449
X1.7272Y-2.9146
X1.7272Y-2.976
X1.7276Y-3.0087
X1.728Y-2.8823
X1.7287Y-2.3898
X1.7299Y-2.2634
X1.7303Y-3.0677
X1.7303Y-3.1953
X1.7307Y-3.2232
X1.7311Y-3.2555
X1.7315Y-3.348
X1.7316Y-3.1614
X1.7319Y-3.2858
X1.7323Y-2.0752
X1.7323Y-3.3185
X1.7343Y-3.9331
X1.7362Y-2.0551
X1.7366Y-3.3787
X1.7453Y-2.1252
X1.7591Y-2.9457
X1.7598Y-3.2232
X1.7606Y-3.0098
X1.7622Y-3.2508
X1.7654Y-3.2843
X1.7662Y-3.1564
X1.7669Y-2.3638
X1.7693Y-3.1937
X1.774Y-3.0283
X1.7756Y-4.2063
X1.7793Y-3.0871
X1.7793Y-3.1058
X1.7882Y-2.335
X1.7902Y-2.1323
X1.7913Y-3.0173
X1.7929Y-2.9437
X1.8051Y-2.2555
X1.811Y-2.1319
X1.8276Y-4.3248
X1.8311Y-2.2402
X1.8335Y-2.1925
X1.8343Y-2.7661
X1.8528Y-3.3701
X1.8539Y-4.1394
X1.8579Y-2.7831
X1.8606Y-3.348
X1.8701Y-3.5236
X1.8791Y-2.8402
X1.8815Y-3.3843
X1.8848Y-3.2843
X1.885Y-3.3173
X1.8862Y-3.0075
X1.8862Y-3.2551
X1.8866Y-2.8823
X1.887Y-2.9079
X1.887Y-3.035
X1.8874Y-3.1
X1.8878Y-3.2148
X1.8878Y-2.9402
X1.8894Y-2.9744
X1.8894Y-3.0673
X1.8898Y-2.7831
X1.8898Y-3.1921
X1.8909Y-3.1331
X1.8937Y-3.3469
X1.8984Y-2.1268
X1.8996Y-2.4803
X1.9071Y-2.2429
X1.9079Y-2.6559
X1.9114Y-3.8858
X1.9165Y-3.0689
X1.9169Y-3.3827
X1.9193Y-3.0996
X1.9193Y-3.1315
X1.9197Y-3.1925
X1.9197Y-3.3189
X1.9209Y-3.2516
X1.9232Y-2.1358
X1.9237Y-3.2849
X1.9264Y-3.2244
X1.9291Y-3.5236
X1.9299Y-2.7661
X1.935Y-2.0866
X1.948Y-3.2823
X1.9488Y-3.2508
X1.9496Y-3.1016
X1.9496Y-3.1846
X1.9496Y-3.2165
X1.9496Y-3.379
X1.9504Y-3.1315
X1.952Y-2.3709
X1.952Y-3.3488
X1.9535Y-2.9843
X1.9535Y-3.0417
X1.9545Y-2.5434
X1.9545Y-2.5622
X1.9547Y-3.0118
X1.9551Y-2.8858
X1.9571Y-2.9512
X1.9591Y-2.9205
X1.9693Y-3.3193
X1.9776Y-2.8272
X1.9799Y-2.8508
X1.9803Y-2.1398
X1.9803Y-2.2441
X1.9858Y-3.6323
X1.9878Y-2.9354
X1.9882Y-3.5236
X2.0075Y-2.865
X2.0138Y-3.7362
X2.0226Y-3.0175
X2.0276Y-4.2299
X2.0366Y-3.0516
X2.0394Y-2.4638
X2.0472Y-3.5236
X2.052Y-3.6996
X2.0591Y-2.189
X2.0614Y-3.0673
X2.0705Y-2.4638
X2.0783Y-3.0984
X2.0791Y-2.5406
X2.0799Y-2.9858
X2.0807Y-2.1378
X2.0961Y-3.6303
X2.1024Y-2.5421
X2.1063Y-3.5236
X2.1071Y-2.9728
X2.1138Y-2.9425
X2.1209Y-3.0094
X2.1276Y-3.1602
X2.1323Y-3.8602
X2.1339Y-2.9409
X2.1382Y-2.7559
X2.1413Y-2.8252
X2.1449Y-3.8193
X2.1449Y-3.9603
X2.1535Y-2.1122
X2.1551Y-2.0551
X2.1582Y-3.9736
X2.1654Y-3.5236
X2.1657Y-3.6713
X2.172Y-3.0268
X2.176Y-2.5024
X2.185Y-3.0827
X2.187Y-2.2394
X2.187Y-2.7193
X2.189Y-3.8378
X2.1933Y-3.1657
X2.2Y-3.0539
X2.2047Y-3.5433
X2.2154Y-2.2492
X2.2339Y-3.509
X2.237Y-3.2957
X2.2527Y-3.509
X2.2531Y-1.6969
X2.2713Y-3.1575
X2.2791Y-3.2075
X2.2835Y-3.5433
X2.2839Y-2.248
X2.2847Y-3.2807
X2.2866Y-3.2988
X2.3146Y-2.7756
X2.3193Y-2.8201
X2.3217Y-2.9768
X2.3244Y-3.3087
X2.3256Y-2.8484
X2.3264Y-3.1843
X2.3264Y-3.3791
X2.3264Y-3.4236
X2.3268Y-3.2248
X2.3272Y-3.4614
X2.3287Y-3.3433
X2.3295Y-2.5476
X2.3311Y-3.2602
X2.3339Y-3.9496
X2.3492Y-4.0402
X2.3594Y-3.385
X2.3606Y-3.3417
X2.3622Y-3.0728
X2.3622Y-3.4646
X2.363Y-2.8882
X2.3634Y-3.4276
X2.3638Y-3.3071
X2.3646Y-3.4965
X2.3654Y-3.2264
X2.3661Y-2.6811
X2.3661Y-3.1902
X2.3665Y-3.2634
X2.3685Y-2.2039
X2.3685Y-2.2227
X2.3724Y-4.3091
X2.3917Y-4.3094
X2.3972Y-2.4626
X2.3996Y-3.0295
X2.4Y-3.3457
X2.4012Y-2.5185
X2.4016Y-2.7559
X2.402Y-2.4189
X2.402Y-2.9929
X2.4043Y-3.2256
X2.4047Y-2.9571
X2.4055Y-2.6811
X2.4055Y-2.7205
X2.4055Y-2.7992
X2.4055Y-3.4232
X2.4059Y-3.2642
X2.4067Y-2.9228
X2.4075Y-3.1528
X2.4102Y-4.3067
X2.4154Y-3.9209
X2.4193Y-1.715
X2.4351Y-2.572
X2.437Y-2.837
X2.437Y-3.5465
X2.439Y-4.3299
X2.4394Y-3.1063
X2.4394Y-3.3803
X2.4398Y-3.3441
X2.4409Y-3.0335
X2.4429Y-2.9189
X2.4465Y-2.9579
X2.4469Y-3.2232
X2.4476Y-4.0276
X2.4484Y-2.5587
X2.4484Y-3.1815
X2.4496Y-3.9657
X2.4504Y-3.1496
X2.4606Y-2.835
X2.461Y-2.7575
X2.4622Y-2.4157
X2.465Y-2.4634
X2.4705Y-4.3323
X2.476Y-2.5535
X2.4799Y-3.2665
X2.4803Y-3.0728
X2.4803Y-3.1142
X2.4803Y-3.2256
X2.4807Y-2.9567
X2.4819Y-2.9925
X2.4823Y-3.1488
X2.4827Y-3.4626
X2.4835Y-3.0343
X2.4843Y-2.8386
X2.4843Y-2.878
X2.4843Y-2.9173
X2.485Y-3.187
X2.485Y-3.9209
X2.4862Y-4.3492
X2.4906Y-4.3106
X2.5004Y-2.678
X2.5048Y-4.3367
X2.5063Y-2.2732
X2.513Y-2.0815
X2.5142Y-2.7492
X2.5181Y-4.3499
X2.5193Y-1.6717
X2.5201Y-2.1776
X2.5205Y-2.5177
X2.5217Y-2.1378
X2.522Y-2.9547
X2.522Y-3.1516
X2.5236Y-2.9173
X2.524Y-2.1026
X2.5244Y-3.185
X2.526Y-3.2228
X2.5311Y-2.4681
X2.5323Y-2.4165
X2.5327Y-4.3744
X2.5373Y-2.1158
X2.5382Y-2.5583
X2.539Y-2.8327
X2.5392Y-4.0069
X2.5394Y-2.7579
X2.5394Y-3.9587
X2.5402Y-4.0283
X2.5433Y-2.5988
X2.5473Y-4.3547
X2.5512Y-2.9528
X2.5516Y-3.1496
X2.5551Y-2.5492
X2.5555Y-2.9917
X2.5555Y-3.2268
X2.5559Y-3.1094
X2.5579Y-3.3413
X2.5583Y-3.2717
X2.5591Y-2.8819
X2.5591Y-2.9331
X2.5594Y-3.385
X2.5598Y-3.0307
X2.561Y-2.8374
X2.5614Y-3.502
X2.5626Y-3.1815
X2.563Y-2.6795
X2.5638Y-2.4689
X2.5642Y-2.7543
X2.565Y-3.5807
X2.5657Y-2.0185
X2.5661Y-4.3547
X2.5787Y-3.9685
X2.5795Y-3.9913
X2.5799Y-4.3736
X2.5839Y-2.1846
X2.5846Y-2.6319
X2.5933Y-2.7961
X2.5937Y-2.7567
X2.5941Y-3.3075
X2.5945Y-4.3567
X2.5965Y-2.9543
X2.5965Y-3.2697
X2.5972Y-2.9945
X2.5984Y-2.9134
X2.5988Y-3.4252
X2.5992Y-2.8374
X2.5992Y-3.3854
X2.5992Y-3.8035
X2.6004Y-3.0307
X2.6012Y-3.113
X2.6016Y-3.3413
X2.6059Y-2.1256
X2.6063Y-2.8768
X2.6083Y-2.6319
X2.6133Y-4.3567
X2.6138Y-2.4362
X2.6181Y-2.7575
X2.6276Y-4.3268
X2.6299Y-2.4177
X2.6299Y-2.913
X2.6307Y-2.4488
X2.6331Y-3.9988
X2.6335Y-2.6339
X2.635Y-4.3555
X2.6362Y-3.2248
X2.6366Y-3.1815
X2.637Y-4.0268
X2.6378Y-2.9331
X2.639Y-2.8701
X2.639Y-3.2673
X2.6394Y-2.8335
X2.6398Y-2.9567
X2.6402Y-3.3106
X2.6402Y-3.3449
X2.6406Y-3.5366
X2.6417Y-3.1122
X2.6425Y-3.0319
X2.6431Y-2.6714
X2.6449Y-2.9929
X2.648Y-2.1898
X2.6484Y-3.9083
X2.65Y-3.9768
X2.6603Y-4.361
X2.6654Y-1.5835
X2.6673Y-4.4587
X2.6724Y-2.9913
X2.6732Y-2.7992
X2.6732Y-2.9539
X2.6736Y-4.3477
X2.674Y-2.3697
X2.6748Y-3.0315
X2.6752Y-2.7362
X2.6752Y-2.7579
X2.6756Y-3.9496
X2.6772Y-2.9291
X2.6776Y-3.1484
X2.6787Y-3.3268
X2.6787Y-3.3484
X2.6795Y-3.3862
X2.6807Y-3.2252
X2.6815Y-2.8736
X2.6823Y-2.8386
X2.6823Y-3.2661
X2.685Y-3.3039
X2.6854Y-4.0339
X2.6866Y-2.1894
X2.6866Y-4.3134
X2.6902Y-3.6016
X2.6921Y-2.4685
X2.6965Y-2.5461
X2.6969Y-4.3602
X2.6969Y-4.4193
X2.7028Y-2.4335
X2.7055Y-2.6394
X2.7098Y-4.3193
X2.7114Y-3.1484
X2.7122Y-3.1878
X2.7142Y-3.4846
X2.7146Y-2.8323
X2.7157Y-3.0307
X2.7157Y-3.2252
X2.7161Y-3.452
X2.7165Y-3.1122
X2.7169Y-2.9236
X2.7173Y-2.7894
X2.7173Y-2.9882
X2.7177Y-3.2685
X2.7189Y-2.8543
X2.7213Y-2.4122
X2.7264Y-4.4587
X2.7272Y-4.035
X2.7276Y-2.5472
X2.7291Y-3.3496
X2.7295Y-3.5055
X2.7339Y-2.4685
X2.7343Y-4.3138
X2.7358Y-3.7102
X2.7465Y-3.3075
X2.748Y-2.7598
X2.748Y-4.0374
X2.7508Y-3.3882
X2.7512Y-3.5
X2.7516Y-2.8756
X2.752Y-2.628
X2.752Y-2.6795
X2.7531Y-3.4622
X2.7539Y-2.7953
X2.7539Y-3.5394
X2.7547Y-3.3457
X2.7551Y-3.1858
X2.7555Y-3.2681
X2.7559Y-2.7185
X2.7567Y-2.9551
X2.7567Y-3.0327
X2.7575Y-3.1067
X2.7579Y-2.8543
X2.7657Y-4.4193
X2.7736Y-2.628
X2.7736Y-3.972
X2.7752Y-2.8327
X2.7823Y-3.9102
X2.7839Y-2.4539
X2.7882Y-2.6398
X2.7902Y-3.1898
X2.7902Y-3.3878
X2.7906Y-2.7193
X2.7906Y-3.8398
X2.7909Y-3.1197
X2.7913Y-2.6815
X2.7917Y-2.5047
X2.7917Y-2.7591
X2.7917Y-3.5008
X2.7921Y-3.4618
X2.7925Y-2.476
X2.7925Y-3.4256
X2.7929Y-3.5469
X2.7933Y-2.8728
X2.7937Y-2.5354
X2.7941Y-2.9157
X2.7941Y-3.2657
X2.7945Y-2.9547
X2.7945Y-2.9933
X2.7945Y-3.2264
X2.7949Y-3.3047
X2.7961Y-2.8354
X2.7963Y-2.737
X2.7965Y-3.063
X2.7965Y-3.7114
X2.8004Y-3.7657
X2.8039Y-2.4539
X2.8106Y-3.6634
X2.8224Y-2.5587
X2.8248Y-2.4449
X2.8256Y-3.9055
X2.828Y-2.7567
X2.8287Y-2.9571
X2.8291Y-3.2618
X2.8295Y-3.4705
X2.8307Y-3.0319
X2.8307Y-3.1547
X2.8327Y-3.3067
X2.8331Y-3.5476
X2.8339Y-2.9138
X2.8339Y-3.5039
X2.8339Y-3.9713
X2.8343Y-2.835
X2.8343Y-3.4287
X2.8346Y-2.7953
X2.835Y-2.9949
X2.8354Y-3.3453
X2.8358Y-3.1083
X2.8366Y-3.385
X2.8366Y-3.9264
X2.8402Y-2.872
X2.8417Y-4.3059
X2.8425Y-2.7165
X2.8445Y-3.6035
X2.8461Y-2.4469
X2.8579Y-2.5449
X2.8626Y-3.4248
X2.8665Y-3.189
X2.8669Y-2.7575
X2.8693Y-3.3425
X2.8693Y-3.3811
X2.8701Y-2.8764
X2.8713Y-2.9161
X2.8717Y-2.7965
X2.872Y-3.2693
X2.8724Y-3.0323
X2.8724Y-3.1559
X2.8724Y-3.6173
X2.8728Y-3.3047
X2.8732Y-3.1346
X2.874Y-2.7165
X2.874Y-3.0728
X2.8744Y-2.5575
X2.8752Y-3.1091
X2.876Y-3.5496
X2.8776Y-2.9961
X2.8839Y-4.1535
X2.8839Y-4.2028
X2.8839Y-4.5276
X2.8866Y-3.6031
X2.887Y-4.1831
X2.8874Y-2.4461
X2.889Y-3.6508
X2.8992Y-2.4685
X2.9012Y-2.9134
X2.9037Y-3.1093
X2.9047Y-3.2685
X2.9067Y-2.798
X2.9079Y-3.3161
X2.9083Y-2.7583
X2.9085Y-3.3499
X2.9087Y-3.1933
X2.9091Y-2.8394
X2.911Y-3.4638
X2.9122Y-2.1398
X2.9122Y-2.4461
X2.913Y-3.0323
X2.9134Y-2.8736
X2.9134Y-3.3862
X2.914Y-2.9951
X2.9157Y-2.715
X2.9157Y-2.9492
X2.9181Y-3.0732
X2.9213Y-2.5634
X2.9213Y-2.9138
X2.9256Y-4.1642
X2.928Y-3.8677
X2.928Y-3.9764
X2.9287Y-4.0366
X2.9303Y-4.0831
X2.9315Y-4.4413
X2.9331Y-2.4378
X2.9433Y-2.5634
X2.948Y-2.9126
X2.9484Y-2.8732
X2.9484Y-3.0728
X2.9488Y-2.7205
X2.9488Y-2.8386
X2.9492Y-2.9567
X2.9496Y-3.389
X2.9508Y-3.4634
X2.952Y-3.111
X2.952Y-3.1894
X2.9528Y-2.7953
X2.9528Y-3.7791
X2.9531Y-3.3114
X2.9535Y-2.7555
X2.9551Y-3.2283
X2.9567Y-3.0327
X2.9579Y-3.3417
X2.9598Y-2.9831
X2.9681Y-2.4681
X2.9709Y-2.8366
X2.9744Y-4.1087
X2.9764Y-3.2276
X2.9807Y-3.8146
X2.9878Y-3.263
X2.9882Y-2.5646
X2.9882Y-2.8776
X2.9882Y-2.952
X2.9886Y-3.0287
X2.9902Y-3.1878
X2.9902Y-3.4921
X2.9906Y-2.9138
X2.9906Y-3.4177
X2.9906Y-3.4358
X2.9921Y-4.3602
X2.9929Y-2.8378
X2.9929Y-3.1098
X2.9929Y-3.3083
X2.9945Y-2.9902
X2.9957Y-2.7173
X2.9957Y-3.3488
X2.9965Y-2.7579
X2.9976Y-2.7933
X3.Y-4.2618
X3.0008Y-2.6303
X3.0047Y-2.4362
X3.0067Y-3.5984
X3.0094Y-3.8988
X3.013Y-2.5681
X3.0134Y-3.9563
X3.0134Y-4.0283
X3.0252Y-3.2622
X3.0276Y-2.837
X3.0285Y-3.1474
X3.0287Y-3.1079
X3.0287Y-3.2988
X3.0291Y-3.1835
X3.0295Y-3.2264
X3.0295Y-3.4331
X3.0303Y-2.7209
X3.0303Y-3.3937
X3.0307Y-3.0709
X3.0307Y-3.4138
X3.0311Y-2.7957
X3.0311Y-3.3449
X3.0323Y-2.7598
X3.0354Y-2.9882
X3.0354Y-3.0358
X3.0453Y-3.6764
X3.0453Y-3.6969
X3.0472Y-2.5504
X3.0512Y-4.5276
X3.0551Y-4.3169
X3.0591Y-2.1063
X3.0618Y-4.2094
X3.063Y-2.4449
X3.0657Y-2.8441
X3.0677Y-3.1827
X3.0681Y-2.8752
X3.0681Y-2.9906
X3.0685Y-3.0118
X3.0693Y-2.7157
X3.0699Y-3.2722
X3.0701Y-2.9134
X3.0701Y-3.3437
X3.0701Y-3.5445
X3.0705Y-2.1319
X3.0705Y-3.1094
X3.0709Y-2.7575
X3.0709Y-3.224
X3.0713Y-3.3815
X3.0713Y-3.4752
X3.0713Y-3.5028
X3.0748Y-2.9516
X3.0748Y-3.4232
X3.0752Y-2.6752
X3.0752Y-3.1476
X3.0835Y-4.152
X3.0858Y-3.5642
X3.0866Y-3.6791
X3.087Y-3.5839
X3.0874Y-2.4461
X3.0902Y-4.028
X3.0939Y-2.1744
X3.0945Y-4.3563
X3.098Y-2.552
X3.0988Y-2.7165
X3.1004Y-2.128
X3.102Y-3.1445
X3.1028Y-3.1815
X3.1051Y-3.6528
X3.1055Y-3.8173
X3.1063Y-2.7638
X3.1063Y-2.7992
X3.1072Y-2.1611
X3.1075Y-3.378
X3.1079Y-2.876
X3.1079Y-2.9504
X3.1079Y-3.0319
X3.1079Y-4.2583
X3.1087Y-3.8386
X3.1091Y-3.35
X3.1094Y-2.2776
X3.1094Y-2.8346
X3.1094Y-3.4626
X3.1098Y-2.439
X3.1098Y-3.0748
X3.1102Y-3.3031
X3.1104Y-2.9998
X3.1118Y-3.1098
X3.1118Y-3.3319
X3.1146Y-1.5315
X3.1161Y-4.163
X3.1197Y-2.9122
X3.1201Y-3.5976
X3.1205Y-3.6429
X3.1291Y-4.1823
X3.135Y-3.3823
X3.1398Y-4.5079
X3.1447Y-4.4065
X3.1465Y-3.6295
X3.1469Y-2.7984
X3.1469Y-2.8728
X3.148Y-3.6504
X3.1484Y-3.9697
X3.1488Y-2.8346
X3.1492Y-2.952
X3.1492Y-2.9894
X3.1496Y-2.7555
X3.15Y-3.3008
X3.1504Y-3.1823
X3.152Y-2.7193
X3.1528Y-3.0307
X3.1575Y-2.1063
X3.1583Y-2.6768
X3.1618Y-2.5594
X3.1657Y-2.2594
X3.1701Y-2.9512
X3.1701Y-4.5382
X3.1709Y-1.474
X3.1713Y-3.6795
X3.1827Y-3.0768
X3.1827Y-3.7705
X3.185Y-2.5638
X3.185Y-3.1453
X3.189Y-3.878
X3.1902Y-3.3413
X3.1906Y-3.287
X3.1917Y-2.4437
X3.1921Y-2.6752
X3.1921Y-4.2567
X3.1933Y-2.2591
X3.1941Y-3.1929
X3.1953Y-2.8776
X3.1972Y-3.1748
X3.198Y-3.4854
X3.1984Y-3.1299
X3.1996Y-3.037
X3.2071Y-2.7795
X3.2083Y-3.4287
X3.2087Y-3.8287
X3.2126Y-3.1937
X3.213Y-2.5579
X3.2134Y-1.4315
X3.2201Y-2.8783
X3.2209Y-4.2776
X3.2232Y-3.3484
X3.224Y-3.4425
X3.2264Y-2.1476
X3.2303Y-2.8484
X3.2346Y-2.4413
X3.2382Y-3.8976
X3.2402Y-4.4921
X3.2453Y-2.4618
X3.2504Y-3.3461
X3.2563Y-1.3886
X3.2575Y-2.2146
X3.2575Y-2.2594
X3.2598Y-1.5555
X3.2598Y-3.7677
X3.2606Y-2.4429
X3.2665Y-3.7268
X3.2677Y-3.8484
X3.2701Y-3.9012
X3.2713Y-2.5531
X3.2756Y-3.8256
X3.2768Y-2.4354
X3.2776Y-4.5571
X3.2874Y-2.1457
X3.2894Y-4.3386
X3.298Y-1.5898
X3.3008Y-3.6319
X3.3075Y-2.8846
X3.3169Y-3.6449
X3.3181Y-1.4972
X3.3181Y-2.2913
X3.3189Y-4.4941
X3.3256Y-3.6622
X3.3378Y-3.6783
X3.3406Y-2.5543
X3.3419Y-2.6567
X3.3484Y-3.002
X3.3488Y-2.8539
X3.3492Y-2.2488
X3.3535Y-1.6646
X3.3547Y-2.8312
X3.3551Y-2.6699
X3.3563Y-2.9248
X3.3571Y-2.9063
X3.3587Y-2.489
X3.3587Y-2.7909
X3.3602Y-2.1575
X3.3618Y-1.4535
X3.363Y-3.6417
X3.3638Y-2.2724
X3.3661Y-2.8642
X3.368Y-2.818
X3.3681Y-2.7177
X3.3685Y-2.7669
X3.3693Y-2.5906
X3.376Y-3.7402
X3.3909Y-3.0169
X3.3957Y-3.7697
X3.4005Y-2.1319
X3.4039Y-3.6378
X3.4043Y-2.4744
X3.4047Y-3.5969
X3.4055Y-3.8681
X3.4067Y-3.4256
X3.4087Y-3.6177
X3.411Y-1.387
X3.4154Y-2.2343
X3.4181Y-2.4882
X3.4192Y-2.1319
X3.4213Y-3.4539
X3.4256Y-2.7846
X3.4303Y-2.0941
X3.4311Y-3.4311
X3.4311Y-4.2756
X3.4311Y-4.3346
X3.435Y-2.5016
X3.4354Y-1.665
X3.4354Y-3.0728
X3.437Y-2.2327
X3.4409Y-3.3496
X3.4429Y-2.1138
X3.4473Y-3.2919
X3.4484Y-2.2488
X3.4484Y-2.8949
X3.4488Y-2.1555
X3.4528Y-3.8504
X3.4531Y-3.4823
X3.4579Y-2.2673
X3.4587Y-2.1756
X3.4606Y-4.252
X3.4689Y-3.8815
X3.4701Y-2.7732
X3.4807Y-2.1768
X3.4843Y-2.7201
X3.487Y-2.2858
X3.4886Y-2.5413
X3.4898Y-2.2657
X3.4902Y-3.3
X3.4902Y-4.3602
X3.4906Y-3.5039
X3.4909Y-2.4776
X3.4953Y-2.1591
X3.4961Y-2.248
X3.5079Y-1.9862
X3.5079Y-2.2303
X3.5098Y-2.0591
X3.5098Y-2.1831
X3.5098Y-2.8657
X3.5126Y-2.7453
X3.5157Y-4.252
X3.5236Y-4.063
X3.5236Y-4.1181
X3.5236Y-4.1732
X3.5374Y-4.3602
X3.5394Y-1.9508
X3.5504Y-2.2969
X3.561Y-4.252
X3.563Y-2.2146
X3.5709Y-4.1713
X3.5768Y-4.065
X3.5787Y-3.2362
X3.5846Y-1.9035
X3.5878Y-2.5555
X3.6024Y-4.3524
X3.615Y-3.8012
X3.6169Y-3.9638
X3.6386Y-4.2783
X3.6461Y-3.8764
X3.6496Y-4.4941
X3.6535Y-3.7791
X3.6575Y-3.3465
X3.661Y-3.9626
X3.6614Y-2.2835
X3.6614Y-2.4421
X3.676Y-3.1815
X3.6811Y-2.5197
X3.685Y-1.478
X3.6874Y-2.4949
X3.6886Y-3.0787
X3.689Y-2.6189
X3.6969Y-3.9618
X3.6992Y-4.276
X3.7028Y-2.2165
X3.7031Y-2.2524
X3.7047Y-4.5531
X3.7106Y-2.4114
X3.7205Y-2.2835
X3.7205Y-2.5197
X3.7272Y-3.8248
X3.7311Y-3.7634
X3.7323Y-3.9626
X3.7327Y-3.8016
X3.739Y-3.3516
X3.7472Y-3.4177
X3.75Y-2.3819
X3.7563Y-1.2441
X3.7583Y-3.5618
X3.7598Y-2.5591
X3.7598Y-2.6181
X3.7598Y-2.6772
X3.7598Y-2.7362
X3.7598Y-2.7953
X3.7598Y-2.8543
X3.7598Y-2.9134
X3.7598Y-3.3504
X3.7626Y-3.5075
X3.7661Y-3.1803
X3.7697Y-2.4705
X3.7764Y-3.8902
X3.7795Y-2.2835
X3.7795Y-2.9331
X3.7854Y-3.0472
X3.7874Y-3.626
X3.7894Y-2.4213
X3.7933Y-2.1398
X3.7933Y-4.3406
X3.7941Y-3.8654
X3.7953Y-2.3661
X3.7953Y-3.0906
X3.8024Y-3.4512
X3.8071Y-3.6535
X3.8071Y-4.0118
X3.8095Y-2.937
X3.8236Y-3.7728
X3.8268Y-3.6772
X3.8283Y-2.937
X3.8287Y-2.4606
X3.8386Y-2.5394
X3.8386Y-2.6969
X3.8386Y-2.7441
X3.8386Y-2.7953
X3.8386Y-2.8425
X3.8449Y-3.7287
X3.8465Y-2.4173
X3.8476Y-3.4776
X3.8484Y-2.6378
X3.8484Y-2.9665
X3.8504Y-3.7008
X3.8531Y-3.1917
X3.8531Y-3.2424
X3.8531Y-3.2931
X3.8531Y-3.3438
X3.8543Y-2.9134
X3.8543Y-2.9449
X3.8543Y-3.6181
X3.8567Y-3.0472
X3.8569Y-3.8732
X3.8569Y-3.892
X3.8571Y-4.2764
X3.8583Y-2.3425
X3.8583Y-2.5787
X3.8591Y-3.0898
X3.8591Y-3.5094
X3.863Y-3.4366
X3.8661Y-4.0177
X3.8764Y-2.937
X3.878Y-3.6102
X3.8819Y-2.1339
X3.8858Y-3.7657
X3.8866Y-3.813
X3.8952Y-2.937
X3.8976Y-2.3819
X3.8976Y-2.5295
X3.9031Y-3.8272
X3.9031Y-3.8492
X3.9038Y-3.1917
X3.9038Y-3.2424
X3.9038Y-3.2931
X3.9038Y-3.3438
X3.9094Y-1.4764
X3.9114Y-3.0476
X3.9157Y-1.3008
X3.9173Y-2.5689
X3.9173Y-2.8976
X3.9173Y-2.9409
X3.9181Y-1.3228
X3.9193Y-3.0902
X3.9197Y-2.9665
X3.9197Y-3.4335
X3.9213Y-3.9567
X3.9213Y-4.5559
X3.9252Y-2.6378
X3.9268Y-3.4839
X3.9291Y-4.4173
X3.937Y-2.3425
X3.937Y-2.4213
X3.9394Y-2.935
X3.9413Y-3.5043
X3.9488Y-3.6181
X3.9488Y-3.7835
X3.9488Y-3.8276
X3.9545Y-3.1917
X3.9545Y-3.2424
X3.9545Y-3.2931
X3.9545Y-3.3438
X3.9575Y-4.276
X3.9582Y-2.935
X3.9606Y-3.7283
X3.9724Y-2.5472
X3.9724Y-2.5866
X3.9724Y-4.3425
X3.974Y-2.9665
X3.9764Y-2.4606
X3.9764Y-4.0177
X3.9764Y-4.4173
X3.9803Y-2.6654
X3.9803Y-2.6969
X3.9803Y-2.7756
X3.9803Y-2.8071
X3.9803Y-2.8976
X3.9803Y-2.9291
X3.9803Y-3.0906
X3.9823Y-3.0469
X3.9878Y-3.4449
X3.9921Y-3.7441
X4.0005Y-2.937
X4.0052Y-3.1917
X4.0052Y-3.3438
X4.0055Y-4.276
X4.0059Y-3.8528
X4.0087Y-3.8346
X4.0157Y-2.3425
X4.0157Y-2.4213
X4.0157Y-2.5
X4.0157Y-4.4173
X4.0192Y-2.937
X4.0197Y-3.6181
X4.0276Y-3.7441
X4.0295Y-3.9547
X4.0303Y-3.4929
X4.0354Y-2.5197
X4.0354Y-2.5591
X4.0394Y-3.0157
X4.0394Y-3.0433
X4.0394Y-3.0906
X4.0453Y-2.9669
X4.0472Y-2.9331
X4.0508Y-3.4228
X4.0524Y-1.9228
X4.0528Y-1.8945
X4.0551Y-2.6378
X4.0551Y-2.6772
X4.0551Y-2.7362
X4.0551Y-2.8346
X4.0551Y-2.8937
X4.063Y-3.7441
X4.0654Y-3.0866
X4.0669Y-3.6181
X4.0669Y-3.6614
X4.0748Y-2.9134
X4.0748Y-3.0413
X4.0787Y-2.9803
X4.0787Y-4.4331
X4.0846Y-1.489
X4.0874Y-4.6311
X4.0878Y-3.4543
X4.0898Y-3.7972
X4.0913Y-3.2283
X4.0945Y-3.178
X4.098Y-1.4669
X4.0984Y-3.7441
X4.0996Y-3.3866
X4.1024Y-3.9547
X4.1043Y-3.8287
X4.1106Y-1.9248
X4.1142Y-2.6969
X4.1181Y-4.3465
X4.1201Y-3.2276
X4.1201Y-3.4118
X4.126Y-4.4331
X4.1319Y-3.1827
X4.1339Y-3.002
X4.1339Y-3.7441
X4.1339Y-4.2835
X4.1339Y-4.3268
X4.1343Y-2.5268
X4.135Y-2.5827
X4.1354Y-3.502
X4.137Y-3.0472
X4.1402Y-3.3705
X4.1417Y-3.6181
X4.1417Y-3.9547
X4.1417Y-4.0197
X4.1469Y-3.4567
X4.1476Y-3.0657
X4.148Y-3.228
X4.1535Y-2.7264
X4.1535Y-2.7756
X4.1535Y-2.8346
X4.1535Y-2.9134
X4.1673Y-1.3445
X4.1693Y-3.7441
X4.1705Y-3.0657
X4.1732Y-3.0913
X4.1791Y-4.0197
X4.1854Y-2.7587
X4.1886Y-1.2827
X4.1929Y-3.9547
X4.2087Y-3.7441
X4.211Y-2.7874
X4.2122Y-3.0906
X4.2142Y-2.6807
X4.2193Y-2.6031
X4.2213Y-4.4929
X4.222Y-3.4559
X4.2244Y-3.5945
X4.2264Y-3.8079
X4.2283Y-4.0197
X4.2299Y-2.8531
X4.2323Y-3.0752
X4.2335Y-1.2524
X4.2335Y-2.5835
X4.2346Y-2.5264
X4.2409Y-2.9465
X4.2417Y-2.9126
X4.2417Y-3.4583
X4.2421Y-3.1354
X4.2421Y-3.4795
X4.2441Y-3.5709
X4.248Y-4.3287
X4.2506Y-1.2864
X4.2508Y-3.8382
X4.252Y-3.7441
X4.2547Y-2.7244
X4.2591Y-3.1469
X4.2594Y-4.2681
X4.2606Y-4.1602
X4.2642Y-1.4634
X4.2673Y-3.1654
X4.2697Y-1.2961
X4.2705Y-4.4429
X4.2732Y-4.4906
X4.2736Y-4.0197
X4.2843Y-4.2677
X4.2854Y-4.3287
X4.2913Y-3.7441
X4.2925Y-3.8213
X4.2996Y-4.115
X4.3039Y-3.0193
X4.3189Y-3.5984
X4.3268Y-2.9264
X4.328Y-3.8197
X4.3291Y-2.9051
X4.3299Y-3.1079
X4.3307Y-3.9547
X4.3465Y-2.6768
X4.3476Y-2.7004
X4.3488Y-2.748
X4.3488Y-2.778
X4.3508Y-3.2276
X4.3543Y-3.6614
X4.3543Y-3.7441
X4.3543Y-3.7913
X4.3571Y-1.3413
X4.3583Y-3.5575
X4.3642Y-4.0197
X4.3661Y-3.6102
X4.3673Y-1.3701
X4.3681Y-4.5472
X4.3701Y-1.7323
X4.3701Y-1.7717
X4.3701Y-1.811
X4.3701Y-1.8504
X4.3701Y-1.8898
X4.3701Y-1.9291
X4.3701Y-1.9685
X4.3701Y-2.0079
X4.3701Y-2.0472
X4.3701Y-2.1457
X4.3701Y-2.185
X4.3701Y-2.2244
X4.3701Y-2.2638
X4.3701Y-2.3031
X4.3701Y-2.3228
X4.3701Y-4.1535
X4.378Y-4.3465
X4.3819Y-4.1142
X4.3858Y-4.4173
X4.3874Y-1.4067
X4.3898Y-1.7126
X4.3898Y-3.8189
X4.398Y-3.1819
X4.3996Y-3.9567
X4.4055Y-3.6102
X4.4055Y-3.6614
X4.4094Y-3.8346
X4.4094Y-4.3465
X4.411Y-3.4272
X4.4193Y-3.1669
X4.4193Y-4.4902
X4.4213Y-3.3016
X4.4213Y-3.7441
X4.4252Y-4.0197
X4.4276Y-2.9079
X4.4291Y-1.7126
X4.4323Y-4.2098
X4.4394Y-3.7039
X4.4409Y-3.6102
X4.4409Y-4.2598
X4.4437Y-3.1886
X4.4469Y-3.4193
X4.4488Y-3.1398
X4.4488Y-3.7717
X4.4488Y-4.0256
X4.452Y-2.9839
X4.4555Y-2.0524
X4.4567Y-3.8031
X4.4606Y-3.6654
X4.461Y-2.8732
X4.4622Y-3.3272
X4.463Y-3.1244
X4.4646Y-3.1906
X4.4646Y-3.3701
X4.4654Y-4.1988
X4.4685Y-1.7126
X4.4685Y-3.0469
X4.4685Y-3.7323
X4.4693Y-2.9929
X4.4736Y-3.2366
X4.4783Y-4.2835
X4.4819Y-3.9114
X4.4843Y-3.6043
X4.4843Y-3.8268
X4.4862Y-1.9063
X4.4902Y-3.439
X4.4906Y-4.115
X4.4909Y-3.9575
X4.4917Y-3.0772
X4.4921Y-4.3327
X4.4925Y-3.0591
X4.4929Y-3.2354
X4.4937Y-3.1858
X4.4941Y-4.4193
X4.4945Y-2.9067
X4.4959Y-3.1608
X4.4961Y-2.7894
X4.4961Y-4.4724
X4.4965Y-3.3386
X4.498Y-3.9272
X4.498Y-4.5472
X4.4996Y-3.1315
X4.5Y-3.7638
X4.5079Y-1.7126
X4.5079Y-3.7047
X4.5126Y-2.0413
X4.5134Y-3.9413
X4.5157Y-3.8898
X4.5165Y-4.1484
X4.5181Y-3.0783
X4.5189Y-3.1579
X4.5189Y-3.2358
X4.5197Y-3.3398
X4.5197Y-4.4804
X4.5201Y-2.9803
X4.5209Y-3.1862
X4.5213Y-3.2898
X4.5217Y-3.1343
X4.5276Y-1.9354
X4.5276Y-2.1134
X4.5315Y-4.3583
X4.533Y-4.4936
X4.5362Y-3.4386
X4.5394Y-3.7402
X4.5398Y-2.0949
X4.5413Y-2.3224
X4.5421Y-2.2858
X4.5429Y-3.1362
X4.5433Y-2.2445
X4.5433Y-3.8031
X4.5449Y-3.1626
X4.5465Y-3.2382
X4.5465Y-3.2886
X4.5469Y-3.2118
X4.5472Y-1.7126
X4.548Y-3.0354
X4.5531Y-3.0713
X4.5547Y-4.1146
X4.5594Y-2.0736
X4.5598Y-3.4362
X4.561Y-4.4941
X4.5614Y-2.0949
X4.5618Y-3.4181
X4.5669Y-3.9469
X4.5681Y-3.1622
X4.5705Y-3.239
X4.5709Y-2.878
X4.5713Y-3.2906
X4.5724Y-2.9807
X4.5724Y-3.0787
X4.5736Y-3.3126
X4.574Y-2.3957
X4.5752Y-3.2083
X4.5752Y-3.8051
X4.5756Y-2.0161
X4.576Y-3.402
X4.5795Y-3.7079
X4.5795Y-3.7669
X4.5815Y-3.6185
X4.5823Y-3.2256
X4.5827Y-4.3583
X4.5835Y-4.1559
X4.5866Y-1.7126
X4.5866Y-1.935
X4.587Y-2.1433
X4.5874Y-4.2008
X4.5898Y-1.8902
X4.5898Y-1.9661
X4.5909Y-1.9925
X4.5913Y-2.3402
X4.5945Y-2.6709
X4.5945Y-4.4193
X4.5965Y-3.3579
X4.5965Y-3.9469
X4.5976Y-2.2654
X4.598Y-3.1307
X4.5984Y-2.878
X4.5984Y-2.9055
X4.5996Y-3.2614
X4.6008Y-3.1701
X4.6051Y-3.4232
X4.6087Y-4.2287
X4.6102Y-4.4055
X4.6126Y-2.1378
X4.613Y-4.2724
X4.6161Y-3.3441
X4.6181Y-2.0787
X4.6181Y-2.7972
X4.6185Y-2.1717
X4.6201Y-1.8909
X4.6205Y-1.9508
X4.6209Y-2.2
X4.6209Y-3.2161
X4.6209Y-3.3118
X4.6213Y-2.2657
X4.622Y-2.9827
X4.6224Y-2.9559
X4.6236Y-1.9835
X4.624Y-1.9256
X4.624Y-3.0071
X4.626Y-1.7126
X4.6261Y-2.8535
X4.6264Y-3.1988
X4.6358Y-4.1161
X4.6398Y-2.0421
X4.6417Y-3.9213
X4.6437Y-3.6012
X4.6465Y-2.361
X4.6469Y-3.0823
X4.6469Y-3.2315
X4.6472Y-2.8528
X4.6472Y-2.9811
X4.6484Y-2.8815
X4.6484Y-3.0323
X4.6484Y-3.3134
X4.6488Y-2.9063
X4.6488Y-2.9303
X4.6488Y-3.0075
X4.6488Y-3.0567
X4.6506Y-3.1329
X4.6512Y-3.3677
X4.6516Y-2.1429
X4.652Y-2.9516
X4.6539Y-2.263
X4.6539Y-3.8043
X4.6543Y-3.9358
X4.6557Y-1.8919
X4.6563Y-1.9551
X4.6563Y-2.0504
X4.6571Y-4.4359
X4.6571Y-4.4547
X4.6579Y-3.1732
X4.6587Y-3.7228
X4.6594Y-2.2004
X4.6594Y-3.9169
X4.6614Y-3.8937
X4.6614Y-4.4803
X4.6654Y-1.7126
X4.6697Y-3.0583
X4.6709Y-3.2126
X4.6717Y-3.289
X4.6724Y-2.9567
X4.6724Y-3.1362
X4.6729Y-4.5453
X4.6736Y-2.8528
X4.6736Y-2.9323
X4.674Y-2.8787
X4.674Y-3.0311
X4.6744Y-2.9827
X4.6748Y-3.0063
X4.6748Y-3.0854
X4.6748Y-4.3256
X4.6768Y-2.078
X4.6769Y-2.1087
X4.678Y-2.0181
X4.6803Y-1.9902
X4.6811Y-4.4268
X4.6811Y-4.4685
X4.6819Y-3.352
X4.6843Y-1.9409
X4.6846Y-3.6217
X4.6898Y-3.5209
X4.6917Y-4.5453
X4.6925Y-3.2819
X4.6941Y-3.8047
X4.6972Y-3.035
X4.6984Y-2.9047
X4.6991Y-2.8266
X4.7008Y-3.7669
X4.7012Y-2.8551
X4.7012Y-2.8772
X4.7012Y-3.0055
X4.7028Y-3.1362
X4.7031Y-2.1386
X4.7035Y-3.9516
X4.7047Y-1.7126
X4.7165Y-3.185
X4.7181Y-3.5996
X4.7232Y-3.1098
X4.7236Y-3.0331
X4.7236Y-3.0835
X4.7236Y-2.8276
X4.724Y-3.0587
X4.7252Y-3.1358
X4.7256Y-2.9039
X4.726Y-2.8031
X4.7264Y-3.0071
X4.7276Y-3.165
X4.728Y-2.9311
X4.728Y-2.9835
X4.7291Y-2.8756
X4.7319Y-3.5201
X4.7322Y-2.2815
X4.7362Y-1.9831
X4.7382Y-2.7748
X4.7441Y-1.7126
X4.7472Y-3.2906
X4.7472Y-3.8043
X4.748Y-3.7205
X4.7488Y-2.1673
X4.7492Y-2.9598
X4.7496Y-3.0839
X4.75Y-2.8528
X4.75Y-2.8827
X4.7504Y-3.0343
X4.7504Y-3.0583
X4.7512Y-3.1366
X4.752Y-3.1606
X4.7524Y-3.1079
X4.7531Y-3.0114
X4.7543Y-2.8051
X4.7547Y-2.9028
X4.7563Y-3.9004
X4.7571Y-4.3539
X4.7591Y-2.9217
X4.761Y-3.2248
X4.761Y-3.274
X4.7669Y-2.0803
X4.7669Y-3.5201
X4.7673Y-3.3492
X4.7709Y-1.9559
X4.7748Y-3.9146
X4.7752Y-3.135
X4.7764Y-2.902
X4.7764Y-3.0331
X4.7772Y-2.1883
X4.7772Y-2.9567
X4.7772Y-3.1614
X4.7776Y-2.8547
X4.7783Y-2.2185
X4.7787Y-2.0496
X4.7799Y-2.1059
X4.7803Y-3.0063
X4.7807Y-3.2217
X4.7823Y-2.0193
X4.7835Y-1.7126
X4.7835Y-3.7205
X4.7843Y-1.8823
X4.7913Y-4.4268
X4.7941Y-2.3925
X4.7945Y-3.8047
X4.7984Y-2.011
X4.8012Y-2.9173
X4.802Y-3.1087
X4.802Y-3.1591
X4.8024Y-3.0331
X4.8024Y-3.0591
X4.8028Y-3.1354
X4.8031Y-2.8815
X4.8039Y-3.0858
X4.8059Y-3.5972
X4.8063Y-2.3019
X4.8075Y-2.3287
X4.8083Y-1.9189
X4.8091Y-2.1055
X4.8094Y-2.2654
X4.8098Y-3.2087
X4.8114Y-2.3622
X4.813Y-1.9567
X4.8138Y-2.0508
X4.8146Y-2.0189
X4.8209Y-4.4665
X4.8224Y-2.8559
X4.8228Y-1.7126
X4.8238Y-3.1132
X4.826Y-3.1933
X4.8264Y-3.0094
X4.8268Y-3.0327
X4.8268Y-3.7205
X4.8268Y-3.8425
X4.8272Y-3.1591
X4.8276Y-2.9563
X4.8283Y-2.9823
X4.8287Y-1.8657
X4.8339Y-2.7307
X4.8343Y-1.9854
X4.8343Y-2.8831
X4.8366Y-2.2697
X4.8374Y-4.028
X4.8378Y-1.9185
X4.8378Y-2.1504
X4.8382Y-2.0783
X4.8406Y-1.8083
X4.8406Y-2.2988
X4.8425Y-3.5138
X4.8433Y-2.2047
X4.8465Y-3.3193
X4.8484Y-2.9024
X4.8488Y-3.9161
X4.8512Y-2.8508
X4.8516Y-3.3386
X4.8526Y-2.7307
X4.8528Y-3.854
X4.8531Y-3.0091
X4.8547Y-3.0319
X4.8555Y-3.0815
X4.8567Y-2.4031
X4.8567Y-3.1118
X4.8598Y-3.061
X4.8614Y-4.363
X4.8622Y-1.8677
X4.8622Y-3.7165
X4.8642Y-2.3563
X4.8661Y-3.8673
X4.8661Y-2.1736
X4.8681Y-2.1055
X4.8697Y-2.9685
X4.8701Y-2.0559
X4.8717Y-1.9984
X4.872Y-2.2713
X4.872Y-3.2185
X4.8748Y-3.8047
X4.8756Y-4.0276
X4.878Y-2.3094
X4.878Y-2.8787
X4.878Y-3.1626
X4.8791Y-2.3291
X4.8811Y-1.9189
X4.8815Y-3.7386
X4.8815Y-3.7575
X4.885Y-1.9748
X4.8874Y-2.1528
X4.8878Y-2.0512
X4.8894Y-3.9173
X4.8949Y-4.3323
X4.902Y-2.8311
X4.9024Y-3.9043
X4.9032Y-2.8016
X4.9035Y-3.163
X4.9039Y-3.1319
X4.9051Y-2.8543
X4.9055Y-2.8807
X4.9075Y-2.9276
X4.911Y-2.9634
X4.9114Y-2.9858
X4.9114Y-4.0378
X4.9134Y-3.7205
X4.9138Y-3.8353
X4.9154Y-2.102
X4.9154Y-3.0335
X4.9185Y-3.1071
X4.9213Y-1.7126
X4.9228Y-3.0067
X4.9256Y-3.0496
X4.9256Y-3.6697
X4.9264Y-2.9295
X4.9268Y-2.8559
X4.9271Y-3.822
X4.9272Y-2.8996
X4.9283Y-2.8752
X4.9307Y-3.5713
X4.9311Y-4.0362
X4.9311Y-4.4449
X4.9346Y-3.7114
X4.9413Y-4.3406
X4.9445Y-3.8437
X4.9472Y-3.6626
X4.9524Y-2.926
X4.9551Y-2.9547
X4.9555Y-3.1083
X4.9561Y-3.2341
X4.9567Y-3.1862
X4.9594Y-4.4236
X4.9606Y-3.8268
X4.9618Y-2.0413
X4.9626Y-3.9579
X4.9634Y-3.6496
X4.9665Y-2.1457
X4.9681Y-3.8969
X4.9685Y-1.9862
X4.9705Y-4.028
X4.9732Y-3.6169
X4.9772Y-2.8571
X4.9772Y-2.9217
X4.9776Y-2.8776
X4.9777Y-2.7479
X4.9787Y-3.0374
X4.9799Y-2.0409
X4.9799Y-2.828
X4.9799Y-3.1075
X4.9807Y-2.9563
X4.9807Y-2.9807
X4.9815Y-3.0071
X4.9819Y-3.0598
X4.9823Y-3.7049
X4.9823Y-3.7236
X4.9886Y-3.5339
X4.9894Y-4.3161
X4.9898Y-4.3488
X4.9964Y-2.7479
X4.9969Y-3.2941
X4.9996Y-4.0272
X5.Y-3.8268
X5.0031Y-3.1531
X5.0039Y-2.8815
X5.0043Y-3.5441
X5.0059Y-2.8287
X5.0059Y-2.9831
X5.0059Y-3.0319
X5.0059Y-3.0839
X5.0075Y-2.9303
X5.0079Y-3.3386
X5.0106Y-2.8555
X5.0122Y-3.6413
X5.0209Y-2.1138
X5.0311Y-3.5457
X5.0315Y-2.9299
X5.0335Y-3.3374
X5.0339Y-2.8559
X5.0354Y-3.9134
X5.0374Y-3.8059
X5.0406Y-3.3083
X5.0406Y-4.4236
X5.0421Y-4.0268
X5.0433Y-3.8268
X5.0461Y-3.0051
X5.0504Y-3.6882
X5.0539Y-3.5508
X5.0548Y-4.3697
X5.0559Y-2.8815
X5.0583Y-2.2835
X5.0614Y-2.0701
X5.0616Y-4.0175
X5.0626Y-1.9681
X5.0642Y-3.0457
X5.0654Y-2.7839
X5.0661Y-2.9069
X5.0661Y-2.9256
X5.0681Y-4.383
X5.0713Y-3.378
X5.0748Y-3.8346
X5.0756Y-3.2016
X5.0756Y-4.3138
X5.0783Y-3.1783
X5.0787Y-1.7126
X5.0804Y-4.0175
X5.0827Y-1.8894
X5.0831Y-2.1268
X5.0831Y-3.2531
X5.0874Y-3.9583
X5.0882Y-3.1508
X5.0886Y-1.8114
X5.0886Y-3.2882
X5.0896Y-3.0439
X5.0949Y-3.4799
X5.0972Y-4.3118
X5.0988Y-4.0272
X5.1059Y-3.3335
X5.1079Y-1.7949
X5.1102Y-1.8657
X5.1126Y-2.2366
X5.1181Y-1.7126
X5.1315Y-1.9516
X5.1339Y-4.315
X5.1378Y-2.3189
X5.15Y-3.7114
X5.1547Y-3.7421
X5.1575Y-1.7126
X5.1614Y-3.9764
X5.1673Y-4.3839
X5.1689Y-3.9992
X5.172Y-3.3488
X5.174Y-2.0441
X5.187Y-4.1142
X5.1969Y-1.7126
X5.1988Y-2.0453
X5.2075Y-2.0157
X5.213Y-2.3602
X5.2138Y-4.1189
X5.2142Y-2.1882
X5.215Y-2.2516
X5.2165Y-3.7114
X5.2228Y-2.315
X5.2252Y-2.2858
X5.226Y-1.9583
X5.226Y-2.3465
X5.2268Y-1.9311
X5.2272Y-2.2205
X5.2272Y-3.1476
X5.2295Y-2.1213
X5.2307Y-2.1504
X5.2315Y-2.3858
X5.2362Y-1.7126
X5.2362Y-1.8811
X5.2559Y-2.0146
X5.2568Y-2.0819
X5.2602Y-2.3315
X5.2614Y-2.3004
X5.2618Y-2.2449
X5.2626Y-2.3874
X5.2634Y-1.9563
X5.2654Y-1.9224
X5.2736Y-4.313
X5.2748Y-1.8398
X5.2756Y-1.7126
X5.2776Y-2.7913
X5.2791Y-3.6689
X5.2846Y-3.6933
X5.2854Y-4.2752
X5.2862Y-4.2567
X5.2874Y-3.7118
X5.289Y-1.9839
X5.2909Y-2.0799
X5.2909Y-2.2992
X5.2917Y-1.9531
X5.2917Y-2.2035
X5.2921Y-1.9217
X5.2929Y-2.3634
X5.2945Y-2.0142
X5.3012Y-3.6713
X5.3059Y-1.8839
X5.3075Y-4.1819
X5.315Y-1.7126
X5.3165Y-2.078
X5.3189Y-1.987
X5.3197Y-2.3028
X5.3205Y-2.3303
X5.3217Y-3.6634
X5.322Y-2.0169
X5.322Y-2.1969
X5.3232Y-2.2669
X5.3366Y-2.1457
X5.3378Y-2.0823
X5.3394Y-3.7563
X5.3402Y-2.4744
X5.3425Y-4.1437
X5.3441Y-2.1146
X5.3543Y-1.7126
X5.3689Y-2.2173
X5.3689Y-3.9496
X5.374Y-3.0406
X5.3811Y-3.8236
X5.3831Y-2.2504
X5.385Y-3.7563
X5.3858Y-4.185
X5.389Y-3.8819
X5.3937Y-1.7126
X5.3942Y-2.2067
X5.4Y-2.087
X5.4071Y-2.1272
X5.4074Y-2.1935
X5.4083Y-3.6681
X5.4097Y-4.3236
X5.4138Y-2.057
X5.4154Y-1.9602
X5.4165Y-1.9228
X5.4193Y-2.2701
X5.4264Y-3.678
X5.4285Y-4.3236
X5.4331Y-2.6969
X5.437Y-4.4543
X5.4433Y-4.3457
X5.4453Y-4.3094
X5.4476Y-1.9217
X5.4476Y-1.9854
X5.4476Y-2.3327
X5.4484Y-2.9984
X5.4488Y-2.0736
X5.4492Y-1.9547
X5.4508Y-4.3681
X5.4512Y-2.1154
X5.4524Y-4.4547
X5.4528Y-1.7126
X5.4528Y-3.1331
X5.4543Y-3.1909
X5.4587Y-3.0539
X5.4626Y-3.6646
X5.4705Y-4.4567
X5.4748Y-2.0201
X5.4752Y-1.9854
X5.4752Y-2.3319
X5.4787Y-2.1717
X5.4795Y-2.0748
X5.4799Y-2.2673
X5.4803Y-2.1118
X5.4815Y-2.2382
X5.4823Y-3.6654
X5.4835Y-4.1717
X5.4882Y-3.9421
X5.4902Y-4.4567
X5.4921Y-1.7126
X5.4921Y-2.4213
X5.4997Y-4.1597
X5.5024Y-3.665
X5.5039Y-3.028
X5.5071Y-4.3626
X5.5079Y-2.2406
X5.5098Y-2.3654
X5.5098Y-4.4543
X5.5106Y-2.2134
X5.5108Y-4.1459
X5.5114Y-2.1811
X5.513Y-2.0453
X5.513Y-2.2669
X5.5134Y-2.0724
X5.5146Y-2.0102
X5.5169Y-2.335
X5.5173Y-4.2374
X5.5177Y-1.9776
X5.5181Y-1.9476
X5.5189Y-2.3059
X5.5193Y-1.9138
X5.5193Y-3.0941
X5.5217Y-3.511
X5.522Y-3.2776
X5.5224Y-2.1287
X5.5272Y-4.3154
X5.5276Y-3.7256
X5.5299Y-2.0949
X5.5303Y-4.4531
X5.5315Y-1.7126
X5.5319Y-3.9421
X5.5331Y-3.6677
X5.5335Y-2.1713
X5.5354Y-2.1453
X5.5366Y-3.9638
X5.5378Y-2.1118
X5.5394Y-4.3996
X5.5512Y-2.2441
X5.5512Y-2.2835
X5.5512Y-2.3228
X5.5512Y-2.3622
X5.5512Y-2.4016
X5.5551Y-4.1031
X5.5567Y-2.7051
X5.5575Y-3.9567
X5.5583Y-3.6638
X5.5587Y-3.2705
X5.5654Y-4.3091
X5.5661Y-2.6425
X5.5669Y-4.4528
X5.5709Y-1.7126
X5.5709Y-2.2047
X5.5791Y-3.6654
X5.5992Y-3.6665
X5.6043Y-3.8228
X5.6063Y-2.624
X5.6067Y-4.2346
X5.6094Y-4.4539
X5.6102Y-1.7126
X5.6102Y-1.9291
X5.6102Y-1.9685
X5.6102Y-2.0079
X5.6102Y-2.0472
X5.6102Y-2.0866
X5.6102Y-2.126
X5.6102Y-2.1654
X5.6201Y-3.6791
X5.628Y-4.4543
X5.6315Y-4.2358
X5.6472Y-4.4531
X5.6496Y-4.0906
X5.6508Y-3.7118
X5.6598Y-3.0272
X5.661Y-3.6917
X5.6654Y-4.1772
X5.6693Y-1.7126
X5.6756Y-2.4441
X5.6764Y-2.3622
X5.6764Y-2.3992
X5.678Y-4.4524
X5.6866Y-2.2476
X5.6902Y-3.2925
X5.6917Y-2.3067
X5.6921Y-4.3134
X5.7051Y-2.2079
X5.7087Y-1.7126
X5.7087Y-1.9291
X5.7103Y-4.3319
X5.7146Y-4.1575
X5.7177Y-1.9961
X5.7217Y-2.2795
X5.7287Y-3.6909
X5.7291Y-4.3319
X5.7327Y-1.9063
X5.7335Y-3.7898
X5.7339Y-3.8378
X5.7421Y-3.7394
X5.748Y-1.7126
X5.748Y-2.3622
X5.7484Y-2.0768
X5.7502Y-3.8608
X5.751Y-4.25
X5.752Y-4.3122
X5.7539Y-3.7705
X5.7547Y-1.911
X5.7657Y-1.822
X5.7657Y-2.2555
X5.7669Y-3.7484
X5.7776Y-4.2146
X5.7823Y-4.2776
X5.7862Y-2.1587
X5.7874Y-1.7126
X5.7874Y-2.3228
X5.7913Y-3.8858
X5.7976Y-1.9744
X5.8063Y-2.2559
X5.811Y-3.8772
X5.8134Y-2.8311
X5.8201Y-1.9559
X5.8268Y-1.7126
X5.8268Y-2.3228
X5.8339Y-2.2386
X5.8343Y-2.211
X5.8346Y-2.8327
X5.8406Y-4.0291
X5.8421Y-3.9638
X5.8445Y-3.8366
X5.8579Y-2.0366
X5.8661Y-1.7126
X5.8661Y-2.3228
X5.8713Y-4.0815
X5.874Y-1.8224
X5.876Y-3.8681
X5.8902Y-2.824
X5.8902Y-4.1157
X5.9039Y-1.963
X5.9055Y-1.7126
X5.9055Y-2.2835
X5.9091Y-4.1528
X5.9193Y-3.7705
X5.9252Y-2.185
X5.926Y-1.963
X5.9449Y-2.2047
X5.9449Y-2.2441
X5.9646Y-3.7205
X6.0606Y-3.0835
X6.0626Y-3.0472
X6.0736Y-2.8055
X6.0787Y-1.5756
X6.0894Y-3.5374
X6.1614Y-4.4122
X6.1909Y-1.5752
X6.1961Y-4.4402
X6.2232Y-2.9295
X6.2268Y-3.6303
X6.2378Y-3.5902
X6.2555Y-3.6091
X6.2634Y-3.5854
X6.2717Y-1.6024
X6.363Y-3.5374
X6.3701Y-3.5047
X6.4169Y-3.6882
X6.4319Y-4.0098
X6.4386Y-3.4402
X6.4386Y-4.1531
X6.4421Y-4.0331
X6.4429Y-3.7815
X6.4457Y-4.1224
X6.4622Y-3.5748
X6.4752Y-4.0906
X6.4795Y-3.839
X6.4795Y-3.8913
X6.4823Y-4.1386
X6.4839Y-3.4882
X6.5102Y-3.6118
X6.513Y-3.8378
X6.5165Y-4.0524
X6.5224Y-2.5331
X6.5323Y-3.5941
X6.5366Y-3.415
X6.5382Y-3.5311
X6.5402Y-2.6189
X6.5425Y-2.7559
X6.5449Y-3.8677
X6.5453Y-3.8886
X6.5453Y-3.9177
X6.5453Y-3.9626
X6.5465Y-4.0102
X6.5476Y-3.5516
X6.5488Y-3.4535
X6.5504Y-3.2866
X6.5598Y-2.8457
X6.5626Y-3.6437
X6.576Y-3.2906
X6.5902Y-3.6291
X6.6031Y-3.8882
X6.6063Y-3.8366
X6.6228Y-4.2043
X6.628Y-3.4354
X6.6461Y-3.4791
T2
X0.8984Y-2.0858
X0.9033Y-3.062
X0.9232Y-3.9772
X0.9465Y-3.7472
X0.9528Y-2.2795
X0.9528Y-2.3976
X0.9587Y-1.9114
X0.9646Y-4.1339
X0.9705Y-1.813
X1.0079Y-2.5551
X1.0358Y-3.3346
X1.0374Y-1.6969
X1.0402Y-3.0917
X1.0445Y-3.6693
X1.0512Y-1.8465
X1.0531Y-3.5925
X1.063Y-4.1614
X1.0748Y-3.3398
X1.0827Y-1.8465
X1.0827Y-3.5925
X1.0861Y-3.8716
X1.0861Y-3.9237
X1.1012Y-3.4268
X1.1142Y-4.122
X1.1181Y-1.8465
X1.1186Y-3.8716
X1.1186Y-3.9237
X1.1496Y-1.8465
X1.1559Y-3.4197
X1.1579Y-2.3921
X1.1583Y-3.6138
X1.1583Y-3.6961
X1.1823Y-3.3378
X1.1909Y-1.6988
X1.1929Y-4.2244
X1.1929Y-4.2598
X1.1929Y-4.2953
X1.1929Y-4.3307
X1.1941Y-3.8484
X1.1945Y-3.8878
X1.1969Y-1.8465
X1.2587Y-4.1122
X1.2642Y-3.5685
X1.2776Y-2.187
X1.2776Y-2.2382
X1.285Y-3.2249
X1.289Y-3.6587
X1.3287Y-2.187
X1.3287Y-2.2382
X1.3409Y-3.3669
X1.3465Y-1.7008
X1.3465Y-3.9921
X1.3543Y-3.5665
X1.3583Y-3.3957
X1.374Y-3.9488
X1.3823Y-2.0984
X1.3878Y-3.3957
X1.3898Y-2.5669
X1.4118Y-2.1854
X1.4118Y-3.6496
X1.4173Y-3.3957
X1.4228Y-2.2378
X1.4264Y-2.2098
X1.4331Y-2.0787
X1.4488Y-3.9646
X1.4685Y-3.7047
X1.4732Y-3.4201
X1.4803Y-3.7874
X1.4831Y-2.148
X1.4843Y-4.0118
X1.4894Y-2.2815
X1.4921Y-3.7323
X1.4961Y-3.8937
X1.5Y-3.8425
X1.5146Y-3.4941
X1.5571Y-1.9075
X1.5669Y-2.8701
X1.5673Y-2.9528
X1.5709Y-3.5709
X1.5728Y-4.2815
X1.5748Y-3.622
X1.5906Y-2.1378
X1.6043Y-4.0094
X1.613Y-3.3441
X1.6138Y-3.2362
X1.615Y-3.1339
X1.6169Y-3.3012
X1.6173Y-3.1929
X1.6181Y-1.7028
X1.6181Y-1.8425
X1.626Y-2.1378
X1.6339Y-1.9961
X1.6492Y-2.0283
X1.6575Y-2.7913
X1.6591Y-2.3358
X1.6665Y-4.0752
X1.672Y-2.0969
X1.685Y-3.7618
X1.685Y-3.7972
X1.6929Y-3.6417
X1.6937Y-2.015
X1.7008Y-2.7165
X1.7087Y-4.3425
X1.7087Y-4.4606
X1.7126Y-1.6102
X1.7126Y-1.6732
X1.7126Y-1.7205
X1.7126Y-1.7717
X1.7126Y-1.815
X1.7126Y-1.874
X1.7205Y-3.7618
X1.7205Y-3.7972
X1.7244Y-2.0984
X1.7323Y-2.752
X1.7362Y-2.6811
X1.7488Y-3.6685
X1.752Y-1.5906
X1.7543Y-2.2394
X1.7906Y-3.713
X1.7953Y-1.5906
X1.8031Y-2.0276
X1.8031Y-2.063
X1.8031Y-4.1339
X1.8386Y-2.0276
X1.8386Y-2.063
X1.8386Y-4.1689
X1.8661Y-3.7154
X1.8665Y-3.6224
X1.8717Y-2.1283
X1.8756Y-2.2445
X1.902Y-4.4205
X1.9035Y-4.3598
X1.911Y-3.663
X1.9134Y-2.0591
X1.9402Y-2.2465
X1.9744Y-3.9717
X1.9882Y-4.3177
X2.0197Y-2.2441
X2.0346Y-3.9724
X2.0472Y-2.1339
X2.0472Y-4.311
X2.0528Y-4.2146
X2.0764Y-4.3583
X2.0787Y-4.4201
X2.1591Y-4.2193
X2.1654Y-4.311
X2.2157Y-3.0839
X2.2201Y-1.9681
X2.2244Y-4.4488
X2.2276Y-2.5949
X2.2339Y-1.8028
X2.2394Y-2.6453
X2.2835Y-4.311
X2.2835Y-4.3701
X2.2906Y-2.022
X2.2937Y-1.9787
X2.3248Y-1.7362
X2.3327Y-2.2461
X2.3425Y-4.3701
X2.3709Y-3.7142
X2.3803Y-3.6
X2.398Y-1.7953
X2.4106Y-3.8154
X2.4114Y-3.7283
X2.4146Y-4.361
X2.4283Y-3.6071
X2.4484Y-2.6035
X2.4583Y-3.7106
X2.4819Y-2.7551
X2.5055Y-3.6866
X2.5067Y-3.6075
X2.5185Y-3.7264
X2.5205Y-3.5445
X2.5299Y-3.8173
X2.5469Y-3.7083
X2.5476Y-3.6283
X2.6268Y-3.6264
X2.6327Y-3.5795
X2.7165Y-3.5925
X2.7311Y-1.6067
X2.7547Y-2.0154
X2.8236Y-4.0028
X2.8303Y-2.1835
X2.8957Y-2.1201
X2.9311Y-2.1201
X3.0146Y-3.9937
X3.1339Y-2.0689
X3.1457Y-1.7067
X3.1476Y-1.8268
X3.1476Y-1.9764
X3.1681Y-4.1028
X3.2209Y-2.913
X3.248Y-1.7244
X3.2547Y-2.8512
X3.2665Y-4.065
X3.2815Y-3.0886
X3.2831Y-3.5307
X3.2835Y-3.4528
X3.3138Y-2.6929
X3.3165Y-3.0134
X3.3209Y-1.872
X3.3209Y-1.9803
X3.3209Y-2.0669
X3.3252Y-3.4811
X3.3343Y-2.915
X3.3528Y-2.7398
X3.3606Y-3.0894
X3.3606Y-3.5327
X3.3858Y-1.7264
X3.4154Y-1.8169
X3.4161Y-1.2209
X3.4488Y-2.7476
X3.4531Y-2.5575
X3.4827Y-2.5929
X3.4972Y-2.6937
X3.5Y-1.8268
X3.5449Y-4.0945
X3.5925Y-1.9685
X3.5925Y-2.0276
X3.5925Y-2.0866
X3.6024Y-2.6969
X3.6024Y-2.7756
X3.6024Y-4.4291
X3.6031Y-2.6205
X3.6165Y-1.8732
X3.6232Y-4.1287
X3.6614Y-4.4291
X3.6717Y-4.065
X3.6776Y-4.1079
X3.6791Y-1.811
X3.7008Y-1.9291
X3.7547Y-4.2583
X3.7795Y-1.8287
X3.7921Y-2.2067
X3.8425Y-4.4173
X3.8894Y-2.2976
X3.8898Y-4.4173
X3.937Y-1.6437
X3.937Y-2.1752
X3.9657Y-3.8484
X3.9992Y-4.5469
X4.1319Y-3.7984
X4.1339Y-2.6181
X4.1516Y-1.4161
X4.2035Y-4.1571
X4.235Y-1.4634
X4.2594Y-2.4453
X4.2697Y-3.8555
X4.311Y-3.3858
X4.3819Y-2.3567
X4.3831Y-2.424
X4.3831Y-2.4516
X4.3874Y-1.4929
X4.437Y-3.0972
X4.4496Y-3.5244
X4.4638Y-4.3492
X4.4673Y-2.5902
X4.4673Y-2.622
X4.4941Y-2.702
X4.5917Y-4.25
X4.6236Y-3.9535
X4.8882Y-4.5283
X4.889Y-4.4996
X4.8894Y-4.5559
X4.969Y-4.4795
X4.969Y-4.5283
X4.9995Y-4.4795
X4.9995Y-4.5283
X5.0492Y-4.3161
X5.1035Y-4.385
X5.1559Y-3.6783
X5.1839Y-2.8799
X5.1858Y-3.7543
X5.187Y-4.2421
X5.1929Y-3.0654
X5.25Y-4.2224
X5.2843Y-3.2744
X5.2917Y-3.3555
X5.2961Y-3.0685
X5.3047Y-3.1531
X5.322Y-1.8161
X5.3472Y-2.6083
X5.3579Y-3.352
X5.3642Y-4.3189
X5.3748Y-2.8913
X5.3886Y-4.3543
X5.4185Y-3.3512
X5.4189Y-1.7642
X5.4209Y-2.8039
X5.422Y-2.7465
X5.4559Y-2.9055
X5.4724Y-3.8583
X5.4744Y-3.3528
X5.4965Y-4.3941
X5.5067Y-2.4524
X5.5236Y-3.8583
X5.5315Y-1.7717
X5.5315Y-3.1638
X5.572Y-2.8335
X5.5823Y-3.4228
X5.5843Y-3.1594
X5.6122Y-1.8031
X5.6201Y-4.3972
X5.626Y-4.315
X5.6791Y-1.7776
X5.685Y-4.3508
X5.7579Y-4.3528
X5.7618Y-3.3185
X5.7661Y-4.0697
X5.7874Y-2.9528
X5.7874Y-3.0315
X5.7874Y-3.1102
X5.815Y-4.3228
X5.8268Y-2.9921
X5.8268Y-3.0709
X5.8429Y-3.6673
X5.8465Y-4.065
X5.8543Y-4.2835
X5.8661Y-2.9528
X5.8661Y-3.0315
X5.8661Y-3.1102
X5.8902Y-2.4776
X5.8951Y-3.723
X5.9008Y-3.6768
X5.9055Y-2.9921
X5.9055Y-3.0709
X5.9063Y-3.6283
X5.9394Y-3.6118
X5.9449Y-2.9528
X5.9449Y-3.0315
X5.9449Y-3.1102
X5.9764Y-3.3122
X5.9843Y-4.252
X5.9843Y-4.4094
X5.9843Y-4.4882
X5.9843Y-4.5669
X5.9843Y-4.6457
X6.0039Y-2.2835
X6.0236Y-4.685
X6.0272Y-3.5374
X6.0433Y-1.7717
X6.063Y-2.2835
X6.063Y-4.2913
X6.063Y-4.4094
X6.063Y-4.4882
X6.063Y-4.5669
X6.0685Y-3.1425
X6.0689Y-3.4374
X6.0925Y-3.6417
X6.1024Y-1.7323
X6.1024Y-4.2913
X6.1024Y-4.3701
X6.1024Y-4.685
X6.1106Y-2.3547
X6.1146Y-3.4335
X6.122Y-2.2835
X6.1319Y-3.6319
X6.1354Y-3.7055
X6.1417Y-4.2913
X6.1417Y-4.4882
X6.1559Y-3.4331
X6.1614Y-1.7323
X6.1744Y-2.8791
X6.1811Y-2.2835
X6.1811Y-4.685
X6.1858Y-2.8028
X6.2154Y-3.4339
X6.2205Y-2.3228
X6.2205Y-4.4882
X6.2402Y-1.752
X6.2402Y-2.2835
X6.2402Y-2.3819
X6.2449Y-2.7382
X6.2476Y-2.8004
X6.2602Y-2.885
X6.2697Y-3.2705
X6.272Y-3.1992
X6.2748Y-3.4343
X6.2776Y-4.2417
X6.2795Y-4.4882
X6.2854Y-3.3492
X6.2992Y-1.6339
X6.3063Y-2.7984
X6.3189Y-2.8787
X6.3386Y-4.4882
X6.3417Y-3.4346
X6.3461Y-2.9378
X6.3583Y-2.2835
X6.3638Y-2.9807
X6.3657Y-2.8024
X6.3744Y-3.4339
X6.378Y-1.752
X6.4083Y-3.4346
X6.4091Y-3.0252
X6.4161Y-2.8
X6.4173Y-2.2835
X6.437Y-1.752
X6.4469Y-3.8189
X6.4764Y-2.2835
X6.5354Y-2.2244
X6.5354Y-2.2835
X6.5354Y-3.8189
X6.5748Y-1.7126
X6.5945Y-2.2244
X6.6535Y-1.6142
X6.6535Y-1.6732
X6.6535Y-1.9291
X6.6535Y-1.9882
X6.6535Y-2.0472
X6.6535Y-2.1063
X6.6535Y-2.1654
X6.6535Y-2.2244
X6.6535Y-4.5079
T3
X1.0138Y-1.9783
X1.0728Y-1.9587
X1.0827Y-2.0571
X1.128Y-1.9567
X1.1378Y-2.
X1.2594Y-3.8969
X1.2957Y-2.5776
X1.626Y-2.2795
X1.6441Y-3.5839
X1.6543Y-2.2512
X1.774Y-2.6516
X1.7791Y-2.7098
X1.9323Y-4.4508
X1.9449Y-4.3209
X1.9886Y-4.4504
X2.0449Y-4.4516
X2.0866Y-3.9673
X2.0965Y-2.2441
X2.1091Y-1.7539
X2.1161Y-1.8209
X2.1457Y-2.2441
X2.185Y-2.6114
X2.4429Y-2.6406
X2.472Y-1.7425
X2.4835Y-3.8303
X2.5181Y-1.8268
X2.5528Y-1.7799
X2.7559Y-1.7815
X2.7559Y-1.8307
X2.7559Y-1.8799
X3.0752Y-2.2697
X3.1654Y-2.1413
X3.1961Y-4.3555
X3.3961Y-4.4346
X3.502Y-3.4413
X3.511Y-3.5713
X3.5154Y-3.685
X3.602Y-1.7791
X3.602Y-1.8205
X3.7106Y-3.435
X3.7161Y-3.5791
X3.7177Y-3.6839
X3.7205Y-3.4941
X3.7358Y-3.0661
X3.7819Y-2.9705
X4.3827Y-2.5827
X4.4197Y-2.5488
X4.4504Y-1.8165
X4.5756Y-1.7673
X5.6063Y-3.4949
X5.6201Y-2.9823
X5.7614Y-2.4126
X5.7961Y-2.7504
X5.8315Y-2.4142
X5.8319Y-2.6012
X5.8323Y-2.5583
X5.8665Y-3.5579
X5.9311Y-2.5992
X5.9315Y-2.5575
X6.1118Y-3.1579
X6.1744Y-2.5665
X6.2283Y-2.5689
X6.2335Y-2.498
X6.4433Y-3.1008
T5
X4.0031Y-2.1142
X4.0819Y-2.1142
X4.1606Y-2.1142
X4.2394Y-2.1142
X5.189Y-3.4724
X5.2677Y-3.4724
X5.3465Y-3.4724
X5.4252Y-3.4724
T6
X1.063Y-4.5866
X1.163Y-4.5866
X1.263Y-4.5866
X1.3287Y-1.3957
X1.363Y-4.5866
X1.463Y-4.5866
X1.5059Y-1.3957
X1.563Y-4.5866
X1.7323Y-4.5866
X1.8012Y-1.3957
X1.8323Y-4.5866
X1.9783Y-1.3957
X2.2736Y-1.3957
X2.4508Y-1.3957
X2.7461Y-1.3957
X2.9232Y-1.3957
X3.2559Y-1.8035
X3.2559Y-1.9035
X4.5571Y-1.3957
X4.7343Y-1.3957
X5.0295Y-1.3957
X5.2067Y-1.3957
X5.502Y-1.3957
X5.6791Y-1.3957
X5.9744Y-1.3957
X6.1516Y-1.3957
T7
X4.0028Y-2.2441
X4.1028Y-2.2441
X4.2028Y-2.2441
T8
X1.2795Y-1.4961
X1.5551Y-1.4961
X1.752Y-1.4961
X2.0276Y-1.4961
X2.2244Y-1.4961
X2.5Y-1.4961
X2.6969Y-1.4961
X2.9724Y-1.4961
X4.5079Y-1.4961
X4.7835Y-1.4961
X4.9803Y-1.4961
X5.2559Y-1.4961
X5.4528Y-1.4961
X5.7283Y-1.4961
X5.9252Y-1.4961
X6.2008Y-1.4961
T9
X3.4783Y-1.5472
X3.9961Y-1.5472
T10
X0.9843Y-1.5354
X0.9843Y-4.3701
X6.4961Y-1.5354
X6.4961Y-4.3701
T4
X5.389Y-4.424G85X5.389Y-4.4634
G05
X5.389Y-4.6252G85X5.389Y-4.6843
G05
X5.7291Y-4.424G85X5.7291Y-4.4634
G05
X5.7291Y-4.6252G85X5.7291Y-4.6843
G05
T0
M30
