G04 #@! TF.FileFunction,Legend,Bot*
%FSLAX46Y46*%
G04 Gerber Fmt 4.6, Leading zero omitted, Abs format (unit mm)*
G04 Created by KiCad (PCBNEW 4.0.5) date Sun Feb 12 14:34:10 2017*
%MOMM*%
%LPD*%
G01*
G04 APERTURE LIST*
%ADD10C,0.020000*%
%ADD11C,0.200000*%
%ADD12C,0.150000*%
%ADD13C,0.120000*%
G04 APERTURE END LIST*
D10*
D11*
X33400000Y-96500000D02*
X33400000Y-97500000D01*
X31050000Y-97500000D02*
X31050000Y-96500000D01*
X44550000Y-101150000D02*
X43600000Y-101150000D01*
X43600000Y-98850000D02*
X44500000Y-98850000D01*
X91750000Y-95450000D02*
X91750000Y-94950000D01*
X91500000Y-95200000D02*
X91750000Y-95450000D01*
X91500000Y-95200000D02*
X91750000Y-94950000D01*
X155150000Y-102550000D02*
X155050000Y-102550000D01*
X154850000Y-102250000D02*
X155150000Y-102550000D01*
X154550000Y-102550000D02*
X155050000Y-102550000D01*
X154850000Y-102250000D02*
X154550000Y-102550000D01*
X143700000Y-103000000D02*
X143450000Y-102750000D01*
X143700000Y-102500000D02*
X143700000Y-103000000D01*
X143450000Y-102750000D02*
X143700000Y-102500000D01*
X99200000Y-32950000D02*
X99150000Y-32950000D01*
X99550000Y-33300000D02*
X99200000Y-32950000D01*
X99550000Y-32600000D02*
X99550000Y-33300000D01*
X99200000Y-32950000D02*
X99550000Y-32600000D01*
X72100000Y-52150000D02*
X72100000Y-51550000D01*
X71800000Y-51850000D02*
X72100000Y-52150000D01*
X71800000Y-51850000D02*
X72100000Y-51550000D01*
X102850000Y-87300000D02*
X102700000Y-87300000D01*
X102550000Y-87000000D02*
X102850000Y-87300000D01*
X102250000Y-87300000D02*
X102700000Y-87300000D01*
X102550000Y-87000000D02*
X102250000Y-87300000D01*
X30000000Y-97750000D02*
X29950000Y-97750000D01*
X30250000Y-98000000D02*
X30000000Y-97750000D01*
X30250000Y-97500000D02*
X30250000Y-98000000D01*
X30000000Y-97750000D02*
X30250000Y-97500000D01*
X41000000Y-97000000D02*
X41000000Y-96950000D01*
X41250000Y-96750000D02*
X41000000Y-97000000D01*
X41000000Y-96500000D02*
X41000000Y-96950000D01*
X41250000Y-96750000D02*
X41000000Y-96500000D01*
X43850000Y-53000000D02*
X44150000Y-52700000D01*
X43850000Y-52400000D02*
X43850000Y-53000000D01*
X44150000Y-52700000D02*
X43850000Y-52400000D01*
D12*
X25845000Y-52970000D02*
X25845000Y-52470000D01*
X26895000Y-52470000D02*
X26895000Y-52970000D01*
X48950000Y-94725000D02*
X48450000Y-94725000D01*
X48450000Y-93675000D02*
X48950000Y-93675000D01*
X65955000Y-71350000D02*
X65955000Y-70850000D01*
X67005000Y-70850000D02*
X67005000Y-71350000D01*
X74450000Y-55750000D02*
X73450000Y-55750000D01*
X73450000Y-54050000D02*
X74450000Y-54050000D01*
X48875000Y-82450000D02*
X48875000Y-82950000D01*
X47925000Y-82950000D02*
X47925000Y-82450000D01*
X62900000Y-71155000D02*
X62900000Y-70905000D01*
X62100000Y-70905000D02*
X62100000Y-71155000D01*
X127050000Y-116650000D02*
X126350000Y-116650000D01*
X126350000Y-117850000D02*
X127050000Y-117850000D01*
X130125000Y-112250000D02*
X130125000Y-112750000D01*
X129175000Y-112750000D02*
X129175000Y-112250000D01*
X151200000Y-92000000D02*
X151200000Y-92700000D01*
X152400000Y-92700000D02*
X152400000Y-92000000D01*
X122500000Y-115600000D02*
X122500000Y-116300000D01*
X123700000Y-116300000D02*
X123700000Y-115600000D01*
X156900000Y-91900000D02*
X156900000Y-92600000D01*
X158100000Y-92600000D02*
X158100000Y-91900000D01*
X119675000Y-100050000D02*
X119675000Y-99550000D01*
X120625000Y-99550000D02*
X120625000Y-100050000D01*
X126275000Y-99850000D02*
X126275000Y-99350000D01*
X127225000Y-99350000D02*
X127225000Y-99850000D01*
X132125000Y-92650000D02*
X132125000Y-93150000D01*
X131175000Y-93150000D02*
X131175000Y-92650000D01*
X135300000Y-104175000D02*
X135800000Y-104175000D01*
X135800000Y-105125000D02*
X135300000Y-105125000D01*
X132215000Y-97230000D02*
X132215000Y-97730000D01*
X131265000Y-97730000D02*
X131265000Y-97230000D01*
X136500000Y-89525000D02*
X137000000Y-89525000D01*
X137000000Y-90475000D02*
X136500000Y-90475000D01*
X147125000Y-106300000D02*
X147125000Y-105800000D01*
X148075000Y-105800000D02*
X148075000Y-106300000D01*
X147150000Y-93975000D02*
X146650000Y-93975000D01*
X146650000Y-93025000D02*
X147150000Y-93025000D01*
X145975000Y-102200000D02*
X145975000Y-101700000D01*
X146925000Y-101700000D02*
X146925000Y-102200000D01*
X148050000Y-92550000D02*
X147050000Y-92550000D01*
X147050000Y-90850000D02*
X148050000Y-90850000D01*
X142580000Y-104645000D02*
X142080000Y-104645000D01*
X142080000Y-103695000D02*
X142580000Y-103695000D01*
X145400000Y-108975000D02*
X144900000Y-108975000D01*
X144900000Y-108025000D02*
X145400000Y-108025000D01*
X142200000Y-107460000D02*
X141200000Y-107460000D01*
X141200000Y-105760000D02*
X142200000Y-105760000D01*
X136350000Y-105400000D02*
X137350000Y-105400000D01*
X137350000Y-107100000D02*
X136350000Y-107100000D01*
X137600000Y-104175000D02*
X138100000Y-104175000D01*
X138100000Y-105125000D02*
X137600000Y-105125000D01*
X93550000Y-104150000D02*
X92550000Y-104150000D01*
X92550000Y-102450000D02*
X93550000Y-102450000D01*
X96250000Y-102450000D02*
X97250000Y-102450000D01*
X97250000Y-104150000D02*
X96250000Y-104150000D01*
X81400000Y-104100000D02*
X80400000Y-104100000D01*
X80400000Y-102400000D02*
X81400000Y-102400000D01*
X84650000Y-102400000D02*
X85650000Y-102400000D01*
X85650000Y-104100000D02*
X84650000Y-104100000D01*
X123460000Y-75475000D02*
X123960000Y-75475000D01*
X123960000Y-76425000D02*
X123460000Y-76425000D01*
X121650000Y-75225000D02*
X121150000Y-75225000D01*
X121150000Y-74275000D02*
X121650000Y-74275000D01*
X135280000Y-70705000D02*
X134780000Y-70705000D01*
X134780000Y-69755000D02*
X135280000Y-69755000D01*
X123450000Y-74275000D02*
X123950000Y-74275000D01*
X123950000Y-75225000D02*
X123450000Y-75225000D01*
X119185000Y-75550000D02*
X119185000Y-75050000D01*
X120135000Y-75050000D02*
X120135000Y-75550000D01*
X121660000Y-76425000D02*
X121160000Y-76425000D01*
X121160000Y-75475000D02*
X121660000Y-75475000D01*
X117455000Y-69130000D02*
X117455000Y-68630000D01*
X118405000Y-68630000D02*
X118405000Y-69130000D01*
X113005000Y-68160000D02*
X113005000Y-67660000D01*
X113955000Y-67660000D02*
X113955000Y-68160000D01*
X133250000Y-51125000D02*
X133750000Y-51125000D01*
X133750000Y-52075000D02*
X133250000Y-52075000D01*
X116950000Y-51075000D02*
X117450000Y-51075000D01*
X117450000Y-52025000D02*
X116950000Y-52025000D01*
X117120000Y-57415000D02*
X116620000Y-57415000D01*
X116620000Y-56465000D02*
X117120000Y-56465000D01*
X117110000Y-58765000D02*
X116610000Y-58765000D01*
X116610000Y-57815000D02*
X117110000Y-57815000D01*
X134625000Y-54180000D02*
X134625000Y-53680000D01*
X135575000Y-53680000D02*
X135575000Y-54180000D01*
X139125000Y-51350000D02*
X139125000Y-50850000D01*
X140075000Y-50850000D02*
X140075000Y-51350000D01*
X125105000Y-48450000D02*
X125105000Y-48950000D01*
X124155000Y-48950000D02*
X124155000Y-48450000D01*
X117275000Y-53700000D02*
X117275000Y-53200000D01*
X118225000Y-53200000D02*
X118225000Y-53700000D01*
X132725000Y-49900000D02*
X132725000Y-49400000D01*
X133675000Y-49400000D02*
X133675000Y-49900000D01*
X123825000Y-59700000D02*
X123825000Y-60200000D01*
X122875000Y-60200000D02*
X122875000Y-59700000D01*
X117050000Y-59925000D02*
X117550000Y-59925000D01*
X117550000Y-60875000D02*
X117050000Y-60875000D01*
X139550000Y-53675000D02*
X139050000Y-53675000D01*
X139050000Y-52725000D02*
X139550000Y-52725000D01*
X140075000Y-48450000D02*
X140075000Y-48950000D01*
X139125000Y-48950000D02*
X139125000Y-48450000D01*
X133340000Y-60495000D02*
X133840000Y-60495000D01*
X133840000Y-61445000D02*
X133340000Y-61445000D01*
X123825000Y-48450000D02*
X123825000Y-48950000D01*
X122875000Y-48950000D02*
X122875000Y-48450000D01*
X116875000Y-53030000D02*
X116875000Y-53530000D01*
X115925000Y-53530000D02*
X115925000Y-53030000D01*
X139450000Y-58475000D02*
X138950000Y-58475000D01*
X138950000Y-57525000D02*
X139450000Y-57525000D01*
X124145000Y-51320000D02*
X124145000Y-50820000D01*
X125095000Y-50820000D02*
X125095000Y-51320000D01*
X133850000Y-57625000D02*
X133350000Y-57625000D01*
X133350000Y-56675000D02*
X133850000Y-56675000D01*
X122600000Y-55875000D02*
X123100000Y-55875000D01*
X123100000Y-56825000D02*
X122600000Y-56825000D01*
X123200000Y-55225000D02*
X122700000Y-55225000D01*
X122700000Y-54275000D02*
X123200000Y-54275000D01*
X140075000Y-59700000D02*
X140075000Y-60200000D01*
X139125000Y-60200000D02*
X139125000Y-59700000D01*
X139500000Y-55275000D02*
X139000000Y-55275000D01*
X139000000Y-54325000D02*
X139500000Y-54325000D01*
X138475000Y-76400000D02*
X138475000Y-75900000D01*
X139425000Y-75900000D02*
X139425000Y-76400000D01*
X148200000Y-71475000D02*
X147700000Y-71475000D01*
X147700000Y-70525000D02*
X148200000Y-70525000D01*
X131360000Y-81890000D02*
X130360000Y-81890000D01*
X130360000Y-80190000D02*
X131360000Y-80190000D01*
X109790000Y-76810000D02*
X110790000Y-76810000D01*
X110790000Y-78510000D02*
X109790000Y-78510000D01*
X127695000Y-81510000D02*
X127695000Y-81010000D01*
X128645000Y-81010000D02*
X128645000Y-81510000D01*
X119525000Y-77880000D02*
X119525000Y-78380000D01*
X118575000Y-78380000D02*
X118575000Y-77880000D01*
X121805000Y-77840000D02*
X121805000Y-78340000D01*
X120855000Y-78340000D02*
X120855000Y-77840000D01*
X123315000Y-77840000D02*
X123315000Y-78340000D01*
X122365000Y-78340000D02*
X122365000Y-77840000D01*
X96000000Y-38475000D02*
X98000000Y-38475000D01*
X98000000Y-40525000D02*
X96000000Y-40525000D01*
X97750000Y-41025000D02*
X98250000Y-41025000D01*
X98250000Y-41975000D02*
X97750000Y-41975000D01*
X145650000Y-46325000D02*
X146150000Y-46325000D01*
X146150000Y-47275000D02*
X145650000Y-47275000D01*
X102850000Y-109400000D02*
X103550000Y-109400000D01*
X103550000Y-108200000D02*
X102850000Y-108200000D01*
X105050000Y-112125000D02*
X103050000Y-112125000D01*
X103050000Y-110075000D02*
X105050000Y-110075000D01*
X122880000Y-87470000D02*
X122880000Y-88470000D01*
X121180000Y-88470000D02*
X121180000Y-87470000D01*
X120815000Y-88130000D02*
X120815000Y-88630000D01*
X119865000Y-88630000D02*
X119865000Y-88130000D01*
X129185000Y-79140000D02*
X129185000Y-78640000D01*
X130135000Y-78640000D02*
X130135000Y-79140000D01*
X127240000Y-87470000D02*
X127240000Y-88470000D01*
X125540000Y-88470000D02*
X125540000Y-87470000D01*
X123640000Y-77650000D02*
X123640000Y-78350000D01*
X124840000Y-78350000D02*
X124840000Y-77650000D01*
X126330000Y-77270000D02*
X126330000Y-76570000D01*
X125130000Y-76570000D02*
X125130000Y-77270000D01*
X121210000Y-81755000D02*
X120710000Y-81755000D01*
X120710000Y-80805000D02*
X121210000Y-80805000D01*
X122810000Y-84225000D02*
X122310000Y-84225000D01*
X122310000Y-83275000D02*
X122810000Y-83275000D01*
X117395000Y-81450000D02*
X117395000Y-81950000D01*
X116445000Y-81950000D02*
X116445000Y-81450000D01*
X117425000Y-90450000D02*
X117425000Y-89950000D01*
X118375000Y-89950000D02*
X118375000Y-90450000D01*
X127315000Y-81020000D02*
X127315000Y-81520000D01*
X126365000Y-81520000D02*
X126365000Y-81020000D01*
X124010000Y-81745000D02*
X123510000Y-81745000D01*
X123510000Y-80795000D02*
X124010000Y-80795000D01*
X118410000Y-82035000D02*
X118910000Y-82035000D01*
X118910000Y-82985000D02*
X118410000Y-82985000D01*
X110820000Y-80660000D02*
X109820000Y-80660000D01*
X109820000Y-78960000D02*
X110820000Y-78960000D01*
X124880000Y-87470000D02*
X124880000Y-88470000D01*
X123180000Y-88470000D02*
X123180000Y-87470000D01*
X119605000Y-88130000D02*
X119605000Y-88630000D01*
X118655000Y-88630000D02*
X118655000Y-88130000D01*
X118420000Y-80805000D02*
X118920000Y-80805000D01*
X118920000Y-81755000D02*
X118420000Y-81755000D01*
X120700000Y-82075000D02*
X121200000Y-82075000D01*
X121200000Y-83025000D02*
X120700000Y-83025000D01*
X123500000Y-83025000D02*
X123000000Y-83025000D01*
X123000000Y-82075000D02*
X123500000Y-82075000D01*
X116900000Y-79485000D02*
X117400000Y-79485000D01*
X117400000Y-80435000D02*
X116900000Y-80435000D01*
X112215000Y-84880000D02*
X112215000Y-84380000D01*
X113165000Y-84380000D02*
X113165000Y-84880000D01*
X68700000Y-78175000D02*
X69200000Y-78175000D01*
X69200000Y-79125000D02*
X68700000Y-79125000D01*
X68315000Y-84640000D02*
X68315000Y-84140000D01*
X69265000Y-84140000D02*
X69265000Y-84640000D01*
X67250000Y-84175000D02*
X66750000Y-84175000D01*
X66750000Y-83225000D02*
X67250000Y-83225000D01*
X65825000Y-75500000D02*
X65825000Y-76000000D01*
X64875000Y-76000000D02*
X64875000Y-75500000D01*
X71600000Y-78100000D02*
X71600000Y-77400000D01*
X70400000Y-77400000D02*
X70400000Y-78100000D01*
X68550000Y-89850000D02*
X67850000Y-89850000D01*
X67850000Y-91050000D02*
X68550000Y-91050000D01*
X66250000Y-80565000D02*
X65750000Y-80565000D01*
X65750000Y-79615000D02*
X66250000Y-79615000D01*
X67900000Y-74150000D02*
X68600000Y-74150000D01*
X68600000Y-72950000D02*
X67900000Y-72950000D01*
X72420000Y-90260000D02*
X71720000Y-90260000D01*
X71720000Y-91460000D02*
X72420000Y-91460000D01*
X64400000Y-78550000D02*
X64400000Y-77850000D01*
X63200000Y-77850000D02*
X63200000Y-78550000D01*
X66750000Y-80825000D02*
X67250000Y-80825000D01*
X67250000Y-81775000D02*
X66750000Y-81775000D01*
X69925000Y-81700000D02*
X69925000Y-82200000D01*
X68975000Y-82200000D02*
X68975000Y-81700000D01*
X66250000Y-79175000D02*
X65750000Y-79175000D01*
X65750000Y-78225000D02*
X66250000Y-78225000D01*
X67025000Y-75500000D02*
X67025000Y-76000000D01*
X66075000Y-76000000D02*
X66075000Y-75500000D01*
X66750000Y-82025000D02*
X67250000Y-82025000D01*
X67250000Y-82975000D02*
X66750000Y-82975000D01*
X65725000Y-81780000D02*
X65725000Y-82280000D01*
X64775000Y-82280000D02*
X64775000Y-81780000D01*
X69700000Y-79475000D02*
X70200000Y-79475000D01*
X70200000Y-80425000D02*
X69700000Y-80425000D01*
X64700000Y-83450000D02*
X64000000Y-83450000D01*
X64000000Y-84650000D02*
X64700000Y-84650000D01*
X69200000Y-75525000D02*
X68700000Y-75525000D01*
X68700000Y-74575000D02*
X69200000Y-74575000D01*
X65750000Y-77025000D02*
X66250000Y-77025000D01*
X66250000Y-77975000D02*
X65750000Y-77975000D01*
X69200000Y-77925000D02*
X68700000Y-77925000D01*
X68700000Y-76975000D02*
X69200000Y-76975000D01*
X68700000Y-75775000D02*
X69200000Y-75775000D01*
X69200000Y-76725000D02*
X68700000Y-76725000D01*
X48775000Y-74900000D02*
X48775000Y-74400000D01*
X49725000Y-74400000D02*
X49725000Y-74900000D01*
X43750000Y-80225000D02*
X44250000Y-80225000D01*
X44250000Y-81175000D02*
X43750000Y-81175000D01*
X49675000Y-77000000D02*
X49675000Y-77500000D01*
X48725000Y-77500000D02*
X48725000Y-77000000D01*
X42075000Y-76750000D02*
X42075000Y-76250000D01*
X43025000Y-76250000D02*
X43025000Y-76750000D01*
X62435000Y-86510000D02*
X62435000Y-86010000D01*
X63385000Y-86010000D02*
X63385000Y-86510000D01*
X80600000Y-90350000D02*
X79600000Y-90350000D01*
X79600000Y-88650000D02*
X80600000Y-88650000D01*
X61150000Y-88750000D02*
X62150000Y-88750000D01*
X62150000Y-90450000D02*
X61150000Y-90450000D01*
X65200000Y-92350000D02*
X66200000Y-92350000D01*
X66200000Y-94050000D02*
X65200000Y-94050000D01*
X64700000Y-87975000D02*
X65200000Y-87975000D01*
X65200000Y-88925000D02*
X64700000Y-88925000D01*
X76250000Y-88975000D02*
X75750000Y-88975000D01*
X75750000Y-88025000D02*
X76250000Y-88025000D01*
X65300000Y-85975000D02*
X64800000Y-85975000D01*
X64800000Y-85025000D02*
X65300000Y-85025000D01*
X67700000Y-87025000D02*
X68200000Y-87025000D01*
X68200000Y-87975000D02*
X67700000Y-87975000D01*
X61300000Y-83975000D02*
X60800000Y-83975000D01*
X60800000Y-83025000D02*
X61300000Y-83025000D01*
X75200000Y-85975000D02*
X74700000Y-85975000D01*
X74700000Y-85025000D02*
X75200000Y-85025000D01*
X60700000Y-86025000D02*
X61200000Y-86025000D01*
X61200000Y-86975000D02*
X60700000Y-86975000D01*
X71750000Y-89025000D02*
X72250000Y-89025000D01*
X72250000Y-89975000D02*
X71750000Y-89975000D01*
X61720000Y-94090000D02*
X60720000Y-94090000D01*
X60720000Y-92390000D02*
X61720000Y-92390000D01*
X60300000Y-70975000D02*
X59800000Y-70975000D01*
X59800000Y-70025000D02*
X60300000Y-70025000D01*
X77250000Y-81975000D02*
X76750000Y-81975000D01*
X76750000Y-81025000D02*
X77250000Y-81025000D01*
X61300000Y-73975000D02*
X60800000Y-73975000D01*
X60800000Y-73025000D02*
X61300000Y-73025000D01*
X73300000Y-79975000D02*
X72800000Y-79975000D01*
X72800000Y-79025000D02*
X73300000Y-79025000D01*
X64105000Y-73890000D02*
X64105000Y-74390000D01*
X63155000Y-74390000D02*
X63155000Y-73890000D01*
X74250000Y-82975000D02*
X73750000Y-82975000D01*
X73750000Y-82025000D02*
X74250000Y-82025000D01*
X60750000Y-75975000D02*
X61250000Y-75975000D01*
X61250000Y-76925000D02*
X60750000Y-76925000D01*
X79300000Y-87975000D02*
X78800000Y-87975000D01*
X78800000Y-87025000D02*
X79300000Y-87025000D01*
X58000000Y-65050000D02*
X59000000Y-65050000D01*
X59000000Y-66750000D02*
X58000000Y-66750000D01*
X69150000Y-68900000D02*
X69150000Y-69150000D01*
X69950000Y-69150000D02*
X69950000Y-68900000D01*
X76750000Y-74025000D02*
X77250000Y-74025000D01*
X77250000Y-74975000D02*
X76750000Y-74975000D01*
X73650000Y-75075000D02*
X74150000Y-75075000D01*
X74150000Y-76025000D02*
X73650000Y-76025000D01*
X57400000Y-67670000D02*
X58400000Y-67670000D01*
X58400000Y-69370000D02*
X57400000Y-69370000D01*
X79250000Y-77975000D02*
X78750000Y-77975000D01*
X78750000Y-77025000D02*
X79250000Y-77025000D01*
X71250000Y-73975000D02*
X70750000Y-73975000D01*
X70750000Y-73025000D02*
X71250000Y-73025000D01*
X83750000Y-67800000D02*
X83750000Y-68800000D01*
X82050000Y-68800000D02*
X82050000Y-67800000D01*
X80300000Y-71025000D02*
X79800000Y-71025000D01*
X79800000Y-70075000D02*
X80300000Y-70075000D01*
X73250000Y-69975000D02*
X72750000Y-69975000D01*
X72750000Y-69025000D02*
X73250000Y-69025000D01*
X77350000Y-68975000D02*
X76850000Y-68975000D01*
X76850000Y-68025000D02*
X77350000Y-68025000D01*
X77300000Y-71975000D02*
X76800000Y-71975000D01*
X76800000Y-71025000D02*
X77300000Y-71025000D01*
X82050000Y-75400000D02*
X82050000Y-74400000D01*
X83750000Y-74400000D02*
X83750000Y-75400000D01*
X50800000Y-56500000D02*
X49800000Y-56500000D01*
X49800000Y-54800000D02*
X50800000Y-54800000D01*
X50100000Y-54350000D02*
X50800000Y-54350000D01*
X50800000Y-53150000D02*
X50100000Y-53150000D01*
X29765000Y-54830000D02*
X29765000Y-54330000D01*
X30715000Y-54330000D02*
X30715000Y-54830000D01*
X69690000Y-50045000D02*
X70190000Y-50045000D01*
X70190000Y-50995000D02*
X69690000Y-50995000D01*
X42525000Y-50150000D02*
X42525000Y-49650000D01*
X43475000Y-49650000D02*
X43475000Y-50150000D01*
X61600000Y-47275000D02*
X63600000Y-47275000D01*
X63600000Y-49325000D02*
X61600000Y-49325000D01*
X52050000Y-49725000D02*
X52550000Y-49725000D01*
X52550000Y-50675000D02*
X52050000Y-50675000D01*
X50100000Y-50825000D02*
X49600000Y-50825000D01*
X49600000Y-49875000D02*
X50100000Y-49875000D01*
X51875000Y-52300000D02*
X51875000Y-51800000D01*
X52825000Y-51800000D02*
X52825000Y-52300000D01*
X56850000Y-51825000D02*
X54850000Y-51825000D01*
X54850000Y-49775000D02*
X56850000Y-49775000D01*
X48450000Y-103550000D02*
X47450000Y-103550000D01*
X47450000Y-101850000D02*
X48450000Y-101850000D01*
X24645000Y-52770000D02*
X24645000Y-52270000D01*
X25595000Y-52270000D02*
X25595000Y-52770000D01*
X51050000Y-101850000D02*
X52050000Y-101850000D01*
X52050000Y-103550000D02*
X51050000Y-103550000D01*
X69650000Y-54700000D02*
X70650000Y-54700000D01*
X70650000Y-56400000D02*
X69650000Y-56400000D01*
X46160000Y-54840000D02*
X47160000Y-54840000D01*
X47160000Y-56540000D02*
X46160000Y-56540000D01*
X56250000Y-49375000D02*
X54250000Y-49375000D01*
X54250000Y-47325000D02*
X56250000Y-47325000D01*
X29130000Y-91725000D02*
X28630000Y-91725000D01*
X28630000Y-90775000D02*
X29130000Y-90775000D01*
X27550000Y-86400000D02*
X27550000Y-87400000D01*
X25850000Y-87400000D02*
X25850000Y-86400000D01*
X33200000Y-100900000D02*
X32200000Y-100900000D01*
X32200000Y-99200000D02*
X33200000Y-99200000D01*
X25550000Y-86400000D02*
X25550000Y-87400000D01*
X23850000Y-87400000D02*
X23850000Y-86400000D01*
X24250000Y-99600000D02*
X24250000Y-100300000D01*
X25450000Y-100300000D02*
X25450000Y-99600000D01*
X26200000Y-104150000D02*
X26200000Y-103150000D01*
X27900000Y-103150000D02*
X27900000Y-104150000D01*
X28450000Y-93700000D02*
X28450000Y-94700000D01*
X26750000Y-94700000D02*
X26750000Y-93700000D01*
X26130000Y-95680000D02*
X26130000Y-96680000D01*
X24430000Y-96680000D02*
X24430000Y-95680000D01*
X39450000Y-92800000D02*
X38750000Y-92800000D01*
X38750000Y-94000000D02*
X39450000Y-94000000D01*
X40250000Y-101725000D02*
X38250000Y-101725000D01*
X38250000Y-99675000D02*
X40250000Y-99675000D01*
X38800000Y-96800000D02*
X39500000Y-96800000D01*
X39500000Y-95600000D02*
X38800000Y-95600000D01*
X48950000Y-98600000D02*
X48950000Y-97600000D01*
X50650000Y-97600000D02*
X50650000Y-98600000D01*
X104975000Y-34950000D02*
X104975000Y-34450000D01*
X105925000Y-34450000D02*
X105925000Y-34950000D01*
X109150000Y-33625000D02*
X109650000Y-33625000D01*
X109650000Y-34575000D02*
X109150000Y-34575000D01*
X141150000Y-110850000D02*
X140950000Y-110850000D01*
X140950000Y-111450000D02*
X141150000Y-111450000D01*
X47550000Y-99017500D02*
X47550000Y-99398500D01*
X47550000Y-98001500D02*
X47550000Y-98382500D01*
X47550000Y-98382500D02*
X47169000Y-99017500D01*
X47169000Y-99017500D02*
X47931000Y-99017500D01*
X47931000Y-99017500D02*
X47550000Y-98382500D01*
X47042000Y-98382500D02*
X48058000Y-98382500D01*
X48450000Y-96700000D02*
X48450000Y-100240000D01*
X46650000Y-96700000D02*
X46650000Y-100240000D01*
X28850000Y-64000000D02*
X27650000Y-64000000D01*
X27650000Y-64000000D02*
X27650000Y-66500000D01*
X32350000Y-66500000D02*
X32350000Y-64000000D01*
X32350000Y-64000000D02*
X31150000Y-64000000D01*
X31150000Y-84000000D02*
X32350000Y-84000000D01*
X32350000Y-84000000D02*
X32350000Y-81500000D01*
X27650000Y-81500000D02*
X27650000Y-84000000D01*
X27650000Y-84000000D02*
X28850000Y-84000000D01*
X136250000Y-108600000D02*
X136950000Y-108600000D01*
X136950000Y-107400000D02*
X136250000Y-107400000D01*
X141800000Y-107800000D02*
X141100000Y-107800000D01*
X141100000Y-109000000D02*
X141800000Y-109000000D01*
X71530000Y-49540000D02*
X68530000Y-49540000D01*
X71530000Y-41540000D02*
X68530000Y-41540000D01*
X43900000Y-40950000D02*
X52500000Y-40950000D01*
X52500000Y-40950000D02*
X52500000Y-49550000D01*
X52500000Y-49550000D02*
X43900000Y-49550000D01*
X43900000Y-49550000D02*
X43900000Y-40950000D01*
X140400840Y-75849760D02*
X140449100Y-75849760D01*
X143199820Y-76550800D02*
X143199820Y-75849760D01*
X143199820Y-75849760D02*
X142950900Y-75849760D01*
X140400840Y-75849760D02*
X140200180Y-75849760D01*
X140200180Y-75849760D02*
X140200180Y-76550800D01*
X108400840Y-87999760D02*
X108449100Y-87999760D01*
X111199820Y-88700800D02*
X111199820Y-87999760D01*
X111199820Y-87999760D02*
X110950900Y-87999760D01*
X108400840Y-87999760D02*
X108200180Y-87999760D01*
X108200180Y-87999760D02*
X108200180Y-88700800D01*
X114200840Y-89649760D02*
X114249100Y-89649760D01*
X116999820Y-90350800D02*
X116999820Y-89649760D01*
X116999820Y-89649760D02*
X116750900Y-89649760D01*
X114200840Y-89649760D02*
X114000180Y-89649760D01*
X114000180Y-89649760D02*
X114000180Y-90350800D01*
X130075000Y-114500000D02*
X130075000Y-115000000D01*
X129025000Y-115000000D02*
X129025000Y-114500000D01*
X123825000Y-112550000D02*
X123825000Y-113050000D01*
X122775000Y-113050000D02*
X122775000Y-112550000D01*
X124500000Y-101375000D02*
X125000000Y-101375000D01*
X125000000Y-102425000D02*
X124500000Y-102425000D01*
X127675000Y-101050000D02*
X127675000Y-100550000D01*
X128725000Y-100550000D02*
X128725000Y-101050000D01*
X149650000Y-102875000D02*
X149150000Y-102875000D01*
X149150000Y-101825000D02*
X149650000Y-101825000D01*
X149650000Y-101225000D02*
X149150000Y-101225000D01*
X149150000Y-100175000D02*
X149650000Y-100175000D01*
X149700000Y-97975000D02*
X149200000Y-97975000D01*
X149200000Y-96925000D02*
X149700000Y-96925000D01*
X149700000Y-99475000D02*
X149200000Y-99475000D01*
X149200000Y-98425000D02*
X149700000Y-98425000D01*
X133425000Y-107050000D02*
X133425000Y-106550000D01*
X134475000Y-106550000D02*
X134475000Y-107050000D01*
X139985000Y-104760000D02*
X139985000Y-104260000D01*
X141035000Y-104260000D02*
X141035000Y-104760000D01*
X128500000Y-96175000D02*
X128000000Y-96175000D01*
X128000000Y-95125000D02*
X128500000Y-95125000D01*
X128500000Y-93575000D02*
X128000000Y-93575000D01*
X128000000Y-92525000D02*
X128500000Y-92525000D01*
X128500000Y-94875000D02*
X128000000Y-94875000D01*
X128000000Y-93825000D02*
X128500000Y-93825000D01*
X128500000Y-92275000D02*
X128000000Y-92275000D01*
X128000000Y-91225000D02*
X128500000Y-91225000D01*
X99175000Y-105400000D02*
X99175000Y-104900000D01*
X100225000Y-104900000D02*
X100225000Y-105400000D01*
X99175000Y-107450000D02*
X99175000Y-106950000D01*
X100225000Y-106950000D02*
X100225000Y-107450000D01*
X87975000Y-104250000D02*
X87975000Y-103750000D01*
X89025000Y-103750000D02*
X89025000Y-104250000D01*
X87975000Y-106500000D02*
X87975000Y-106000000D01*
X89025000Y-106000000D02*
X89025000Y-106500000D01*
X119175000Y-53270000D02*
X119175000Y-53770000D01*
X118125000Y-53770000D02*
X118125000Y-53270000D01*
X141600000Y-78575000D02*
X142100000Y-78575000D01*
X142100000Y-79625000D02*
X141600000Y-79625000D01*
X140850000Y-74325000D02*
X140350000Y-74325000D01*
X140350000Y-73275000D02*
X140850000Y-73275000D01*
X158850000Y-73875000D02*
X159350000Y-73875000D01*
X159350000Y-74925000D02*
X158850000Y-74925000D01*
X132960000Y-77555000D02*
X132460000Y-77555000D01*
X132460000Y-76505000D02*
X132960000Y-76505000D01*
X132895000Y-80710000D02*
X132895000Y-80210000D01*
X133945000Y-80210000D02*
X133945000Y-80710000D01*
X111490000Y-90575000D02*
X111990000Y-90575000D01*
X111990000Y-91625000D02*
X111490000Y-91625000D01*
X115250000Y-92275000D02*
X115750000Y-92275000D01*
X115750000Y-93325000D02*
X115250000Y-93325000D01*
X76850000Y-84985000D02*
X77350000Y-84985000D01*
X77350000Y-86035000D02*
X76850000Y-86035000D01*
X41975000Y-78900000D02*
X41975000Y-78400000D01*
X43025000Y-78400000D02*
X43025000Y-78900000D01*
X44350000Y-77775000D02*
X43850000Y-77775000D01*
X43850000Y-76725000D02*
X44350000Y-76725000D01*
X69375000Y-94950000D02*
X69375000Y-95450000D01*
X68325000Y-95450000D02*
X68325000Y-94950000D01*
X69375000Y-92850000D02*
X69375000Y-93350000D01*
X68325000Y-93350000D02*
X68325000Y-92850000D01*
X70825000Y-94950000D02*
X70825000Y-95450000D01*
X69775000Y-95450000D02*
X69775000Y-94950000D01*
X70825000Y-92850000D02*
X70825000Y-93350000D01*
X69775000Y-93350000D02*
X69775000Y-92850000D01*
X72275000Y-94950000D02*
X72275000Y-95450000D01*
X71225000Y-95450000D02*
X71225000Y-94950000D01*
X72275000Y-92850000D02*
X72275000Y-93350000D01*
X71225000Y-93350000D02*
X71225000Y-92850000D01*
X60975000Y-78250000D02*
X60975000Y-77750000D01*
X62025000Y-77750000D02*
X62025000Y-78250000D01*
X43575000Y-52000000D02*
X43575000Y-52500000D01*
X42525000Y-52500000D02*
X42525000Y-52000000D01*
X30765000Y-56450000D02*
X30765000Y-56950000D01*
X29715000Y-56950000D02*
X29715000Y-56450000D01*
X66275000Y-51900000D02*
X66275000Y-51400000D01*
X67325000Y-51400000D02*
X67325000Y-51900000D01*
X66275000Y-53800000D02*
X66275000Y-53300000D01*
X67325000Y-53300000D02*
X67325000Y-53800000D01*
X51525000Y-51670000D02*
X51525000Y-52170000D01*
X50475000Y-52170000D02*
X50475000Y-51670000D01*
X33750000Y-103525000D02*
X33250000Y-103525000D01*
X33250000Y-102475000D02*
X33750000Y-102475000D01*
X54050000Y-52375000D02*
X54550000Y-52375000D01*
X54550000Y-53425000D02*
X54050000Y-53425000D01*
X54530000Y-54845000D02*
X54030000Y-54845000D01*
X54030000Y-53795000D02*
X54530000Y-53795000D01*
X50025000Y-51750000D02*
X50025000Y-52250000D01*
X48975000Y-52250000D02*
X48975000Y-51750000D01*
X25920000Y-54845000D02*
X25420000Y-54845000D01*
X25420000Y-53795000D02*
X25920000Y-53795000D01*
X54275000Y-104400000D02*
X54275000Y-103900000D01*
X55325000Y-103900000D02*
X55325000Y-104400000D01*
X54275000Y-106300000D02*
X54275000Y-105800000D01*
X55325000Y-105800000D02*
X55325000Y-106300000D01*
X31325000Y-88950000D02*
X31325000Y-88450000D01*
X32375000Y-88450000D02*
X32375000Y-88950000D01*
X29225000Y-103300000D02*
X29225000Y-103800000D01*
X28175000Y-103800000D02*
X28175000Y-103300000D01*
X30525000Y-103300000D02*
X30525000Y-103800000D01*
X29475000Y-103800000D02*
X29475000Y-103300000D01*
X32900000Y-102225000D02*
X32400000Y-102225000D01*
X32400000Y-101175000D02*
X32900000Y-101175000D01*
X38900000Y-97075000D02*
X39400000Y-97075000D01*
X39400000Y-98125000D02*
X38900000Y-98125000D01*
X38900000Y-98375000D02*
X39400000Y-98375000D01*
X39400000Y-99425000D02*
X38900000Y-99425000D01*
X23450000Y-80775000D02*
X23950000Y-80775000D01*
X23950000Y-81825000D02*
X23450000Y-81825000D01*
X23450000Y-79475000D02*
X23950000Y-79475000D01*
X23950000Y-80525000D02*
X23450000Y-80525000D01*
X23450000Y-78175000D02*
X23950000Y-78175000D01*
X23950000Y-79225000D02*
X23450000Y-79225000D01*
X23950000Y-83125000D02*
X23450000Y-83125000D01*
X23450000Y-82075000D02*
X23950000Y-82075000D01*
X23950000Y-84425000D02*
X23450000Y-84425000D01*
X23450000Y-83375000D02*
X23950000Y-83375000D01*
X38800000Y-94275000D02*
X39300000Y-94275000D01*
X39300000Y-95325000D02*
X38800000Y-95325000D01*
X48450000Y-94975000D02*
X48950000Y-94975000D01*
X48950000Y-96025000D02*
X48450000Y-96025000D01*
X107750000Y-38575000D02*
X107250000Y-38575000D01*
X107250000Y-37525000D02*
X107750000Y-37525000D01*
X107350000Y-34575000D02*
X106850000Y-34575000D01*
X106850000Y-33525000D02*
X107350000Y-33525000D01*
X57865000Y-41250000D02*
X57865000Y-40750000D01*
X60135000Y-41250000D02*
X60135000Y-40750000D01*
X127825000Y-116050000D02*
X125375000Y-116050000D01*
X128550000Y-112750000D02*
X125375000Y-112750000D01*
X154550000Y-93950000D02*
G75*
G03X154550000Y-93950000I-100000J0D01*
G01*
X155000000Y-93700000D02*
X154500000Y-93700000D01*
X155000000Y-90800000D02*
X155000000Y-93700000D01*
X154500000Y-90800000D02*
X155000000Y-90800000D01*
X154500000Y-93700000D02*
X154500000Y-90800000D01*
X121650000Y-100850000D02*
X121450000Y-100950000D01*
X121450000Y-100950000D02*
X121450000Y-100750000D01*
X121450000Y-100750000D02*
X121650000Y-100850000D01*
X125350000Y-101050000D02*
X122150000Y-101050000D01*
X122150000Y-99050000D02*
X125350000Y-99050000D01*
X155495000Y-100675000D02*
X155395000Y-100675000D01*
X155495000Y-96025000D02*
X155295000Y-96025000D01*
X152245000Y-96025000D02*
X152445000Y-96025000D01*
X152245000Y-100675000D02*
X152445000Y-100675000D01*
X155495000Y-100675000D02*
X155495000Y-96025000D01*
X152245000Y-100675000D02*
X152245000Y-96025000D01*
X155395000Y-100675000D02*
X155395000Y-102025000D01*
X144175000Y-102175000D02*
X143175000Y-102175000D01*
X144175000Y-91825000D02*
X143100000Y-91825000D01*
X133825000Y-91825000D02*
X134900000Y-91825000D01*
X133825000Y-102175000D02*
X134900000Y-102175000D01*
X144175000Y-102175000D02*
X144175000Y-101100000D01*
X133825000Y-102175000D02*
X133825000Y-101100000D01*
X133825000Y-91825000D02*
X133825000Y-92900000D01*
X144175000Y-91825000D02*
X144175000Y-92900000D01*
X143175000Y-102175000D02*
X143175000Y-103200000D01*
X92200000Y-110700000D02*
X92200000Y-107200000D01*
X92200000Y-107200000D02*
X98700000Y-107200000D01*
X98700000Y-107200000D02*
X98700000Y-110700000D01*
X98700000Y-110700000D02*
X92200000Y-110700000D01*
X80250000Y-110500000D02*
X80250000Y-107000000D01*
X80250000Y-107000000D02*
X86750000Y-107000000D01*
X86750000Y-107000000D02*
X86750000Y-110500000D01*
X86750000Y-110500000D02*
X80250000Y-110500000D01*
X70500000Y-51100000D02*
G75*
G03X70500000Y-51100000I-100000J0D01*
G01*
X69750000Y-51350000D02*
X70250000Y-51350000D01*
X69750000Y-54250000D02*
X69750000Y-51350000D01*
X70250000Y-54250000D02*
X69750000Y-54250000D01*
X70250000Y-51350000D02*
X70250000Y-54250000D01*
X47875000Y-53575000D02*
X47875000Y-53075000D01*
X44625000Y-50325000D02*
X44625000Y-50825000D01*
X47875000Y-50325000D02*
X47875000Y-50825000D01*
X44625000Y-53575000D02*
X45125000Y-53575000D01*
X44625000Y-50325000D02*
X45125000Y-50325000D01*
X47875000Y-50325000D02*
X47375000Y-50325000D01*
X47875000Y-53575000D02*
X47375000Y-53575000D01*
X47250000Y-110000000D02*
X47250000Y-106500000D01*
X47250000Y-106500000D02*
X53750000Y-106500000D01*
X53750000Y-106500000D02*
X53750000Y-110000000D01*
X53750000Y-110000000D02*
X47250000Y-110000000D01*
X27800000Y-88600000D02*
G75*
G03X27800000Y-88600000I-100000J0D01*
G01*
X27950000Y-89250000D02*
X27950000Y-88750000D01*
X30850000Y-89250000D02*
X27950000Y-89250000D01*
X30850000Y-88750000D02*
X30850000Y-89250000D01*
X27950000Y-88750000D02*
X30850000Y-88750000D01*
X26375000Y-96875000D02*
X26375000Y-97400000D01*
X29625000Y-101125000D02*
X29625000Y-100600000D01*
X26375000Y-101125000D02*
X26375000Y-100600000D01*
X29625000Y-96875000D02*
X29100000Y-96875000D01*
X29625000Y-101125000D02*
X29100000Y-101125000D01*
X26375000Y-101125000D02*
X26900000Y-101125000D01*
X26375000Y-96875000D02*
X26900000Y-96875000D01*
X44875000Y-97625000D02*
X44875000Y-97125000D01*
X41625000Y-94375000D02*
X41625000Y-94875000D01*
X44875000Y-94375000D02*
X44875000Y-94875000D01*
X41625000Y-97625000D02*
X42125000Y-97625000D01*
X41625000Y-94375000D02*
X42125000Y-94375000D01*
X44875000Y-94375000D02*
X44375000Y-94375000D01*
X44875000Y-97625000D02*
X44375000Y-97625000D01*
X146800000Y-104750000D02*
X147100000Y-104500000D01*
X147100000Y-104500000D02*
X147100000Y-105000000D01*
X147100000Y-105000000D02*
X146800000Y-104750000D01*
X146400000Y-105500000D02*
X146400000Y-106300000D01*
X144850000Y-107500000D02*
X145450000Y-107500000D01*
X143900000Y-105500000D02*
X143900000Y-106300000D01*
X145450000Y-104300000D02*
X144850000Y-104300000D01*
X54150000Y-69550000D02*
X46150000Y-69550000D01*
X46150000Y-65150000D02*
X54250000Y-65150000D01*
X162550000Y-100385000D02*
X162050000Y-100385000D01*
X162550000Y-98115000D02*
X162050000Y-98115000D01*
X162650000Y-104785000D02*
X162150000Y-104785000D01*
X162650000Y-102515000D02*
X162150000Y-102515000D01*
X67760000Y-64015000D02*
X67760000Y-63785000D01*
X68640000Y-63785000D02*
X68640000Y-64015000D01*
X66660000Y-64015000D02*
X66660000Y-63785000D01*
X67540000Y-63785000D02*
X67540000Y-64015000D01*
X65560000Y-64015000D02*
X65560000Y-63785000D01*
X66440000Y-63785000D02*
X66440000Y-64015000D01*
X64460000Y-64015000D02*
X64460000Y-63785000D01*
X65340000Y-63785000D02*
X65340000Y-64015000D01*
X68860000Y-64015000D02*
X68860000Y-63785000D01*
X69740000Y-63785000D02*
X69740000Y-64015000D01*
X69960000Y-64015000D02*
X69960000Y-63785000D01*
X70840000Y-63785000D02*
X70840000Y-64015000D01*
X71060000Y-64015000D02*
X71060000Y-63785000D01*
X71940000Y-63785000D02*
X71940000Y-64015000D01*
X72160000Y-64015000D02*
X72160000Y-63785000D01*
X73040000Y-63785000D02*
X73040000Y-64015000D01*
X76560000Y-64015000D02*
X76560000Y-63785000D01*
X77440000Y-63785000D02*
X77440000Y-64015000D01*
X75460000Y-64015000D02*
X75460000Y-63785000D01*
X76340000Y-63785000D02*
X76340000Y-64015000D01*
X74360000Y-64015000D02*
X74360000Y-63785000D01*
X75240000Y-63785000D02*
X75240000Y-64015000D01*
X73260000Y-64015000D02*
X73260000Y-63785000D01*
X74140000Y-63785000D02*
X74140000Y-64015000D01*
X77660000Y-64015000D02*
X77660000Y-63785000D01*
X78540000Y-63785000D02*
X78540000Y-64015000D01*
X78760000Y-64015000D02*
X78760000Y-63785000D01*
X79640000Y-63785000D02*
X79640000Y-64015000D01*
X79860000Y-64015000D02*
X79860000Y-63785000D01*
X80740000Y-63785000D02*
X80740000Y-64015000D01*
X80960000Y-64015000D02*
X80960000Y-63785000D01*
X81840000Y-63785000D02*
X81840000Y-64015000D01*
X85360000Y-64015000D02*
X85360000Y-63785000D01*
X86240000Y-63785000D02*
X86240000Y-64015000D01*
X84260000Y-64015000D02*
X84260000Y-63785000D01*
X85140000Y-63785000D02*
X85140000Y-64015000D01*
X83160000Y-64015000D02*
X83160000Y-63785000D01*
X84040000Y-63785000D02*
X84040000Y-64015000D01*
X82060000Y-64015000D02*
X82060000Y-63785000D01*
X82940000Y-63785000D02*
X82940000Y-64015000D01*
X67285000Y-62260000D02*
X67515000Y-62260000D01*
X67515000Y-63140000D02*
X67285000Y-63140000D01*
X65585000Y-62260000D02*
X65815000Y-62260000D01*
X65815000Y-63140000D02*
X65585000Y-63140000D01*
X70215000Y-63140000D02*
X69985000Y-63140000D01*
X69985000Y-62260000D02*
X70215000Y-62260000D01*
X71915000Y-63140000D02*
X71685000Y-63140000D01*
X71685000Y-62260000D02*
X71915000Y-62260000D01*
X76085000Y-62260000D02*
X76315000Y-62260000D01*
X76315000Y-63140000D02*
X76085000Y-63140000D01*
X74385000Y-62260000D02*
X74615000Y-62260000D01*
X74615000Y-63140000D02*
X74385000Y-63140000D01*
X79015000Y-63140000D02*
X78785000Y-63140000D01*
X78785000Y-62260000D02*
X79015000Y-62260000D01*
X80715000Y-63140000D02*
X80485000Y-63140000D01*
X80485000Y-62260000D02*
X80715000Y-62260000D01*
X84930000Y-62260000D02*
X85160000Y-62260000D01*
X85160000Y-63140000D02*
X84930000Y-63140000D01*
X83185000Y-62260000D02*
X83415000Y-62260000D01*
X83415000Y-63140000D02*
X83185000Y-63140000D01*
X86285000Y-68660000D02*
X86515000Y-68660000D01*
X86515000Y-69540000D02*
X86285000Y-69540000D01*
X86285000Y-67560000D02*
X86515000Y-67560000D01*
X86515000Y-68440000D02*
X86285000Y-68440000D01*
X86285000Y-66460000D02*
X86515000Y-66460000D01*
X86515000Y-67340000D02*
X86285000Y-67340000D01*
X86285000Y-65360000D02*
X86515000Y-65360000D01*
X86515000Y-66240000D02*
X86285000Y-66240000D01*
X86285000Y-73060000D02*
X86515000Y-73060000D01*
X86515000Y-73940000D02*
X86285000Y-73940000D01*
X86285000Y-71960000D02*
X86515000Y-71960000D01*
X86515000Y-72840000D02*
X86285000Y-72840000D01*
X86285000Y-70860000D02*
X86515000Y-70860000D01*
X86515000Y-71740000D02*
X86285000Y-71740000D01*
X86285000Y-69760000D02*
X86515000Y-69760000D01*
X86515000Y-70640000D02*
X86285000Y-70640000D01*
X88040000Y-68185000D02*
X88040000Y-68415000D01*
X87160000Y-68415000D02*
X87160000Y-68185000D01*
X88040000Y-66485000D02*
X88040000Y-66715000D01*
X87160000Y-66715000D02*
X87160000Y-66485000D01*
X88040000Y-72585000D02*
X88040000Y-72815000D01*
X87160000Y-72815000D02*
X87160000Y-72585000D01*
X88040000Y-70885000D02*
X88040000Y-71115000D01*
X87160000Y-71115000D02*
X87160000Y-70885000D01*
X94650000Y-82525000D02*
X94150000Y-82525000D01*
X94150000Y-81475000D02*
X94650000Y-81475000D01*
X94150000Y-79975000D02*
X94650000Y-79975000D01*
X94650000Y-81025000D02*
X94150000Y-81025000D01*
X94050000Y-85325000D02*
X93550000Y-85325000D01*
X93550000Y-84275000D02*
X94050000Y-84275000D01*
X94050000Y-84025000D02*
X93550000Y-84025000D01*
X93550000Y-82975000D02*
X94050000Y-82975000D01*
X102385000Y-75360000D02*
X102615000Y-75360000D01*
X102615000Y-76240000D02*
X102385000Y-76240000D01*
X101315000Y-76240000D02*
X101085000Y-76240000D01*
X101085000Y-75360000D02*
X101315000Y-75360000D01*
X100785000Y-76460000D02*
X101015000Y-76460000D01*
X101015000Y-77340000D02*
X100785000Y-77340000D01*
X99715000Y-77340000D02*
X99485000Y-77340000D01*
X99485000Y-76460000D02*
X99715000Y-76460000D01*
X99185000Y-75360000D02*
X99415000Y-75360000D01*
X99415000Y-76240000D02*
X99185000Y-76240000D01*
X98115000Y-76240000D02*
X97885000Y-76240000D01*
X97885000Y-75360000D02*
X98115000Y-75360000D01*
X97585000Y-76460000D02*
X97815000Y-76460000D01*
X97815000Y-77340000D02*
X97585000Y-77340000D01*
X96515000Y-77340000D02*
X96285000Y-77340000D01*
X96285000Y-76460000D02*
X96515000Y-76460000D01*
X103425000Y-79375000D02*
X102900000Y-79375000D01*
X96175000Y-86625000D02*
X96700000Y-86625000D01*
X96175000Y-79375000D02*
X96700000Y-79375000D01*
X103425000Y-86625000D02*
X103425000Y-86100000D01*
X96175000Y-86625000D02*
X96175000Y-86100000D01*
X96175000Y-79375000D02*
X96175000Y-79900000D01*
X103425000Y-79375000D02*
X103425000Y-79900000D01*
D13*
X130020000Y-77290000D02*
X130020000Y-76790000D01*
X129220000Y-76790000D02*
X129220000Y-77290000D01*
X93830000Y-31115000D02*
X94330000Y-31115000D01*
X94330000Y-32065000D02*
X93830000Y-32065000D01*
D12*
X97360000Y-37955000D02*
X92960000Y-37955000D01*
X98935000Y-32430000D02*
X92960000Y-32430000D01*
D13*
X63090000Y-68870000D02*
X63090000Y-69370000D01*
X63890000Y-69370000D02*
X63890000Y-68870000D01*
X65110000Y-68780000D02*
X65110000Y-69280000D01*
X65910000Y-69280000D02*
X65910000Y-68780000D01*
X61890000Y-69460000D02*
X62390000Y-69460000D01*
X62390000Y-68660000D02*
X61890000Y-68660000D01*
X40650000Y-107500000D02*
X40650000Y-106500000D01*
X42350000Y-106500000D02*
X42350000Y-107500000D01*
X42350000Y-110500000D02*
X42350000Y-111500000D01*
X40650000Y-111500000D02*
X40650000Y-110500000D01*
D12*
X39000000Y-112475000D02*
X39500000Y-112475000D01*
X39500000Y-113525000D02*
X39000000Y-113525000D01*
X36750000Y-112475000D02*
X37250000Y-112475000D01*
X37250000Y-113525000D02*
X36750000Y-113525000D01*
X33500000Y-105500000D02*
X37000000Y-105500000D01*
X37000000Y-105500000D02*
X37000000Y-112000000D01*
X37000000Y-112000000D02*
X33500000Y-112000000D01*
X33500000Y-112000000D02*
X33500000Y-105500000D01*
X94025000Y-95500000D02*
X94025000Y-96000000D01*
X92975000Y-96000000D02*
X92975000Y-95500000D01*
X89710000Y-100205000D02*
X85310000Y-100205000D01*
X91285000Y-94680000D02*
X85310000Y-94680000D01*
X51330000Y-64065000D02*
X53330000Y-64065000D01*
X53330000Y-61915000D02*
X51330000Y-61915000D01*
X96090000Y-96765000D02*
X95590000Y-96765000D01*
X95590000Y-95715000D02*
X96090000Y-95715000D01*
X96090000Y-95465000D02*
X95590000Y-95465000D01*
X95590000Y-94415000D02*
X96090000Y-94415000D01*
D13*
X94150000Y-79600000D02*
X94650000Y-79600000D01*
X94650000Y-78800000D02*
X94150000Y-78800000D01*
X105150000Y-86800000D02*
X104650000Y-86800000D01*
X104650000Y-87600000D02*
X105150000Y-87600000D01*
X105150000Y-85700000D02*
X104650000Y-85700000D01*
X104650000Y-86500000D02*
X105150000Y-86500000D01*
X104900000Y-80950000D02*
X104900000Y-80450000D01*
X104100000Y-80450000D02*
X104100000Y-80950000D01*
X106200000Y-80950000D02*
X106200000Y-80450000D01*
X105400000Y-80450000D02*
X105400000Y-80950000D01*
X103600000Y-89550000D02*
X103600000Y-90050000D01*
X104400000Y-90050000D02*
X104400000Y-89550000D01*
X102500000Y-89550000D02*
X102500000Y-90050000D01*
X103300000Y-90050000D02*
X103300000Y-89550000D01*
X99200000Y-89550000D02*
X99200000Y-90050000D01*
X100000000Y-90050000D02*
X100000000Y-89550000D01*
X98100000Y-89550000D02*
X98100000Y-90050000D01*
X98900000Y-90050000D02*
X98900000Y-89550000D01*
X101400000Y-89550000D02*
X101400000Y-90050000D01*
X102200000Y-90050000D02*
X102200000Y-89550000D01*
X100300000Y-89550000D02*
X100300000Y-90050000D01*
X101100000Y-90050000D02*
X101100000Y-89550000D01*
X97000000Y-89550000D02*
X97000000Y-90050000D01*
X97800000Y-90050000D02*
X97800000Y-89550000D01*
X95900000Y-89550000D02*
X95900000Y-90050000D01*
X96700000Y-90050000D02*
X96700000Y-89550000D01*
X105150000Y-82200000D02*
X104650000Y-82200000D01*
X104650000Y-83000000D02*
X105150000Y-83000000D01*
X94650000Y-86600000D02*
X95150000Y-86600000D01*
X95150000Y-85800000D02*
X94650000Y-85800000D01*
X105150000Y-84400000D02*
X104650000Y-84400000D01*
X104650000Y-85200000D02*
X105150000Y-85200000D01*
X105150000Y-83300000D02*
X104650000Y-83300000D01*
X104650000Y-84100000D02*
X105150000Y-84100000D01*
X65400000Y-74150000D02*
X65400000Y-73650000D01*
X64600000Y-73650000D02*
X64600000Y-74150000D01*
X64100000Y-70750000D02*
X64100000Y-71250000D01*
X64900000Y-71250000D02*
X64900000Y-70750000D01*
X68130000Y-70860000D02*
X68130000Y-71360000D01*
X68930000Y-71360000D02*
X68930000Y-70860000D01*
X65440000Y-72980000D02*
X65940000Y-72980000D01*
X65940000Y-72180000D02*
X65440000Y-72180000D01*
X70030000Y-71330000D02*
X69530000Y-71330000D01*
X69530000Y-72130000D02*
X70030000Y-72130000D01*
X110490000Y-35290000D02*
X110490000Y-35790000D01*
X111290000Y-35790000D02*
X111290000Y-35290000D01*
X156350000Y-89075000D02*
X156850000Y-89075000D01*
X156850000Y-90025000D02*
X156350000Y-90025000D01*
D12*
X45015000Y-78600000D02*
X45015000Y-79100000D01*
X43965000Y-79100000D02*
X43965000Y-78600000D01*
X32647619Y-81864286D02*
X32600000Y-81911905D01*
X32552381Y-82007143D01*
X32552381Y-82245239D01*
X32600000Y-82340477D01*
X32647619Y-82388096D01*
X32742857Y-82435715D01*
X32838095Y-82435715D01*
X32980952Y-82388096D01*
X33552381Y-81816667D01*
X33552381Y-82435715D01*
X32652381Y-65064286D02*
X32652381Y-64873809D01*
X32700000Y-64778571D01*
X32747619Y-64730952D01*
X32890476Y-64635714D01*
X33080952Y-64588095D01*
X33461905Y-64588095D01*
X33557143Y-64635714D01*
X33604762Y-64683333D01*
X33652381Y-64778571D01*
X33652381Y-64969048D01*
X33604762Y-65064286D01*
X33557143Y-65111905D01*
X33461905Y-65159524D01*
X33223810Y-65159524D01*
X33128571Y-65111905D01*
X33080952Y-65064286D01*
X33033333Y-64969048D01*
X33033333Y-64778571D01*
X33080952Y-64683333D01*
X33128571Y-64635714D01*
X33223810Y-64588095D01*
X32652381Y-65778571D02*
X32652381Y-65873810D01*
X32700000Y-65969048D01*
X32747619Y-66016667D01*
X32842857Y-66064286D01*
X33033333Y-66111905D01*
X33271429Y-66111905D01*
X33461905Y-66064286D01*
X33557143Y-66016667D01*
X33604762Y-65969048D01*
X33652381Y-65873810D01*
X33652381Y-65778571D01*
X33604762Y-65683333D01*
X33557143Y-65635714D01*
X33461905Y-65588095D01*
X33271429Y-65540476D01*
X33033333Y-65540476D01*
X32842857Y-65588095D01*
X32747619Y-65635714D01*
X32700000Y-65683333D01*
X32652381Y-65778571D01*
X26202381Y-65211905D02*
X26202381Y-64735714D01*
X26678571Y-64688095D01*
X26630952Y-64735714D01*
X26583333Y-64830952D01*
X26583333Y-65069048D01*
X26630952Y-65164286D01*
X26678571Y-65211905D01*
X26773810Y-65259524D01*
X27011905Y-65259524D01*
X27107143Y-65211905D01*
X27154762Y-65164286D01*
X27202381Y-65069048D01*
X27202381Y-64830952D01*
X27154762Y-64735714D01*
X27107143Y-64688095D01*
X27202381Y-65735714D02*
X27202381Y-65926190D01*
X27154762Y-66021429D01*
X27107143Y-66069048D01*
X26964286Y-66164286D01*
X26773810Y-66211905D01*
X26392857Y-66211905D01*
X26297619Y-66164286D01*
X26250000Y-66116667D01*
X26202381Y-66021429D01*
X26202381Y-65830952D01*
X26250000Y-65735714D01*
X26297619Y-65688095D01*
X26392857Y-65640476D01*
X26630952Y-65640476D01*
X26726190Y-65688095D01*
X26773810Y-65735714D01*
X26821429Y-65830952D01*
X26821429Y-66021429D01*
X26773810Y-66116667D01*
X26726190Y-66164286D01*
X26630952Y-66211905D01*
X27302381Y-82485715D02*
X27302381Y-81914286D01*
X27302381Y-82200000D02*
X26302381Y-82200000D01*
X26445238Y-82104762D01*
X26540476Y-82009524D01*
X26588095Y-81914286D01*
M02*
