G04 #@! TF.FileFunction,Legend,Top*
%FSLAX46Y46*%
G04 Gerber Fmt 4.6, Leading zero omitted, Abs format (unit mm)*
G04 Created by KiCad (PCBNEW 4.0.5) date Sun Feb 12 14:34:10 2017*
%MOMM*%
%LPD*%
G01*
G04 APERTURE LIST*
%ADD10C,0.020000*%
%ADD11C,0.200000*%
%ADD12C,0.450000*%
%ADD13C,0.300000*%
%ADD14C,0.150000*%
%ADD15C,0.120000*%
G04 APERTURE END LIST*
D10*
D11*
X152600000Y-107850000D02*
X152550000Y-107800000D01*
X152450000Y-107850000D02*
X152600000Y-107850000D01*
X152250000Y-107500000D02*
X152550000Y-107800000D01*
X151900000Y-107850000D02*
X152450000Y-107850000D01*
X152250000Y-107500000D02*
X151900000Y-107850000D01*
X110450000Y-36300000D02*
X110200000Y-36050000D01*
X110450000Y-35800000D02*
X110450000Y-36300000D01*
X110200000Y-36050000D02*
X110450000Y-35800000D01*
X30300000Y-55200000D02*
X30300000Y-55150000D01*
X30550000Y-54950000D02*
X30300000Y-55200000D01*
X30300000Y-54700000D02*
X30300000Y-55150000D01*
X30550000Y-54950000D02*
X30300000Y-54700000D01*
X53250000Y-48650000D02*
X52950000Y-48950000D01*
X52650000Y-48650000D02*
X53250000Y-48650000D01*
X52950000Y-48950000D02*
X52650000Y-48650000D01*
X76200000Y-55300000D02*
X76200000Y-54800000D01*
X76200000Y-55300000D02*
X75950000Y-55050000D01*
X75950000Y-55050000D02*
X76200000Y-54800000D01*
X85000000Y-45500000D02*
X86000000Y-45500000D01*
X85500000Y-48000000D02*
X85500000Y-49000000D01*
X85000000Y-48500000D02*
X86000000Y-48500000D01*
D12*
X74202381Y-113630952D02*
X73964286Y-113511905D01*
X73845238Y-113392857D01*
X73726190Y-113154762D01*
X73726190Y-112440476D01*
X73845238Y-112202381D01*
X73964286Y-112083333D01*
X74202381Y-111964286D01*
X74559524Y-111964286D01*
X74797619Y-112083333D01*
X74916667Y-112202381D01*
X75035714Y-112440476D01*
X75035714Y-113154762D01*
X74916667Y-113392857D01*
X74797619Y-113511905D01*
X74559524Y-113630952D01*
X74202381Y-113630952D01*
X76107143Y-111964286D02*
X76107143Y-114464286D01*
X76107143Y-112083333D02*
X76345238Y-111964286D01*
X76821429Y-111964286D01*
X77059524Y-112083333D01*
X77178572Y-112202381D01*
X77297619Y-112440476D01*
X77297619Y-113154762D01*
X77178572Y-113392857D01*
X77059524Y-113511905D01*
X76821429Y-113630952D01*
X76345238Y-113630952D01*
X76107143Y-113511905D01*
X79321429Y-113511905D02*
X79083334Y-113630952D01*
X78607143Y-113630952D01*
X78369048Y-113511905D01*
X78250000Y-113273810D01*
X78250000Y-112321429D01*
X78369048Y-112083333D01*
X78607143Y-111964286D01*
X79083334Y-111964286D01*
X79321429Y-112083333D01*
X79440477Y-112321429D01*
X79440477Y-112559524D01*
X78250000Y-112797619D01*
X80511905Y-111964286D02*
X80511905Y-113630952D01*
X80511905Y-112202381D02*
X80630953Y-112083333D01*
X80869048Y-111964286D01*
X81226191Y-111964286D01*
X81464286Y-112083333D01*
X81583334Y-112321429D01*
X81583334Y-113630952D01*
X82773810Y-113630952D02*
X82773810Y-111130952D01*
X83607143Y-112916667D01*
X84440477Y-111130952D01*
X84440477Y-113630952D01*
X85630953Y-113630952D02*
X85630953Y-111964286D01*
X85630953Y-111130952D02*
X85511905Y-111250000D01*
X85630953Y-111369048D01*
X85750001Y-111250000D01*
X85630953Y-111130952D01*
X85630953Y-111369048D01*
X86583334Y-113630952D02*
X87892858Y-111964286D01*
X86583334Y-111964286D02*
X87892858Y-113630952D01*
X90273811Y-113630952D02*
X89440477Y-112440476D01*
X88845239Y-113630952D02*
X88845239Y-111130952D01*
X89797620Y-111130952D01*
X90035715Y-111250000D01*
X90154763Y-111369048D01*
X90273811Y-111607143D01*
X90273811Y-111964286D01*
X90154763Y-112202381D01*
X90035715Y-112321429D01*
X89797620Y-112440476D01*
X88845239Y-112440476D01*
D11*
X46500000Y-119000000D02*
X46500000Y-118500000D01*
X44000000Y-119000000D02*
X46500000Y-119000000D01*
X44000000Y-118500000D02*
X44000000Y-119000000D01*
X27500000Y-119000000D02*
X27000000Y-118500000D01*
X26500000Y-119000000D02*
X27500000Y-119000000D01*
X27000000Y-118500000D02*
X26500000Y-119000000D01*
X25000000Y-104950000D02*
X25000000Y-104200000D01*
X24600000Y-104600000D02*
G75*
G03X25400000Y-104600000I400000J-400000D01*
G01*
X25000000Y-100500000D02*
X25000000Y-99500000D01*
D13*
X161464286Y-62342857D02*
X161678572Y-62414286D01*
X161750000Y-62485714D01*
X161821429Y-62628571D01*
X161821429Y-62842857D01*
X161750000Y-62985714D01*
X161678572Y-63057143D01*
X161535714Y-63128571D01*
X160964286Y-63128571D01*
X160964286Y-61628571D01*
X161464286Y-61628571D01*
X161607143Y-61700000D01*
X161678572Y-61771429D01*
X161750000Y-61914286D01*
X161750000Y-62057143D01*
X161678572Y-62200000D01*
X161607143Y-62271429D01*
X161464286Y-62342857D01*
X160964286Y-62342857D01*
X162750000Y-61628571D02*
X163035714Y-61628571D01*
X163178572Y-61700000D01*
X163321429Y-61842857D01*
X163392857Y-62128571D01*
X163392857Y-62628571D01*
X163321429Y-62914286D01*
X163178572Y-63057143D01*
X163035714Y-63128571D01*
X162750000Y-63128571D01*
X162607143Y-63057143D01*
X162464286Y-62914286D01*
X162392857Y-62628571D01*
X162392857Y-62128571D01*
X162464286Y-61842857D01*
X162607143Y-61700000D01*
X162750000Y-61628571D01*
X164321429Y-61628571D02*
X164607143Y-61628571D01*
X164750001Y-61700000D01*
X164892858Y-61842857D01*
X164964286Y-62128571D01*
X164964286Y-62628571D01*
X164892858Y-62914286D01*
X164750001Y-63057143D01*
X164607143Y-63128571D01*
X164321429Y-63128571D01*
X164178572Y-63057143D01*
X164035715Y-62914286D01*
X163964286Y-62628571D01*
X163964286Y-62128571D01*
X164035715Y-61842857D01*
X164178572Y-61700000D01*
X164321429Y-61628571D01*
X165392858Y-61628571D02*
X166250001Y-61628571D01*
X165821430Y-63128571D02*
X165821430Y-61628571D01*
X161714286Y-65250000D02*
X162428572Y-65250000D01*
X161571429Y-65678571D02*
X162071429Y-64178571D01*
X162571429Y-65678571D01*
X163714286Y-64178571D02*
X163428572Y-64178571D01*
X163285715Y-64250000D01*
X163214286Y-64321429D01*
X163071429Y-64535714D01*
X163000000Y-64821429D01*
X163000000Y-65392857D01*
X163071429Y-65535714D01*
X163142857Y-65607143D01*
X163285715Y-65678571D01*
X163571429Y-65678571D01*
X163714286Y-65607143D01*
X163785715Y-65535714D01*
X163857143Y-65392857D01*
X163857143Y-65035714D01*
X163785715Y-64892857D01*
X163714286Y-64821429D01*
X163571429Y-64750000D01*
X163285715Y-64750000D01*
X163142857Y-64821429D01*
X163071429Y-64892857D01*
X163000000Y-65035714D01*
X165142857Y-64678571D02*
X165142857Y-65678571D01*
X164785714Y-64107143D02*
X164428571Y-65178571D01*
X165357143Y-65178571D01*
X162678572Y-68228571D02*
X162178572Y-67514286D01*
X161821429Y-68228571D02*
X161821429Y-66728571D01*
X162392857Y-66728571D01*
X162535715Y-66800000D01*
X162607143Y-66871429D01*
X162678572Y-67014286D01*
X162678572Y-67228571D01*
X162607143Y-67371429D01*
X162535715Y-67442857D01*
X162392857Y-67514286D01*
X161821429Y-67514286D01*
X163250000Y-68157143D02*
X163464286Y-68228571D01*
X163821429Y-68228571D01*
X163964286Y-68157143D01*
X164035715Y-68085714D01*
X164107143Y-67942857D01*
X164107143Y-67800000D01*
X164035715Y-67657143D01*
X163964286Y-67585714D01*
X163821429Y-67514286D01*
X163535715Y-67442857D01*
X163392857Y-67371429D01*
X163321429Y-67300000D01*
X163250000Y-67157143D01*
X163250000Y-67014286D01*
X163321429Y-66871429D01*
X163392857Y-66800000D01*
X163535715Y-66728571D01*
X163892857Y-66728571D01*
X164107143Y-66800000D01*
X164535714Y-66728571D02*
X165392857Y-66728571D01*
X164964286Y-68228571D02*
X164964286Y-66728571D01*
X24857143Y-58617857D02*
X24357143Y-58617857D01*
X24357143Y-59403571D02*
X24357143Y-57903571D01*
X25071429Y-57903571D01*
X25642857Y-59403571D02*
X25642857Y-57903571D01*
X26214285Y-57903571D01*
X26357143Y-57975000D01*
X26428571Y-58046429D01*
X26500000Y-58189286D01*
X26500000Y-58403571D01*
X26428571Y-58546429D01*
X26357143Y-58617857D01*
X26214285Y-58689286D01*
X25642857Y-58689286D01*
X27928571Y-57975000D02*
X27785714Y-57903571D01*
X27571428Y-57903571D01*
X27357143Y-57975000D01*
X27214285Y-58117857D01*
X27142857Y-58260714D01*
X27071428Y-58546429D01*
X27071428Y-58760714D01*
X27142857Y-59046429D01*
X27214285Y-59189286D01*
X27357143Y-59332143D01*
X27571428Y-59403571D01*
X27714285Y-59403571D01*
X27928571Y-59332143D01*
X28000000Y-59260714D01*
X28000000Y-58760714D01*
X27714285Y-58760714D01*
X28571428Y-58975000D02*
X29285714Y-58975000D01*
X28428571Y-59403571D02*
X28928571Y-57903571D01*
X29428571Y-59403571D01*
X25214286Y-61953571D02*
X24714286Y-61239286D01*
X24357143Y-61953571D02*
X24357143Y-60453571D01*
X24928571Y-60453571D01*
X25071429Y-60525000D01*
X25142857Y-60596429D01*
X25214286Y-60739286D01*
X25214286Y-60953571D01*
X25142857Y-61096429D01*
X25071429Y-61167857D01*
X24928571Y-61239286D01*
X24357143Y-61239286D01*
X25785714Y-61882143D02*
X26000000Y-61953571D01*
X26357143Y-61953571D01*
X26500000Y-61882143D01*
X26571429Y-61810714D01*
X26642857Y-61667857D01*
X26642857Y-61525000D01*
X26571429Y-61382143D01*
X26500000Y-61310714D01*
X26357143Y-61239286D01*
X26071429Y-61167857D01*
X25928571Y-61096429D01*
X25857143Y-61025000D01*
X25785714Y-60882143D01*
X25785714Y-60739286D01*
X25857143Y-60596429D01*
X25928571Y-60525000D01*
X26071429Y-60453571D01*
X26428571Y-60453571D01*
X26642857Y-60525000D01*
X27071428Y-60453571D02*
X27928571Y-60453571D01*
X27500000Y-61953571D02*
X27500000Y-60453571D01*
X70500000Y-116678571D02*
X70500000Y-115178571D01*
X70500000Y-116607143D02*
X70357143Y-116678571D01*
X70071429Y-116678571D01*
X69928571Y-116607143D01*
X69857143Y-116535714D01*
X69785714Y-116392857D01*
X69785714Y-115964286D01*
X69857143Y-115821429D01*
X69928571Y-115750000D01*
X70071429Y-115678571D01*
X70357143Y-115678571D01*
X70500000Y-115750000D01*
X71142857Y-116607143D02*
X71285714Y-116678571D01*
X71571429Y-116678571D01*
X71714286Y-116607143D01*
X71785714Y-116464286D01*
X71785714Y-116392857D01*
X71714286Y-116250000D01*
X71571429Y-116178571D01*
X71357143Y-116178571D01*
X71214286Y-116107143D01*
X71142857Y-115964286D01*
X71142857Y-115892857D01*
X71214286Y-115750000D01*
X71357143Y-115678571D01*
X71571429Y-115678571D01*
X71714286Y-115750000D01*
X72714286Y-115178571D02*
X72857143Y-115178571D01*
X73000000Y-115250000D01*
X73071429Y-115321429D01*
X73142858Y-115464286D01*
X73214286Y-115750000D01*
X73214286Y-116107143D01*
X73142858Y-116392857D01*
X73071429Y-116535714D01*
X73000000Y-116607143D01*
X72857143Y-116678571D01*
X72714286Y-116678571D01*
X72571429Y-116607143D01*
X72500000Y-116535714D01*
X72428572Y-116392857D01*
X72357143Y-116107143D01*
X72357143Y-115750000D01*
X72428572Y-115464286D01*
X72500000Y-115321429D01*
X72571429Y-115250000D01*
X72714286Y-115178571D01*
X73857143Y-116535714D02*
X73928571Y-116607143D01*
X73857143Y-116678571D01*
X73785714Y-116607143D01*
X73857143Y-116535714D01*
X73857143Y-116678571D01*
X74571429Y-116678571D02*
X74571429Y-115678571D01*
X74571429Y-115821429D02*
X74642857Y-115750000D01*
X74785715Y-115678571D01*
X75000000Y-115678571D01*
X75142857Y-115750000D01*
X75214286Y-115892857D01*
X75214286Y-116678571D01*
X75214286Y-115892857D02*
X75285715Y-115750000D01*
X75428572Y-115678571D01*
X75642857Y-115678571D01*
X75785715Y-115750000D01*
X75857143Y-115892857D01*
X75857143Y-116678571D01*
X77142857Y-116607143D02*
X77000000Y-116678571D01*
X76714286Y-116678571D01*
X76571429Y-116607143D01*
X76500000Y-116464286D01*
X76500000Y-115892857D01*
X76571429Y-115750000D01*
X76714286Y-115678571D01*
X77000000Y-115678571D01*
X77142857Y-115750000D01*
X77214286Y-115892857D01*
X77214286Y-116035714D01*
X76500000Y-116178571D01*
X78928571Y-115107143D02*
X77642857Y-117035714D01*
X80071429Y-116678571D02*
X80071429Y-115892857D01*
X80000000Y-115750000D01*
X79857143Y-115678571D01*
X79571429Y-115678571D01*
X79428572Y-115750000D01*
X80071429Y-116607143D02*
X79928572Y-116678571D01*
X79571429Y-116678571D01*
X79428572Y-116607143D01*
X79357143Y-116464286D01*
X79357143Y-116321429D01*
X79428572Y-116178571D01*
X79571429Y-116107143D01*
X79928572Y-116107143D01*
X80071429Y-116035714D01*
X80785715Y-116678571D02*
X80785715Y-115678571D01*
X80785715Y-115964286D02*
X80857143Y-115821429D01*
X80928572Y-115750000D01*
X81071429Y-115678571D01*
X81214286Y-115678571D01*
X85714286Y-116678571D02*
X85214286Y-115964286D01*
X84857143Y-116678571D02*
X84857143Y-115178571D01*
X85428571Y-115178571D01*
X85571429Y-115250000D01*
X85642857Y-115321429D01*
X85714286Y-115464286D01*
X85714286Y-115678571D01*
X85642857Y-115821429D01*
X85571429Y-115892857D01*
X85428571Y-115964286D01*
X84857143Y-115964286D01*
X86928571Y-116607143D02*
X86785714Y-116678571D01*
X86500000Y-116678571D01*
X86357143Y-116607143D01*
X86285714Y-116464286D01*
X86285714Y-115892857D01*
X86357143Y-115750000D01*
X86500000Y-115678571D01*
X86785714Y-115678571D01*
X86928571Y-115750000D01*
X87000000Y-115892857D01*
X87000000Y-116035714D01*
X86285714Y-116178571D01*
X87500000Y-115678571D02*
X87857143Y-116678571D01*
X88214285Y-115678571D01*
X90714285Y-116678571D02*
X89857142Y-116678571D01*
X90285714Y-116678571D02*
X90285714Y-115178571D01*
X90142857Y-115392857D01*
X89999999Y-115535714D01*
X89857142Y-115607143D01*
X91357142Y-116535714D02*
X91428570Y-116607143D01*
X91357142Y-116678571D01*
X91285713Y-116607143D01*
X91357142Y-116535714D01*
X91357142Y-116678571D01*
X92357142Y-115178571D02*
X92499999Y-115178571D01*
X92642856Y-115250000D01*
X92714285Y-115321429D01*
X92785714Y-115464286D01*
X92857142Y-115750000D01*
X92857142Y-116107143D01*
X92785714Y-116392857D01*
X92714285Y-116535714D01*
X92642856Y-116607143D01*
X92499999Y-116678571D01*
X92357142Y-116678571D01*
X92214285Y-116607143D01*
X92142856Y-116535714D01*
X92071428Y-116392857D01*
X91999999Y-116107143D01*
X91999999Y-115750000D01*
X92071428Y-115464286D01*
X92142856Y-115321429D01*
X92214285Y-115250000D01*
X92357142Y-115178571D01*
D14*
X92000000Y-49300000D02*
X92200000Y-49000000D01*
X92200000Y-49000000D02*
X91800000Y-49000000D01*
X91800000Y-49000000D02*
X92000000Y-49300000D01*
X96200000Y-51500000D02*
G75*
G03X96200000Y-51500000I-1200000J0D01*
G01*
X97500000Y-52100000D02*
X97500000Y-52500000D01*
X97500000Y-50500000D02*
X97500000Y-50900000D01*
X92500000Y-52100000D02*
X92500000Y-52500000D01*
X92500000Y-50900000D02*
X92500000Y-50500000D01*
X93800000Y-49800000D02*
X94600000Y-49000000D01*
X93100000Y-50500000D02*
X92700000Y-50900000D01*
X97500000Y-49300000D02*
X97500000Y-49000000D01*
X97500000Y-49000000D02*
X92600000Y-49000000D01*
X92600000Y-49000000D02*
X92500000Y-49000000D01*
X92500000Y-49000000D02*
X92500000Y-49300000D01*
X97500000Y-54000000D02*
X92500000Y-54000000D01*
X97500000Y-53700000D02*
X97500000Y-54000000D01*
X92500000Y-54000000D02*
X92500000Y-53700000D01*
X29075000Y-53760000D02*
X29075000Y-54260000D01*
X30125000Y-54260000D02*
X30125000Y-53760000D01*
X79150000Y-42350000D02*
X70550000Y-42350000D01*
X70550000Y-42350000D02*
X70550000Y-50950000D01*
X70550000Y-50950000D02*
X79150000Y-50950000D01*
X79150000Y-50950000D02*
X79150000Y-42350000D01*
X54700000Y-65850000D02*
X54000000Y-65850000D01*
X54000000Y-64650000D02*
X54700000Y-64650000D01*
X72375000Y-55925000D02*
X72375000Y-55425000D01*
X75625000Y-52675000D02*
X75625000Y-53175000D01*
X72375000Y-52675000D02*
X72375000Y-53175000D01*
X75625000Y-55925000D02*
X75125000Y-55925000D01*
X75625000Y-52675000D02*
X75125000Y-52675000D01*
X72375000Y-52675000D02*
X72875000Y-52675000D01*
X72375000Y-55925000D02*
X72875000Y-55925000D01*
X49200000Y-86000000D02*
X50500000Y-84700000D01*
X50500000Y-84700000D02*
X50500000Y-73000000D01*
X50500000Y-73000000D02*
X41500000Y-73000000D01*
X41500000Y-73000000D02*
X41500000Y-86000000D01*
X41500000Y-86000000D02*
X49200000Y-86000000D01*
X123350000Y-60850000D02*
X124650000Y-59550000D01*
X124650000Y-59550000D02*
X124650000Y-47850000D01*
X124650000Y-47850000D02*
X115650000Y-47850000D01*
X115650000Y-47850000D02*
X115650000Y-60850000D01*
X115650000Y-60850000D02*
X123350000Y-60850000D01*
X139600000Y-60900000D02*
X140900000Y-59600000D01*
X140900000Y-59600000D02*
X140900000Y-47900000D01*
X140900000Y-47900000D02*
X131900000Y-47900000D01*
X131900000Y-47900000D02*
X131900000Y-60900000D01*
X131900000Y-60900000D02*
X139600000Y-60900000D01*
X114025000Y-48700000D02*
X114025000Y-49200000D01*
X114975000Y-49200000D02*
X114975000Y-48700000D01*
X107680000Y-67880000D02*
X108680000Y-67880000D01*
X108680000Y-66180000D02*
X107680000Y-66180000D01*
X116670000Y-69205000D02*
X116170000Y-69205000D01*
X116170000Y-70255000D02*
X116670000Y-70255000D01*
X128500000Y-70850000D02*
X128150000Y-70500000D01*
X128150000Y-70500000D02*
X113500000Y-70500000D01*
X113500000Y-70500000D02*
X113500000Y-85500000D01*
X113500000Y-85500000D02*
X128500000Y-85500000D01*
X128500000Y-85500000D02*
X128500000Y-70850000D01*
X59500000Y-67500000D02*
X58500000Y-68500000D01*
X58500000Y-68500000D02*
X58500000Y-90500000D01*
X58500000Y-90500000D02*
X81500000Y-90500000D01*
X81500000Y-90500000D02*
X81500000Y-67500000D01*
X81500000Y-67500000D02*
X59500000Y-67500000D01*
X157500000Y-119870000D02*
X157500000Y-119720000D01*
X157500000Y-119500000D02*
X157500000Y-119750000D01*
X157500000Y-119250000D02*
X157500000Y-119500000D01*
X157500000Y-118750000D02*
X157500000Y-119000000D01*
X157500000Y-118250000D02*
X157500000Y-118500000D01*
X157500000Y-117750000D02*
X157500000Y-118000000D01*
X157500000Y-117250000D02*
X157500000Y-117500000D01*
X157500000Y-116750000D02*
X157500000Y-117000000D01*
X157500000Y-116250000D02*
X157500000Y-116500000D01*
X157500000Y-115750000D02*
X157500000Y-116000000D01*
X157750000Y-115000000D02*
X157500000Y-115000000D01*
X157500000Y-115000000D02*
X157500000Y-115500000D01*
X158000000Y-115000000D02*
X157750000Y-115000000D01*
X158500000Y-115000000D02*
X158250000Y-115000000D01*
X159000000Y-115000000D02*
X158750000Y-115000000D01*
X159500000Y-115000000D02*
X159250000Y-115000000D01*
X159750000Y-115000000D02*
X160000000Y-115000000D01*
X160250000Y-115000000D02*
X160500000Y-115000000D01*
X161000000Y-115000000D02*
X160750000Y-115000000D01*
X161500000Y-115000000D02*
X161250000Y-115000000D01*
X162000000Y-115000000D02*
X161750000Y-115000000D01*
X162500000Y-115000000D02*
X162250000Y-115000000D01*
X163000000Y-115000000D02*
X162750000Y-115000000D01*
X163500000Y-115000000D02*
X163250000Y-115000000D01*
X163750000Y-115000000D02*
X164000000Y-115000000D01*
X164500000Y-115000000D02*
X164250000Y-115000000D01*
X165000000Y-115000000D02*
X164750000Y-115000000D01*
X165500000Y-115000000D02*
X165250000Y-115000000D01*
X166000000Y-115000000D02*
X165750000Y-115000000D01*
X166500000Y-115000000D02*
X166250000Y-115000000D01*
X167000000Y-115000000D02*
X166750000Y-115000000D01*
X167500000Y-115000000D02*
X167250000Y-115000000D01*
X160100000Y-117700000D02*
X160100000Y-118400000D01*
X160100000Y-118400000D02*
X160000000Y-118400000D01*
X160000000Y-118400000D02*
X160000000Y-117700000D01*
X160000000Y-117700000D02*
X159900000Y-117700000D01*
X159900000Y-117700000D02*
X159900000Y-118400000D01*
X159900000Y-118400000D02*
X159800000Y-118400000D01*
X159800000Y-118400000D02*
X159800000Y-117700000D01*
X160200000Y-118400000D02*
X160200000Y-117700000D01*
X160300000Y-117700000D02*
X160300000Y-118400000D01*
X160400000Y-118400000D02*
X160400000Y-117700000D01*
X160500000Y-117700000D02*
X160500000Y-118400000D01*
X160600000Y-118400000D02*
X160600000Y-117700000D01*
X160700000Y-117800000D02*
X160700000Y-118300000D01*
X160800000Y-118300000D02*
X160800000Y-117800000D01*
X160900000Y-118400000D02*
X160900000Y-117700000D01*
X160900000Y-117700000D02*
X159700000Y-117700000D01*
X159700000Y-117700000D02*
X159700000Y-118400000D01*
X159700000Y-118400000D02*
X160800000Y-118400000D01*
X160800000Y-118400000D02*
X160900000Y-118400000D01*
X161000000Y-119000000D02*
X159600000Y-119000000D01*
X165400000Y-119000000D02*
X164000000Y-119000000D01*
X164000000Y-117000000D02*
X165400000Y-117000000D01*
X159600000Y-117000000D02*
X161000000Y-117000000D01*
X167500000Y-115000000D02*
X167500000Y-119870000D01*
X167500000Y-119870000D02*
X157500000Y-119870000D01*
X140450000Y-101650000D02*
X140450000Y-102350000D01*
X139250000Y-102350000D02*
X139250000Y-101650000D01*
X138950000Y-101650000D02*
X138950000Y-102350000D01*
X137750000Y-102350000D02*
X137750000Y-101650000D01*
X137450000Y-101650000D02*
X137450000Y-102350000D01*
X136250000Y-102350000D02*
X136250000Y-101650000D01*
X115700000Y-45300000D02*
X114700000Y-45300000D01*
X114700000Y-47000000D02*
X115700000Y-47000000D01*
X105600000Y-61075000D02*
X105100000Y-61075000D01*
X105100000Y-62025000D02*
X105600000Y-62025000D01*
X107900000Y-61075000D02*
X107400000Y-61075000D01*
X107400000Y-62025000D02*
X107900000Y-62025000D01*
X125135000Y-58060000D02*
X125135000Y-58560000D01*
X126085000Y-58560000D02*
X126085000Y-58060000D01*
X142325000Y-49850000D02*
X142325000Y-49350000D01*
X141375000Y-49350000D02*
X141375000Y-49850000D01*
X161850000Y-71550000D02*
X161850000Y-70850000D01*
X163050000Y-70850000D02*
X163050000Y-71550000D01*
X160350000Y-71550000D02*
X160350000Y-70850000D01*
X161550000Y-70850000D02*
X161550000Y-71550000D01*
X158850000Y-71500000D02*
X158850000Y-70800000D01*
X160050000Y-70800000D02*
X160050000Y-71500000D01*
X157600000Y-68100000D02*
X157600000Y-67400000D01*
X158800000Y-67400000D02*
X158800000Y-68100000D01*
X154350000Y-71500000D02*
X154350000Y-70800000D01*
X155550000Y-70800000D02*
X155550000Y-71500000D01*
X139550000Y-71860000D02*
X138850000Y-71860000D01*
X138850000Y-70660000D02*
X139550000Y-70660000D01*
X155850000Y-71500000D02*
X155850000Y-70800000D01*
X157050000Y-70800000D02*
X157050000Y-71500000D01*
X140480000Y-84780000D02*
X140480000Y-85480000D01*
X139280000Y-85480000D02*
X139280000Y-84780000D01*
X138980000Y-84780000D02*
X138980000Y-85480000D01*
X137780000Y-85480000D02*
X137780000Y-84780000D01*
X141980000Y-84780000D02*
X141980000Y-85480000D01*
X140780000Y-85480000D02*
X140780000Y-84780000D01*
X140050000Y-76650000D02*
X141050000Y-76650000D01*
X141050000Y-74950000D02*
X140050000Y-74950000D01*
X140050000Y-74650000D02*
X141050000Y-74650000D01*
X141050000Y-72950000D02*
X140050000Y-72950000D01*
X139550000Y-70360000D02*
X138850000Y-70360000D01*
X138850000Y-69160000D02*
X139550000Y-69160000D01*
X157350000Y-71500000D02*
X157350000Y-70800000D01*
X158550000Y-70800000D02*
X158550000Y-71500000D01*
X149100000Y-68600000D02*
X149100000Y-67600000D01*
X147400000Y-67600000D02*
X147400000Y-68600000D01*
X151500000Y-68600000D02*
X151500000Y-67600000D01*
X149800000Y-67600000D02*
X149800000Y-68600000D01*
X162500000Y-78300000D02*
X162500000Y-77300000D01*
X160800000Y-77300000D02*
X160800000Y-78300000D01*
X156450000Y-84070000D02*
X157450000Y-84070000D01*
X157450000Y-82370000D02*
X156450000Y-82370000D01*
X156440000Y-82100000D02*
X157440000Y-82100000D01*
X157440000Y-80400000D02*
X156440000Y-80400000D01*
X144870000Y-89310000D02*
X143870000Y-89310000D01*
X143870000Y-91010000D02*
X144870000Y-91010000D01*
X142310000Y-84950000D02*
X142310000Y-85950000D01*
X144010000Y-85950000D02*
X144010000Y-84950000D01*
X150540000Y-91240000D02*
X151540000Y-91240000D01*
X151540000Y-89540000D02*
X150540000Y-89540000D01*
X153320000Y-86770000D02*
X153320000Y-87770000D01*
X155020000Y-87770000D02*
X155020000Y-86770000D01*
X158750000Y-87450000D02*
X158750000Y-86750000D01*
X159950000Y-86750000D02*
X159950000Y-87450000D01*
X162150000Y-87500000D02*
X162150000Y-86800000D01*
X163350000Y-86800000D02*
X163350000Y-87500000D01*
X160450000Y-87500000D02*
X160450000Y-86800000D01*
X161650000Y-86800000D02*
X161650000Y-87500000D01*
X157250000Y-87450000D02*
X157250000Y-86750000D01*
X158450000Y-86750000D02*
X158450000Y-87450000D01*
X155750000Y-87450000D02*
X155750000Y-86750000D01*
X156950000Y-86750000D02*
X156950000Y-87450000D01*
X140000000Y-78950000D02*
X140700000Y-78950000D01*
X140700000Y-80150000D02*
X140000000Y-80150000D01*
X140000000Y-80450000D02*
X140700000Y-80450000D01*
X140700000Y-81650000D02*
X140000000Y-81650000D01*
X134780000Y-85480000D02*
X134780000Y-84780000D01*
X135980000Y-84780000D02*
X135980000Y-85480000D01*
X136280000Y-85480000D02*
X136280000Y-84780000D01*
X137480000Y-84780000D02*
X137480000Y-85480000D01*
X154330000Y-64495000D02*
X156330000Y-64495000D01*
X156330000Y-62445000D02*
X154330000Y-62445000D01*
X144870000Y-91600000D02*
X143870000Y-91600000D01*
X143870000Y-93300000D02*
X144870000Y-93300000D01*
X107100000Y-65935000D02*
X109100000Y-65935000D01*
X109100000Y-63885000D02*
X107100000Y-63885000D01*
X110500000Y-73650000D02*
X111500000Y-73650000D01*
X111500000Y-71950000D02*
X110500000Y-71950000D01*
X107950000Y-68975000D02*
X108450000Y-68975000D01*
X108450000Y-68025000D02*
X107950000Y-68025000D01*
X111350000Y-71475000D02*
X111850000Y-71475000D01*
X111850000Y-70525000D02*
X111350000Y-70525000D01*
X110050000Y-77600000D02*
X110050000Y-78600000D01*
X111750000Y-78600000D02*
X111750000Y-77600000D01*
X111350000Y-70275000D02*
X111850000Y-70275000D01*
X111850000Y-69325000D02*
X111350000Y-69325000D01*
X111360000Y-67875000D02*
X111860000Y-67875000D01*
X111860000Y-66925000D02*
X111360000Y-66925000D01*
X111350000Y-69075000D02*
X111850000Y-69075000D01*
X111850000Y-68125000D02*
X111350000Y-68125000D01*
X99640000Y-56830000D02*
X99640000Y-55830000D01*
X97940000Y-55830000D02*
X97940000Y-56830000D01*
X147475000Y-46900000D02*
X147475000Y-47400000D01*
X148425000Y-47400000D02*
X148425000Y-46900000D01*
X146450000Y-51175000D02*
X146950000Y-51175000D01*
X146950000Y-50225000D02*
X146450000Y-50225000D01*
X145700000Y-44975000D02*
X146200000Y-44975000D01*
X146200000Y-44025000D02*
X145700000Y-44025000D01*
X146450000Y-49825000D02*
X146950000Y-49825000D01*
X146950000Y-48875000D02*
X146450000Y-48875000D01*
X133850000Y-77600000D02*
X133850000Y-78600000D01*
X135550000Y-78600000D02*
X135550000Y-77600000D01*
X135550000Y-75000000D02*
X135550000Y-74000000D01*
X133850000Y-74000000D02*
X133850000Y-75000000D01*
X130340000Y-78800000D02*
X130340000Y-78100000D01*
X131540000Y-78100000D02*
X131540000Y-78800000D01*
X133550000Y-75000000D02*
X133550000Y-74000000D01*
X131850000Y-74000000D02*
X131850000Y-75000000D01*
X131850000Y-77600000D02*
X131850000Y-78600000D01*
X133550000Y-78600000D02*
X133550000Y-77600000D01*
X112245000Y-84370000D02*
X112245000Y-84870000D01*
X113195000Y-84870000D02*
X113195000Y-84370000D01*
X113075000Y-82260000D02*
X113075000Y-81760000D01*
X112125000Y-81760000D02*
X112125000Y-82260000D01*
X162200000Y-91250000D02*
X162200000Y-92250000D01*
X163900000Y-92250000D02*
X163900000Y-91250000D01*
X156075000Y-115450000D02*
X156075000Y-115950000D01*
X157025000Y-115950000D02*
X157025000Y-115450000D01*
X165500000Y-95575000D02*
X165000000Y-95575000D01*
X165000000Y-96525000D02*
X165500000Y-96525000D01*
X156200000Y-116975000D02*
X155700000Y-116975000D01*
X155700000Y-117925000D02*
X156200000Y-117925000D01*
X159500000Y-110150000D02*
X158500000Y-110150000D01*
X158500000Y-111850000D02*
X159500000Y-111850000D01*
X152370000Y-110765000D02*
X152870000Y-110765000D01*
X152870000Y-109815000D02*
X152370000Y-109815000D01*
X160250000Y-108325000D02*
X159750000Y-108325000D01*
X159750000Y-109275000D02*
X160250000Y-109275000D01*
X165350000Y-100175000D02*
X164850000Y-100175000D01*
X164850000Y-101125000D02*
X165350000Y-101125000D01*
X165350000Y-101375000D02*
X164850000Y-101375000D01*
X164850000Y-102325000D02*
X165350000Y-102325000D01*
X124825000Y-89000000D02*
X124825000Y-89500000D01*
X125775000Y-89500000D02*
X125775000Y-89000000D01*
X165350000Y-98975000D02*
X164850000Y-98975000D01*
X164850000Y-99925000D02*
X165350000Y-99925000D01*
X165350000Y-97775000D02*
X164850000Y-97775000D01*
X164850000Y-98725000D02*
X165350000Y-98725000D01*
X165350000Y-103975000D02*
X164850000Y-103975000D01*
X164850000Y-104925000D02*
X165350000Y-104925000D01*
X121025000Y-89550000D02*
X121025000Y-89050000D01*
X120075000Y-89050000D02*
X120075000Y-89550000D01*
X133650000Y-80125000D02*
X133150000Y-80125000D01*
X133150000Y-81075000D02*
X133650000Y-81075000D01*
X133185000Y-84570000D02*
X133185000Y-84070000D01*
X132235000Y-84070000D02*
X132235000Y-84570000D01*
X107340000Y-83890000D02*
X107340000Y-84890000D01*
X109040000Y-84890000D02*
X109040000Y-83890000D01*
X54520000Y-79680000D02*
X54520000Y-80680000D01*
X56220000Y-80680000D02*
X56220000Y-79680000D01*
X92700000Y-92575000D02*
X90700000Y-92575000D01*
X90700000Y-94625000D02*
X92700000Y-94625000D01*
X56600000Y-80150000D02*
X56600000Y-79450000D01*
X57800000Y-79450000D02*
X57800000Y-80150000D01*
X82500000Y-77910000D02*
X82500000Y-78910000D01*
X84200000Y-78910000D02*
X84200000Y-77910000D01*
X56410000Y-83480000D02*
X55710000Y-83480000D01*
X55710000Y-82280000D02*
X56410000Y-82280000D01*
X36700000Y-88850000D02*
X37400000Y-88850000D01*
X37400000Y-90050000D02*
X36700000Y-90050000D01*
X39600000Y-88850000D02*
X40300000Y-88850000D01*
X40300000Y-90050000D02*
X39600000Y-90050000D01*
X40025000Y-74200000D02*
X40025000Y-74700000D01*
X40975000Y-74700000D02*
X40975000Y-74200000D01*
X51825000Y-82850000D02*
X51825000Y-82350000D01*
X50875000Y-82350000D02*
X50875000Y-82850000D01*
X51825000Y-80500000D02*
X51825000Y-80000000D01*
X50875000Y-80000000D02*
X50875000Y-80500000D01*
X39875000Y-81400000D02*
X39875000Y-81900000D01*
X40825000Y-81900000D02*
X40825000Y-81400000D01*
X40825000Y-84650000D02*
X40825000Y-84150000D01*
X39875000Y-84150000D02*
X39875000Y-84650000D01*
X38725000Y-74200000D02*
X38725000Y-74700000D01*
X39675000Y-74700000D02*
X39675000Y-74200000D01*
X48500000Y-87225000D02*
X49000000Y-87225000D01*
X49000000Y-86275000D02*
X48500000Y-86275000D01*
X39875000Y-78800000D02*
X39875000Y-79300000D01*
X40825000Y-79300000D02*
X40825000Y-78800000D01*
X42600000Y-87325000D02*
X43100000Y-87325000D01*
X43100000Y-86375000D02*
X42600000Y-86375000D01*
X61750000Y-96825000D02*
X63750000Y-96825000D01*
X63750000Y-94775000D02*
X61750000Y-94775000D01*
X92700000Y-89675000D02*
X90700000Y-89675000D01*
X90700000Y-91725000D02*
X92700000Y-91725000D01*
X62150000Y-93450000D02*
X63150000Y-93450000D01*
X63150000Y-91750000D02*
X62150000Y-91750000D01*
X92600000Y-85925000D02*
X90600000Y-85925000D01*
X90600000Y-87975000D02*
X92600000Y-87975000D01*
X55950000Y-69200000D02*
X55950000Y-70200000D01*
X57650000Y-70200000D02*
X57650000Y-69200000D01*
X84950000Y-85850000D02*
X83950000Y-85850000D01*
X83950000Y-87550000D02*
X84950000Y-87550000D01*
X80550000Y-91325000D02*
X78550000Y-91325000D01*
X78550000Y-93375000D02*
X80550000Y-93375000D01*
X84510000Y-77910000D02*
X84510000Y-78910000D01*
X86210000Y-78910000D02*
X86210000Y-77910000D01*
X84900000Y-87850000D02*
X83900000Y-87850000D01*
X83900000Y-89550000D02*
X84900000Y-89550000D01*
X86375000Y-66360000D02*
X86375000Y-68360000D01*
X88425000Y-68360000D02*
X88425000Y-66360000D01*
X89150000Y-66800000D02*
X89150000Y-67800000D01*
X90850000Y-67800000D02*
X90850000Y-66800000D01*
X82825000Y-69900000D02*
X82825000Y-71900000D01*
X84875000Y-71900000D02*
X84875000Y-69900000D01*
X87050000Y-72000000D02*
X87050000Y-72700000D01*
X85850000Y-72700000D02*
X85850000Y-72000000D01*
X46150000Y-61400000D02*
X46850000Y-61400000D01*
X46850000Y-62600000D02*
X46150000Y-62600000D01*
X46300000Y-100500000D02*
X45600000Y-100500000D01*
X45600000Y-99300000D02*
X46300000Y-99300000D01*
X48300000Y-102925000D02*
X48800000Y-102925000D01*
X48800000Y-101975000D02*
X48300000Y-101975000D01*
X48300000Y-104125000D02*
X48800000Y-104125000D01*
X48800000Y-103175000D02*
X48300000Y-103175000D01*
X47500000Y-64625000D02*
X48000000Y-64625000D01*
X48000000Y-63675000D02*
X47500000Y-63675000D01*
X47500000Y-66025000D02*
X48000000Y-66025000D01*
X48000000Y-65075000D02*
X47500000Y-65075000D01*
X50500000Y-62900000D02*
X50500000Y-62200000D01*
X51700000Y-62200000D02*
X51700000Y-62900000D01*
X44100000Y-57920000D02*
X44100000Y-56920000D01*
X42400000Y-56920000D02*
X42400000Y-57920000D01*
X36300000Y-60210000D02*
X37000000Y-60210000D01*
X37000000Y-61410000D02*
X36300000Y-61410000D01*
X40600000Y-58400000D02*
X39600000Y-58400000D01*
X39600000Y-60100000D02*
X40600000Y-60100000D01*
X32575000Y-60850000D02*
X32575000Y-60350000D01*
X31625000Y-60350000D02*
X31625000Y-60850000D01*
X36435000Y-54280000D02*
X36435000Y-54780000D01*
X37385000Y-54780000D02*
X37385000Y-54280000D01*
X29385000Y-55860000D02*
X29385000Y-56360000D01*
X30335000Y-56360000D02*
X30335000Y-55860000D01*
X29145000Y-56360000D02*
X29145000Y-55860000D01*
X28195000Y-55860000D02*
X28195000Y-56360000D01*
X47480000Y-50630000D02*
X48480000Y-50630000D01*
X48480000Y-48930000D02*
X47480000Y-48930000D01*
X32440000Y-51025000D02*
X31940000Y-51025000D01*
X31940000Y-51975000D02*
X32440000Y-51975000D01*
X32360000Y-52405000D02*
X31860000Y-52405000D01*
X31860000Y-53355000D02*
X32360000Y-53355000D01*
X38120000Y-44855000D02*
X38620000Y-44855000D01*
X38620000Y-43905000D02*
X38120000Y-43905000D01*
X54675000Y-51100000D02*
X54675000Y-50600000D01*
X53725000Y-50600000D02*
X53725000Y-51100000D01*
X28900000Y-48200000D02*
X28900000Y-49200000D01*
X30600000Y-49200000D02*
X30600000Y-48200000D01*
X76200000Y-56525000D02*
X74200000Y-56525000D01*
X74200000Y-58575000D02*
X76200000Y-58575000D01*
X50800000Y-56675000D02*
X52800000Y-56675000D01*
X52800000Y-54625000D02*
X50800000Y-54625000D01*
X69450000Y-57190000D02*
X68750000Y-57190000D01*
X68750000Y-55990000D02*
X69450000Y-55990000D01*
X77355000Y-52900000D02*
X77355000Y-52400000D01*
X76405000Y-52400000D02*
X76405000Y-52900000D01*
X69425000Y-52400000D02*
X69425000Y-52900000D01*
X70375000Y-52900000D02*
X70375000Y-52400000D01*
X70675000Y-53150000D02*
X70675000Y-53650000D01*
X71625000Y-53650000D02*
X71625000Y-53150000D01*
X67625000Y-51800000D02*
X67625000Y-51300000D01*
X66675000Y-51300000D02*
X66675000Y-51800000D01*
X66410000Y-48835000D02*
X68410000Y-48835000D01*
X68410000Y-46785000D02*
X66410000Y-46785000D01*
X47510000Y-48450000D02*
X48510000Y-48450000D01*
X48510000Y-46750000D02*
X47510000Y-46750000D01*
X26525000Y-48300000D02*
X26525000Y-50300000D01*
X28575000Y-50300000D02*
X28575000Y-48300000D01*
X66440000Y-46245000D02*
X68440000Y-46245000D01*
X68440000Y-44195000D02*
X66440000Y-44195000D01*
X42900000Y-112250000D02*
X45600000Y-112250000D01*
X42900000Y-110750000D02*
X45600000Y-110750000D01*
X44400000Y-111650000D02*
X44400000Y-111400000D01*
X44400000Y-111400000D02*
X44250000Y-111550000D01*
X44150000Y-111150000D02*
X44150000Y-111850000D01*
X44500000Y-111500000D02*
X44850000Y-111500000D01*
X44150000Y-111500000D02*
X44500000Y-111150000D01*
X44500000Y-111150000D02*
X44500000Y-111850000D01*
X44500000Y-111850000D02*
X44150000Y-111500000D01*
X148880000Y-45150000D02*
X148880000Y-44950000D01*
X149480000Y-44950000D02*
X149480000Y-45150000D01*
X36900000Y-112250000D02*
X39600000Y-112250000D01*
X36900000Y-110750000D02*
X39600000Y-110750000D01*
X38400000Y-111650000D02*
X38400000Y-111400000D01*
X38400000Y-111400000D02*
X38250000Y-111550000D01*
X38150000Y-111150000D02*
X38150000Y-111850000D01*
X38500000Y-111500000D02*
X38850000Y-111500000D01*
X38150000Y-111500000D02*
X38500000Y-111150000D01*
X38500000Y-111150000D02*
X38500000Y-111850000D01*
X38500000Y-111850000D02*
X38150000Y-111500000D01*
X30900000Y-112250000D02*
X33600000Y-112250000D01*
X30900000Y-110750000D02*
X33600000Y-110750000D01*
X32400000Y-111650000D02*
X32400000Y-111400000D01*
X32400000Y-111400000D02*
X32250000Y-111550000D01*
X32150000Y-111150000D02*
X32150000Y-111850000D01*
X32500000Y-111500000D02*
X32850000Y-111500000D01*
X32150000Y-111500000D02*
X32500000Y-111150000D01*
X32500000Y-111150000D02*
X32500000Y-111850000D01*
X32500000Y-111850000D02*
X32150000Y-111500000D01*
X37610000Y-57440000D02*
X37610000Y-55890000D01*
X36410000Y-57440000D02*
X36410000Y-55890000D01*
X99750000Y-99550000D02*
X99650000Y-99700000D01*
X99650000Y-99700000D02*
X99850000Y-99700000D01*
X99850000Y-99700000D02*
X99750000Y-99550000D01*
X99500000Y-99300000D02*
X99500000Y-98300000D01*
X102000000Y-98300000D02*
X102000000Y-99300000D01*
X132500000Y-104850000D02*
X132500000Y-103650000D01*
X132500000Y-103650000D02*
X130000000Y-103650000D01*
X130000000Y-108350000D02*
X132500000Y-108350000D01*
X132500000Y-108350000D02*
X132500000Y-107150000D01*
X120000000Y-103650000D02*
X117500000Y-103650000D01*
X117500000Y-107150000D02*
X117500000Y-108350000D01*
X117500000Y-108350000D02*
X120000000Y-108350000D01*
X117500000Y-103650000D02*
X117500000Y-104850000D01*
X72500000Y-104850000D02*
X72500000Y-103650000D01*
X72500000Y-103650000D02*
X70000000Y-103650000D01*
X70000000Y-108350000D02*
X72500000Y-108350000D01*
X72500000Y-108350000D02*
X72500000Y-107150000D01*
X60000000Y-103650000D02*
X57500000Y-103650000D01*
X57500000Y-107150000D02*
X57500000Y-108350000D01*
X57500000Y-108350000D02*
X60000000Y-108350000D01*
X57500000Y-103650000D02*
X57500000Y-104850000D01*
X153250000Y-48950000D02*
X153250000Y-52050000D01*
X166550000Y-46450000D02*
X166950000Y-46450000D01*
X157450000Y-46450000D02*
X164150000Y-46450000D01*
X153250000Y-48950000D02*
X153250000Y-46450000D01*
X153250000Y-46450000D02*
X154450000Y-46450000D01*
X162350000Y-53050000D02*
X153250000Y-53050000D01*
X153250000Y-53050000D02*
X153250000Y-52050000D01*
X165150000Y-53050000D02*
X164550000Y-53050000D01*
X169350000Y-47250000D02*
X169850000Y-47250000D01*
X169850000Y-47250000D02*
X170250000Y-47250000D01*
X170250000Y-47250000D02*
X170250000Y-52250000D01*
X170250000Y-52250000D02*
X168750000Y-52250000D01*
X168750000Y-52250000D02*
X168750000Y-53050000D01*
X168750000Y-53050000D02*
X167350000Y-53050000D01*
X95450000Y-117150000D02*
X95450000Y-118450000D01*
X96950000Y-104350000D02*
X95450000Y-104350000D01*
X95450000Y-104350000D02*
X95450000Y-112300000D01*
X98450000Y-104350000D02*
X98350000Y-104350000D01*
X104800000Y-104350000D02*
X99300000Y-104350000D01*
X107600000Y-104350000D02*
X105650000Y-104350000D01*
X109250000Y-104350000D02*
X109100000Y-104350000D01*
X109250000Y-118650000D02*
X109250000Y-104350000D01*
X96350000Y-119600000D02*
X108350000Y-119600000D01*
X144250000Y-88060000D02*
X144450000Y-88260000D01*
X144250000Y-85960000D02*
X144450000Y-85760000D01*
X148250000Y-88060000D02*
X148050000Y-88260000D01*
X148250000Y-85960000D02*
X148050000Y-85760000D01*
X148250000Y-88060000D02*
X148250000Y-85960000D01*
X144250000Y-85960000D02*
X144250000Y-88060000D01*
X148910000Y-88080000D02*
X149110000Y-88280000D01*
X148910000Y-85980000D02*
X149110000Y-85780000D01*
X152910000Y-88080000D02*
X152710000Y-88280000D01*
X152910000Y-85980000D02*
X152710000Y-85780000D01*
X152910000Y-88080000D02*
X152910000Y-85980000D01*
X148910000Y-85980000D02*
X148910000Y-88080000D01*
X155750000Y-66200000D02*
X155550000Y-66000000D01*
X155750000Y-68300000D02*
X155550000Y-68500000D01*
X151750000Y-66200000D02*
X151950000Y-66000000D01*
X151750000Y-68300000D02*
X151950000Y-68500000D01*
X151750000Y-66200000D02*
X151750000Y-68300000D01*
X155750000Y-68300000D02*
X155750000Y-66200000D01*
X156150000Y-78850000D02*
X156350000Y-79050000D01*
X156150000Y-76750000D02*
X156350000Y-76550000D01*
X160150000Y-78850000D02*
X159950000Y-79050000D01*
X160150000Y-76750000D02*
X159950000Y-76550000D01*
X160150000Y-78850000D02*
X160150000Y-76750000D01*
X156150000Y-76750000D02*
X156150000Y-78850000D01*
X147050000Y-66150000D02*
X146850000Y-65950000D01*
X147050000Y-68250000D02*
X146850000Y-68450000D01*
X143050000Y-66150000D02*
X143250000Y-65950000D01*
X143050000Y-68250000D02*
X143250000Y-68450000D01*
X143050000Y-66150000D02*
X143050000Y-68250000D01*
X147050000Y-68250000D02*
X147050000Y-66150000D01*
X146200000Y-54000000D02*
X146200000Y-54700000D01*
X145000000Y-54700000D02*
X145000000Y-54000000D01*
X149000000Y-53850000D02*
X149000000Y-54550000D01*
X147800000Y-54550000D02*
X147800000Y-53850000D01*
X31360000Y-50740000D02*
X36640000Y-50740000D01*
X36640000Y-50740000D02*
X36640000Y-45260000D01*
X36640000Y-45260000D02*
X31360000Y-45260000D01*
X31360000Y-45260000D02*
X31360000Y-50740000D01*
X55200000Y-49450000D02*
X55200000Y-52450000D01*
X63200000Y-49450000D02*
X63200000Y-52450000D01*
X136800000Y-87200000D02*
X136800000Y-89200000D01*
X136800000Y-89200000D02*
X130800000Y-89200000D01*
X130800000Y-89200000D02*
X130800000Y-87200000D01*
X130800000Y-87200000D02*
X136800000Y-87200000D01*
X137800000Y-86700000D02*
X139300000Y-86700000D01*
X139300000Y-86700000D02*
X139300000Y-88200000D01*
X105480000Y-55730000D02*
X100400000Y-55730000D01*
X100400000Y-55730000D02*
X100400000Y-58270000D01*
X100400000Y-58270000D02*
X105480000Y-58270000D01*
X108300000Y-58550000D02*
X106750000Y-58550000D01*
X105480000Y-58270000D02*
X105480000Y-55730000D01*
X106750000Y-55450000D02*
X108300000Y-55450000D01*
X108300000Y-55450000D02*
X108300000Y-58550000D01*
X106680000Y-52700000D02*
X106680000Y-54700000D01*
X106680000Y-54700000D02*
X100680000Y-54700000D01*
X100680000Y-54700000D02*
X100680000Y-52700000D01*
X100680000Y-52700000D02*
X106680000Y-52700000D01*
X107680000Y-52200000D02*
X109180000Y-52200000D01*
X109180000Y-52200000D02*
X109180000Y-53700000D01*
X40430840Y-108350240D02*
X40479100Y-108350240D01*
X43229820Y-107649200D02*
X43229820Y-108350240D01*
X43229820Y-108350240D02*
X42980900Y-108350240D01*
X40430840Y-108350240D02*
X40230180Y-108350240D01*
X40230180Y-108350240D02*
X40230180Y-107649200D01*
X31300840Y-109150240D02*
X31349100Y-109150240D01*
X34099820Y-108449200D02*
X34099820Y-109150240D01*
X34099820Y-109150240D02*
X33850900Y-109150240D01*
X31300840Y-109150240D02*
X31100180Y-109150240D01*
X31100180Y-109150240D02*
X31100180Y-108449200D01*
X37870000Y-55120000D02*
X37670000Y-54870000D01*
X37670000Y-54870000D02*
X37670000Y-55320000D01*
X37670000Y-55320000D02*
X37870000Y-55120000D01*
X38070000Y-57420000D02*
X38070000Y-57720000D01*
X38070000Y-57720000D02*
X41370000Y-57720000D01*
X41370000Y-57720000D02*
X41370000Y-57420000D01*
X41370000Y-54420000D02*
X41370000Y-54720000D01*
X41370000Y-54420000D02*
X38070000Y-54420000D01*
X38070000Y-54420000D02*
X38070000Y-54720000D01*
X41520000Y-53480000D02*
X41720000Y-53730000D01*
X41720000Y-53730000D02*
X41720000Y-53280000D01*
X41720000Y-53280000D02*
X41520000Y-53480000D01*
X41320000Y-51180000D02*
X41320000Y-50880000D01*
X41320000Y-50880000D02*
X38020000Y-50880000D01*
X38020000Y-50880000D02*
X38020000Y-51180000D01*
X38020000Y-54180000D02*
X38020000Y-53880000D01*
X38020000Y-54180000D02*
X41320000Y-54180000D01*
X41320000Y-54180000D02*
X41320000Y-53880000D01*
X37170840Y-47390240D02*
X37219100Y-47390240D01*
X39969820Y-46689200D02*
X39969820Y-47390240D01*
X39969820Y-47390240D02*
X39720900Y-47390240D01*
X37170840Y-47390240D02*
X36970180Y-47390240D01*
X36970180Y-47390240D02*
X36970180Y-46689200D01*
X130700000Y-85445000D02*
X130200000Y-85445000D01*
X130200000Y-86495000D02*
X130700000Y-86495000D01*
X46475000Y-111250000D02*
X46475000Y-111750000D01*
X47525000Y-111750000D02*
X47525000Y-111250000D01*
X144575000Y-95100000D02*
X144575000Y-95600000D01*
X145625000Y-95600000D02*
X145625000Y-95100000D01*
X143125000Y-95100000D02*
X143125000Y-95600000D01*
X144175000Y-95600000D02*
X144175000Y-95100000D01*
X120325000Y-100150000D02*
X120325000Y-100650000D01*
X121375000Y-100650000D02*
X121375000Y-100150000D01*
X122825000Y-100650000D02*
X122825000Y-100150000D01*
X121775000Y-100150000D02*
X121775000Y-100650000D01*
X124275000Y-100650000D02*
X124275000Y-100150000D01*
X123225000Y-100150000D02*
X123225000Y-100650000D01*
X59375000Y-100550000D02*
X59375000Y-101050000D01*
X60425000Y-101050000D02*
X60425000Y-100550000D01*
X62025000Y-101050000D02*
X62025000Y-100550000D01*
X60975000Y-100550000D02*
X60975000Y-101050000D01*
X63775000Y-101050000D02*
X63775000Y-100550000D01*
X62725000Y-100550000D02*
X62725000Y-101050000D01*
X122600000Y-46975000D02*
X123100000Y-46975000D01*
X123100000Y-45925000D02*
X122600000Y-45925000D01*
X105600000Y-62275000D02*
X105100000Y-62275000D01*
X105100000Y-63325000D02*
X105600000Y-63325000D01*
X107900000Y-62275000D02*
X107400000Y-62275000D01*
X107400000Y-63325000D02*
X107900000Y-63325000D01*
X114970000Y-50905000D02*
X114470000Y-50905000D01*
X114470000Y-51955000D02*
X114970000Y-51955000D01*
X130950000Y-50825000D02*
X130450000Y-50825000D01*
X130450000Y-51875000D02*
X130950000Y-51875000D01*
X114950000Y-51805000D02*
X114450000Y-51805000D01*
X114450000Y-52855000D02*
X114950000Y-52855000D01*
X130950000Y-52125000D02*
X130450000Y-52125000D01*
X130450000Y-53175000D02*
X130950000Y-53175000D01*
X140550000Y-66485000D02*
X140050000Y-66485000D01*
X140050000Y-67535000D02*
X140550000Y-67535000D01*
X140560000Y-67835000D02*
X140060000Y-67835000D01*
X140060000Y-68885000D02*
X140560000Y-68885000D01*
X140650000Y-77025000D02*
X140150000Y-77025000D01*
X140150000Y-78075000D02*
X140650000Y-78075000D01*
X136925000Y-77400000D02*
X136925000Y-77900000D01*
X137975000Y-77900000D02*
X137975000Y-77400000D01*
X96615000Y-56460000D02*
X96615000Y-56960000D01*
X97665000Y-56960000D02*
X97665000Y-56460000D01*
X148675000Y-47050000D02*
X148675000Y-47550000D01*
X149725000Y-47550000D02*
X149725000Y-47050000D01*
X146650000Y-51575000D02*
X146150000Y-51575000D01*
X146150000Y-52625000D02*
X146650000Y-52625000D01*
X144275000Y-51550000D02*
X144275000Y-52050000D01*
X145325000Y-52050000D02*
X145325000Y-51550000D01*
X147525000Y-54100000D02*
X147525000Y-53600000D01*
X146475000Y-53600000D02*
X146475000Y-54100000D01*
X145975000Y-46950000D02*
X145975000Y-47450000D01*
X147025000Y-47450000D02*
X147025000Y-46950000D01*
X108675000Y-96550000D02*
X108675000Y-96050000D01*
X107625000Y-96050000D02*
X107625000Y-96550000D01*
X103315000Y-96570000D02*
X103315000Y-96070000D01*
X102265000Y-96070000D02*
X102265000Y-96570000D01*
X101755000Y-96590000D02*
X101755000Y-96090000D01*
X100705000Y-96090000D02*
X100705000Y-96590000D01*
X106505000Y-96580000D02*
X106505000Y-96080000D01*
X105455000Y-96080000D02*
X105455000Y-96580000D01*
X135875000Y-74650000D02*
X135875000Y-75150000D01*
X136925000Y-75150000D02*
X136925000Y-74650000D01*
X161925000Y-92100000D02*
X161925000Y-91600000D01*
X160875000Y-91600000D02*
X160875000Y-92100000D01*
X133275000Y-82350000D02*
X133275000Y-81850000D01*
X132225000Y-81850000D02*
X132225000Y-82350000D01*
X165775000Y-93250000D02*
X165775000Y-92750000D01*
X164725000Y-92750000D02*
X164725000Y-93250000D01*
X110770000Y-74865000D02*
X111270000Y-74865000D01*
X111270000Y-73815000D02*
X110770000Y-73815000D01*
X110770000Y-76165000D02*
X111270000Y-76165000D01*
X111270000Y-75115000D02*
X110770000Y-75115000D01*
X90775000Y-64450000D02*
X90775000Y-63950000D01*
X89725000Y-63950000D02*
X89725000Y-64450000D01*
X110700000Y-81925000D02*
X111200000Y-81925000D01*
X111200000Y-80875000D02*
X110700000Y-80875000D01*
X113750000Y-87375000D02*
X114250000Y-87375000D01*
X114250000Y-86325000D02*
X113750000Y-86325000D01*
X111985000Y-84680000D02*
X111985000Y-84180000D01*
X110935000Y-84180000D02*
X110935000Y-84680000D01*
X110675000Y-84690000D02*
X110675000Y-84190000D01*
X109625000Y-84190000D02*
X109625000Y-84690000D01*
X117150000Y-88125000D02*
X117650000Y-88125000D01*
X117650000Y-87075000D02*
X117150000Y-87075000D01*
X49430000Y-71735000D02*
X48930000Y-71735000D01*
X48930000Y-72785000D02*
X49430000Y-72785000D01*
X37800000Y-87525000D02*
X37300000Y-87525000D01*
X37300000Y-88575000D02*
X37800000Y-88575000D01*
X39700000Y-87525000D02*
X39200000Y-87525000D01*
X39200000Y-88575000D02*
X39700000Y-88575000D01*
X40875000Y-77100000D02*
X40875000Y-76600000D01*
X39825000Y-76600000D02*
X39825000Y-77100000D01*
X91600000Y-84975000D02*
X92100000Y-84975000D01*
X92100000Y-83925000D02*
X91600000Y-83925000D01*
X27340000Y-63785000D02*
X27840000Y-63785000D01*
X27840000Y-62735000D02*
X27340000Y-62735000D01*
X87750000Y-83925000D02*
X87250000Y-83925000D01*
X87250000Y-84975000D02*
X87750000Y-84975000D01*
X49925000Y-107550000D02*
X49925000Y-108050000D01*
X50975000Y-108050000D02*
X50975000Y-107550000D01*
X41250000Y-112025000D02*
X41750000Y-112025000D01*
X41750000Y-110975000D02*
X41250000Y-110975000D01*
X34875000Y-109000000D02*
X34875000Y-109500000D01*
X35925000Y-109500000D02*
X35925000Y-109000000D01*
X35250000Y-112025000D02*
X35750000Y-112025000D01*
X35750000Y-110975000D02*
X35250000Y-110975000D01*
X89520000Y-72995000D02*
X89020000Y-72995000D01*
X89020000Y-74045000D02*
X89520000Y-74045000D01*
X91570000Y-73915000D02*
X92070000Y-73915000D01*
X92070000Y-72865000D02*
X91570000Y-72865000D01*
X52175000Y-102250000D02*
X52175000Y-101750000D01*
X51125000Y-101750000D02*
X51125000Y-102250000D01*
X49825000Y-101750000D02*
X49825000Y-102250000D01*
X50875000Y-102250000D02*
X50875000Y-101750000D01*
X51125000Y-103850000D02*
X51125000Y-104350000D01*
X52175000Y-104350000D02*
X52175000Y-103850000D01*
X50875000Y-104350000D02*
X50875000Y-103850000D01*
X49825000Y-103850000D02*
X49825000Y-104350000D01*
X36710000Y-59705000D02*
X37210000Y-59705000D01*
X37210000Y-58655000D02*
X36710000Y-58655000D01*
X36170000Y-62845000D02*
X36670000Y-62845000D01*
X36670000Y-61795000D02*
X36170000Y-61795000D01*
X31375000Y-60800000D02*
X31375000Y-60300000D01*
X30325000Y-60300000D02*
X30325000Y-60800000D01*
X49175000Y-61950000D02*
X49175000Y-62450000D01*
X50225000Y-62450000D02*
X50225000Y-61950000D01*
X56425000Y-62250000D02*
X56425000Y-62750000D01*
X57475000Y-62750000D02*
X57475000Y-62250000D01*
X55125000Y-62250000D02*
X55125000Y-62750000D01*
X56175000Y-62750000D02*
X56175000Y-62250000D01*
X34145000Y-60830000D02*
X34145000Y-60330000D01*
X33095000Y-60330000D02*
X33095000Y-60830000D01*
X36050000Y-51275000D02*
X35550000Y-51275000D01*
X35550000Y-52325000D02*
X36050000Y-52325000D01*
X34615000Y-52510000D02*
X34615000Y-52010000D01*
X33565000Y-52010000D02*
X33565000Y-52510000D01*
X30735000Y-51890000D02*
X30735000Y-51390000D01*
X29685000Y-51390000D02*
X29685000Y-51890000D01*
X27775000Y-53750000D02*
X27775000Y-54250000D01*
X28825000Y-54250000D02*
X28825000Y-53750000D01*
X52570000Y-54035000D02*
X53070000Y-54035000D01*
X53070000Y-52985000D02*
X52570000Y-52985000D01*
X50170000Y-54075000D02*
X50670000Y-54075000D01*
X50670000Y-53025000D02*
X50170000Y-53025000D01*
X76395000Y-54760000D02*
X76395000Y-55260000D01*
X77445000Y-55260000D02*
X77445000Y-54760000D01*
X69375000Y-54500000D02*
X69375000Y-55000000D01*
X70425000Y-55000000D02*
X70425000Y-54500000D01*
X69025000Y-52000000D02*
X69025000Y-51500000D01*
X67975000Y-51500000D02*
X67975000Y-52000000D01*
X67430000Y-55545000D02*
X67930000Y-55545000D01*
X67930000Y-54495000D02*
X67430000Y-54495000D01*
X68040000Y-53045000D02*
X67540000Y-53045000D01*
X67540000Y-54095000D02*
X68040000Y-54095000D01*
X128135000Y-44750000D02*
X128135000Y-44250000D01*
X125865000Y-44750000D02*
X125865000Y-44250000D01*
X18500000Y-102500000D02*
X20000000Y-102500000D01*
X20000000Y-102500000D02*
X20000000Y-99050000D01*
X20000000Y-105750000D02*
X20000000Y-103800000D01*
X18500000Y-102500000D02*
X18500000Y-103800000D01*
X18500000Y-103800000D02*
X20000000Y-103800000D01*
X21300000Y-99050000D02*
X20000000Y-99050000D01*
X22600000Y-105100000D02*
X22600000Y-105750000D01*
X22600000Y-105750000D02*
X20000000Y-105750000D01*
X22600000Y-103600000D02*
X22600000Y-104200000D01*
X22600000Y-100600000D02*
X22600000Y-102700000D01*
X21300000Y-99050000D02*
X22600000Y-99050000D01*
X22600000Y-99050000D02*
X22600000Y-99700000D01*
X34250000Y-33250000D02*
X34250000Y-27250000D01*
X34250000Y-27250000D02*
X37750000Y-27250000D01*
X37750000Y-27250000D02*
X37750000Y-33250000D01*
X37750000Y-33250000D02*
X39750000Y-33250000D01*
X39750000Y-33250000D02*
X39750000Y-36750000D01*
X32250000Y-33250000D02*
X34250000Y-33250000D01*
X32250000Y-35500000D02*
X32250000Y-33250000D01*
X32250000Y-36750000D02*
X32250000Y-35250000D01*
X46250000Y-33250000D02*
X46250000Y-27250000D01*
X46250000Y-27250000D02*
X49750000Y-27250000D01*
X49750000Y-27250000D02*
X49750000Y-33250000D01*
X49750000Y-33250000D02*
X51750000Y-33250000D01*
X51750000Y-33250000D02*
X51750000Y-36750000D01*
X44250000Y-33250000D02*
X46250000Y-33250000D01*
X44250000Y-35500000D02*
X44250000Y-33250000D01*
X44250000Y-36750000D02*
X44250000Y-35250000D01*
X58250000Y-33250000D02*
X58250000Y-27250000D01*
X58250000Y-27250000D02*
X61750000Y-27250000D01*
X61750000Y-27250000D02*
X61750000Y-33250000D01*
X61750000Y-33250000D02*
X63750000Y-33250000D01*
X63750000Y-33250000D02*
X63750000Y-36750000D01*
X56250000Y-33250000D02*
X58250000Y-33250000D01*
X56250000Y-35500000D02*
X56250000Y-33250000D01*
X56250000Y-36750000D02*
X56250000Y-35250000D01*
X70250000Y-33250000D02*
X70250000Y-27250000D01*
X70250000Y-27250000D02*
X73750000Y-27250000D01*
X73750000Y-27250000D02*
X73750000Y-33250000D01*
X73750000Y-33250000D02*
X75750000Y-33250000D01*
X75750000Y-33250000D02*
X75750000Y-36750000D01*
X68250000Y-33250000D02*
X70250000Y-33250000D01*
X68250000Y-35500000D02*
X68250000Y-33250000D01*
X68250000Y-36750000D02*
X68250000Y-35250000D01*
X116250000Y-33250000D02*
X116250000Y-27250000D01*
X116250000Y-27250000D02*
X119750000Y-27250000D01*
X119750000Y-27250000D02*
X119750000Y-33250000D01*
X119750000Y-33250000D02*
X121750000Y-33250000D01*
X121750000Y-33250000D02*
X121750000Y-36750000D01*
X114250000Y-33250000D02*
X116250000Y-33250000D01*
X114250000Y-35500000D02*
X114250000Y-33250000D01*
X114250000Y-36750000D02*
X114250000Y-35250000D01*
X128250000Y-33250000D02*
X128250000Y-27250000D01*
X128250000Y-27250000D02*
X131750000Y-27250000D01*
X131750000Y-27250000D02*
X131750000Y-33250000D01*
X131750000Y-33250000D02*
X133750000Y-33250000D01*
X133750000Y-33250000D02*
X133750000Y-36750000D01*
X126250000Y-33250000D02*
X128250000Y-33250000D01*
X126250000Y-35500000D02*
X126250000Y-33250000D01*
X126250000Y-36750000D02*
X126250000Y-35250000D01*
X140250000Y-33250000D02*
X140250000Y-27250000D01*
X140250000Y-27250000D02*
X143750000Y-27250000D01*
X143750000Y-27250000D02*
X143750000Y-33250000D01*
X143750000Y-33250000D02*
X145750000Y-33250000D01*
X145750000Y-33250000D02*
X145750000Y-36750000D01*
X138250000Y-33250000D02*
X140250000Y-33250000D01*
X138250000Y-35500000D02*
X138250000Y-33250000D01*
X138250000Y-36750000D02*
X138250000Y-35250000D01*
X152250000Y-33250000D02*
X152250000Y-27250000D01*
X152250000Y-27250000D02*
X155750000Y-27250000D01*
X155750000Y-27250000D02*
X155750000Y-33250000D01*
X155750000Y-33250000D02*
X157750000Y-33250000D01*
X157750000Y-33250000D02*
X157750000Y-36750000D01*
X150250000Y-33250000D02*
X152250000Y-33250000D01*
X150250000Y-35500000D02*
X150250000Y-33250000D01*
X150250000Y-36750000D02*
X150250000Y-35250000D01*
X141800000Y-95200000D02*
X141800000Y-95725000D01*
X137500000Y-99500000D02*
X137500000Y-98975000D01*
X141800000Y-99500000D02*
X141800000Y-98975000D01*
X137500000Y-95200000D02*
X138025000Y-95200000D01*
X137500000Y-99500000D02*
X138025000Y-99500000D01*
X141800000Y-99500000D02*
X141275000Y-99500000D01*
X141800000Y-95200000D02*
X141275000Y-95200000D01*
X145800000Y-81700000D02*
X146200000Y-82100000D01*
X146200000Y-82100000D02*
X145400000Y-82100000D01*
X145400000Y-82100000D02*
X145800000Y-81700000D01*
X145400000Y-81000000D02*
X145000000Y-80600000D01*
X145000000Y-73400000D02*
X145000000Y-73000000D01*
X145000000Y-73000000D02*
X145400000Y-73000000D01*
X153000000Y-80600000D02*
X153000000Y-81000000D01*
X153000000Y-81000000D02*
X152600000Y-81000000D01*
X153000000Y-73400000D02*
X153000000Y-73000000D01*
X153000000Y-73000000D02*
X152600000Y-73000000D01*
X94750000Y-57970000D02*
G75*
G03X94750000Y-57970000I-100000J0D01*
G01*
X94000000Y-57720000D02*
X94500000Y-57720000D01*
X94000000Y-54820000D02*
X94000000Y-57720000D01*
X94500000Y-54820000D02*
X94000000Y-54820000D01*
X94500000Y-57720000D02*
X94500000Y-54820000D01*
X151350000Y-107000000D02*
X150750000Y-106400000D01*
X150750000Y-95600000D02*
X150750000Y-95000000D01*
X150750000Y-95000000D02*
X151350000Y-95000000D01*
X162750000Y-106400000D02*
X162750000Y-107000000D01*
X162750000Y-107000000D02*
X162150000Y-107000000D01*
X162750000Y-95600000D02*
X162750000Y-95000000D01*
X162750000Y-95000000D02*
X162150000Y-95000000D01*
X94049160Y-63599760D02*
X94000900Y-63599760D01*
X91250180Y-64300800D02*
X91250180Y-63599760D01*
X91250180Y-63599760D02*
X91499100Y-63599760D01*
X94049160Y-63599760D02*
X94249820Y-63599760D01*
X94249820Y-63599760D02*
X94249820Y-64300800D01*
X46350840Y-108350240D02*
X46399100Y-108350240D01*
X49149820Y-107649200D02*
X49149820Y-108350240D01*
X49149820Y-108350240D02*
X48900900Y-108350240D01*
X46350840Y-108350240D02*
X46150180Y-108350240D01*
X46150180Y-108350240D02*
X46150180Y-107649200D01*
X88100000Y-83700000D02*
X87900000Y-84000000D01*
X87900000Y-84000000D02*
X88300000Y-84000000D01*
X88300000Y-84000000D02*
X88100000Y-83700000D01*
X88400000Y-82100000D02*
G75*
G03X88400000Y-82100000I-300000J0D01*
G01*
X91000000Y-83000000D02*
X91500000Y-83000000D01*
X89800000Y-83000000D02*
X90200000Y-83000000D01*
X88500000Y-83000000D02*
X89000000Y-83000000D01*
X87700000Y-75000000D02*
X87000000Y-75000000D01*
X87000000Y-75000000D02*
X87000000Y-83000000D01*
X87000000Y-83000000D02*
X87700000Y-83000000D01*
X89000000Y-75000000D02*
X88500000Y-75000000D01*
X90300000Y-75000000D02*
X89700000Y-75000000D01*
X91000000Y-75000000D02*
X91500000Y-75000000D01*
X93000000Y-75000000D02*
X92300000Y-75000000D01*
X93000000Y-75000000D02*
X93000000Y-83000000D01*
X93000000Y-83000000D02*
X92300000Y-83000000D01*
X51800000Y-62900000D02*
G75*
G03X51800000Y-62900000I-100000J0D01*
G01*
X51950000Y-62250000D02*
X51950000Y-62750000D01*
X54850000Y-62250000D02*
X51950000Y-62250000D01*
X54850000Y-62750000D02*
X54850000Y-62250000D01*
X51950000Y-62750000D02*
X54850000Y-62750000D01*
X35250000Y-54050000D02*
X35250000Y-54575000D01*
X30950000Y-58350000D02*
X30950000Y-57825000D01*
X35250000Y-58350000D02*
X35250000Y-57825000D01*
X30950000Y-54050000D02*
X31475000Y-54050000D01*
X30950000Y-58350000D02*
X31475000Y-58350000D01*
X35250000Y-58350000D02*
X34725000Y-58350000D01*
X35250000Y-54050000D02*
X34725000Y-54050000D01*
X53800000Y-50350000D02*
G75*
G03X53800000Y-50350000I-100000J0D01*
G01*
X53450000Y-51000000D02*
X53450000Y-50500000D01*
X50550000Y-51000000D02*
X53450000Y-51000000D01*
X50550000Y-50500000D02*
X50550000Y-51000000D01*
X53450000Y-50500000D02*
X50550000Y-50500000D01*
X109765000Y-33450000D02*
X109765000Y-33850000D01*
X109765000Y-33450000D02*
X109365000Y-33450000D01*
X106565000Y-33450000D02*
X106565000Y-33850000D01*
X106565000Y-33450000D02*
X106965000Y-33450000D01*
X106565000Y-36650000D02*
X106565000Y-36250000D01*
X106565000Y-36650000D02*
X106965000Y-36650000D01*
X109765000Y-36650000D02*
X109365000Y-36650000D01*
X124575000Y-90300000D02*
X124875000Y-90550000D01*
X124875000Y-90550000D02*
X124875000Y-90050000D01*
X124875000Y-90050000D02*
X124575000Y-90300000D01*
X124175000Y-89550000D02*
X124175000Y-88750000D01*
X122625000Y-87550000D02*
X123225000Y-87550000D01*
X121675000Y-89550000D02*
X121675000Y-88750000D01*
X123225000Y-90750000D02*
X122625000Y-90750000D01*
X44150000Y-101400000D02*
X43950000Y-101200000D01*
X43950000Y-101200000D02*
X43950000Y-101600000D01*
X43950000Y-101600000D02*
X44150000Y-101400000D01*
X47000000Y-102150000D02*
X47000000Y-102000000D01*
X47000000Y-102850000D02*
X47000000Y-103000000D01*
X44500000Y-104100000D02*
X47000000Y-104100000D01*
X44500000Y-102850000D02*
X44500000Y-103000000D01*
X44500000Y-102150000D02*
X44500000Y-102000000D01*
X44500000Y-100900000D02*
X47000000Y-100900000D01*
X42950000Y-63550000D02*
X42750000Y-63350000D01*
X42750000Y-63350000D02*
X42750000Y-63750000D01*
X42750000Y-63750000D02*
X42950000Y-63550000D01*
X45800000Y-64300000D02*
X45800000Y-64150000D01*
X45800000Y-65000000D02*
X45800000Y-65150000D01*
X43300000Y-66250000D02*
X45800000Y-66250000D01*
X43300000Y-65000000D02*
X43300000Y-65150000D01*
X43300000Y-64300000D02*
X43300000Y-64150000D01*
X43300000Y-63050000D02*
X45800000Y-63050000D01*
X130250000Y-81400000D02*
X130250000Y-82600000D01*
X131750000Y-81400000D02*
X131750000Y-82600000D01*
X88350000Y-37450000D02*
X88350000Y-29000000D01*
X88350000Y-43100000D02*
X88350000Y-41150000D01*
X101500000Y-37500000D02*
X101500000Y-29000000D01*
X101500000Y-43000000D02*
X101500000Y-41150000D01*
X90500000Y-43100000D02*
X88350000Y-43100000D01*
X101500000Y-43000000D02*
X99500000Y-43000000D01*
X88350000Y-29000000D02*
X101500000Y-29000000D01*
X141460000Y-112280000D02*
X140940000Y-112280000D01*
X144430000Y-112280000D02*
X144900000Y-112280000D01*
X137510000Y-112280000D02*
X137970000Y-112280000D01*
X136730000Y-114340000D02*
X136730000Y-113980000D01*
X145670000Y-120000000D02*
X145670000Y-120180000D01*
X145670000Y-120180000D02*
X136730000Y-120180000D01*
X136730000Y-120180000D02*
X136730000Y-120000000D01*
X145670000Y-116830000D02*
X145670000Y-113980000D01*
X136730000Y-119580000D02*
X136730000Y-119630000D01*
X136730000Y-119600000D02*
X136730000Y-119590000D01*
X145670000Y-120000000D02*
X145670000Y-119590000D01*
X136730000Y-119620000D02*
X136730000Y-120000000D01*
X136730000Y-114350000D02*
X136730000Y-116860000D01*
X137100000Y-120000000D02*
X137000000Y-120000000D01*
X137450000Y-120000000D02*
X137350000Y-120000000D01*
X145300000Y-120000000D02*
X145400000Y-120000000D01*
X144950000Y-120000000D02*
X145050000Y-120000000D01*
X137700000Y-114350000D02*
X144650000Y-120000000D01*
X141200000Y-120000000D02*
X137700000Y-120000000D01*
X137700000Y-120000000D02*
X137700000Y-114350000D01*
X137700000Y-114350000D02*
X144700000Y-114350000D01*
X144700000Y-114350000D02*
X144700000Y-120000000D01*
X144700000Y-120000000D02*
X141200000Y-120000000D01*
X107450000Y-99700000D02*
X107350000Y-99850000D01*
X107350000Y-99850000D02*
X107550000Y-99850000D01*
X107550000Y-99850000D02*
X107450000Y-99700000D01*
X107200000Y-99450000D02*
X107200000Y-98450000D01*
X109700000Y-98450000D02*
X109700000Y-99450000D01*
X143550000Y-109320000D02*
X143450000Y-109470000D01*
X143450000Y-109470000D02*
X143650000Y-109470000D01*
X143650000Y-109470000D02*
X143550000Y-109320000D01*
X143300000Y-109070000D02*
X143300000Y-108070000D01*
X145800000Y-108070000D02*
X145800000Y-109070000D01*
X140400000Y-109300000D02*
X140300000Y-109450000D01*
X140300000Y-109450000D02*
X140500000Y-109450000D01*
X140500000Y-109450000D02*
X140400000Y-109300000D01*
X140150000Y-109050000D02*
X140150000Y-108050000D01*
X142650000Y-108050000D02*
X142650000Y-109050000D01*
X137350000Y-109250000D02*
X137250000Y-109400000D01*
X137250000Y-109400000D02*
X137450000Y-109400000D01*
X137450000Y-109400000D02*
X137350000Y-109250000D01*
X137100000Y-109000000D02*
X137100000Y-108000000D01*
X139600000Y-108000000D02*
X139600000Y-109000000D01*
X148150000Y-48850000D02*
X148000000Y-48750000D01*
X148000000Y-48750000D02*
X148000000Y-48950000D01*
X148000000Y-48950000D02*
X148150000Y-48850000D01*
X148400000Y-48600000D02*
X149400000Y-48600000D01*
X149400000Y-51100000D02*
X148400000Y-51100000D01*
X169750000Y-69000000D02*
X170250000Y-69000000D01*
X170250000Y-69000000D02*
X170250000Y-67400000D01*
X170250000Y-67400000D02*
X169750000Y-67400000D01*
X169750000Y-66450000D02*
X169750000Y-69950000D01*
X169750000Y-69950000D02*
X166850000Y-69950000D01*
X166850000Y-69950000D02*
X166850000Y-66450000D01*
X166850000Y-66450000D02*
X169750000Y-66450000D01*
X169750000Y-62300000D02*
X170250000Y-62300000D01*
X170250000Y-62300000D02*
X170250000Y-60700000D01*
X170250000Y-60700000D02*
X169750000Y-60700000D01*
X169750000Y-59750000D02*
X169750000Y-63250000D01*
X169750000Y-63250000D02*
X166850000Y-63250000D01*
X166850000Y-63250000D02*
X166850000Y-59750000D01*
X166850000Y-59750000D02*
X169750000Y-59750000D01*
X20250000Y-58600000D02*
X19750000Y-58600000D01*
X19750000Y-58600000D02*
X19750000Y-60200000D01*
X19750000Y-60200000D02*
X20250000Y-60200000D01*
X20250000Y-61150000D02*
X20250000Y-57650000D01*
X20250000Y-57650000D02*
X23150000Y-57650000D01*
X23150000Y-57650000D02*
X23150000Y-61150000D01*
X23150000Y-61150000D02*
X20250000Y-61150000D01*
X145640000Y-64565000D02*
X147640000Y-64565000D01*
X147640000Y-62515000D02*
X145640000Y-62515000D01*
X76840000Y-64015000D02*
X76840000Y-63785000D01*
X75960000Y-63785000D02*
X75960000Y-64015000D01*
X77940000Y-64015000D02*
X77940000Y-63785000D01*
X77060000Y-63785000D02*
X77060000Y-64015000D01*
X79040000Y-64015000D02*
X79040000Y-63785000D01*
X78160000Y-63785000D02*
X78160000Y-64015000D01*
X80140000Y-64015000D02*
X80140000Y-63785000D01*
X79260000Y-63785000D02*
X79260000Y-64015000D01*
X72440000Y-64015000D02*
X72440000Y-63785000D01*
X71560000Y-63785000D02*
X71560000Y-64015000D01*
X73540000Y-64015000D02*
X73540000Y-63785000D01*
X72660000Y-63785000D02*
X72660000Y-64015000D01*
X74640000Y-64015000D02*
X74640000Y-63785000D01*
X73760000Y-63785000D02*
X73760000Y-64015000D01*
X75740000Y-64015000D02*
X75740000Y-63785000D01*
X74860000Y-63785000D02*
X74860000Y-64015000D01*
X81240000Y-64015000D02*
X81240000Y-63785000D01*
X80360000Y-63785000D02*
X80360000Y-64015000D01*
X82340000Y-64015000D02*
X82340000Y-63785000D01*
X81460000Y-63785000D02*
X81460000Y-64015000D01*
X83440000Y-64015000D02*
X83440000Y-63785000D01*
X82560000Y-63785000D02*
X82560000Y-64015000D01*
X84540000Y-64015000D02*
X84540000Y-63785000D01*
X83660000Y-63785000D02*
X83660000Y-64015000D01*
X77315000Y-62260000D02*
X77085000Y-62260000D01*
X77085000Y-63140000D02*
X77315000Y-63140000D01*
X79015000Y-62260000D02*
X78785000Y-62260000D01*
X78785000Y-63140000D02*
X79015000Y-63140000D01*
X72915000Y-62260000D02*
X72685000Y-62260000D01*
X72685000Y-63140000D02*
X72915000Y-63140000D01*
X74615000Y-62260000D02*
X74385000Y-62260000D01*
X74385000Y-63140000D02*
X74615000Y-63140000D01*
X81715000Y-62260000D02*
X81485000Y-62260000D01*
X81485000Y-63140000D02*
X81715000Y-63140000D01*
X83415000Y-62260000D02*
X83185000Y-62260000D01*
X83185000Y-63140000D02*
X83415000Y-63140000D01*
D15*
X96350000Y-87500000D02*
X96350000Y-86500000D01*
X94650000Y-86500000D02*
X94650000Y-87500000D01*
D14*
X98450000Y-88525000D02*
X98950000Y-88525000D01*
X98950000Y-87475000D02*
X98450000Y-87475000D01*
D15*
X81275000Y-94750000D02*
X81275000Y-95250000D01*
X82225000Y-95250000D02*
X82225000Y-94750000D01*
X28270000Y-117890000D02*
X41090000Y-117890000D01*
X41090000Y-117890000D02*
X41090000Y-115110000D01*
X41090000Y-115110000D02*
X28270000Y-115110000D01*
X28270000Y-115110000D02*
X28270000Y-117890000D01*
X27000000Y-117890000D02*
X25610000Y-117890000D01*
X25610000Y-117890000D02*
X25610000Y-116500000D01*
X45270000Y-117890000D02*
X47930000Y-117890000D01*
X47930000Y-117890000D02*
X47930000Y-115110000D01*
X47930000Y-115110000D02*
X45270000Y-115110000D01*
X45270000Y-115110000D02*
X45270000Y-117890000D01*
X44000000Y-117890000D02*
X42610000Y-117890000D01*
X42610000Y-117890000D02*
X42610000Y-116500000D01*
X29214394Y-68257114D02*
G75*
G03X29212400Y-73922100I1115606J-2832886D01*
G01*
X31447600Y-73922100D02*
G75*
G03X31447600Y-68257900I-1117600J2832100D01*
G01*
X27028000Y-74392000D02*
X29212400Y-74392000D01*
X33632000Y-74392000D02*
X31447600Y-74392000D01*
X27790000Y-67788000D02*
X29212400Y-67788000D01*
X32870000Y-67788000D02*
X31447600Y-67788000D01*
X27028000Y-74392000D02*
X27028000Y-68550000D01*
X27028000Y-68550000D02*
X27790000Y-67788000D01*
X32870000Y-67788000D02*
X33632000Y-68550000D01*
X33632000Y-68550000D02*
X33632000Y-74392000D01*
X63650000Y-66300000D02*
X63650000Y-65800000D01*
X64450000Y-65800000D02*
X64450000Y-66300000D01*
X70250000Y-66300000D02*
X70250000Y-65800000D01*
X71050000Y-65800000D02*
X71050000Y-66300000D01*
X68050000Y-66300000D02*
X68050000Y-65800000D01*
X68850000Y-65800000D02*
X68850000Y-66300000D01*
X65850000Y-66300000D02*
X65850000Y-65800000D01*
X66650000Y-65800000D02*
X66650000Y-66300000D01*
X62550000Y-66300000D02*
X62550000Y-65800000D01*
X63350000Y-65800000D02*
X63350000Y-66300000D01*
X69150000Y-66300000D02*
X69150000Y-65800000D01*
X69950000Y-65800000D02*
X69950000Y-66300000D01*
X66950000Y-66300000D02*
X66950000Y-65800000D01*
X67750000Y-65800000D02*
X67750000Y-66300000D01*
X64750000Y-66300000D02*
X64750000Y-65800000D01*
X65550000Y-65800000D02*
X65550000Y-66300000D01*
X94300000Y-76550000D02*
X94300000Y-75850000D01*
X95500000Y-75850000D02*
X95500000Y-76550000D01*
X84090000Y-47080000D02*
X84090000Y-44420000D01*
X84090000Y-44420000D02*
X81310000Y-44420000D01*
X81310000Y-44420000D02*
X81310000Y-47080000D01*
X81310000Y-47080000D02*
X84090000Y-47080000D01*
X84090000Y-48350000D02*
X84090000Y-49740000D01*
X84090000Y-49740000D02*
X82700000Y-49740000D01*
D14*
X103475000Y-49750000D02*
X103475000Y-50250000D01*
X104525000Y-50250000D02*
X104525000Y-49750000D01*
X101975000Y-49750000D02*
X101975000Y-50250000D01*
X103025000Y-50250000D02*
X103025000Y-49750000D01*
X100475000Y-49750000D02*
X100475000Y-50250000D01*
X101525000Y-50250000D02*
X101525000Y-49750000D01*
X130714286Y-102735714D02*
X130714286Y-103402381D01*
X130476190Y-102354762D02*
X130238095Y-103069048D01*
X130857143Y-103069048D01*
X131428571Y-102402381D02*
X131523810Y-102402381D01*
X131619048Y-102450000D01*
X131666667Y-102497619D01*
X131714286Y-102592857D01*
X131761905Y-102783333D01*
X131761905Y-103021429D01*
X131714286Y-103211905D01*
X131666667Y-103307143D01*
X131619048Y-103354762D01*
X131523810Y-103402381D01*
X131428571Y-103402381D01*
X131333333Y-103354762D01*
X131285714Y-103307143D01*
X131238095Y-103211905D01*
X131190476Y-103021429D01*
X131190476Y-102783333D01*
X131238095Y-102592857D01*
X131285714Y-102497619D01*
X131333333Y-102450000D01*
X131428571Y-102402381D01*
X119314286Y-102447619D02*
X119361905Y-102400000D01*
X119457143Y-102352381D01*
X119695239Y-102352381D01*
X119790477Y-102400000D01*
X119838096Y-102447619D01*
X119885715Y-102542857D01*
X119885715Y-102638095D01*
X119838096Y-102780952D01*
X119266667Y-103352381D01*
X119885715Y-103352381D01*
X130190476Y-108652381D02*
X130809524Y-108652381D01*
X130476190Y-109033333D01*
X130619048Y-109033333D01*
X130714286Y-109080952D01*
X130761905Y-109128571D01*
X130809524Y-109223810D01*
X130809524Y-109461905D01*
X130761905Y-109557143D01*
X130714286Y-109604762D01*
X130619048Y-109652381D01*
X130333333Y-109652381D01*
X130238095Y-109604762D01*
X130190476Y-109557143D01*
X131285714Y-109652381D02*
X131476190Y-109652381D01*
X131571429Y-109604762D01*
X131619048Y-109557143D01*
X131714286Y-109414286D01*
X131761905Y-109223810D01*
X131761905Y-108842857D01*
X131714286Y-108747619D01*
X131666667Y-108700000D01*
X131571429Y-108652381D01*
X131380952Y-108652381D01*
X131285714Y-108700000D01*
X131238095Y-108747619D01*
X131190476Y-108842857D01*
X131190476Y-109080952D01*
X131238095Y-109176190D01*
X131285714Y-109223810D01*
X131380952Y-109271429D01*
X131571429Y-109271429D01*
X131666667Y-109223810D01*
X131714286Y-109176190D01*
X131761905Y-109080952D01*
X119985715Y-109602381D02*
X119414286Y-109602381D01*
X119700000Y-109602381D02*
X119700000Y-108602381D01*
X119604762Y-108745238D01*
X119509524Y-108840476D01*
X119414286Y-108888095D01*
X70714286Y-102735714D02*
X70714286Y-103402381D01*
X70476190Y-102354762D02*
X70238095Y-103069048D01*
X70857143Y-103069048D01*
X71428571Y-102402381D02*
X71523810Y-102402381D01*
X71619048Y-102450000D01*
X71666667Y-102497619D01*
X71714286Y-102592857D01*
X71761905Y-102783333D01*
X71761905Y-103021429D01*
X71714286Y-103211905D01*
X71666667Y-103307143D01*
X71619048Y-103354762D01*
X71523810Y-103402381D01*
X71428571Y-103402381D01*
X71333333Y-103354762D01*
X71285714Y-103307143D01*
X71238095Y-103211905D01*
X71190476Y-103021429D01*
X71190476Y-102783333D01*
X71238095Y-102592857D01*
X71285714Y-102497619D01*
X71333333Y-102450000D01*
X71428571Y-102402381D01*
X59314286Y-102447619D02*
X59361905Y-102400000D01*
X59457143Y-102352381D01*
X59695239Y-102352381D01*
X59790477Y-102400000D01*
X59838096Y-102447619D01*
X59885715Y-102542857D01*
X59885715Y-102638095D01*
X59838096Y-102780952D01*
X59266667Y-103352381D01*
X59885715Y-103352381D01*
X70190476Y-108652381D02*
X70809524Y-108652381D01*
X70476190Y-109033333D01*
X70619048Y-109033333D01*
X70714286Y-109080952D01*
X70761905Y-109128571D01*
X70809524Y-109223810D01*
X70809524Y-109461905D01*
X70761905Y-109557143D01*
X70714286Y-109604762D01*
X70619048Y-109652381D01*
X70333333Y-109652381D01*
X70238095Y-109604762D01*
X70190476Y-109557143D01*
X71285714Y-109652381D02*
X71476190Y-109652381D01*
X71571429Y-109604762D01*
X71619048Y-109557143D01*
X71714286Y-109414286D01*
X71761905Y-109223810D01*
X71761905Y-108842857D01*
X71714286Y-108747619D01*
X71666667Y-108700000D01*
X71571429Y-108652381D01*
X71380952Y-108652381D01*
X71285714Y-108700000D01*
X71238095Y-108747619D01*
X71190476Y-108842857D01*
X71190476Y-109080952D01*
X71238095Y-109176190D01*
X71285714Y-109223810D01*
X71380952Y-109271429D01*
X71571429Y-109271429D01*
X71666667Y-109223810D01*
X71714286Y-109176190D01*
X71761905Y-109080952D01*
X59985715Y-109602381D02*
X59414286Y-109602381D01*
X59700000Y-109602381D02*
X59700000Y-108602381D01*
X59604762Y-108745238D01*
X59509524Y-108840476D01*
X59414286Y-108888095D01*
X27391529Y-67191052D02*
X27391529Y-66429147D01*
X27772481Y-66810099D02*
X27010576Y-66810099D01*
M02*
