G04 #@! TF.FileFunction,Copper,L2,Inr,Signal*
%FSLAX46Y46*%
G04 Gerber Fmt 4.6, Leading zero omitted, Abs format (unit mm)*
G04 Created by KiCad (PCBNEW 4.0.6) date Mon Apr 10 15:20:49 2017*
%MOMM*%
%LPD*%
G01*
G04 APERTURE LIST*
%ADD10C,0.100000*%
%ADD11C,6.000000*%
%ADD12C,0.600000*%
%ADD13C,0.800000*%
%ADD14C,0.200000*%
G04 APERTURE END LIST*
D10*
D11*
X100000000Y-120000000D03*
X100000000Y-48000000D03*
D12*
X115040000Y-111050000D03*
X147550000Y-104150000D03*
X156120000Y-102690000D03*
X152380000Y-101760000D03*
X137690000Y-88320000D03*
X99800000Y-87470000D03*
X131670000Y-114510000D03*
X129280000Y-114530000D03*
X126760000Y-114510000D03*
X124060000Y-114470000D03*
X157370000Y-108180000D03*
X157250000Y-106790000D03*
X155180000Y-108130000D03*
X154280000Y-107230000D03*
X156200000Y-104130000D03*
X117580000Y-108560000D03*
X135500000Y-93000000D03*
X137500000Y-95000000D03*
X137500000Y-97500000D03*
X137500000Y-100000000D03*
X132000000Y-98000000D03*
X127000000Y-89500000D03*
X128500000Y-91000000D03*
X130000000Y-92500000D03*
X130500000Y-94000000D03*
X114920000Y-78270000D03*
X122500000Y-85500000D03*
X121500000Y-84500000D03*
X120500000Y-83500000D03*
X119500000Y-82500000D03*
X118500000Y-81500000D03*
X118500000Y-80500000D03*
X117500000Y-79500000D03*
X116000000Y-79000000D03*
X130500000Y-96000000D03*
X136000000Y-102000000D03*
X135000000Y-101000000D03*
X134000000Y-100000000D03*
X133000000Y-99000000D03*
X105780000Y-102080000D03*
X104200000Y-100580000D03*
X102340000Y-100620000D03*
X100890000Y-99670000D03*
X107350000Y-103540000D03*
X101010000Y-92460000D03*
X101010000Y-91020000D03*
X103760000Y-94000000D03*
X103300000Y-88520000D03*
X100730000Y-82760000D03*
X100710000Y-82760000D03*
X99420000Y-89440000D03*
X99890000Y-88540000D03*
X97900000Y-84550000D03*
X97170000Y-80580000D03*
X98150000Y-79240000D03*
X99910000Y-78050000D03*
X100750000Y-76550000D03*
D13*
X123090000Y-109100000D03*
X117960000Y-109650000D03*
D12*
X117420000Y-106790000D03*
D13*
X141490000Y-88860000D03*
D12*
X134690000Y-103330000D03*
X112320000Y-90460000D03*
X112330000Y-91880000D03*
X112360000Y-93360000D03*
X113460000Y-94340000D03*
X114440000Y-95420000D03*
X115520000Y-96500000D03*
X116630000Y-95510000D03*
X117580000Y-94330000D03*
X119080000Y-93610000D03*
X112310000Y-88980000D03*
X115200000Y-89900000D03*
X116150000Y-90810000D03*
X117200000Y-91830000D03*
X118230000Y-92710000D03*
X110230000Y-99790000D03*
X111590000Y-101030000D03*
X109420000Y-98980000D03*
X108280000Y-97840000D03*
X108830000Y-102180000D03*
X110230000Y-100940000D03*
X120550000Y-106675000D03*
X120515000Y-103875000D03*
X120515000Y-102700000D03*
X120515000Y-101775000D03*
X120515000Y-100725000D03*
X120490000Y-99675000D03*
X120515000Y-98625000D03*
D13*
X109000000Y-73500000D03*
X111000000Y-73500000D03*
X113000000Y-73500000D03*
X107000000Y-73500000D03*
X119000000Y-73500000D03*
X117000000Y-73500000D03*
X115000000Y-73500000D03*
D12*
X120515000Y-96945000D03*
X120550000Y-109100000D03*
X115070000Y-98920000D03*
X116800000Y-98290000D03*
X113870000Y-100130000D03*
X109330000Y-76480000D03*
X107070000Y-92600000D03*
X107440000Y-93670000D03*
X109520000Y-79260000D03*
X109370000Y-80750000D03*
X111970000Y-82240000D03*
X111650000Y-83820000D03*
X111180000Y-85540000D03*
D13*
X144490000Y-91420000D03*
D12*
X138520000Y-104400000D03*
X113230000Y-87600000D03*
X138520000Y-106250000D03*
X118390000Y-110400000D03*
X124440000Y-110360000D03*
X154350000Y-115720000D03*
X150680000Y-114390000D03*
X148290000Y-112200000D03*
X149840000Y-110630000D03*
X135170000Y-86780000D03*
X139500000Y-105000000D03*
X112400000Y-86810000D03*
X137670000Y-104440000D03*
X112620000Y-88190000D03*
X137610000Y-106880000D03*
X100240000Y-86300000D03*
X136366932Y-103356932D03*
X98810000Y-85160000D03*
X135833068Y-102823068D03*
X97873396Y-83465341D03*
X134900378Y-102493461D03*
X98407260Y-82931477D03*
X134366514Y-101959597D03*
X97564257Y-82109952D03*
X133626932Y-101516932D03*
X97564257Y-81354952D03*
X133093068Y-100983068D03*
X98233068Y-80466932D03*
X132389087Y-100130725D03*
X98766932Y-79933068D03*
X131855223Y-99596861D03*
X98393068Y-78456932D03*
X130720000Y-99477500D03*
X98926932Y-77923068D03*
X130720000Y-98722500D03*
X99003068Y-76406932D03*
X131680000Y-96830000D03*
X99536932Y-75873068D03*
X134340000Y-94670000D03*
X132570000Y-96000000D03*
X133430000Y-95380000D03*
X160470000Y-113830000D03*
X112910000Y-109570000D03*
X116350000Y-105210000D03*
X111920000Y-109330000D03*
X114890000Y-104580000D03*
X159820000Y-115780000D03*
X113230000Y-112010000D03*
X123780000Y-98840000D03*
X133750000Y-107290000D03*
X140740000Y-106030000D03*
X151730000Y-112950000D03*
X156130000Y-110900000D03*
X156160000Y-112760000D03*
X140740000Y-105050000D03*
X134620000Y-107860000D03*
X124290000Y-108200000D03*
X156960000Y-113440000D03*
X154750000Y-111550000D03*
X124340000Y-107360000D03*
X123430000Y-106830000D03*
X116500000Y-108190000D03*
X116540000Y-107270000D03*
D14*
G36*
X107625000Y-68000000D02*
X107653545Y-68143506D01*
X107734835Y-68265165D01*
X107856494Y-68346455D01*
X108000000Y-68375000D01*
X181625000Y-68375000D01*
X181625000Y-117625000D01*
X108000000Y-117625000D01*
X107856494Y-117653545D01*
X107734835Y-117734835D01*
X107653545Y-117856494D01*
X107625000Y-118000000D01*
X107625000Y-123125000D01*
X101888595Y-123125000D01*
X102035792Y-123064029D01*
X102382470Y-122600259D01*
X100000000Y-120217789D01*
X97617530Y-122600259D01*
X97964208Y-123064029D01*
X98112497Y-123125000D01*
X96875000Y-123125000D01*
X96875000Y-121888595D01*
X96935971Y-122035792D01*
X97399741Y-122382470D01*
X99782211Y-120000000D01*
X100217789Y-120000000D01*
X102600259Y-122382470D01*
X103064029Y-122035792D01*
X103609857Y-120708274D01*
X103606118Y-119272928D01*
X103064029Y-117964208D01*
X102600259Y-117617530D01*
X100217789Y-120000000D01*
X99782211Y-120000000D01*
X97399741Y-117617530D01*
X96935971Y-117964208D01*
X96875000Y-118112497D01*
X96875000Y-117399741D01*
X97617530Y-117399741D01*
X100000000Y-119782211D01*
X102382470Y-117399741D01*
X102035792Y-116935971D01*
X100708274Y-116390143D01*
X99272928Y-116393882D01*
X97964208Y-116935971D01*
X97617530Y-117399741D01*
X96875000Y-117399741D01*
X96875000Y-115838824D01*
X153749896Y-115838824D01*
X153841048Y-116059429D01*
X154009683Y-116228359D01*
X154230129Y-116319896D01*
X154468824Y-116320104D01*
X154689429Y-116228952D01*
X154858359Y-116060317D01*
X154925416Y-115898824D01*
X159219896Y-115898824D01*
X159311048Y-116119429D01*
X159479683Y-116288359D01*
X159700129Y-116379896D01*
X159938824Y-116380104D01*
X160159429Y-116288952D01*
X160328359Y-116120317D01*
X160419896Y-115899871D01*
X160420104Y-115661176D01*
X160328952Y-115440571D01*
X160160317Y-115271641D01*
X159939871Y-115180104D01*
X159701176Y-115179896D01*
X159480571Y-115271048D01*
X159311641Y-115439683D01*
X159220104Y-115660129D01*
X159219896Y-115898824D01*
X154925416Y-115898824D01*
X154949896Y-115839871D01*
X154950104Y-115601176D01*
X154858952Y-115380571D01*
X154690317Y-115211641D01*
X154469871Y-115120104D01*
X154231176Y-115119896D01*
X154010571Y-115211048D01*
X153841641Y-115379683D01*
X153750104Y-115600129D01*
X153749896Y-115838824D01*
X96875000Y-115838824D01*
X96875000Y-114508824D01*
X150079896Y-114508824D01*
X150171048Y-114729429D01*
X150339683Y-114898359D01*
X150560129Y-114989896D01*
X150798824Y-114990104D01*
X151019429Y-114898952D01*
X151188359Y-114730317D01*
X151279896Y-114509871D01*
X151280104Y-114271176D01*
X151188952Y-114050571D01*
X151020317Y-113881641D01*
X150799871Y-113790104D01*
X150561176Y-113789896D01*
X150340571Y-113881048D01*
X150171641Y-114049683D01*
X150080104Y-114270129D01*
X150079896Y-114508824D01*
X96875000Y-114508824D01*
X96875000Y-113068824D01*
X151129896Y-113068824D01*
X151221048Y-113289429D01*
X151389683Y-113458359D01*
X151610129Y-113549896D01*
X151848824Y-113550104D01*
X152069429Y-113458952D01*
X152238359Y-113290317D01*
X152329896Y-113069871D01*
X152330062Y-112878824D01*
X155559896Y-112878824D01*
X155651048Y-113099429D01*
X155819683Y-113268359D01*
X156040129Y-113359896D01*
X156278824Y-113360104D01*
X156360098Y-113326522D01*
X156359896Y-113558824D01*
X156451048Y-113779429D01*
X156619683Y-113948359D01*
X156840129Y-114039896D01*
X157078824Y-114040104D01*
X157299429Y-113948952D01*
X157299557Y-113948824D01*
X159869896Y-113948824D01*
X159961048Y-114169429D01*
X160129683Y-114338359D01*
X160350129Y-114429896D01*
X160588824Y-114430104D01*
X160809429Y-114338952D01*
X160978359Y-114170317D01*
X161069896Y-113949871D01*
X161070104Y-113711176D01*
X160978952Y-113490571D01*
X160810317Y-113321641D01*
X160589871Y-113230104D01*
X160351176Y-113229896D01*
X160130571Y-113321048D01*
X159961641Y-113489683D01*
X159870104Y-113710129D01*
X159869896Y-113948824D01*
X157299557Y-113948824D01*
X157468359Y-113780317D01*
X157559896Y-113559871D01*
X157560104Y-113321176D01*
X157468952Y-113100571D01*
X157300317Y-112931641D01*
X157079871Y-112840104D01*
X156841176Y-112839896D01*
X156759902Y-112873478D01*
X156760104Y-112641176D01*
X156668952Y-112420571D01*
X156500317Y-112251641D01*
X156279871Y-112160104D01*
X156041176Y-112159896D01*
X155820571Y-112251048D01*
X155651641Y-112419683D01*
X155560104Y-112640129D01*
X155559896Y-112878824D01*
X152330062Y-112878824D01*
X152330104Y-112831176D01*
X152238952Y-112610571D01*
X152070317Y-112441641D01*
X151849871Y-112350104D01*
X151611176Y-112349896D01*
X151390571Y-112441048D01*
X151221641Y-112609683D01*
X151130104Y-112830129D01*
X151129896Y-113068824D01*
X96875000Y-113068824D01*
X96875000Y-112128824D01*
X112629896Y-112128824D01*
X112721048Y-112349429D01*
X112889683Y-112518359D01*
X113110129Y-112609896D01*
X113348824Y-112610104D01*
X113569429Y-112518952D01*
X113738359Y-112350317D01*
X113751436Y-112318824D01*
X147689896Y-112318824D01*
X147781048Y-112539429D01*
X147949683Y-112708359D01*
X148170129Y-112799896D01*
X148408824Y-112800104D01*
X148629429Y-112708952D01*
X148798359Y-112540317D01*
X148889896Y-112319871D01*
X148890104Y-112081176D01*
X148798952Y-111860571D01*
X148630317Y-111691641D01*
X148575368Y-111668824D01*
X154149896Y-111668824D01*
X154241048Y-111889429D01*
X154409683Y-112058359D01*
X154630129Y-112149896D01*
X154868824Y-112150104D01*
X155089429Y-112058952D01*
X155258359Y-111890317D01*
X155349896Y-111669871D01*
X155350104Y-111431176D01*
X155258952Y-111210571D01*
X155090317Y-111041641D01*
X155035368Y-111018824D01*
X155529896Y-111018824D01*
X155621048Y-111239429D01*
X155789683Y-111408359D01*
X156010129Y-111499896D01*
X156248824Y-111500104D01*
X156469429Y-111408952D01*
X156638359Y-111240317D01*
X156729896Y-111019871D01*
X156730104Y-110781176D01*
X156638952Y-110560571D01*
X156470317Y-110391641D01*
X156249871Y-110300104D01*
X156011176Y-110299896D01*
X155790571Y-110391048D01*
X155621641Y-110559683D01*
X155530104Y-110780129D01*
X155529896Y-111018824D01*
X155035368Y-111018824D01*
X154869871Y-110950104D01*
X154631176Y-110949896D01*
X154410571Y-111041048D01*
X154241641Y-111209683D01*
X154150104Y-111430129D01*
X154149896Y-111668824D01*
X148575368Y-111668824D01*
X148409871Y-111600104D01*
X148171176Y-111599896D01*
X147950571Y-111691048D01*
X147781641Y-111859683D01*
X147690104Y-112080129D01*
X147689896Y-112318824D01*
X113751436Y-112318824D01*
X113829896Y-112129871D01*
X113830104Y-111891176D01*
X113738952Y-111670571D01*
X113570317Y-111501641D01*
X113349871Y-111410104D01*
X113111176Y-111409896D01*
X112890571Y-111501048D01*
X112721641Y-111669683D01*
X112630104Y-111890129D01*
X112629896Y-112128824D01*
X96875000Y-112128824D01*
X96875000Y-111168824D01*
X114439896Y-111168824D01*
X114531048Y-111389429D01*
X114699683Y-111558359D01*
X114920129Y-111649896D01*
X115158824Y-111650104D01*
X115379429Y-111558952D01*
X115548359Y-111390317D01*
X115639896Y-111169871D01*
X115640104Y-110931176D01*
X115548952Y-110710571D01*
X115380317Y-110541641D01*
X115325368Y-110518824D01*
X117789896Y-110518824D01*
X117881048Y-110739429D01*
X118049683Y-110908359D01*
X118270129Y-110999896D01*
X118508824Y-111000104D01*
X118729429Y-110908952D01*
X118898359Y-110740317D01*
X118989896Y-110519871D01*
X118989931Y-110478824D01*
X123839896Y-110478824D01*
X123931048Y-110699429D01*
X124099683Y-110868359D01*
X124320129Y-110959896D01*
X124558824Y-110960104D01*
X124779429Y-110868952D01*
X124899767Y-110748824D01*
X149239896Y-110748824D01*
X149331048Y-110969429D01*
X149499683Y-111138359D01*
X149720129Y-111229896D01*
X149958824Y-111230104D01*
X150179429Y-111138952D01*
X150348359Y-110970317D01*
X150439896Y-110749871D01*
X150440104Y-110511176D01*
X150348952Y-110290571D01*
X150180317Y-110121641D01*
X149959871Y-110030104D01*
X149721176Y-110029896D01*
X149500571Y-110121048D01*
X149331641Y-110289683D01*
X149240104Y-110510129D01*
X149239896Y-110748824D01*
X124899767Y-110748824D01*
X124948359Y-110700317D01*
X125039896Y-110479871D01*
X125040104Y-110241176D01*
X124948952Y-110020571D01*
X124780317Y-109851641D01*
X124559871Y-109760104D01*
X124321176Y-109759896D01*
X124100571Y-109851048D01*
X123931641Y-110019683D01*
X123840104Y-110240129D01*
X123839896Y-110478824D01*
X118989931Y-110478824D01*
X118990104Y-110281176D01*
X118898952Y-110060571D01*
X118730317Y-109891641D01*
X118509871Y-109800104D01*
X118271176Y-109799896D01*
X118050571Y-109891048D01*
X117881641Y-110059683D01*
X117790104Y-110280129D01*
X117789896Y-110518824D01*
X115325368Y-110518824D01*
X115159871Y-110450104D01*
X114921176Y-110449896D01*
X114700571Y-110541048D01*
X114531641Y-110709683D01*
X114440104Y-110930129D01*
X114439896Y-111168824D01*
X96875000Y-111168824D01*
X96875000Y-109448824D01*
X111319896Y-109448824D01*
X111411048Y-109669429D01*
X111579683Y-109838359D01*
X111800129Y-109929896D01*
X112038824Y-109930104D01*
X112259429Y-109838952D01*
X112339076Y-109759444D01*
X112401048Y-109909429D01*
X112569683Y-110078359D01*
X112790129Y-110169896D01*
X113028824Y-110170104D01*
X113249429Y-110078952D01*
X113418359Y-109910317D01*
X113509896Y-109689871D01*
X113510104Y-109451176D01*
X113418952Y-109230571D01*
X113250317Y-109061641D01*
X113029871Y-108970104D01*
X112791176Y-108969896D01*
X112570571Y-109061048D01*
X112490924Y-109140556D01*
X112428952Y-108990571D01*
X112260317Y-108821641D01*
X112039871Y-108730104D01*
X111801176Y-108729896D01*
X111580571Y-108821048D01*
X111411641Y-108989683D01*
X111320104Y-109210129D01*
X111319896Y-109448824D01*
X96875000Y-109448824D01*
X96875000Y-108308824D01*
X115899896Y-108308824D01*
X115991048Y-108529429D01*
X116159683Y-108698359D01*
X116380129Y-108789896D01*
X116618824Y-108790104D01*
X116839429Y-108698952D01*
X117008359Y-108530317D01*
X117099896Y-108309871D01*
X117100104Y-108071176D01*
X117008952Y-107850571D01*
X116908494Y-107749938D01*
X117048359Y-107610317D01*
X117139896Y-107389871D01*
X117140104Y-107151176D01*
X117056494Y-106948824D01*
X122829896Y-106948824D01*
X122921048Y-107169429D01*
X123089683Y-107338359D01*
X123310129Y-107429896D01*
X123548824Y-107430104D01*
X123740007Y-107351109D01*
X123739896Y-107478824D01*
X123831048Y-107699429D01*
X123886515Y-107754993D01*
X123781641Y-107859683D01*
X123690104Y-108080129D01*
X123689896Y-108318824D01*
X123781048Y-108539429D01*
X123949683Y-108708359D01*
X124170129Y-108799896D01*
X124408824Y-108800104D01*
X124629429Y-108708952D01*
X124798359Y-108540317D01*
X124889896Y-108319871D01*
X124890104Y-108081176D01*
X124798952Y-107860571D01*
X124743485Y-107805007D01*
X124848359Y-107700317D01*
X124939896Y-107479871D01*
X124939957Y-107408824D01*
X133149896Y-107408824D01*
X133241048Y-107629429D01*
X133409683Y-107798359D01*
X133630129Y-107889896D01*
X133868824Y-107890104D01*
X134020028Y-107827628D01*
X134019896Y-107978824D01*
X134111048Y-108199429D01*
X134279683Y-108368359D01*
X134500129Y-108459896D01*
X134738824Y-108460104D01*
X134959429Y-108368952D01*
X135128359Y-108200317D01*
X135219896Y-107979871D01*
X135220104Y-107741176D01*
X135128952Y-107520571D01*
X134960317Y-107351641D01*
X134739871Y-107260104D01*
X134501176Y-107259896D01*
X134349972Y-107322372D01*
X134350104Y-107171176D01*
X134278890Y-106998824D01*
X137009896Y-106998824D01*
X137101048Y-107219429D01*
X137269683Y-107388359D01*
X137490129Y-107479896D01*
X137728824Y-107480104D01*
X137949429Y-107388952D01*
X138118359Y-107220317D01*
X138209896Y-106999871D01*
X138210095Y-106770987D01*
X138400129Y-106849896D01*
X138638824Y-106850104D01*
X138859429Y-106758952D01*
X139028359Y-106590317D01*
X139119896Y-106369871D01*
X139120104Y-106131176D01*
X139028952Y-105910571D01*
X138860317Y-105741641D01*
X138639871Y-105650104D01*
X138401176Y-105649896D01*
X138180571Y-105741048D01*
X138011641Y-105909683D01*
X137920104Y-106130129D01*
X137919905Y-106359013D01*
X137729871Y-106280104D01*
X137491176Y-106279896D01*
X137270571Y-106371048D01*
X137101641Y-106539683D01*
X137010104Y-106760129D01*
X137009896Y-106998824D01*
X134278890Y-106998824D01*
X134258952Y-106950571D01*
X134090317Y-106781641D01*
X133869871Y-106690104D01*
X133631176Y-106689896D01*
X133410571Y-106781048D01*
X133241641Y-106949683D01*
X133150104Y-107170129D01*
X133149896Y-107408824D01*
X124939957Y-107408824D01*
X124940104Y-107241176D01*
X124848952Y-107020571D01*
X124680317Y-106851641D01*
X124459871Y-106760104D01*
X124221176Y-106759896D01*
X124029993Y-106838891D01*
X124030104Y-106711176D01*
X123938952Y-106490571D01*
X123770317Y-106321641D01*
X123549871Y-106230104D01*
X123311176Y-106229896D01*
X123090571Y-106321048D01*
X122921641Y-106489683D01*
X122830104Y-106710129D01*
X122829896Y-106948824D01*
X117056494Y-106948824D01*
X117048952Y-106930571D01*
X116880317Y-106761641D01*
X116659871Y-106670104D01*
X116421176Y-106669896D01*
X116200571Y-106761048D01*
X116031641Y-106929683D01*
X115940104Y-107150129D01*
X115939896Y-107388824D01*
X116031048Y-107609429D01*
X116131506Y-107710062D01*
X115991641Y-107849683D01*
X115900104Y-108070129D01*
X115899896Y-108308824D01*
X96875000Y-108308824D01*
X96875000Y-105328824D01*
X115749896Y-105328824D01*
X115841048Y-105549429D01*
X116009683Y-105718359D01*
X116230129Y-105809896D01*
X116468824Y-105810104D01*
X116689429Y-105718952D01*
X116858359Y-105550317D01*
X116949896Y-105329871D01*
X116950104Y-105091176D01*
X116858952Y-104870571D01*
X116690317Y-104701641D01*
X116469871Y-104610104D01*
X116231176Y-104609896D01*
X116010571Y-104701048D01*
X115841641Y-104869683D01*
X115750104Y-105090129D01*
X115749896Y-105328824D01*
X96875000Y-105328824D01*
X96875000Y-104698824D01*
X114289896Y-104698824D01*
X114381048Y-104919429D01*
X114549683Y-105088359D01*
X114770129Y-105179896D01*
X115008824Y-105180104D01*
X115229429Y-105088952D01*
X115398359Y-104920317D01*
X115489896Y-104699871D01*
X115490018Y-104558824D01*
X137069896Y-104558824D01*
X137161048Y-104779429D01*
X137329683Y-104948359D01*
X137550129Y-105039896D01*
X137788824Y-105040104D01*
X138009429Y-104948952D01*
X138115001Y-104843564D01*
X138179683Y-104908359D01*
X138400129Y-104999896D01*
X138638824Y-105000104D01*
X138859429Y-104908952D01*
X138908459Y-104860007D01*
X138900104Y-104880129D01*
X138899896Y-105118824D01*
X138991048Y-105339429D01*
X139159683Y-105508359D01*
X139380129Y-105599896D01*
X139618824Y-105600104D01*
X139839429Y-105508952D01*
X140008359Y-105340317D01*
X140079568Y-105168824D01*
X140139896Y-105168824D01*
X140231048Y-105389429D01*
X140381471Y-105540115D01*
X140231641Y-105689683D01*
X140140104Y-105910129D01*
X140139896Y-106148824D01*
X140231048Y-106369429D01*
X140399683Y-106538359D01*
X140620129Y-106629896D01*
X140858824Y-106630104D01*
X141079429Y-106538952D01*
X141248359Y-106370317D01*
X141339896Y-106149871D01*
X141340104Y-105911176D01*
X141248952Y-105690571D01*
X141098529Y-105539885D01*
X141248359Y-105390317D01*
X141339896Y-105169871D01*
X141340104Y-104931176D01*
X141248952Y-104710571D01*
X141080317Y-104541641D01*
X140859871Y-104450104D01*
X140621176Y-104449896D01*
X140400571Y-104541048D01*
X140231641Y-104709683D01*
X140140104Y-104930129D01*
X140139896Y-105168824D01*
X140079568Y-105168824D01*
X140099896Y-105119871D01*
X140100104Y-104881176D01*
X140008952Y-104660571D01*
X139840317Y-104491641D01*
X139619871Y-104400104D01*
X139381176Y-104399896D01*
X139160571Y-104491048D01*
X139111541Y-104539993D01*
X139119896Y-104519871D01*
X139120104Y-104281176D01*
X139115001Y-104268824D01*
X146949896Y-104268824D01*
X147041048Y-104489429D01*
X147209683Y-104658359D01*
X147430129Y-104749896D01*
X147668824Y-104750104D01*
X147889429Y-104658952D01*
X148058359Y-104490317D01*
X148149896Y-104269871D01*
X148150104Y-104031176D01*
X148058952Y-103810571D01*
X147890317Y-103641641D01*
X147669871Y-103550104D01*
X147431176Y-103549896D01*
X147210571Y-103641048D01*
X147041641Y-103809683D01*
X146950104Y-104030129D01*
X146949896Y-104268824D01*
X139115001Y-104268824D01*
X139028952Y-104060571D01*
X138860317Y-103891641D01*
X138639871Y-103800104D01*
X138401176Y-103799896D01*
X138180571Y-103891048D01*
X138074999Y-103996436D01*
X138010317Y-103931641D01*
X137789871Y-103840104D01*
X137551176Y-103839896D01*
X137330571Y-103931048D01*
X137161641Y-104099683D01*
X137070104Y-104320129D01*
X137069896Y-104558824D01*
X115490018Y-104558824D01*
X115490104Y-104461176D01*
X115398952Y-104240571D01*
X115230317Y-104071641D01*
X115009871Y-103980104D01*
X114771176Y-103979896D01*
X114550571Y-104071048D01*
X114381641Y-104239683D01*
X114290104Y-104460129D01*
X114289896Y-104698824D01*
X96875000Y-104698824D01*
X96875000Y-98958824D01*
X123179896Y-98958824D01*
X123271048Y-99179429D01*
X123439683Y-99348359D01*
X123660129Y-99439896D01*
X123898824Y-99440104D01*
X124119429Y-99348952D01*
X124288359Y-99180317D01*
X124379896Y-98959871D01*
X124379999Y-98841324D01*
X130119896Y-98841324D01*
X130211048Y-99061929D01*
X130248971Y-99099918D01*
X130211641Y-99137183D01*
X130120104Y-99357629D01*
X130119896Y-99596324D01*
X130211048Y-99816929D01*
X130379683Y-99985859D01*
X130600129Y-100077396D01*
X130838824Y-100077604D01*
X131059429Y-99986452D01*
X131228359Y-99817817D01*
X131262924Y-99734575D01*
X131346271Y-99936290D01*
X131514906Y-100105220D01*
X131735352Y-100196757D01*
X131789029Y-100196804D01*
X131788983Y-100249549D01*
X131880135Y-100470154D01*
X132048770Y-100639084D01*
X132269216Y-100730621D01*
X132507911Y-100730829D01*
X132556467Y-100710766D01*
X132493172Y-100863197D01*
X132492964Y-101101892D01*
X132584116Y-101322497D01*
X132752751Y-101491427D01*
X132973197Y-101582964D01*
X133026874Y-101583011D01*
X133026828Y-101635756D01*
X133117980Y-101856361D01*
X133286615Y-102025291D01*
X133507061Y-102116828D01*
X133745756Y-102117036D01*
X133777027Y-102104115D01*
X133857562Y-102299026D01*
X134026197Y-102467956D01*
X134246643Y-102559493D01*
X134300320Y-102559540D01*
X134300274Y-102612285D01*
X134391426Y-102832890D01*
X134560061Y-103001820D01*
X134780507Y-103093357D01*
X135019202Y-103093565D01*
X135239807Y-103002413D01*
X135252667Y-102989576D01*
X135324116Y-103162497D01*
X135492751Y-103331427D01*
X135713197Y-103422964D01*
X135766874Y-103423011D01*
X135766828Y-103475756D01*
X135857980Y-103696361D01*
X136026615Y-103865291D01*
X136247061Y-103956828D01*
X136485756Y-103957036D01*
X136706361Y-103865884D01*
X136875291Y-103697249D01*
X136966828Y-103476803D01*
X136967036Y-103238108D01*
X136875884Y-103017503D01*
X136707249Y-102848573D01*
X136611523Y-102808824D01*
X155519896Y-102808824D01*
X155611048Y-103029429D01*
X155779683Y-103198359D01*
X156000129Y-103289896D01*
X156238824Y-103290104D01*
X156459429Y-103198952D01*
X156628359Y-103030317D01*
X156719896Y-102809871D01*
X156720104Y-102571176D01*
X156628952Y-102350571D01*
X156460317Y-102181641D01*
X156239871Y-102090104D01*
X156001176Y-102089896D01*
X155780571Y-102181048D01*
X155611641Y-102349683D01*
X155520104Y-102570129D01*
X155519896Y-102808824D01*
X136611523Y-102808824D01*
X136486803Y-102757036D01*
X136433126Y-102756989D01*
X136433172Y-102704244D01*
X136342020Y-102483639D01*
X136173385Y-102314709D01*
X135952939Y-102223172D01*
X135714244Y-102222964D01*
X135493639Y-102314116D01*
X135480779Y-102326953D01*
X135409330Y-102154032D01*
X135240695Y-101985102D01*
X135020249Y-101893565D01*
X134966572Y-101893518D01*
X134966584Y-101878824D01*
X151779896Y-101878824D01*
X151871048Y-102099429D01*
X152039683Y-102268359D01*
X152260129Y-102359896D01*
X152498824Y-102360104D01*
X152719429Y-102268952D01*
X152888359Y-102100317D01*
X152979896Y-101879871D01*
X152980104Y-101641176D01*
X152888952Y-101420571D01*
X152720317Y-101251641D01*
X152499871Y-101160104D01*
X152261176Y-101159896D01*
X152040571Y-101251048D01*
X151871641Y-101419683D01*
X151780104Y-101640129D01*
X151779896Y-101878824D01*
X134966584Y-101878824D01*
X134966618Y-101840773D01*
X134875466Y-101620168D01*
X134706831Y-101451238D01*
X134486385Y-101359701D01*
X134247690Y-101359493D01*
X134216419Y-101372414D01*
X134135884Y-101177503D01*
X133967249Y-101008573D01*
X133746803Y-100917036D01*
X133693126Y-100916989D01*
X133693172Y-100864244D01*
X133602020Y-100643639D01*
X133433385Y-100474709D01*
X133212939Y-100383172D01*
X132974244Y-100382964D01*
X132925688Y-100403027D01*
X132988983Y-100250596D01*
X132989191Y-100011901D01*
X132898039Y-99791296D01*
X132729404Y-99622366D01*
X132508958Y-99530829D01*
X132455281Y-99530782D01*
X132455327Y-99478037D01*
X132364175Y-99257432D01*
X132195540Y-99088502D01*
X131975094Y-98996965D01*
X131736399Y-98996757D01*
X131515794Y-99087909D01*
X131346864Y-99256544D01*
X131312299Y-99339786D01*
X131228952Y-99138071D01*
X131191029Y-99100082D01*
X131228359Y-99062817D01*
X131319896Y-98842371D01*
X131320104Y-98603676D01*
X131228952Y-98383071D01*
X131060317Y-98214141D01*
X130839871Y-98122604D01*
X130601176Y-98122396D01*
X130380571Y-98213548D01*
X130211641Y-98382183D01*
X130120104Y-98602629D01*
X130119896Y-98841324D01*
X124379999Y-98841324D01*
X124380104Y-98721176D01*
X124288952Y-98500571D01*
X124120317Y-98331641D01*
X123899871Y-98240104D01*
X123661176Y-98239896D01*
X123440571Y-98331048D01*
X123271641Y-98499683D01*
X123180104Y-98720129D01*
X123179896Y-98958824D01*
X96875000Y-98958824D01*
X96875000Y-96948824D01*
X131079896Y-96948824D01*
X131171048Y-97169429D01*
X131339683Y-97338359D01*
X131560129Y-97429896D01*
X131798824Y-97430104D01*
X132019429Y-97338952D01*
X132188359Y-97170317D01*
X132279896Y-96949871D01*
X132280104Y-96711176D01*
X132188952Y-96490571D01*
X132020317Y-96321641D01*
X131799871Y-96230104D01*
X131561176Y-96229896D01*
X131340571Y-96321048D01*
X131171641Y-96489683D01*
X131080104Y-96710129D01*
X131079896Y-96948824D01*
X96875000Y-96948824D01*
X96875000Y-96118824D01*
X131969896Y-96118824D01*
X132061048Y-96339429D01*
X132229683Y-96508359D01*
X132450129Y-96599896D01*
X132688824Y-96600104D01*
X132909429Y-96508952D01*
X133078359Y-96340317D01*
X133169896Y-96119871D01*
X133170069Y-95921738D01*
X133310129Y-95979896D01*
X133548824Y-95980104D01*
X133769429Y-95888952D01*
X133938359Y-95720317D01*
X134029896Y-95499871D01*
X134030104Y-95261176D01*
X133993202Y-95171867D01*
X133999683Y-95178359D01*
X134220129Y-95269896D01*
X134458824Y-95270104D01*
X134679429Y-95178952D01*
X134848359Y-95010317D01*
X134939896Y-94789871D01*
X134940104Y-94551176D01*
X134848952Y-94330571D01*
X134680317Y-94161641D01*
X134459871Y-94070104D01*
X134221176Y-94069896D01*
X134000571Y-94161048D01*
X133831641Y-94329683D01*
X133740104Y-94550129D01*
X133739896Y-94788824D01*
X133776798Y-94878133D01*
X133770317Y-94871641D01*
X133549871Y-94780104D01*
X133311176Y-94779896D01*
X133090571Y-94871048D01*
X132921641Y-95039683D01*
X132830104Y-95260129D01*
X132829931Y-95458262D01*
X132689871Y-95400104D01*
X132451176Y-95399896D01*
X132230571Y-95491048D01*
X132061641Y-95659683D01*
X131970104Y-95880129D01*
X131969896Y-96118824D01*
X96875000Y-96118824D01*
X96875000Y-91618824D01*
X102499896Y-91618824D01*
X102591048Y-91839429D01*
X102759683Y-92008359D01*
X102980129Y-92099896D01*
X103218824Y-92100104D01*
X103439429Y-92008952D01*
X103608359Y-91840317D01*
X103699896Y-91619871D01*
X103699949Y-91558628D01*
X143789879Y-91558628D01*
X143896223Y-91816000D01*
X144092964Y-92013085D01*
X144350150Y-92119878D01*
X144628628Y-92120121D01*
X144886000Y-92013777D01*
X145083085Y-91817036D01*
X145189878Y-91559850D01*
X145190121Y-91281372D01*
X145083777Y-91024000D01*
X144887036Y-90826915D01*
X144629850Y-90720122D01*
X144351372Y-90719879D01*
X144094000Y-90826223D01*
X143896915Y-91022964D01*
X143790122Y-91280150D01*
X143789879Y-91558628D01*
X103699949Y-91558628D01*
X103700104Y-91381176D01*
X103608952Y-91160571D01*
X103440317Y-90991641D01*
X103219871Y-90900104D01*
X102981176Y-90899896D01*
X102760571Y-90991048D01*
X102591641Y-91159683D01*
X102500104Y-91380129D01*
X102499896Y-91618824D01*
X96875000Y-91618824D01*
X96875000Y-87588824D01*
X99199896Y-87588824D01*
X99291048Y-87809429D01*
X99459683Y-87978359D01*
X99680129Y-88069896D01*
X99918824Y-88070104D01*
X100139429Y-87978952D01*
X100308359Y-87810317D01*
X100399896Y-87589871D01*
X100400104Y-87351176D01*
X100308952Y-87130571D01*
X100140317Y-86961641D01*
X100061285Y-86928824D01*
X111799896Y-86928824D01*
X111891048Y-87149429D01*
X112059683Y-87318359D01*
X112280129Y-87409896D01*
X112518824Y-87410104D01*
X112688249Y-87340099D01*
X112630104Y-87480129D01*
X112630008Y-87590008D01*
X112501176Y-87589896D01*
X112280571Y-87681048D01*
X112111641Y-87849683D01*
X112020104Y-88070129D01*
X112019896Y-88308824D01*
X112111048Y-88529429D01*
X112279683Y-88698359D01*
X112500129Y-88789896D01*
X112738824Y-88790104D01*
X112959429Y-88698952D01*
X113128359Y-88530317D01*
X113166350Y-88438824D01*
X137089896Y-88438824D01*
X137181048Y-88659429D01*
X137349683Y-88828359D01*
X137570129Y-88919896D01*
X137808824Y-88920104D01*
X138029429Y-88828952D01*
X138198359Y-88660317D01*
X138289896Y-88439871D01*
X138290104Y-88201176D01*
X138198952Y-87980571D01*
X138030317Y-87811641D01*
X137809871Y-87720104D01*
X137571176Y-87719896D01*
X137350571Y-87811048D01*
X137181641Y-87979683D01*
X137090104Y-88200129D01*
X137089896Y-88438824D01*
X113166350Y-88438824D01*
X113219896Y-88309871D01*
X113219992Y-88199992D01*
X113348824Y-88200104D01*
X113569429Y-88108952D01*
X113738359Y-87940317D01*
X113829896Y-87719871D01*
X113830104Y-87481176D01*
X113738952Y-87260571D01*
X113570317Y-87091641D01*
X113349871Y-87000104D01*
X113111176Y-86999896D01*
X112941751Y-87069901D01*
X112999896Y-86929871D01*
X112999923Y-86898824D01*
X134569896Y-86898824D01*
X134661048Y-87119429D01*
X134829683Y-87288359D01*
X135050129Y-87379896D01*
X135288824Y-87380104D01*
X135509429Y-87288952D01*
X135678359Y-87120317D01*
X135769896Y-86899871D01*
X135770104Y-86661176D01*
X135678952Y-86440571D01*
X135510317Y-86271641D01*
X135289871Y-86180104D01*
X135051176Y-86179896D01*
X134830571Y-86271048D01*
X134661641Y-86439683D01*
X134570104Y-86660129D01*
X134569896Y-86898824D01*
X112999923Y-86898824D01*
X113000104Y-86691176D01*
X112908952Y-86470571D01*
X112740317Y-86301641D01*
X112519871Y-86210104D01*
X112281176Y-86209896D01*
X112060571Y-86301048D01*
X111891641Y-86469683D01*
X111800104Y-86690129D01*
X111799896Y-86928824D01*
X100061285Y-86928824D01*
X99919871Y-86870104D01*
X99681176Y-86869896D01*
X99460571Y-86961048D01*
X99291641Y-87129683D01*
X99200104Y-87350129D01*
X99199896Y-87588824D01*
X96875000Y-87588824D01*
X96875000Y-86418824D01*
X99639896Y-86418824D01*
X99731048Y-86639429D01*
X99899683Y-86808359D01*
X100120129Y-86899896D01*
X100358824Y-86900104D01*
X100579429Y-86808952D01*
X100748359Y-86640317D01*
X100839896Y-86419871D01*
X100840104Y-86181176D01*
X100748952Y-85960571D01*
X100580317Y-85791641D01*
X100359871Y-85700104D01*
X100121176Y-85699896D01*
X99900571Y-85791048D01*
X99731641Y-85959683D01*
X99640104Y-86180129D01*
X99639896Y-86418824D01*
X96875000Y-86418824D01*
X96875000Y-85278824D01*
X98209896Y-85278824D01*
X98301048Y-85499429D01*
X98469683Y-85668359D01*
X98690129Y-85759896D01*
X98928824Y-85760104D01*
X99149429Y-85668952D01*
X99318359Y-85500317D01*
X99409896Y-85279871D01*
X99410104Y-85041176D01*
X99318952Y-84820571D01*
X99150317Y-84651641D01*
X98929871Y-84560104D01*
X98691176Y-84559896D01*
X98470571Y-84651048D01*
X98301641Y-84819683D01*
X98210104Y-85040129D01*
X98209896Y-85278824D01*
X96875000Y-85278824D01*
X96875000Y-81473776D01*
X96964153Y-81473776D01*
X97055305Y-81694381D01*
X97093228Y-81732370D01*
X97055898Y-81769635D01*
X96964361Y-81990081D01*
X96964153Y-82228776D01*
X97055305Y-82449381D01*
X97223940Y-82618311D01*
X97444386Y-82709848D01*
X97683081Y-82710056D01*
X97884004Y-82627037D01*
X97807364Y-82811606D01*
X97807317Y-82865283D01*
X97754572Y-82865237D01*
X97533967Y-82956389D01*
X97365037Y-83125024D01*
X97273500Y-83345470D01*
X97273292Y-83584165D01*
X97364444Y-83804770D01*
X97533079Y-83973700D01*
X97753525Y-84065237D01*
X97992220Y-84065445D01*
X98212825Y-83974293D01*
X98381755Y-83805658D01*
X98473292Y-83585212D01*
X98473339Y-83531535D01*
X98526084Y-83531581D01*
X98746689Y-83440429D01*
X98915619Y-83271794D01*
X99007156Y-83051348D01*
X99007364Y-82812653D01*
X98916212Y-82592048D01*
X98747577Y-82423118D01*
X98527131Y-82331581D01*
X98288436Y-82331373D01*
X98087513Y-82414392D01*
X98164153Y-82229823D01*
X98164361Y-81991128D01*
X98073209Y-81770523D01*
X98035286Y-81732534D01*
X98072616Y-81695269D01*
X98164153Y-81474823D01*
X98164361Y-81236128D01*
X98090516Y-81057410D01*
X98113197Y-81066828D01*
X98351892Y-81067036D01*
X98572497Y-80975884D01*
X98741427Y-80807249D01*
X98832964Y-80586803D01*
X98833011Y-80533126D01*
X98885756Y-80533172D01*
X99106361Y-80442020D01*
X99275291Y-80273385D01*
X99366828Y-80052939D01*
X99367036Y-79814244D01*
X99275884Y-79593639D01*
X99107249Y-79424709D01*
X98886803Y-79333172D01*
X98648108Y-79332964D01*
X98427503Y-79424116D01*
X98258573Y-79592751D01*
X98167036Y-79813197D01*
X98166989Y-79866874D01*
X98114244Y-79866828D01*
X97893639Y-79957980D01*
X97724709Y-80126615D01*
X97633172Y-80347061D01*
X97632964Y-80585756D01*
X97706809Y-80764474D01*
X97684128Y-80755056D01*
X97445433Y-80754848D01*
X97224828Y-80846000D01*
X97055898Y-81014635D01*
X96964361Y-81235081D01*
X96964153Y-81473776D01*
X96875000Y-81473776D01*
X96875000Y-78575756D01*
X97792964Y-78575756D01*
X97884116Y-78796361D01*
X98052751Y-78965291D01*
X98273197Y-79056828D01*
X98511892Y-79057036D01*
X98732497Y-78965884D01*
X98901427Y-78797249D01*
X98992964Y-78576803D01*
X98993011Y-78523126D01*
X99045756Y-78523172D01*
X99266361Y-78432020D01*
X99435291Y-78263385D01*
X99526828Y-78042939D01*
X99527036Y-77804244D01*
X99435884Y-77583639D01*
X99267249Y-77414709D01*
X99046803Y-77323172D01*
X98808108Y-77322964D01*
X98587503Y-77414116D01*
X98418573Y-77582751D01*
X98327036Y-77803197D01*
X98326989Y-77856874D01*
X98274244Y-77856828D01*
X98053639Y-77947980D01*
X97884709Y-78116615D01*
X97793172Y-78337061D01*
X97792964Y-78575756D01*
X96875000Y-78575756D01*
X96875000Y-76525756D01*
X98402964Y-76525756D01*
X98494116Y-76746361D01*
X98662751Y-76915291D01*
X98883197Y-77006828D01*
X99121892Y-77007036D01*
X99342497Y-76915884D01*
X99511427Y-76747249D01*
X99602964Y-76526803D01*
X99603011Y-76473126D01*
X99655756Y-76473172D01*
X99876361Y-76382020D01*
X100045291Y-76213385D01*
X100136828Y-75992939D01*
X100137036Y-75754244D01*
X100045884Y-75533639D01*
X99877249Y-75364709D01*
X99656803Y-75273172D01*
X99418108Y-75272964D01*
X99197503Y-75364116D01*
X99028573Y-75532751D01*
X98937036Y-75753197D01*
X98936989Y-75806874D01*
X98884244Y-75806828D01*
X98663639Y-75897980D01*
X98494709Y-76066615D01*
X98403172Y-76287061D01*
X98402964Y-76525756D01*
X96875000Y-76525756D01*
X96875000Y-74618824D01*
X102499896Y-74618824D01*
X102591048Y-74839429D01*
X102759683Y-75008359D01*
X102980129Y-75099896D01*
X103218824Y-75100104D01*
X103439429Y-75008952D01*
X103608359Y-74840317D01*
X103699896Y-74619871D01*
X103700104Y-74381176D01*
X103608952Y-74160571D01*
X103440317Y-73991641D01*
X103219871Y-73900104D01*
X102981176Y-73899896D01*
X102760571Y-73991048D01*
X102591641Y-74159683D01*
X102500104Y-74380129D01*
X102499896Y-74618824D01*
X96875000Y-74618824D01*
X96875000Y-50600259D01*
X97617530Y-50600259D01*
X97964208Y-51064029D01*
X99291726Y-51609857D01*
X100727072Y-51606118D01*
X102035792Y-51064029D01*
X102382470Y-50600259D01*
X100000000Y-48217789D01*
X97617530Y-50600259D01*
X96875000Y-50600259D01*
X96875000Y-49888595D01*
X96935971Y-50035792D01*
X97399741Y-50382470D01*
X99782211Y-48000000D01*
X100217789Y-48000000D01*
X102600259Y-50382470D01*
X103064029Y-50035792D01*
X103609857Y-48708274D01*
X103606118Y-47272928D01*
X103064029Y-45964208D01*
X102600259Y-45617530D01*
X100217789Y-48000000D01*
X99782211Y-48000000D01*
X97399741Y-45617530D01*
X96935971Y-45964208D01*
X96875000Y-46112497D01*
X96875000Y-45399741D01*
X97617530Y-45399741D01*
X100000000Y-47782211D01*
X102382470Y-45399741D01*
X102035792Y-44935971D01*
X100708274Y-44390143D01*
X99272928Y-44393882D01*
X97964208Y-44935971D01*
X97617530Y-45399741D01*
X96875000Y-45399741D01*
X96875000Y-44375000D01*
X107625000Y-44375000D01*
X107625000Y-68000000D01*
X107625000Y-68000000D01*
G37*
X107625000Y-68000000D02*
X107653545Y-68143506D01*
X107734835Y-68265165D01*
X107856494Y-68346455D01*
X108000000Y-68375000D01*
X181625000Y-68375000D01*
X181625000Y-117625000D01*
X108000000Y-117625000D01*
X107856494Y-117653545D01*
X107734835Y-117734835D01*
X107653545Y-117856494D01*
X107625000Y-118000000D01*
X107625000Y-123125000D01*
X101888595Y-123125000D01*
X102035792Y-123064029D01*
X102382470Y-122600259D01*
X100000000Y-120217789D01*
X97617530Y-122600259D01*
X97964208Y-123064029D01*
X98112497Y-123125000D01*
X96875000Y-123125000D01*
X96875000Y-121888595D01*
X96935971Y-122035792D01*
X97399741Y-122382470D01*
X99782211Y-120000000D01*
X100217789Y-120000000D01*
X102600259Y-122382470D01*
X103064029Y-122035792D01*
X103609857Y-120708274D01*
X103606118Y-119272928D01*
X103064029Y-117964208D01*
X102600259Y-117617530D01*
X100217789Y-120000000D01*
X99782211Y-120000000D01*
X97399741Y-117617530D01*
X96935971Y-117964208D01*
X96875000Y-118112497D01*
X96875000Y-117399741D01*
X97617530Y-117399741D01*
X100000000Y-119782211D01*
X102382470Y-117399741D01*
X102035792Y-116935971D01*
X100708274Y-116390143D01*
X99272928Y-116393882D01*
X97964208Y-116935971D01*
X97617530Y-117399741D01*
X96875000Y-117399741D01*
X96875000Y-115838824D01*
X153749896Y-115838824D01*
X153841048Y-116059429D01*
X154009683Y-116228359D01*
X154230129Y-116319896D01*
X154468824Y-116320104D01*
X154689429Y-116228952D01*
X154858359Y-116060317D01*
X154925416Y-115898824D01*
X159219896Y-115898824D01*
X159311048Y-116119429D01*
X159479683Y-116288359D01*
X159700129Y-116379896D01*
X159938824Y-116380104D01*
X160159429Y-116288952D01*
X160328359Y-116120317D01*
X160419896Y-115899871D01*
X160420104Y-115661176D01*
X160328952Y-115440571D01*
X160160317Y-115271641D01*
X159939871Y-115180104D01*
X159701176Y-115179896D01*
X159480571Y-115271048D01*
X159311641Y-115439683D01*
X159220104Y-115660129D01*
X159219896Y-115898824D01*
X154925416Y-115898824D01*
X154949896Y-115839871D01*
X154950104Y-115601176D01*
X154858952Y-115380571D01*
X154690317Y-115211641D01*
X154469871Y-115120104D01*
X154231176Y-115119896D01*
X154010571Y-115211048D01*
X153841641Y-115379683D01*
X153750104Y-115600129D01*
X153749896Y-115838824D01*
X96875000Y-115838824D01*
X96875000Y-114508824D01*
X150079896Y-114508824D01*
X150171048Y-114729429D01*
X150339683Y-114898359D01*
X150560129Y-114989896D01*
X150798824Y-114990104D01*
X151019429Y-114898952D01*
X151188359Y-114730317D01*
X151279896Y-114509871D01*
X151280104Y-114271176D01*
X151188952Y-114050571D01*
X151020317Y-113881641D01*
X150799871Y-113790104D01*
X150561176Y-113789896D01*
X150340571Y-113881048D01*
X150171641Y-114049683D01*
X150080104Y-114270129D01*
X150079896Y-114508824D01*
X96875000Y-114508824D01*
X96875000Y-113068824D01*
X151129896Y-113068824D01*
X151221048Y-113289429D01*
X151389683Y-113458359D01*
X151610129Y-113549896D01*
X151848824Y-113550104D01*
X152069429Y-113458952D01*
X152238359Y-113290317D01*
X152329896Y-113069871D01*
X152330062Y-112878824D01*
X155559896Y-112878824D01*
X155651048Y-113099429D01*
X155819683Y-113268359D01*
X156040129Y-113359896D01*
X156278824Y-113360104D01*
X156360098Y-113326522D01*
X156359896Y-113558824D01*
X156451048Y-113779429D01*
X156619683Y-113948359D01*
X156840129Y-114039896D01*
X157078824Y-114040104D01*
X157299429Y-113948952D01*
X157299557Y-113948824D01*
X159869896Y-113948824D01*
X159961048Y-114169429D01*
X160129683Y-114338359D01*
X160350129Y-114429896D01*
X160588824Y-114430104D01*
X160809429Y-114338952D01*
X160978359Y-114170317D01*
X161069896Y-113949871D01*
X161070104Y-113711176D01*
X160978952Y-113490571D01*
X160810317Y-113321641D01*
X160589871Y-113230104D01*
X160351176Y-113229896D01*
X160130571Y-113321048D01*
X159961641Y-113489683D01*
X159870104Y-113710129D01*
X159869896Y-113948824D01*
X157299557Y-113948824D01*
X157468359Y-113780317D01*
X157559896Y-113559871D01*
X157560104Y-113321176D01*
X157468952Y-113100571D01*
X157300317Y-112931641D01*
X157079871Y-112840104D01*
X156841176Y-112839896D01*
X156759902Y-112873478D01*
X156760104Y-112641176D01*
X156668952Y-112420571D01*
X156500317Y-112251641D01*
X156279871Y-112160104D01*
X156041176Y-112159896D01*
X155820571Y-112251048D01*
X155651641Y-112419683D01*
X155560104Y-112640129D01*
X155559896Y-112878824D01*
X152330062Y-112878824D01*
X152330104Y-112831176D01*
X152238952Y-112610571D01*
X152070317Y-112441641D01*
X151849871Y-112350104D01*
X151611176Y-112349896D01*
X151390571Y-112441048D01*
X151221641Y-112609683D01*
X151130104Y-112830129D01*
X151129896Y-113068824D01*
X96875000Y-113068824D01*
X96875000Y-112128824D01*
X112629896Y-112128824D01*
X112721048Y-112349429D01*
X112889683Y-112518359D01*
X113110129Y-112609896D01*
X113348824Y-112610104D01*
X113569429Y-112518952D01*
X113738359Y-112350317D01*
X113751436Y-112318824D01*
X147689896Y-112318824D01*
X147781048Y-112539429D01*
X147949683Y-112708359D01*
X148170129Y-112799896D01*
X148408824Y-112800104D01*
X148629429Y-112708952D01*
X148798359Y-112540317D01*
X148889896Y-112319871D01*
X148890104Y-112081176D01*
X148798952Y-111860571D01*
X148630317Y-111691641D01*
X148575368Y-111668824D01*
X154149896Y-111668824D01*
X154241048Y-111889429D01*
X154409683Y-112058359D01*
X154630129Y-112149896D01*
X154868824Y-112150104D01*
X155089429Y-112058952D01*
X155258359Y-111890317D01*
X155349896Y-111669871D01*
X155350104Y-111431176D01*
X155258952Y-111210571D01*
X155090317Y-111041641D01*
X155035368Y-111018824D01*
X155529896Y-111018824D01*
X155621048Y-111239429D01*
X155789683Y-111408359D01*
X156010129Y-111499896D01*
X156248824Y-111500104D01*
X156469429Y-111408952D01*
X156638359Y-111240317D01*
X156729896Y-111019871D01*
X156730104Y-110781176D01*
X156638952Y-110560571D01*
X156470317Y-110391641D01*
X156249871Y-110300104D01*
X156011176Y-110299896D01*
X155790571Y-110391048D01*
X155621641Y-110559683D01*
X155530104Y-110780129D01*
X155529896Y-111018824D01*
X155035368Y-111018824D01*
X154869871Y-110950104D01*
X154631176Y-110949896D01*
X154410571Y-111041048D01*
X154241641Y-111209683D01*
X154150104Y-111430129D01*
X154149896Y-111668824D01*
X148575368Y-111668824D01*
X148409871Y-111600104D01*
X148171176Y-111599896D01*
X147950571Y-111691048D01*
X147781641Y-111859683D01*
X147690104Y-112080129D01*
X147689896Y-112318824D01*
X113751436Y-112318824D01*
X113829896Y-112129871D01*
X113830104Y-111891176D01*
X113738952Y-111670571D01*
X113570317Y-111501641D01*
X113349871Y-111410104D01*
X113111176Y-111409896D01*
X112890571Y-111501048D01*
X112721641Y-111669683D01*
X112630104Y-111890129D01*
X112629896Y-112128824D01*
X96875000Y-112128824D01*
X96875000Y-111168824D01*
X114439896Y-111168824D01*
X114531048Y-111389429D01*
X114699683Y-111558359D01*
X114920129Y-111649896D01*
X115158824Y-111650104D01*
X115379429Y-111558952D01*
X115548359Y-111390317D01*
X115639896Y-111169871D01*
X115640104Y-110931176D01*
X115548952Y-110710571D01*
X115380317Y-110541641D01*
X115325368Y-110518824D01*
X117789896Y-110518824D01*
X117881048Y-110739429D01*
X118049683Y-110908359D01*
X118270129Y-110999896D01*
X118508824Y-111000104D01*
X118729429Y-110908952D01*
X118898359Y-110740317D01*
X118989896Y-110519871D01*
X118989931Y-110478824D01*
X123839896Y-110478824D01*
X123931048Y-110699429D01*
X124099683Y-110868359D01*
X124320129Y-110959896D01*
X124558824Y-110960104D01*
X124779429Y-110868952D01*
X124899767Y-110748824D01*
X149239896Y-110748824D01*
X149331048Y-110969429D01*
X149499683Y-111138359D01*
X149720129Y-111229896D01*
X149958824Y-111230104D01*
X150179429Y-111138952D01*
X150348359Y-110970317D01*
X150439896Y-110749871D01*
X150440104Y-110511176D01*
X150348952Y-110290571D01*
X150180317Y-110121641D01*
X149959871Y-110030104D01*
X149721176Y-110029896D01*
X149500571Y-110121048D01*
X149331641Y-110289683D01*
X149240104Y-110510129D01*
X149239896Y-110748824D01*
X124899767Y-110748824D01*
X124948359Y-110700317D01*
X125039896Y-110479871D01*
X125040104Y-110241176D01*
X124948952Y-110020571D01*
X124780317Y-109851641D01*
X124559871Y-109760104D01*
X124321176Y-109759896D01*
X124100571Y-109851048D01*
X123931641Y-110019683D01*
X123840104Y-110240129D01*
X123839896Y-110478824D01*
X118989931Y-110478824D01*
X118990104Y-110281176D01*
X118898952Y-110060571D01*
X118730317Y-109891641D01*
X118509871Y-109800104D01*
X118271176Y-109799896D01*
X118050571Y-109891048D01*
X117881641Y-110059683D01*
X117790104Y-110280129D01*
X117789896Y-110518824D01*
X115325368Y-110518824D01*
X115159871Y-110450104D01*
X114921176Y-110449896D01*
X114700571Y-110541048D01*
X114531641Y-110709683D01*
X114440104Y-110930129D01*
X114439896Y-111168824D01*
X96875000Y-111168824D01*
X96875000Y-109448824D01*
X111319896Y-109448824D01*
X111411048Y-109669429D01*
X111579683Y-109838359D01*
X111800129Y-109929896D01*
X112038824Y-109930104D01*
X112259429Y-109838952D01*
X112339076Y-109759444D01*
X112401048Y-109909429D01*
X112569683Y-110078359D01*
X112790129Y-110169896D01*
X113028824Y-110170104D01*
X113249429Y-110078952D01*
X113418359Y-109910317D01*
X113509896Y-109689871D01*
X113510104Y-109451176D01*
X113418952Y-109230571D01*
X113250317Y-109061641D01*
X113029871Y-108970104D01*
X112791176Y-108969896D01*
X112570571Y-109061048D01*
X112490924Y-109140556D01*
X112428952Y-108990571D01*
X112260317Y-108821641D01*
X112039871Y-108730104D01*
X111801176Y-108729896D01*
X111580571Y-108821048D01*
X111411641Y-108989683D01*
X111320104Y-109210129D01*
X111319896Y-109448824D01*
X96875000Y-109448824D01*
X96875000Y-108308824D01*
X115899896Y-108308824D01*
X115991048Y-108529429D01*
X116159683Y-108698359D01*
X116380129Y-108789896D01*
X116618824Y-108790104D01*
X116839429Y-108698952D01*
X117008359Y-108530317D01*
X117099896Y-108309871D01*
X117100104Y-108071176D01*
X117008952Y-107850571D01*
X116908494Y-107749938D01*
X117048359Y-107610317D01*
X117139896Y-107389871D01*
X117140104Y-107151176D01*
X117056494Y-106948824D01*
X122829896Y-106948824D01*
X122921048Y-107169429D01*
X123089683Y-107338359D01*
X123310129Y-107429896D01*
X123548824Y-107430104D01*
X123740007Y-107351109D01*
X123739896Y-107478824D01*
X123831048Y-107699429D01*
X123886515Y-107754993D01*
X123781641Y-107859683D01*
X123690104Y-108080129D01*
X123689896Y-108318824D01*
X123781048Y-108539429D01*
X123949683Y-108708359D01*
X124170129Y-108799896D01*
X124408824Y-108800104D01*
X124629429Y-108708952D01*
X124798359Y-108540317D01*
X124889896Y-108319871D01*
X124890104Y-108081176D01*
X124798952Y-107860571D01*
X124743485Y-107805007D01*
X124848359Y-107700317D01*
X124939896Y-107479871D01*
X124939957Y-107408824D01*
X133149896Y-107408824D01*
X133241048Y-107629429D01*
X133409683Y-107798359D01*
X133630129Y-107889896D01*
X133868824Y-107890104D01*
X134020028Y-107827628D01*
X134019896Y-107978824D01*
X134111048Y-108199429D01*
X134279683Y-108368359D01*
X134500129Y-108459896D01*
X134738824Y-108460104D01*
X134959429Y-108368952D01*
X135128359Y-108200317D01*
X135219896Y-107979871D01*
X135220104Y-107741176D01*
X135128952Y-107520571D01*
X134960317Y-107351641D01*
X134739871Y-107260104D01*
X134501176Y-107259896D01*
X134349972Y-107322372D01*
X134350104Y-107171176D01*
X134278890Y-106998824D01*
X137009896Y-106998824D01*
X137101048Y-107219429D01*
X137269683Y-107388359D01*
X137490129Y-107479896D01*
X137728824Y-107480104D01*
X137949429Y-107388952D01*
X138118359Y-107220317D01*
X138209896Y-106999871D01*
X138210095Y-106770987D01*
X138400129Y-106849896D01*
X138638824Y-106850104D01*
X138859429Y-106758952D01*
X139028359Y-106590317D01*
X139119896Y-106369871D01*
X139120104Y-106131176D01*
X139028952Y-105910571D01*
X138860317Y-105741641D01*
X138639871Y-105650104D01*
X138401176Y-105649896D01*
X138180571Y-105741048D01*
X138011641Y-105909683D01*
X137920104Y-106130129D01*
X137919905Y-106359013D01*
X137729871Y-106280104D01*
X137491176Y-106279896D01*
X137270571Y-106371048D01*
X137101641Y-106539683D01*
X137010104Y-106760129D01*
X137009896Y-106998824D01*
X134278890Y-106998824D01*
X134258952Y-106950571D01*
X134090317Y-106781641D01*
X133869871Y-106690104D01*
X133631176Y-106689896D01*
X133410571Y-106781048D01*
X133241641Y-106949683D01*
X133150104Y-107170129D01*
X133149896Y-107408824D01*
X124939957Y-107408824D01*
X124940104Y-107241176D01*
X124848952Y-107020571D01*
X124680317Y-106851641D01*
X124459871Y-106760104D01*
X124221176Y-106759896D01*
X124029993Y-106838891D01*
X124030104Y-106711176D01*
X123938952Y-106490571D01*
X123770317Y-106321641D01*
X123549871Y-106230104D01*
X123311176Y-106229896D01*
X123090571Y-106321048D01*
X122921641Y-106489683D01*
X122830104Y-106710129D01*
X122829896Y-106948824D01*
X117056494Y-106948824D01*
X117048952Y-106930571D01*
X116880317Y-106761641D01*
X116659871Y-106670104D01*
X116421176Y-106669896D01*
X116200571Y-106761048D01*
X116031641Y-106929683D01*
X115940104Y-107150129D01*
X115939896Y-107388824D01*
X116031048Y-107609429D01*
X116131506Y-107710062D01*
X115991641Y-107849683D01*
X115900104Y-108070129D01*
X115899896Y-108308824D01*
X96875000Y-108308824D01*
X96875000Y-105328824D01*
X115749896Y-105328824D01*
X115841048Y-105549429D01*
X116009683Y-105718359D01*
X116230129Y-105809896D01*
X116468824Y-105810104D01*
X116689429Y-105718952D01*
X116858359Y-105550317D01*
X116949896Y-105329871D01*
X116950104Y-105091176D01*
X116858952Y-104870571D01*
X116690317Y-104701641D01*
X116469871Y-104610104D01*
X116231176Y-104609896D01*
X116010571Y-104701048D01*
X115841641Y-104869683D01*
X115750104Y-105090129D01*
X115749896Y-105328824D01*
X96875000Y-105328824D01*
X96875000Y-104698824D01*
X114289896Y-104698824D01*
X114381048Y-104919429D01*
X114549683Y-105088359D01*
X114770129Y-105179896D01*
X115008824Y-105180104D01*
X115229429Y-105088952D01*
X115398359Y-104920317D01*
X115489896Y-104699871D01*
X115490018Y-104558824D01*
X137069896Y-104558824D01*
X137161048Y-104779429D01*
X137329683Y-104948359D01*
X137550129Y-105039896D01*
X137788824Y-105040104D01*
X138009429Y-104948952D01*
X138115001Y-104843564D01*
X138179683Y-104908359D01*
X138400129Y-104999896D01*
X138638824Y-105000104D01*
X138859429Y-104908952D01*
X138908459Y-104860007D01*
X138900104Y-104880129D01*
X138899896Y-105118824D01*
X138991048Y-105339429D01*
X139159683Y-105508359D01*
X139380129Y-105599896D01*
X139618824Y-105600104D01*
X139839429Y-105508952D01*
X140008359Y-105340317D01*
X140079568Y-105168824D01*
X140139896Y-105168824D01*
X140231048Y-105389429D01*
X140381471Y-105540115D01*
X140231641Y-105689683D01*
X140140104Y-105910129D01*
X140139896Y-106148824D01*
X140231048Y-106369429D01*
X140399683Y-106538359D01*
X140620129Y-106629896D01*
X140858824Y-106630104D01*
X141079429Y-106538952D01*
X141248359Y-106370317D01*
X141339896Y-106149871D01*
X141340104Y-105911176D01*
X141248952Y-105690571D01*
X141098529Y-105539885D01*
X141248359Y-105390317D01*
X141339896Y-105169871D01*
X141340104Y-104931176D01*
X141248952Y-104710571D01*
X141080317Y-104541641D01*
X140859871Y-104450104D01*
X140621176Y-104449896D01*
X140400571Y-104541048D01*
X140231641Y-104709683D01*
X140140104Y-104930129D01*
X140139896Y-105168824D01*
X140079568Y-105168824D01*
X140099896Y-105119871D01*
X140100104Y-104881176D01*
X140008952Y-104660571D01*
X139840317Y-104491641D01*
X139619871Y-104400104D01*
X139381176Y-104399896D01*
X139160571Y-104491048D01*
X139111541Y-104539993D01*
X139119896Y-104519871D01*
X139120104Y-104281176D01*
X139115001Y-104268824D01*
X146949896Y-104268824D01*
X147041048Y-104489429D01*
X147209683Y-104658359D01*
X147430129Y-104749896D01*
X147668824Y-104750104D01*
X147889429Y-104658952D01*
X148058359Y-104490317D01*
X148149896Y-104269871D01*
X148150104Y-104031176D01*
X148058952Y-103810571D01*
X147890317Y-103641641D01*
X147669871Y-103550104D01*
X147431176Y-103549896D01*
X147210571Y-103641048D01*
X147041641Y-103809683D01*
X146950104Y-104030129D01*
X146949896Y-104268824D01*
X139115001Y-104268824D01*
X139028952Y-104060571D01*
X138860317Y-103891641D01*
X138639871Y-103800104D01*
X138401176Y-103799896D01*
X138180571Y-103891048D01*
X138074999Y-103996436D01*
X138010317Y-103931641D01*
X137789871Y-103840104D01*
X137551176Y-103839896D01*
X137330571Y-103931048D01*
X137161641Y-104099683D01*
X137070104Y-104320129D01*
X137069896Y-104558824D01*
X115490018Y-104558824D01*
X115490104Y-104461176D01*
X115398952Y-104240571D01*
X115230317Y-104071641D01*
X115009871Y-103980104D01*
X114771176Y-103979896D01*
X114550571Y-104071048D01*
X114381641Y-104239683D01*
X114290104Y-104460129D01*
X114289896Y-104698824D01*
X96875000Y-104698824D01*
X96875000Y-98958824D01*
X123179896Y-98958824D01*
X123271048Y-99179429D01*
X123439683Y-99348359D01*
X123660129Y-99439896D01*
X123898824Y-99440104D01*
X124119429Y-99348952D01*
X124288359Y-99180317D01*
X124379896Y-98959871D01*
X124379999Y-98841324D01*
X130119896Y-98841324D01*
X130211048Y-99061929D01*
X130248971Y-99099918D01*
X130211641Y-99137183D01*
X130120104Y-99357629D01*
X130119896Y-99596324D01*
X130211048Y-99816929D01*
X130379683Y-99985859D01*
X130600129Y-100077396D01*
X130838824Y-100077604D01*
X131059429Y-99986452D01*
X131228359Y-99817817D01*
X131262924Y-99734575D01*
X131346271Y-99936290D01*
X131514906Y-100105220D01*
X131735352Y-100196757D01*
X131789029Y-100196804D01*
X131788983Y-100249549D01*
X131880135Y-100470154D01*
X132048770Y-100639084D01*
X132269216Y-100730621D01*
X132507911Y-100730829D01*
X132556467Y-100710766D01*
X132493172Y-100863197D01*
X132492964Y-101101892D01*
X132584116Y-101322497D01*
X132752751Y-101491427D01*
X132973197Y-101582964D01*
X133026874Y-101583011D01*
X133026828Y-101635756D01*
X133117980Y-101856361D01*
X133286615Y-102025291D01*
X133507061Y-102116828D01*
X133745756Y-102117036D01*
X133777027Y-102104115D01*
X133857562Y-102299026D01*
X134026197Y-102467956D01*
X134246643Y-102559493D01*
X134300320Y-102559540D01*
X134300274Y-102612285D01*
X134391426Y-102832890D01*
X134560061Y-103001820D01*
X134780507Y-103093357D01*
X135019202Y-103093565D01*
X135239807Y-103002413D01*
X135252667Y-102989576D01*
X135324116Y-103162497D01*
X135492751Y-103331427D01*
X135713197Y-103422964D01*
X135766874Y-103423011D01*
X135766828Y-103475756D01*
X135857980Y-103696361D01*
X136026615Y-103865291D01*
X136247061Y-103956828D01*
X136485756Y-103957036D01*
X136706361Y-103865884D01*
X136875291Y-103697249D01*
X136966828Y-103476803D01*
X136967036Y-103238108D01*
X136875884Y-103017503D01*
X136707249Y-102848573D01*
X136611523Y-102808824D01*
X155519896Y-102808824D01*
X155611048Y-103029429D01*
X155779683Y-103198359D01*
X156000129Y-103289896D01*
X156238824Y-103290104D01*
X156459429Y-103198952D01*
X156628359Y-103030317D01*
X156719896Y-102809871D01*
X156720104Y-102571176D01*
X156628952Y-102350571D01*
X156460317Y-102181641D01*
X156239871Y-102090104D01*
X156001176Y-102089896D01*
X155780571Y-102181048D01*
X155611641Y-102349683D01*
X155520104Y-102570129D01*
X155519896Y-102808824D01*
X136611523Y-102808824D01*
X136486803Y-102757036D01*
X136433126Y-102756989D01*
X136433172Y-102704244D01*
X136342020Y-102483639D01*
X136173385Y-102314709D01*
X135952939Y-102223172D01*
X135714244Y-102222964D01*
X135493639Y-102314116D01*
X135480779Y-102326953D01*
X135409330Y-102154032D01*
X135240695Y-101985102D01*
X135020249Y-101893565D01*
X134966572Y-101893518D01*
X134966584Y-101878824D01*
X151779896Y-101878824D01*
X151871048Y-102099429D01*
X152039683Y-102268359D01*
X152260129Y-102359896D01*
X152498824Y-102360104D01*
X152719429Y-102268952D01*
X152888359Y-102100317D01*
X152979896Y-101879871D01*
X152980104Y-101641176D01*
X152888952Y-101420571D01*
X152720317Y-101251641D01*
X152499871Y-101160104D01*
X152261176Y-101159896D01*
X152040571Y-101251048D01*
X151871641Y-101419683D01*
X151780104Y-101640129D01*
X151779896Y-101878824D01*
X134966584Y-101878824D01*
X134966618Y-101840773D01*
X134875466Y-101620168D01*
X134706831Y-101451238D01*
X134486385Y-101359701D01*
X134247690Y-101359493D01*
X134216419Y-101372414D01*
X134135884Y-101177503D01*
X133967249Y-101008573D01*
X133746803Y-100917036D01*
X133693126Y-100916989D01*
X133693172Y-100864244D01*
X133602020Y-100643639D01*
X133433385Y-100474709D01*
X133212939Y-100383172D01*
X132974244Y-100382964D01*
X132925688Y-100403027D01*
X132988983Y-100250596D01*
X132989191Y-100011901D01*
X132898039Y-99791296D01*
X132729404Y-99622366D01*
X132508958Y-99530829D01*
X132455281Y-99530782D01*
X132455327Y-99478037D01*
X132364175Y-99257432D01*
X132195540Y-99088502D01*
X131975094Y-98996965D01*
X131736399Y-98996757D01*
X131515794Y-99087909D01*
X131346864Y-99256544D01*
X131312299Y-99339786D01*
X131228952Y-99138071D01*
X131191029Y-99100082D01*
X131228359Y-99062817D01*
X131319896Y-98842371D01*
X131320104Y-98603676D01*
X131228952Y-98383071D01*
X131060317Y-98214141D01*
X130839871Y-98122604D01*
X130601176Y-98122396D01*
X130380571Y-98213548D01*
X130211641Y-98382183D01*
X130120104Y-98602629D01*
X130119896Y-98841324D01*
X124379999Y-98841324D01*
X124380104Y-98721176D01*
X124288952Y-98500571D01*
X124120317Y-98331641D01*
X123899871Y-98240104D01*
X123661176Y-98239896D01*
X123440571Y-98331048D01*
X123271641Y-98499683D01*
X123180104Y-98720129D01*
X123179896Y-98958824D01*
X96875000Y-98958824D01*
X96875000Y-96948824D01*
X131079896Y-96948824D01*
X131171048Y-97169429D01*
X131339683Y-97338359D01*
X131560129Y-97429896D01*
X131798824Y-97430104D01*
X132019429Y-97338952D01*
X132188359Y-97170317D01*
X132279896Y-96949871D01*
X132280104Y-96711176D01*
X132188952Y-96490571D01*
X132020317Y-96321641D01*
X131799871Y-96230104D01*
X131561176Y-96229896D01*
X131340571Y-96321048D01*
X131171641Y-96489683D01*
X131080104Y-96710129D01*
X131079896Y-96948824D01*
X96875000Y-96948824D01*
X96875000Y-96118824D01*
X131969896Y-96118824D01*
X132061048Y-96339429D01*
X132229683Y-96508359D01*
X132450129Y-96599896D01*
X132688824Y-96600104D01*
X132909429Y-96508952D01*
X133078359Y-96340317D01*
X133169896Y-96119871D01*
X133170069Y-95921738D01*
X133310129Y-95979896D01*
X133548824Y-95980104D01*
X133769429Y-95888952D01*
X133938359Y-95720317D01*
X134029896Y-95499871D01*
X134030104Y-95261176D01*
X133993202Y-95171867D01*
X133999683Y-95178359D01*
X134220129Y-95269896D01*
X134458824Y-95270104D01*
X134679429Y-95178952D01*
X134848359Y-95010317D01*
X134939896Y-94789871D01*
X134940104Y-94551176D01*
X134848952Y-94330571D01*
X134680317Y-94161641D01*
X134459871Y-94070104D01*
X134221176Y-94069896D01*
X134000571Y-94161048D01*
X133831641Y-94329683D01*
X133740104Y-94550129D01*
X133739896Y-94788824D01*
X133776798Y-94878133D01*
X133770317Y-94871641D01*
X133549871Y-94780104D01*
X133311176Y-94779896D01*
X133090571Y-94871048D01*
X132921641Y-95039683D01*
X132830104Y-95260129D01*
X132829931Y-95458262D01*
X132689871Y-95400104D01*
X132451176Y-95399896D01*
X132230571Y-95491048D01*
X132061641Y-95659683D01*
X131970104Y-95880129D01*
X131969896Y-96118824D01*
X96875000Y-96118824D01*
X96875000Y-91618824D01*
X102499896Y-91618824D01*
X102591048Y-91839429D01*
X102759683Y-92008359D01*
X102980129Y-92099896D01*
X103218824Y-92100104D01*
X103439429Y-92008952D01*
X103608359Y-91840317D01*
X103699896Y-91619871D01*
X103699949Y-91558628D01*
X143789879Y-91558628D01*
X143896223Y-91816000D01*
X144092964Y-92013085D01*
X144350150Y-92119878D01*
X144628628Y-92120121D01*
X144886000Y-92013777D01*
X145083085Y-91817036D01*
X145189878Y-91559850D01*
X145190121Y-91281372D01*
X145083777Y-91024000D01*
X144887036Y-90826915D01*
X144629850Y-90720122D01*
X144351372Y-90719879D01*
X144094000Y-90826223D01*
X143896915Y-91022964D01*
X143790122Y-91280150D01*
X143789879Y-91558628D01*
X103699949Y-91558628D01*
X103700104Y-91381176D01*
X103608952Y-91160571D01*
X103440317Y-90991641D01*
X103219871Y-90900104D01*
X102981176Y-90899896D01*
X102760571Y-90991048D01*
X102591641Y-91159683D01*
X102500104Y-91380129D01*
X102499896Y-91618824D01*
X96875000Y-91618824D01*
X96875000Y-87588824D01*
X99199896Y-87588824D01*
X99291048Y-87809429D01*
X99459683Y-87978359D01*
X99680129Y-88069896D01*
X99918824Y-88070104D01*
X100139429Y-87978952D01*
X100308359Y-87810317D01*
X100399896Y-87589871D01*
X100400104Y-87351176D01*
X100308952Y-87130571D01*
X100140317Y-86961641D01*
X100061285Y-86928824D01*
X111799896Y-86928824D01*
X111891048Y-87149429D01*
X112059683Y-87318359D01*
X112280129Y-87409896D01*
X112518824Y-87410104D01*
X112688249Y-87340099D01*
X112630104Y-87480129D01*
X112630008Y-87590008D01*
X112501176Y-87589896D01*
X112280571Y-87681048D01*
X112111641Y-87849683D01*
X112020104Y-88070129D01*
X112019896Y-88308824D01*
X112111048Y-88529429D01*
X112279683Y-88698359D01*
X112500129Y-88789896D01*
X112738824Y-88790104D01*
X112959429Y-88698952D01*
X113128359Y-88530317D01*
X113166350Y-88438824D01*
X137089896Y-88438824D01*
X137181048Y-88659429D01*
X137349683Y-88828359D01*
X137570129Y-88919896D01*
X137808824Y-88920104D01*
X138029429Y-88828952D01*
X138198359Y-88660317D01*
X138289896Y-88439871D01*
X138290104Y-88201176D01*
X138198952Y-87980571D01*
X138030317Y-87811641D01*
X137809871Y-87720104D01*
X137571176Y-87719896D01*
X137350571Y-87811048D01*
X137181641Y-87979683D01*
X137090104Y-88200129D01*
X137089896Y-88438824D01*
X113166350Y-88438824D01*
X113219896Y-88309871D01*
X113219992Y-88199992D01*
X113348824Y-88200104D01*
X113569429Y-88108952D01*
X113738359Y-87940317D01*
X113829896Y-87719871D01*
X113830104Y-87481176D01*
X113738952Y-87260571D01*
X113570317Y-87091641D01*
X113349871Y-87000104D01*
X113111176Y-86999896D01*
X112941751Y-87069901D01*
X112999896Y-86929871D01*
X112999923Y-86898824D01*
X134569896Y-86898824D01*
X134661048Y-87119429D01*
X134829683Y-87288359D01*
X135050129Y-87379896D01*
X135288824Y-87380104D01*
X135509429Y-87288952D01*
X135678359Y-87120317D01*
X135769896Y-86899871D01*
X135770104Y-86661176D01*
X135678952Y-86440571D01*
X135510317Y-86271641D01*
X135289871Y-86180104D01*
X135051176Y-86179896D01*
X134830571Y-86271048D01*
X134661641Y-86439683D01*
X134570104Y-86660129D01*
X134569896Y-86898824D01*
X112999923Y-86898824D01*
X113000104Y-86691176D01*
X112908952Y-86470571D01*
X112740317Y-86301641D01*
X112519871Y-86210104D01*
X112281176Y-86209896D01*
X112060571Y-86301048D01*
X111891641Y-86469683D01*
X111800104Y-86690129D01*
X111799896Y-86928824D01*
X100061285Y-86928824D01*
X99919871Y-86870104D01*
X99681176Y-86869896D01*
X99460571Y-86961048D01*
X99291641Y-87129683D01*
X99200104Y-87350129D01*
X99199896Y-87588824D01*
X96875000Y-87588824D01*
X96875000Y-86418824D01*
X99639896Y-86418824D01*
X99731048Y-86639429D01*
X99899683Y-86808359D01*
X100120129Y-86899896D01*
X100358824Y-86900104D01*
X100579429Y-86808952D01*
X100748359Y-86640317D01*
X100839896Y-86419871D01*
X100840104Y-86181176D01*
X100748952Y-85960571D01*
X100580317Y-85791641D01*
X100359871Y-85700104D01*
X100121176Y-85699896D01*
X99900571Y-85791048D01*
X99731641Y-85959683D01*
X99640104Y-86180129D01*
X99639896Y-86418824D01*
X96875000Y-86418824D01*
X96875000Y-85278824D01*
X98209896Y-85278824D01*
X98301048Y-85499429D01*
X98469683Y-85668359D01*
X98690129Y-85759896D01*
X98928824Y-85760104D01*
X99149429Y-85668952D01*
X99318359Y-85500317D01*
X99409896Y-85279871D01*
X99410104Y-85041176D01*
X99318952Y-84820571D01*
X99150317Y-84651641D01*
X98929871Y-84560104D01*
X98691176Y-84559896D01*
X98470571Y-84651048D01*
X98301641Y-84819683D01*
X98210104Y-85040129D01*
X98209896Y-85278824D01*
X96875000Y-85278824D01*
X96875000Y-81473776D01*
X96964153Y-81473776D01*
X97055305Y-81694381D01*
X97093228Y-81732370D01*
X97055898Y-81769635D01*
X96964361Y-81990081D01*
X96964153Y-82228776D01*
X97055305Y-82449381D01*
X97223940Y-82618311D01*
X97444386Y-82709848D01*
X97683081Y-82710056D01*
X97884004Y-82627037D01*
X97807364Y-82811606D01*
X97807317Y-82865283D01*
X97754572Y-82865237D01*
X97533967Y-82956389D01*
X97365037Y-83125024D01*
X97273500Y-83345470D01*
X97273292Y-83584165D01*
X97364444Y-83804770D01*
X97533079Y-83973700D01*
X97753525Y-84065237D01*
X97992220Y-84065445D01*
X98212825Y-83974293D01*
X98381755Y-83805658D01*
X98473292Y-83585212D01*
X98473339Y-83531535D01*
X98526084Y-83531581D01*
X98746689Y-83440429D01*
X98915619Y-83271794D01*
X99007156Y-83051348D01*
X99007364Y-82812653D01*
X98916212Y-82592048D01*
X98747577Y-82423118D01*
X98527131Y-82331581D01*
X98288436Y-82331373D01*
X98087513Y-82414392D01*
X98164153Y-82229823D01*
X98164361Y-81991128D01*
X98073209Y-81770523D01*
X98035286Y-81732534D01*
X98072616Y-81695269D01*
X98164153Y-81474823D01*
X98164361Y-81236128D01*
X98090516Y-81057410D01*
X98113197Y-81066828D01*
X98351892Y-81067036D01*
X98572497Y-80975884D01*
X98741427Y-80807249D01*
X98832964Y-80586803D01*
X98833011Y-80533126D01*
X98885756Y-80533172D01*
X99106361Y-80442020D01*
X99275291Y-80273385D01*
X99366828Y-80052939D01*
X99367036Y-79814244D01*
X99275884Y-79593639D01*
X99107249Y-79424709D01*
X98886803Y-79333172D01*
X98648108Y-79332964D01*
X98427503Y-79424116D01*
X98258573Y-79592751D01*
X98167036Y-79813197D01*
X98166989Y-79866874D01*
X98114244Y-79866828D01*
X97893639Y-79957980D01*
X97724709Y-80126615D01*
X97633172Y-80347061D01*
X97632964Y-80585756D01*
X97706809Y-80764474D01*
X97684128Y-80755056D01*
X97445433Y-80754848D01*
X97224828Y-80846000D01*
X97055898Y-81014635D01*
X96964361Y-81235081D01*
X96964153Y-81473776D01*
X96875000Y-81473776D01*
X96875000Y-78575756D01*
X97792964Y-78575756D01*
X97884116Y-78796361D01*
X98052751Y-78965291D01*
X98273197Y-79056828D01*
X98511892Y-79057036D01*
X98732497Y-78965884D01*
X98901427Y-78797249D01*
X98992964Y-78576803D01*
X98993011Y-78523126D01*
X99045756Y-78523172D01*
X99266361Y-78432020D01*
X99435291Y-78263385D01*
X99526828Y-78042939D01*
X99527036Y-77804244D01*
X99435884Y-77583639D01*
X99267249Y-77414709D01*
X99046803Y-77323172D01*
X98808108Y-77322964D01*
X98587503Y-77414116D01*
X98418573Y-77582751D01*
X98327036Y-77803197D01*
X98326989Y-77856874D01*
X98274244Y-77856828D01*
X98053639Y-77947980D01*
X97884709Y-78116615D01*
X97793172Y-78337061D01*
X97792964Y-78575756D01*
X96875000Y-78575756D01*
X96875000Y-76525756D01*
X98402964Y-76525756D01*
X98494116Y-76746361D01*
X98662751Y-76915291D01*
X98883197Y-77006828D01*
X99121892Y-77007036D01*
X99342497Y-76915884D01*
X99511427Y-76747249D01*
X99602964Y-76526803D01*
X99603011Y-76473126D01*
X99655756Y-76473172D01*
X99876361Y-76382020D01*
X100045291Y-76213385D01*
X100136828Y-75992939D01*
X100137036Y-75754244D01*
X100045884Y-75533639D01*
X99877249Y-75364709D01*
X99656803Y-75273172D01*
X99418108Y-75272964D01*
X99197503Y-75364116D01*
X99028573Y-75532751D01*
X98937036Y-75753197D01*
X98936989Y-75806874D01*
X98884244Y-75806828D01*
X98663639Y-75897980D01*
X98494709Y-76066615D01*
X98403172Y-76287061D01*
X98402964Y-76525756D01*
X96875000Y-76525756D01*
X96875000Y-74618824D01*
X102499896Y-74618824D01*
X102591048Y-74839429D01*
X102759683Y-75008359D01*
X102980129Y-75099896D01*
X103218824Y-75100104D01*
X103439429Y-75008952D01*
X103608359Y-74840317D01*
X103699896Y-74619871D01*
X103700104Y-74381176D01*
X103608952Y-74160571D01*
X103440317Y-73991641D01*
X103219871Y-73900104D01*
X102981176Y-73899896D01*
X102760571Y-73991048D01*
X102591641Y-74159683D01*
X102500104Y-74380129D01*
X102499896Y-74618824D01*
X96875000Y-74618824D01*
X96875000Y-50600259D01*
X97617530Y-50600259D01*
X97964208Y-51064029D01*
X99291726Y-51609857D01*
X100727072Y-51606118D01*
X102035792Y-51064029D01*
X102382470Y-50600259D01*
X100000000Y-48217789D01*
X97617530Y-50600259D01*
X96875000Y-50600259D01*
X96875000Y-49888595D01*
X96935971Y-50035792D01*
X97399741Y-50382470D01*
X99782211Y-48000000D01*
X100217789Y-48000000D01*
X102600259Y-50382470D01*
X103064029Y-50035792D01*
X103609857Y-48708274D01*
X103606118Y-47272928D01*
X103064029Y-45964208D01*
X102600259Y-45617530D01*
X100217789Y-48000000D01*
X99782211Y-48000000D01*
X97399741Y-45617530D01*
X96935971Y-45964208D01*
X96875000Y-46112497D01*
X96875000Y-45399741D01*
X97617530Y-45399741D01*
X100000000Y-47782211D01*
X102382470Y-45399741D01*
X102035792Y-44935971D01*
X100708274Y-44390143D01*
X99272928Y-44393882D01*
X97964208Y-44935971D01*
X97617530Y-45399741D01*
X96875000Y-45399741D01*
X96875000Y-44375000D01*
X107625000Y-44375000D01*
X107625000Y-68000000D01*
M02*
