M48
;DRILL file {KiCad 4.0.6} date Mon Apr 10 15:20:53 2017
;FORMAT={-:-/ absolute / inch / decimal}
FMAT,2
INCH,TZ
T1C0.012
T2C0.020
T3C0.126
%
G90
G05
M72
T1
X3.8256Y-3.1724
X3.8411Y-3.203
X3.8411Y-3.2327
X3.8533Y-3.286
X3.8543Y-3.3287
X3.8642Y-3.1197
X3.8674Y-3.168
X3.8737Y-3.0889
X3.8743Y-3.265
X3.8885Y-3.147
X3.8902Y-3.3528
X3.8948Y-3.0678
X3.8978Y-3.0081
X3.9142Y-3.5213
X3.9188Y-2.9871
X3.9291Y-3.4437
X3.9327Y-3.4858
X3.9335Y-3.0728
X3.9465Y-3.3976
X3.965Y-3.2583
X3.9657Y-3.2583
X3.9665Y-3.0138
X3.972Y-3.924
X3.9768Y-3.5835
X3.9768Y-3.6402
X4.0291Y-3.9614
X4.0669Y-3.485
X4.085Y-3.7008
X4.1024Y-3.9598
X4.1646Y-4.0189
X4.2154Y-3.6457
X4.2264Y-4.0764
X4.2299Y-3.6878
X4.263Y-3.852
X4.2846Y-4.0228
X4.3043Y-3.011
X4.3059Y-3.1791
X4.3079Y-3.8969
X4.3118Y-3.1205
X4.3398Y-3.9287
X4.3398Y-3.974
X4.3772Y-3.3677
X4.3933Y-3.9776
X4.3957Y-3.3
X4.4063Y-4.3043
X4.4083Y-3.2378
X4.4217Y-3.5031
X4.422Y-3.5614
X4.4224Y-3.6173
X4.4236Y-3.6756
X4.4252Y-3.4177
X4.4339Y-3.472
X4.4453Y-4.3138
X4.4579Y-3.4488
X4.4579Y-4.4098
X4.4669Y-3.7142
X4.4831Y-3.9421
X4.5055Y-3.7567
X4.5232Y-4.1173
X4.5244Y-3.0815
X4.5291Y-4.372
X4.5303Y-3.8945
X4.5354Y-3.5394
X4.548Y-3.7992
X4.5669Y-3.1102
X4.5728Y-3.5752
X4.5807Y-4.1421
X4.5866Y-4.2594
X4.5882Y-4.2232
X4.5917Y-3.7602
X4.5984Y-3.8697
X4.6142Y-3.6154
X4.6228Y-4.2043
X4.626Y-3.1299
X4.6291Y-3.7138
X4.6291Y-4.274
X4.6547Y-3.65
X4.661Y-4.3465
X4.6654Y-3.1693
X4.6654Y-3.2087
X4.6882Y-3.6854
X4.7047Y-3.248
X4.7437Y-3.9242
X4.7441Y-3.2874
X4.7447Y-3.8167
X4.7447Y-3.8829
X4.7447Y-3.9656
X4.7447Y-4.0069
X4.7447Y-4.0433
X4.7447Y-4.0896
X4.7461Y-4.1998
X4.7461Y-4.2953
X4.7835Y-3.3268
X4.8228Y-3.3661
X4.8594Y-4.2059
X4.8732Y-3.8913
X4.8843Y-4.5067
X4.8933Y-4.2598
X4.8953Y-4.2268
X4.8992Y-4.3449
X4.9906Y-4.5083
X5.Y-3.5236
X5.0591Y-3.5827
X5.0898Y-4.5091
X5.1181Y-3.6417
X5.1378Y-3.7008
X5.1378Y-3.7795
X5.1465Y-3.8867
X5.1465Y-3.9164
X5.1839Y-4.5083
X5.1843Y-3.8122
X5.1912Y-3.9211
X5.1969Y-3.8583
X5.2122Y-3.9422
X5.2193Y-3.7795
X5.2362Y-3.8976
X5.2399Y-3.9757
X5.2531Y-3.7551
X5.2609Y-3.9967
X5.2657Y-4.224
X5.2756Y-3.937
X5.289Y-3.7272
X5.29Y-4.0142
X5.3Y-4.2465
X5.3028Y-4.0681
X5.311Y-4.0352
X5.315Y-3.9764
X5.3217Y-3.4165
X5.3346Y-3.6614
X5.3478Y-4.0482
X5.3543Y-4.0157
X5.3688Y-4.0692
X5.4134Y-3.7402
X5.4134Y-3.8386
X5.4134Y-3.937
X5.4177Y-4.2079
X5.4201Y-4.1118
X5.4209Y-3.4772
X5.4535Y-4.1102
X5.4535Y-4.1831
X5.4921Y-4.1339
X5.5409Y-4.1358
X5.5409Y-4.1744
X5.8091Y-4.1004
X5.8382Y-4.4173
X5.8992Y-4.3555
X5.9323Y-4.5035
X5.9736Y-4.4469
X5.9992Y-4.0063
X6.074Y-4.2217
X6.0768Y-4.5559
X6.0925Y-4.3917
X6.1094Y-4.2571
X6.1465Y-4.0429
X6.1469Y-4.3661
X6.148Y-4.4394
X6.1496Y-4.0996
X6.1795Y-4.4661
X6.1909Y-4.2043
X6.1957Y-4.2591
X6.2921Y-4.5583
X6.3177Y-4.4815
T2
X4.2126Y-2.8937
X4.2913Y-2.8937
X4.3701Y-2.8937
X4.4488Y-2.8937
X4.5276Y-2.8937
X4.6063Y-2.8937
X4.6441Y-4.3169
X4.685Y-2.8937
X4.8461Y-4.2953
X5.5705Y-3.4984
X5.6886Y-3.5992
T3
X3.937Y-1.8898
X3.937Y-4.7244
T0
M30
