G04 #@! TF.FileFunction,Legend,Bot*
%FSLAX46Y46*%
G04 Gerber Fmt 4.6, Leading zero omitted, Abs format (unit mm)*
G04 Created by KiCad (PCBNEW 4.0.6) date Mon Apr 10 15:20:49 2017*
%MOMM*%
%LPD*%
G01*
G04 APERTURE LIST*
%ADD10C,0.100000*%
%ADD11C,0.150000*%
G04 APERTURE END LIST*
D10*
D11*
X119500000Y-108700000D02*
X119500000Y-108300000D01*
X121500000Y-109500000D02*
X119500000Y-109500000D01*
X121500000Y-108300000D02*
X121500000Y-108700000D01*
X121500000Y-97700000D02*
X121500000Y-97300000D01*
X119500000Y-97700000D02*
X119500000Y-97300000D01*
X121500000Y-96500000D02*
X119500000Y-96500000D01*
X123066667Y-95109524D02*
X123066667Y-95585715D01*
X123352381Y-95014286D02*
X122352381Y-95347619D01*
X123352381Y-95680953D01*
X122352381Y-95919048D02*
X122352381Y-96538096D01*
X122733333Y-96204762D01*
X122733333Y-96347620D01*
X122780952Y-96442858D01*
X122828571Y-96490477D01*
X122923810Y-96538096D01*
X123161905Y-96538096D01*
X123257143Y-96490477D01*
X123304762Y-96442858D01*
X123352381Y-96347620D01*
X123352381Y-96061905D01*
X123304762Y-95966667D01*
X123257143Y-95919048D01*
X122352381Y-97157143D02*
X122352381Y-97252382D01*
X122400000Y-97347620D01*
X122447619Y-97395239D01*
X122542857Y-97442858D01*
X122733333Y-97490477D01*
X122971429Y-97490477D01*
X123161905Y-97442858D01*
X123257143Y-97395239D01*
X123304762Y-97347620D01*
X123352381Y-97252382D01*
X123352381Y-97157143D01*
X123304762Y-97061905D01*
X123257143Y-97014286D01*
X123161905Y-96966667D01*
X122971429Y-96919048D01*
X122733333Y-96919048D01*
X122542857Y-96966667D01*
X122447619Y-97014286D01*
X122400000Y-97061905D01*
X122352381Y-97157143D01*
X117828571Y-95419048D02*
X117876190Y-95561905D01*
X117923810Y-95609524D01*
X118019048Y-95657143D01*
X118161905Y-95657143D01*
X118257143Y-95609524D01*
X118304762Y-95561905D01*
X118352381Y-95466667D01*
X118352381Y-95085714D01*
X117352381Y-95085714D01*
X117352381Y-95419048D01*
X117400000Y-95514286D01*
X117447619Y-95561905D01*
X117542857Y-95609524D01*
X117638095Y-95609524D01*
X117733333Y-95561905D01*
X117780952Y-95514286D01*
X117828571Y-95419048D01*
X117828571Y-95085714D01*
X117352381Y-95990476D02*
X117352381Y-96609524D01*
X117733333Y-96276190D01*
X117733333Y-96419048D01*
X117780952Y-96514286D01*
X117828571Y-96561905D01*
X117923810Y-96609524D01*
X118161905Y-96609524D01*
X118257143Y-96561905D01*
X118304762Y-96514286D01*
X118352381Y-96419048D01*
X118352381Y-96133333D01*
X118304762Y-96038095D01*
X118257143Y-95990476D01*
X117352381Y-97228571D02*
X117352381Y-97323810D01*
X117400000Y-97419048D01*
X117447619Y-97466667D01*
X117542857Y-97514286D01*
X117733333Y-97561905D01*
X117971429Y-97561905D01*
X118161905Y-97514286D01*
X118257143Y-97466667D01*
X118304762Y-97419048D01*
X118352381Y-97323810D01*
X118352381Y-97228571D01*
X118304762Y-97133333D01*
X118257143Y-97085714D01*
X118161905Y-97038095D01*
X117971429Y-96990476D01*
X117733333Y-96990476D01*
X117542857Y-97038095D01*
X117447619Y-97085714D01*
X117400000Y-97133333D01*
X117352381Y-97228571D01*
X117928571Y-108695239D02*
X117976190Y-108838096D01*
X118023810Y-108885715D01*
X118119048Y-108933334D01*
X118261905Y-108933334D01*
X118357143Y-108885715D01*
X118404762Y-108838096D01*
X118452381Y-108742858D01*
X118452381Y-108361905D01*
X117452381Y-108361905D01*
X117452381Y-108695239D01*
X117500000Y-108790477D01*
X117547619Y-108838096D01*
X117642857Y-108885715D01*
X117738095Y-108885715D01*
X117833333Y-108838096D01*
X117880952Y-108790477D01*
X117928571Y-108695239D01*
X117928571Y-108361905D01*
X118452381Y-109885715D02*
X118452381Y-109314286D01*
X118452381Y-109600000D02*
X117452381Y-109600000D01*
X117595238Y-109504762D01*
X117690476Y-109409524D01*
X117738095Y-109314286D01*
X123066667Y-108385714D02*
X123066667Y-108861905D01*
X123352381Y-108290476D02*
X122352381Y-108623809D01*
X123352381Y-108957143D01*
X123352381Y-109814286D02*
X123352381Y-109242857D01*
X123352381Y-109528571D02*
X122352381Y-109528571D01*
X122495238Y-109433333D01*
X122590476Y-109338095D01*
X122638095Y-109242857D01*
M02*
