G04 #@! TF.FileFunction,Legend,Top*
%FSLAX46Y46*%
G04 Gerber Fmt 4.6, Leading zero omitted, Abs format (unit mm)*
G04 Created by KiCad (PCBNEW 4.0.6) date Mon Apr 10 15:20:49 2017*
%MOMM*%
%LPD*%
G01*
G04 APERTURE LIST*
%ADD10C,0.100000*%
%ADD11C,0.300000*%
%ADD12C,0.400000*%
%ADD13C,0.150000*%
%ADD14C,0.120000*%
%ADD15C,0.010000*%
G04 APERTURE END LIST*
D10*
D11*
X142892858Y-77678571D02*
X142392858Y-76964286D01*
X142035715Y-77678571D02*
X142035715Y-76178571D01*
X142607143Y-76178571D01*
X142750001Y-76250000D01*
X142821429Y-76321429D01*
X142892858Y-76464286D01*
X142892858Y-76678571D01*
X142821429Y-76821429D01*
X142750001Y-76892857D01*
X142607143Y-76964286D01*
X142035715Y-76964286D01*
X144107143Y-77607143D02*
X143964286Y-77678571D01*
X143678572Y-77678571D01*
X143535715Y-77607143D01*
X143464286Y-77464286D01*
X143464286Y-76892857D01*
X143535715Y-76750000D01*
X143678572Y-76678571D01*
X143964286Y-76678571D01*
X144107143Y-76750000D01*
X144178572Y-76892857D01*
X144178572Y-77035714D01*
X143464286Y-77178571D01*
X144678572Y-76678571D02*
X145035715Y-77678571D01*
X145392857Y-76678571D01*
X147892857Y-77678571D02*
X147035714Y-77678571D01*
X147464286Y-77678571D02*
X147464286Y-76178571D01*
X147321429Y-76392857D01*
X147178571Y-76535714D01*
X147035714Y-76607143D01*
X148535714Y-77535714D02*
X148607142Y-77607143D01*
X148535714Y-77678571D01*
X148464285Y-77607143D01*
X148535714Y-77535714D01*
X148535714Y-77678571D01*
X149535714Y-76178571D02*
X149678571Y-76178571D01*
X149821428Y-76250000D01*
X149892857Y-76321429D01*
X149964286Y-76464286D01*
X150035714Y-76750000D01*
X150035714Y-77107143D01*
X149964286Y-77392857D01*
X149892857Y-77535714D01*
X149821428Y-77607143D01*
X149678571Y-77678571D01*
X149535714Y-77678571D01*
X149392857Y-77607143D01*
X149321428Y-77535714D01*
X149250000Y-77392857D01*
X149178571Y-77107143D01*
X149178571Y-76750000D01*
X149250000Y-76464286D01*
X149321428Y-76321429D01*
X149392857Y-76250000D01*
X149535714Y-76178571D01*
X138678572Y-74178571D02*
X138678572Y-75178571D01*
X138321429Y-73607143D02*
X137964286Y-74678571D01*
X138892858Y-74678571D01*
X139464286Y-75178571D02*
X139464286Y-73678571D01*
X139607143Y-74607143D02*
X140035714Y-75178571D01*
X140035714Y-74178571D02*
X139464286Y-74750000D01*
X142535715Y-75178571D02*
X141821429Y-75178571D01*
X141821429Y-73678571D01*
X143892858Y-75035714D02*
X143821429Y-75107143D01*
X143607143Y-75178571D01*
X143464286Y-75178571D01*
X143250001Y-75107143D01*
X143107143Y-74964286D01*
X143035715Y-74821429D01*
X142964286Y-74535714D01*
X142964286Y-74321429D01*
X143035715Y-74035714D01*
X143107143Y-73892857D01*
X143250001Y-73750000D01*
X143464286Y-73678571D01*
X143607143Y-73678571D01*
X143821429Y-73750000D01*
X143892858Y-73821429D01*
X144535715Y-75178571D02*
X144535715Y-73678571D01*
X144892858Y-73678571D01*
X145107143Y-73750000D01*
X145250001Y-73892857D01*
X145321429Y-74035714D01*
X145392858Y-74321429D01*
X145392858Y-74535714D01*
X145321429Y-74821429D01*
X145250001Y-74964286D01*
X145107143Y-75107143D01*
X144892858Y-75178571D01*
X144535715Y-75178571D01*
X147678572Y-74392857D02*
X147892858Y-74464286D01*
X147964286Y-74535714D01*
X148035715Y-74678571D01*
X148035715Y-74892857D01*
X147964286Y-75035714D01*
X147892858Y-75107143D01*
X147750000Y-75178571D01*
X147178572Y-75178571D01*
X147178572Y-73678571D01*
X147678572Y-73678571D01*
X147821429Y-73750000D01*
X147892858Y-73821429D01*
X147964286Y-73964286D01*
X147964286Y-74107143D01*
X147892858Y-74250000D01*
X147821429Y-74321429D01*
X147678572Y-74392857D01*
X147178572Y-74392857D01*
X148892858Y-75178571D02*
X148750000Y-75107143D01*
X148678572Y-75035714D01*
X148607143Y-74892857D01*
X148607143Y-74464286D01*
X148678572Y-74321429D01*
X148750000Y-74250000D01*
X148892858Y-74178571D01*
X149107143Y-74178571D01*
X149250000Y-74250000D01*
X149321429Y-74321429D01*
X149392858Y-74464286D01*
X149392858Y-74892857D01*
X149321429Y-75035714D01*
X149250000Y-75107143D01*
X149107143Y-75178571D01*
X148892858Y-75178571D01*
X150678572Y-75178571D02*
X150678572Y-74392857D01*
X150607143Y-74250000D01*
X150464286Y-74178571D01*
X150178572Y-74178571D01*
X150035715Y-74250000D01*
X150678572Y-75107143D02*
X150535715Y-75178571D01*
X150178572Y-75178571D01*
X150035715Y-75107143D01*
X149964286Y-74964286D01*
X149964286Y-74821429D01*
X150035715Y-74678571D01*
X150178572Y-74607143D01*
X150535715Y-74607143D01*
X150678572Y-74535714D01*
X151392858Y-75178571D02*
X151392858Y-74178571D01*
X151392858Y-74464286D02*
X151464286Y-74321429D01*
X151535715Y-74250000D01*
X151678572Y-74178571D01*
X151821429Y-74178571D01*
X152964286Y-75178571D02*
X152964286Y-73678571D01*
X152964286Y-75107143D02*
X152821429Y-75178571D01*
X152535715Y-75178571D01*
X152392857Y-75107143D01*
X152321429Y-75035714D01*
X152250000Y-74892857D01*
X152250000Y-74464286D01*
X152321429Y-74321429D01*
X152392857Y-74250000D01*
X152535715Y-74178571D01*
X152821429Y-74178571D01*
X152964286Y-74250000D01*
D12*
X137702381Y-71130952D02*
X137464286Y-71011905D01*
X137345238Y-70892857D01*
X137226190Y-70654762D01*
X137226190Y-69940476D01*
X137345238Y-69702381D01*
X137464286Y-69583333D01*
X137702381Y-69464286D01*
X138059524Y-69464286D01*
X138297619Y-69583333D01*
X138416667Y-69702381D01*
X138535714Y-69940476D01*
X138535714Y-70654762D01*
X138416667Y-70892857D01*
X138297619Y-71011905D01*
X138059524Y-71130952D01*
X137702381Y-71130952D01*
X139607143Y-69464286D02*
X139607143Y-71964286D01*
X139607143Y-69583333D02*
X139845238Y-69464286D01*
X140321429Y-69464286D01*
X140559524Y-69583333D01*
X140678572Y-69702381D01*
X140797619Y-69940476D01*
X140797619Y-70654762D01*
X140678572Y-70892857D01*
X140559524Y-71011905D01*
X140321429Y-71130952D01*
X139845238Y-71130952D01*
X139607143Y-71011905D01*
X142821429Y-71011905D02*
X142583334Y-71130952D01*
X142107143Y-71130952D01*
X141869048Y-71011905D01*
X141750000Y-70773810D01*
X141750000Y-69821429D01*
X141869048Y-69583333D01*
X142107143Y-69464286D01*
X142583334Y-69464286D01*
X142821429Y-69583333D01*
X142940477Y-69821429D01*
X142940477Y-70059524D01*
X141750000Y-70297619D01*
X144011905Y-69464286D02*
X144011905Y-71130952D01*
X144011905Y-69702381D02*
X144130953Y-69583333D01*
X144369048Y-69464286D01*
X144726191Y-69464286D01*
X144964286Y-69583333D01*
X145083334Y-69821429D01*
X145083334Y-71130952D01*
X146273810Y-71130952D02*
X146273810Y-68630952D01*
X147107143Y-70416667D01*
X147940477Y-68630952D01*
X147940477Y-71130952D01*
X149130953Y-71130952D02*
X149130953Y-69464286D01*
X149130953Y-68630952D02*
X149011905Y-68750000D01*
X149130953Y-68869048D01*
X149250001Y-68750000D01*
X149130953Y-68630952D01*
X149130953Y-68869048D01*
X150083334Y-71130952D02*
X151392858Y-69464286D01*
X150083334Y-69464286D02*
X151392858Y-71130952D01*
X153773811Y-71130952D02*
X152940477Y-69940476D01*
X152345239Y-71130952D02*
X152345239Y-68630952D01*
X153297620Y-68630952D01*
X153535715Y-68750000D01*
X153654763Y-68869048D01*
X153773811Y-69107143D01*
X153773811Y-69464286D01*
X153654763Y-69702381D01*
X153535715Y-69821429D01*
X153297620Y-69940476D01*
X152345239Y-69940476D01*
D13*
X106200000Y-93000000D02*
X107400000Y-93000000D01*
X107400000Y-93000000D02*
X107400000Y-90500000D01*
X102600000Y-90500000D02*
X102600000Y-93000000D01*
X102600000Y-93000000D02*
X103800000Y-93000000D01*
X103800000Y-73000000D02*
X102600000Y-73000000D01*
X102600000Y-73000000D02*
X102600000Y-75500000D01*
X107400000Y-75500000D02*
X107400000Y-73000000D01*
X107400000Y-73000000D02*
X106200000Y-73000000D01*
D14*
X140000000Y-89150000D02*
X139000000Y-89150000D01*
X139000000Y-90850000D02*
X140000000Y-90850000D01*
X143000000Y-90850000D02*
X144000000Y-90850000D01*
X144000000Y-89150000D02*
X143000000Y-89150000D01*
X128850000Y-114000000D02*
X128850000Y-113000000D01*
X127150000Y-113000000D02*
X127150000Y-114000000D01*
X131350000Y-114000000D02*
X131350000Y-113000000D01*
X129650000Y-113000000D02*
X129650000Y-114000000D01*
X126350000Y-114000000D02*
X126350000Y-113000000D01*
X124650000Y-113000000D02*
X124650000Y-114000000D01*
D13*
X145975000Y-88750000D02*
X145975000Y-89250000D01*
X147025000Y-89250000D02*
X147025000Y-88750000D01*
X145975000Y-86250000D02*
X145975000Y-86750000D01*
X147025000Y-86750000D02*
X147025000Y-86250000D01*
X104750000Y-95775000D02*
X105250000Y-95775000D01*
X105250000Y-94725000D02*
X104750000Y-94725000D01*
X104750000Y-97025000D02*
X105250000Y-97025000D01*
X105250000Y-95975000D02*
X104750000Y-95975000D01*
X104750000Y-98275000D02*
X105250000Y-98275000D01*
X105250000Y-97225000D02*
X104750000Y-97225000D01*
X104750000Y-99525000D02*
X105250000Y-99525000D01*
X105250000Y-98475000D02*
X104750000Y-98475000D01*
X138750000Y-82250000D02*
X138750000Y-85750000D01*
X138750000Y-85750000D02*
X145250000Y-85750000D01*
X145250000Y-85750000D02*
X145250000Y-82250000D01*
X145250000Y-82250000D02*
X138750000Y-82250000D01*
D14*
X150650000Y-108075000D02*
X151150000Y-108075000D01*
X151150000Y-107125000D02*
X150650000Y-107125000D01*
X150650000Y-109375000D02*
X151150000Y-109375000D01*
X151150000Y-108425000D02*
X150650000Y-108425000D01*
X152450000Y-104575000D02*
X152950000Y-104575000D01*
X152950000Y-103625000D02*
X152450000Y-103625000D01*
X155250000Y-103625000D02*
X154750000Y-103625000D01*
X154750000Y-104575000D02*
X155250000Y-104575000D01*
D13*
X158050000Y-114025000D02*
X158550000Y-114025000D01*
X158550000Y-112975000D02*
X158050000Y-112975000D01*
X158050000Y-110125000D02*
X158550000Y-110125000D01*
X158550000Y-109075000D02*
X158050000Y-109075000D01*
X153050000Y-102275000D02*
X152550000Y-102275000D01*
X152550000Y-103325000D02*
X153050000Y-103325000D01*
X154650000Y-103325000D02*
X155150000Y-103325000D01*
X155150000Y-102275000D02*
X154650000Y-102275000D01*
X158050000Y-112725000D02*
X158550000Y-112725000D01*
X158550000Y-111675000D02*
X158050000Y-111675000D01*
X125350000Y-107425000D02*
X125850000Y-107425000D01*
X125850000Y-106375000D02*
X125350000Y-106375000D01*
X125350000Y-106125000D02*
X125850000Y-106125000D01*
X125850000Y-105075000D02*
X125350000Y-105075000D01*
X158050000Y-111425000D02*
X158550000Y-111425000D01*
X158550000Y-110375000D02*
X158050000Y-110375000D01*
X125350000Y-108725000D02*
X125850000Y-108725000D01*
X125850000Y-107675000D02*
X125350000Y-107675000D01*
X117025000Y-110350000D02*
X117025000Y-109850000D01*
X115975000Y-109850000D02*
X115975000Y-110350000D01*
X115725000Y-110350000D02*
X115725000Y-109850000D01*
X114675000Y-109850000D02*
X114675000Y-110350000D01*
X153105000Y-106055000D02*
X153605000Y-106055000D01*
X156355000Y-109305000D02*
X155855000Y-109305000D01*
X156355000Y-106055000D02*
X155855000Y-106055000D01*
X153105000Y-109305000D02*
X153105000Y-108805000D01*
X156355000Y-109305000D02*
X156355000Y-108805000D01*
X156355000Y-106055000D02*
X156355000Y-106555000D01*
X153105000Y-106055000D02*
X153105000Y-106555000D01*
D15*
G36*
X123268886Y-76084505D02*
X123343539Y-76121727D01*
X123409431Y-76190261D01*
X123427577Y-76215648D01*
X123447345Y-76248866D01*
X123460172Y-76284945D01*
X123467510Y-76333098D01*
X123470813Y-76402536D01*
X123471538Y-76494206D01*
X123468263Y-76619830D01*
X123456877Y-76714154D01*
X123435041Y-76784523D01*
X123400419Y-76838286D01*
X123350670Y-76882788D01*
X123347014Y-76885423D01*
X123297985Y-76912377D01*
X123238945Y-76925712D01*
X123163859Y-76929000D01*
X123041795Y-76929000D01*
X123041744Y-77047497D01*
X123040608Y-77113492D01*
X123033686Y-77152202D01*
X123015598Y-77175419D01*
X122980962Y-77194933D01*
X122972645Y-77198920D01*
X122933720Y-77217603D01*
X122903583Y-77229403D01*
X122881174Y-77230422D01*
X122865433Y-77216761D01*
X122855302Y-77184522D01*
X122849723Y-77129804D01*
X122847635Y-77048711D01*
X122847981Y-76937344D01*
X122849700Y-76791802D01*
X122850237Y-76748269D01*
X122852172Y-76598205D01*
X122853904Y-76500042D01*
X123041692Y-76500042D01*
X123042748Y-76583364D01*
X123047438Y-76637880D01*
X123058051Y-76673837D01*
X123076872Y-76701482D01*
X123089650Y-76714965D01*
X123141890Y-76754417D01*
X123188142Y-76757628D01*
X123235867Y-76725049D01*
X123237077Y-76723846D01*
X123256494Y-76698668D01*
X123268307Y-76664447D01*
X123274265Y-76611748D01*
X123276120Y-76531131D01*
X123276154Y-76513271D01*
X123271670Y-76402175D01*
X123257074Y-76325161D01*
X123230650Y-76278147D01*
X123190683Y-76257050D01*
X123167584Y-76254923D01*
X123112762Y-76264900D01*
X123075158Y-76297752D01*
X123052523Y-76357857D01*
X123042606Y-76449598D01*
X123041692Y-76500042D01*
X122853904Y-76500042D01*
X122854222Y-76482060D01*
X122856873Y-76394679D01*
X122860606Y-76330905D01*
X122865907Y-76285582D01*
X122873258Y-76253555D01*
X122883143Y-76229668D01*
X122896046Y-76208764D01*
X122901579Y-76200898D01*
X122974969Y-76126595D01*
X123067760Y-76084467D01*
X123175096Y-76072722D01*
X123268886Y-76084505D01*
X123268886Y-76084505D01*
G37*
X123268886Y-76084505D02*
X123343539Y-76121727D01*
X123409431Y-76190261D01*
X123427577Y-76215648D01*
X123447345Y-76248866D01*
X123460172Y-76284945D01*
X123467510Y-76333098D01*
X123470813Y-76402536D01*
X123471538Y-76494206D01*
X123468263Y-76619830D01*
X123456877Y-76714154D01*
X123435041Y-76784523D01*
X123400419Y-76838286D01*
X123350670Y-76882788D01*
X123347014Y-76885423D01*
X123297985Y-76912377D01*
X123238945Y-76925712D01*
X123163859Y-76929000D01*
X123041795Y-76929000D01*
X123041744Y-77047497D01*
X123040608Y-77113492D01*
X123033686Y-77152202D01*
X123015598Y-77175419D01*
X122980962Y-77194933D01*
X122972645Y-77198920D01*
X122933720Y-77217603D01*
X122903583Y-77229403D01*
X122881174Y-77230422D01*
X122865433Y-77216761D01*
X122855302Y-77184522D01*
X122849723Y-77129804D01*
X122847635Y-77048711D01*
X122847981Y-76937344D01*
X122849700Y-76791802D01*
X122850237Y-76748269D01*
X122852172Y-76598205D01*
X122853904Y-76500042D01*
X123041692Y-76500042D01*
X123042748Y-76583364D01*
X123047438Y-76637880D01*
X123058051Y-76673837D01*
X123076872Y-76701482D01*
X123089650Y-76714965D01*
X123141890Y-76754417D01*
X123188142Y-76757628D01*
X123235867Y-76725049D01*
X123237077Y-76723846D01*
X123256494Y-76698668D01*
X123268307Y-76664447D01*
X123274265Y-76611748D01*
X123276120Y-76531131D01*
X123276154Y-76513271D01*
X123271670Y-76402175D01*
X123257074Y-76325161D01*
X123230650Y-76278147D01*
X123190683Y-76257050D01*
X123167584Y-76254923D01*
X123112762Y-76264900D01*
X123075158Y-76297752D01*
X123052523Y-76357857D01*
X123042606Y-76449598D01*
X123041692Y-76500042D01*
X122853904Y-76500042D01*
X122854222Y-76482060D01*
X122856873Y-76394679D01*
X122860606Y-76330905D01*
X122865907Y-76285582D01*
X122873258Y-76253555D01*
X122883143Y-76229668D01*
X122896046Y-76208764D01*
X122901579Y-76200898D01*
X122974969Y-76126595D01*
X123067760Y-76084467D01*
X123175096Y-76072722D01*
X123268886Y-76084505D01*
G36*
X124771664Y-76095089D02*
X124834367Y-76131358D01*
X124877961Y-76167358D01*
X124909845Y-76205075D01*
X124931810Y-76251199D01*
X124945649Y-76312421D01*
X124953153Y-76395431D01*
X124956117Y-76506919D01*
X124956461Y-76587062D01*
X124956461Y-76882065D01*
X124790385Y-76956515D01*
X124780615Y-76633402D01*
X124776579Y-76512729D01*
X124772344Y-76425141D01*
X124767097Y-76364650D01*
X124760025Y-76325268D01*
X124750311Y-76301007D01*
X124737144Y-76285880D01*
X124732919Y-76282606D01*
X124668909Y-76257034D01*
X124604208Y-76267153D01*
X124565692Y-76294000D01*
X124550025Y-76313024D01*
X124539180Y-76337988D01*
X124532288Y-76375834D01*
X124528479Y-76433502D01*
X124526883Y-76517935D01*
X124526615Y-76605928D01*
X124526563Y-76716323D01*
X124524672Y-76794463D01*
X124518345Y-76847165D01*
X124504983Y-76881242D01*
X124481985Y-76903511D01*
X124446754Y-76920787D01*
X124399697Y-76938738D01*
X124348303Y-76958278D01*
X124354421Y-76611485D01*
X124356884Y-76486468D01*
X124359767Y-76394082D01*
X124363898Y-76327881D01*
X124370107Y-76281420D01*
X124379226Y-76248256D01*
X124392083Y-76221944D01*
X124407584Y-76198729D01*
X124482371Y-76124569D01*
X124573628Y-76081684D01*
X124672883Y-76071412D01*
X124771664Y-76095089D01*
X124771664Y-76095089D01*
G37*
X124771664Y-76095089D02*
X124834367Y-76131358D01*
X124877961Y-76167358D01*
X124909845Y-76205075D01*
X124931810Y-76251199D01*
X124945649Y-76312421D01*
X124953153Y-76395431D01*
X124956117Y-76506919D01*
X124956461Y-76587062D01*
X124956461Y-76882065D01*
X124790385Y-76956515D01*
X124780615Y-76633402D01*
X124776579Y-76512729D01*
X124772344Y-76425141D01*
X124767097Y-76364650D01*
X124760025Y-76325268D01*
X124750311Y-76301007D01*
X124737144Y-76285880D01*
X124732919Y-76282606D01*
X124668909Y-76257034D01*
X124604208Y-76267153D01*
X124565692Y-76294000D01*
X124550025Y-76313024D01*
X124539180Y-76337988D01*
X124532288Y-76375834D01*
X124528479Y-76433502D01*
X124526883Y-76517935D01*
X124526615Y-76605928D01*
X124526563Y-76716323D01*
X124524672Y-76794463D01*
X124518345Y-76847165D01*
X124504983Y-76881242D01*
X124481985Y-76903511D01*
X124446754Y-76920787D01*
X124399697Y-76938738D01*
X124348303Y-76958278D01*
X124354421Y-76611485D01*
X124356884Y-76486468D01*
X124359767Y-76394082D01*
X124363898Y-76327881D01*
X124370107Y-76281420D01*
X124379226Y-76248256D01*
X124392083Y-76221944D01*
X124407584Y-76198729D01*
X124482371Y-76124569D01*
X124573628Y-76081684D01*
X124672883Y-76071412D01*
X124771664Y-76095089D01*
G36*
X122516886Y-76087256D02*
X122608464Y-76135409D01*
X122676049Y-76212905D01*
X122700057Y-76262727D01*
X122718738Y-76337533D01*
X122728301Y-76432052D01*
X122729208Y-76535210D01*
X122721921Y-76635935D01*
X122706903Y-76723153D01*
X122684615Y-76785791D01*
X122677765Y-76796579D01*
X122596632Y-76877105D01*
X122500266Y-76925336D01*
X122395701Y-76939450D01*
X122289968Y-76917629D01*
X122260543Y-76904547D01*
X122203241Y-76864231D01*
X122152950Y-76810775D01*
X122148197Y-76803995D01*
X122128878Y-76771321D01*
X122116108Y-76736394D01*
X122108564Y-76690414D01*
X122104924Y-76624584D01*
X122103865Y-76530105D01*
X122103846Y-76508923D01*
X122103894Y-76502182D01*
X122299231Y-76502182D01*
X122300368Y-76591349D01*
X122304841Y-76650520D01*
X122314246Y-76688741D01*
X122330176Y-76715053D01*
X122338308Y-76723846D01*
X122385058Y-76757261D01*
X122430447Y-76755737D01*
X122476340Y-76726752D01*
X122503712Y-76695809D01*
X122519923Y-76650643D01*
X122529026Y-76579420D01*
X122529651Y-76571114D01*
X122531204Y-76442037D01*
X122514965Y-76346172D01*
X122481152Y-76284107D01*
X122429984Y-76256432D01*
X122411720Y-76254923D01*
X122363760Y-76262513D01*
X122330953Y-76288808D01*
X122310895Y-76339095D01*
X122301178Y-76418664D01*
X122299231Y-76502182D01*
X122103894Y-76502182D01*
X122104574Y-76408249D01*
X122107629Y-76337906D01*
X122114322Y-76289163D01*
X122125960Y-76253288D01*
X122143853Y-76221548D01*
X122147808Y-76215648D01*
X122214267Y-76136104D01*
X122286685Y-76089929D01*
X122374849Y-76071599D01*
X122404787Y-76070703D01*
X122516886Y-76087256D01*
X122516886Y-76087256D01*
G37*
X122516886Y-76087256D02*
X122608464Y-76135409D01*
X122676049Y-76212905D01*
X122700057Y-76262727D01*
X122718738Y-76337533D01*
X122728301Y-76432052D01*
X122729208Y-76535210D01*
X122721921Y-76635935D01*
X122706903Y-76723153D01*
X122684615Y-76785791D01*
X122677765Y-76796579D01*
X122596632Y-76877105D01*
X122500266Y-76925336D01*
X122395701Y-76939450D01*
X122289968Y-76917629D01*
X122260543Y-76904547D01*
X122203241Y-76864231D01*
X122152950Y-76810775D01*
X122148197Y-76803995D01*
X122128878Y-76771321D01*
X122116108Y-76736394D01*
X122108564Y-76690414D01*
X122104924Y-76624584D01*
X122103865Y-76530105D01*
X122103846Y-76508923D01*
X122103894Y-76502182D01*
X122299231Y-76502182D01*
X122300368Y-76591349D01*
X122304841Y-76650520D01*
X122314246Y-76688741D01*
X122330176Y-76715053D01*
X122338308Y-76723846D01*
X122385058Y-76757261D01*
X122430447Y-76755737D01*
X122476340Y-76726752D01*
X122503712Y-76695809D01*
X122519923Y-76650643D01*
X122529026Y-76579420D01*
X122529651Y-76571114D01*
X122531204Y-76442037D01*
X122514965Y-76346172D01*
X122481152Y-76284107D01*
X122429984Y-76256432D01*
X122411720Y-76254923D01*
X122363760Y-76262513D01*
X122330953Y-76288808D01*
X122310895Y-76339095D01*
X122301178Y-76418664D01*
X122299231Y-76502182D01*
X122103894Y-76502182D01*
X122104574Y-76408249D01*
X122107629Y-76337906D01*
X122114322Y-76289163D01*
X122125960Y-76253288D01*
X122143853Y-76221548D01*
X122147808Y-76215648D01*
X122214267Y-76136104D01*
X122286685Y-76089929D01*
X122374849Y-76071599D01*
X122404787Y-76070703D01*
X122516886Y-76087256D01*
G36*
X124034254Y-76099745D02*
X124111286Y-76151567D01*
X124170816Y-76226412D01*
X124206378Y-76321654D01*
X124213571Y-76391756D01*
X124212754Y-76421009D01*
X124205914Y-76443407D01*
X124187112Y-76463474D01*
X124150408Y-76485733D01*
X124089862Y-76514709D01*
X123999534Y-76554927D01*
X123999077Y-76555129D01*
X123915933Y-76593210D01*
X123847753Y-76627025D01*
X123801505Y-76652933D01*
X123784158Y-76667295D01*
X123784154Y-76667411D01*
X123799443Y-76698685D01*
X123835196Y-76733157D01*
X123876242Y-76757990D01*
X123897037Y-76762923D01*
X123953770Y-76745862D01*
X124002627Y-76703133D01*
X124026465Y-76656155D01*
X124049397Y-76621522D01*
X124094318Y-76582081D01*
X124147123Y-76548009D01*
X124193710Y-76529480D01*
X124203452Y-76528462D01*
X124214418Y-76545215D01*
X124215079Y-76588039D01*
X124207020Y-76645781D01*
X124191827Y-76707289D01*
X124171086Y-76761409D01*
X124170038Y-76763510D01*
X124107621Y-76850660D01*
X124026726Y-76909939D01*
X123934856Y-76939034D01*
X123839513Y-76935634D01*
X123748198Y-76897428D01*
X123744138Y-76894741D01*
X123672306Y-76829642D01*
X123625073Y-76744705D01*
X123598934Y-76633021D01*
X123595426Y-76601643D01*
X123589213Y-76453536D01*
X123596661Y-76384468D01*
X123784154Y-76384468D01*
X123786590Y-76427552D01*
X123799914Y-76440126D01*
X123833132Y-76430719D01*
X123885494Y-76408483D01*
X123944024Y-76380610D01*
X123945479Y-76379872D01*
X123995089Y-76353777D01*
X124015000Y-76336363D01*
X124010090Y-76318107D01*
X123989416Y-76294120D01*
X123936819Y-76259406D01*
X123880177Y-76256856D01*
X123829369Y-76282119D01*
X123794276Y-76330847D01*
X123784154Y-76384468D01*
X123596661Y-76384468D01*
X123601992Y-76335036D01*
X123634778Y-76241055D01*
X123680421Y-76175215D01*
X123762802Y-76108681D01*
X123853546Y-76075676D01*
X123946185Y-76073573D01*
X124034254Y-76099745D01*
X124034254Y-76099745D01*
G37*
X124034254Y-76099745D02*
X124111286Y-76151567D01*
X124170816Y-76226412D01*
X124206378Y-76321654D01*
X124213571Y-76391756D01*
X124212754Y-76421009D01*
X124205914Y-76443407D01*
X124187112Y-76463474D01*
X124150408Y-76485733D01*
X124089862Y-76514709D01*
X123999534Y-76554927D01*
X123999077Y-76555129D01*
X123915933Y-76593210D01*
X123847753Y-76627025D01*
X123801505Y-76652933D01*
X123784158Y-76667295D01*
X123784154Y-76667411D01*
X123799443Y-76698685D01*
X123835196Y-76733157D01*
X123876242Y-76757990D01*
X123897037Y-76762923D01*
X123953770Y-76745862D01*
X124002627Y-76703133D01*
X124026465Y-76656155D01*
X124049397Y-76621522D01*
X124094318Y-76582081D01*
X124147123Y-76548009D01*
X124193710Y-76529480D01*
X124203452Y-76528462D01*
X124214418Y-76545215D01*
X124215079Y-76588039D01*
X124207020Y-76645781D01*
X124191827Y-76707289D01*
X124171086Y-76761409D01*
X124170038Y-76763510D01*
X124107621Y-76850660D01*
X124026726Y-76909939D01*
X123934856Y-76939034D01*
X123839513Y-76935634D01*
X123748198Y-76897428D01*
X123744138Y-76894741D01*
X123672306Y-76829642D01*
X123625073Y-76744705D01*
X123598934Y-76633021D01*
X123595426Y-76601643D01*
X123589213Y-76453536D01*
X123596661Y-76384468D01*
X123784154Y-76384468D01*
X123786590Y-76427552D01*
X123799914Y-76440126D01*
X123833132Y-76430719D01*
X123885494Y-76408483D01*
X123944024Y-76380610D01*
X123945479Y-76379872D01*
X123995089Y-76353777D01*
X124015000Y-76336363D01*
X124010090Y-76318107D01*
X123989416Y-76294120D01*
X123936819Y-76259406D01*
X123880177Y-76256856D01*
X123829369Y-76282119D01*
X123794276Y-76330847D01*
X123784154Y-76384468D01*
X123596661Y-76384468D01*
X123601992Y-76335036D01*
X123634778Y-76241055D01*
X123680421Y-76175215D01*
X123762802Y-76108681D01*
X123853546Y-76075676D01*
X123946185Y-76073573D01*
X124034254Y-76099745D01*
G36*
X125659846Y-75992120D02*
X125665572Y-76071980D01*
X125672149Y-76119039D01*
X125681262Y-76139566D01*
X125694598Y-76139829D01*
X125698923Y-76137378D01*
X125756444Y-76119636D01*
X125831268Y-76120672D01*
X125907339Y-76138910D01*
X125954918Y-76162505D01*
X126003702Y-76200198D01*
X126039364Y-76242855D01*
X126063845Y-76297057D01*
X126079087Y-76369384D01*
X126087030Y-76466419D01*
X126089616Y-76594742D01*
X126089662Y-76619358D01*
X126089692Y-76895870D01*
X126028161Y-76917320D01*
X125984459Y-76931912D01*
X125960482Y-76938706D01*
X125959777Y-76938769D01*
X125957415Y-76920345D01*
X125955406Y-76869526D01*
X125953901Y-76792993D01*
X125953053Y-76697430D01*
X125952923Y-76639329D01*
X125952651Y-76524771D01*
X125951252Y-76442667D01*
X125947849Y-76386393D01*
X125941567Y-76349326D01*
X125931529Y-76324844D01*
X125916861Y-76306325D01*
X125907702Y-76297406D01*
X125844789Y-76261466D01*
X125776136Y-76258775D01*
X125713848Y-76289170D01*
X125702329Y-76300144D01*
X125685433Y-76320779D01*
X125673714Y-76345256D01*
X125666233Y-76380647D01*
X125662054Y-76434026D01*
X125660237Y-76512466D01*
X125659846Y-76620617D01*
X125659846Y-76895870D01*
X125598315Y-76917320D01*
X125554613Y-76931912D01*
X125530636Y-76938706D01*
X125529930Y-76938769D01*
X125528126Y-76920069D01*
X125526500Y-76867322D01*
X125525117Y-76785557D01*
X125524042Y-76679805D01*
X125523340Y-76555094D01*
X125523077Y-76416455D01*
X125523077Y-75881806D01*
X125650077Y-75828236D01*
X125659846Y-75992120D01*
X125659846Y-75992120D01*
G37*
X125659846Y-75992120D02*
X125665572Y-76071980D01*
X125672149Y-76119039D01*
X125681262Y-76139566D01*
X125694598Y-76139829D01*
X125698923Y-76137378D01*
X125756444Y-76119636D01*
X125831268Y-76120672D01*
X125907339Y-76138910D01*
X125954918Y-76162505D01*
X126003702Y-76200198D01*
X126039364Y-76242855D01*
X126063845Y-76297057D01*
X126079087Y-76369384D01*
X126087030Y-76466419D01*
X126089616Y-76594742D01*
X126089662Y-76619358D01*
X126089692Y-76895870D01*
X126028161Y-76917320D01*
X125984459Y-76931912D01*
X125960482Y-76938706D01*
X125959777Y-76938769D01*
X125957415Y-76920345D01*
X125955406Y-76869526D01*
X125953901Y-76792993D01*
X125953053Y-76697430D01*
X125952923Y-76639329D01*
X125952651Y-76524771D01*
X125951252Y-76442667D01*
X125947849Y-76386393D01*
X125941567Y-76349326D01*
X125931529Y-76324844D01*
X125916861Y-76306325D01*
X125907702Y-76297406D01*
X125844789Y-76261466D01*
X125776136Y-76258775D01*
X125713848Y-76289170D01*
X125702329Y-76300144D01*
X125685433Y-76320779D01*
X125673714Y-76345256D01*
X125666233Y-76380647D01*
X125662054Y-76434026D01*
X125660237Y-76512466D01*
X125659846Y-76620617D01*
X125659846Y-76895870D01*
X125598315Y-76917320D01*
X125554613Y-76931912D01*
X125530636Y-76938706D01*
X125529930Y-76938769D01*
X125528126Y-76920069D01*
X125526500Y-76867322D01*
X125525117Y-76785557D01*
X125524042Y-76679805D01*
X125523340Y-76555094D01*
X125523077Y-76416455D01*
X125523077Y-75881806D01*
X125650077Y-75828236D01*
X125659846Y-75992120D01*
G36*
X126553501Y-76126303D02*
X126630060Y-76154733D01*
X126630936Y-76155279D01*
X126678285Y-76190127D01*
X126713241Y-76230852D01*
X126737825Y-76283925D01*
X126754062Y-76355814D01*
X126763975Y-76452992D01*
X126769586Y-76581928D01*
X126770077Y-76600298D01*
X126777141Y-76877287D01*
X126717695Y-76908028D01*
X126674681Y-76928802D01*
X126648710Y-76938646D01*
X126647509Y-76938769D01*
X126643014Y-76920606D01*
X126639444Y-76871612D01*
X126637248Y-76800031D01*
X126636769Y-76742068D01*
X126636758Y-76648170D01*
X126632466Y-76589203D01*
X126617503Y-76561079D01*
X126585482Y-76559706D01*
X126530014Y-76580998D01*
X126446269Y-76620136D01*
X126384689Y-76652643D01*
X126353017Y-76680845D01*
X126343706Y-76711582D01*
X126343692Y-76713104D01*
X126359057Y-76766054D01*
X126404547Y-76794660D01*
X126474166Y-76798803D01*
X126524313Y-76798084D01*
X126550754Y-76812527D01*
X126567243Y-76847218D01*
X126576733Y-76891416D01*
X126563057Y-76916493D01*
X126557907Y-76920082D01*
X126509425Y-76934496D01*
X126441531Y-76936537D01*
X126371612Y-76926983D01*
X126322068Y-76909522D01*
X126253570Y-76851364D01*
X126214634Y-76770408D01*
X126206923Y-76707160D01*
X126212807Y-76650111D01*
X126234101Y-76603542D01*
X126276265Y-76562181D01*
X126344759Y-76520755D01*
X126445044Y-76473993D01*
X126451154Y-76471350D01*
X126541490Y-76429617D01*
X126597235Y-76395391D01*
X126621129Y-76364635D01*
X126615913Y-76333311D01*
X126584328Y-76297383D01*
X126574883Y-76289116D01*
X126511617Y-76257058D01*
X126446064Y-76258407D01*
X126388972Y-76289838D01*
X126351093Y-76348024D01*
X126347574Y-76359446D01*
X126313300Y-76414837D01*
X126269809Y-76441518D01*
X126206923Y-76467960D01*
X126206923Y-76399548D01*
X126226052Y-76300110D01*
X126282831Y-76208902D01*
X126312378Y-76178389D01*
X126379542Y-76139228D01*
X126464956Y-76121500D01*
X126553501Y-76126303D01*
X126553501Y-76126303D01*
G37*
X126553501Y-76126303D02*
X126630060Y-76154733D01*
X126630936Y-76155279D01*
X126678285Y-76190127D01*
X126713241Y-76230852D01*
X126737825Y-76283925D01*
X126754062Y-76355814D01*
X126763975Y-76452992D01*
X126769586Y-76581928D01*
X126770077Y-76600298D01*
X126777141Y-76877287D01*
X126717695Y-76908028D01*
X126674681Y-76928802D01*
X126648710Y-76938646D01*
X126647509Y-76938769D01*
X126643014Y-76920606D01*
X126639444Y-76871612D01*
X126637248Y-76800031D01*
X126636769Y-76742068D01*
X126636758Y-76648170D01*
X126632466Y-76589203D01*
X126617503Y-76561079D01*
X126585482Y-76559706D01*
X126530014Y-76580998D01*
X126446269Y-76620136D01*
X126384689Y-76652643D01*
X126353017Y-76680845D01*
X126343706Y-76711582D01*
X126343692Y-76713104D01*
X126359057Y-76766054D01*
X126404547Y-76794660D01*
X126474166Y-76798803D01*
X126524313Y-76798084D01*
X126550754Y-76812527D01*
X126567243Y-76847218D01*
X126576733Y-76891416D01*
X126563057Y-76916493D01*
X126557907Y-76920082D01*
X126509425Y-76934496D01*
X126441531Y-76936537D01*
X126371612Y-76926983D01*
X126322068Y-76909522D01*
X126253570Y-76851364D01*
X126214634Y-76770408D01*
X126206923Y-76707160D01*
X126212807Y-76650111D01*
X126234101Y-76603542D01*
X126276265Y-76562181D01*
X126344759Y-76520755D01*
X126445044Y-76473993D01*
X126451154Y-76471350D01*
X126541490Y-76429617D01*
X126597235Y-76395391D01*
X126621129Y-76364635D01*
X126615913Y-76333311D01*
X126584328Y-76297383D01*
X126574883Y-76289116D01*
X126511617Y-76257058D01*
X126446064Y-76258407D01*
X126388972Y-76289838D01*
X126351093Y-76348024D01*
X126347574Y-76359446D01*
X126313300Y-76414837D01*
X126269809Y-76441518D01*
X126206923Y-76467960D01*
X126206923Y-76399548D01*
X126226052Y-76300110D01*
X126282831Y-76208902D01*
X126312378Y-76178389D01*
X126379542Y-76139228D01*
X126464956Y-76121500D01*
X126553501Y-76126303D01*
G36*
X127213362Y-76124670D02*
X127302117Y-76157421D01*
X127374022Y-76215350D01*
X127402144Y-76256128D01*
X127432802Y-76330954D01*
X127432165Y-76385058D01*
X127399987Y-76421446D01*
X127388081Y-76427633D01*
X127336675Y-76446925D01*
X127310422Y-76441982D01*
X127301530Y-76409587D01*
X127301077Y-76391692D01*
X127284797Y-76325859D01*
X127242365Y-76279807D01*
X127183388Y-76257564D01*
X127117475Y-76263161D01*
X127063895Y-76292229D01*
X127045798Y-76308810D01*
X127032971Y-76328925D01*
X127024306Y-76359332D01*
X127018696Y-76406788D01*
X127015035Y-76478050D01*
X127012215Y-76579875D01*
X127011484Y-76612115D01*
X127008820Y-76722410D01*
X127005792Y-76800036D01*
X127001250Y-76851396D01*
X126994046Y-76882890D01*
X126983033Y-76900920D01*
X126967060Y-76911888D01*
X126956834Y-76916733D01*
X126913406Y-76933301D01*
X126887842Y-76938769D01*
X126879395Y-76920507D01*
X126874239Y-76865296D01*
X126872346Y-76772499D01*
X126873689Y-76641478D01*
X126874107Y-76621269D01*
X126877058Y-76501733D01*
X126880548Y-76414449D01*
X126885514Y-76352591D01*
X126892893Y-76309336D01*
X126903624Y-76277860D01*
X126918645Y-76251339D01*
X126926502Y-76239975D01*
X126971553Y-76189692D01*
X127021940Y-76150581D01*
X127028108Y-76147167D01*
X127118458Y-76120212D01*
X127213362Y-76124670D01*
X127213362Y-76124670D01*
G37*
X127213362Y-76124670D02*
X127302117Y-76157421D01*
X127374022Y-76215350D01*
X127402144Y-76256128D01*
X127432802Y-76330954D01*
X127432165Y-76385058D01*
X127399987Y-76421446D01*
X127388081Y-76427633D01*
X127336675Y-76446925D01*
X127310422Y-76441982D01*
X127301530Y-76409587D01*
X127301077Y-76391692D01*
X127284797Y-76325859D01*
X127242365Y-76279807D01*
X127183388Y-76257564D01*
X127117475Y-76263161D01*
X127063895Y-76292229D01*
X127045798Y-76308810D01*
X127032971Y-76328925D01*
X127024306Y-76359332D01*
X127018696Y-76406788D01*
X127015035Y-76478050D01*
X127012215Y-76579875D01*
X127011484Y-76612115D01*
X127008820Y-76722410D01*
X127005792Y-76800036D01*
X127001250Y-76851396D01*
X126994046Y-76882890D01*
X126983033Y-76900920D01*
X126967060Y-76911888D01*
X126956834Y-76916733D01*
X126913406Y-76933301D01*
X126887842Y-76938769D01*
X126879395Y-76920507D01*
X126874239Y-76865296D01*
X126872346Y-76772499D01*
X126873689Y-76641478D01*
X126874107Y-76621269D01*
X126877058Y-76501733D01*
X126880548Y-76414449D01*
X126885514Y-76352591D01*
X126892893Y-76309336D01*
X126903624Y-76277860D01*
X126918645Y-76251339D01*
X126926502Y-76239975D01*
X126971553Y-76189692D01*
X127021940Y-76150581D01*
X127028108Y-76147167D01*
X127118458Y-76120212D01*
X127213362Y-76124670D01*
G36*
X128102081Y-76280289D02*
X128101833Y-76426320D01*
X128100872Y-76538655D01*
X128098794Y-76622678D01*
X128095193Y-76683769D01*
X128089665Y-76727309D01*
X128081804Y-76758679D01*
X128071207Y-76783262D01*
X128063182Y-76797294D01*
X127996728Y-76873388D01*
X127912470Y-76921084D01*
X127819249Y-76938199D01*
X127725900Y-76922546D01*
X127670312Y-76894418D01*
X127611957Y-76845760D01*
X127572186Y-76786333D01*
X127548190Y-76708507D01*
X127537161Y-76604652D01*
X127535599Y-76528462D01*
X127535809Y-76522986D01*
X127672308Y-76522986D01*
X127673141Y-76610355D01*
X127676961Y-76668192D01*
X127685746Y-76706029D01*
X127701474Y-76733398D01*
X127720266Y-76754042D01*
X127783375Y-76793890D01*
X127851137Y-76797295D01*
X127915179Y-76764025D01*
X127920164Y-76759517D01*
X127941439Y-76736067D01*
X127954779Y-76708166D01*
X127962001Y-76666641D01*
X127964923Y-76602316D01*
X127965385Y-76531200D01*
X127964383Y-76441858D01*
X127960238Y-76382258D01*
X127951236Y-76343089D01*
X127935667Y-76315040D01*
X127922902Y-76300144D01*
X127863600Y-76262575D01*
X127795301Y-76258057D01*
X127730110Y-76286753D01*
X127717528Y-76297406D01*
X127696111Y-76321063D01*
X127682744Y-76349251D01*
X127675566Y-76391245D01*
X127672719Y-76456319D01*
X127672308Y-76522986D01*
X127535809Y-76522986D01*
X127540322Y-76405765D01*
X127556362Y-76313577D01*
X127586528Y-76244269D01*
X127633629Y-76190211D01*
X127670312Y-76162505D01*
X127736990Y-76132572D01*
X127814272Y-76118678D01*
X127886110Y-76122397D01*
X127926308Y-76137400D01*
X127942082Y-76141670D01*
X127952550Y-76125750D01*
X127959856Y-76083089D01*
X127965385Y-76018106D01*
X127971437Y-75945732D01*
X127979844Y-75902187D01*
X127995141Y-75877287D01*
X128021864Y-75860845D01*
X128038654Y-75853564D01*
X128102154Y-75826963D01*
X128102081Y-76280289D01*
X128102081Y-76280289D01*
G37*
X128102081Y-76280289D02*
X128101833Y-76426320D01*
X128100872Y-76538655D01*
X128098794Y-76622678D01*
X128095193Y-76683769D01*
X128089665Y-76727309D01*
X128081804Y-76758679D01*
X128071207Y-76783262D01*
X128063182Y-76797294D01*
X127996728Y-76873388D01*
X127912470Y-76921084D01*
X127819249Y-76938199D01*
X127725900Y-76922546D01*
X127670312Y-76894418D01*
X127611957Y-76845760D01*
X127572186Y-76786333D01*
X127548190Y-76708507D01*
X127537161Y-76604652D01*
X127535599Y-76528462D01*
X127535809Y-76522986D01*
X127672308Y-76522986D01*
X127673141Y-76610355D01*
X127676961Y-76668192D01*
X127685746Y-76706029D01*
X127701474Y-76733398D01*
X127720266Y-76754042D01*
X127783375Y-76793890D01*
X127851137Y-76797295D01*
X127915179Y-76764025D01*
X127920164Y-76759517D01*
X127941439Y-76736067D01*
X127954779Y-76708166D01*
X127962001Y-76666641D01*
X127964923Y-76602316D01*
X127965385Y-76531200D01*
X127964383Y-76441858D01*
X127960238Y-76382258D01*
X127951236Y-76343089D01*
X127935667Y-76315040D01*
X127922902Y-76300144D01*
X127863600Y-76262575D01*
X127795301Y-76258057D01*
X127730110Y-76286753D01*
X127717528Y-76297406D01*
X127696111Y-76321063D01*
X127682744Y-76349251D01*
X127675566Y-76391245D01*
X127672719Y-76456319D01*
X127672308Y-76522986D01*
X127535809Y-76522986D01*
X127540322Y-76405765D01*
X127556362Y-76313577D01*
X127586528Y-76244269D01*
X127633629Y-76190211D01*
X127670312Y-76162505D01*
X127736990Y-76132572D01*
X127814272Y-76118678D01*
X127886110Y-76122397D01*
X127926308Y-76137400D01*
X127942082Y-76141670D01*
X127952550Y-76125750D01*
X127959856Y-76083089D01*
X127965385Y-76018106D01*
X127971437Y-75945732D01*
X127979844Y-75902187D01*
X127995141Y-75877287D01*
X128021864Y-75860845D01*
X128038654Y-75853564D01*
X128102154Y-75826963D01*
X128102081Y-76280289D01*
G36*
X128895929Y-76136662D02*
X128898911Y-76188068D01*
X128901247Y-76266192D01*
X128902749Y-76364857D01*
X128903231Y-76468343D01*
X128903231Y-76818533D01*
X128841401Y-76880363D01*
X128798793Y-76918462D01*
X128761390Y-76933895D01*
X128710270Y-76932918D01*
X128689978Y-76930433D01*
X128626554Y-76923200D01*
X128574095Y-76919055D01*
X128561308Y-76918672D01*
X128518199Y-76921176D01*
X128456544Y-76927462D01*
X128432638Y-76930433D01*
X128373922Y-76935028D01*
X128334464Y-76925046D01*
X128295338Y-76894228D01*
X128281215Y-76880363D01*
X128219385Y-76818533D01*
X128219385Y-76163503D01*
X128269150Y-76140829D01*
X128312002Y-76124034D01*
X128337073Y-76118154D01*
X128343501Y-76136736D01*
X128349509Y-76188655D01*
X128354697Y-76268172D01*
X128358664Y-76369546D01*
X128360577Y-76455192D01*
X128365923Y-76792231D01*
X128412560Y-76798825D01*
X128454976Y-76794214D01*
X128475760Y-76779287D01*
X128481570Y-76751377D01*
X128486530Y-76691925D01*
X128490246Y-76608466D01*
X128492324Y-76508532D01*
X128492624Y-76457104D01*
X128492923Y-76161054D01*
X128554454Y-76139604D01*
X128598004Y-76125020D01*
X128621694Y-76118219D01*
X128622377Y-76118154D01*
X128624754Y-76136642D01*
X128627366Y-76187906D01*
X128629995Y-76265649D01*
X128632421Y-76363574D01*
X128634115Y-76455192D01*
X128639461Y-76792231D01*
X128756692Y-76792231D01*
X128762072Y-76484746D01*
X128767451Y-76177261D01*
X128824601Y-76147707D01*
X128866797Y-76127413D01*
X128891770Y-76118204D01*
X128892491Y-76118154D01*
X128895929Y-76136662D01*
X128895929Y-76136662D01*
G37*
X128895929Y-76136662D02*
X128898911Y-76188068D01*
X128901247Y-76266192D01*
X128902749Y-76364857D01*
X128903231Y-76468343D01*
X128903231Y-76818533D01*
X128841401Y-76880363D01*
X128798793Y-76918462D01*
X128761390Y-76933895D01*
X128710270Y-76932918D01*
X128689978Y-76930433D01*
X128626554Y-76923200D01*
X128574095Y-76919055D01*
X128561308Y-76918672D01*
X128518199Y-76921176D01*
X128456544Y-76927462D01*
X128432638Y-76930433D01*
X128373922Y-76935028D01*
X128334464Y-76925046D01*
X128295338Y-76894228D01*
X128281215Y-76880363D01*
X128219385Y-76818533D01*
X128219385Y-76163503D01*
X128269150Y-76140829D01*
X128312002Y-76124034D01*
X128337073Y-76118154D01*
X128343501Y-76136736D01*
X128349509Y-76188655D01*
X128354697Y-76268172D01*
X128358664Y-76369546D01*
X128360577Y-76455192D01*
X128365923Y-76792231D01*
X128412560Y-76798825D01*
X128454976Y-76794214D01*
X128475760Y-76779287D01*
X128481570Y-76751377D01*
X128486530Y-76691925D01*
X128490246Y-76608466D01*
X128492324Y-76508532D01*
X128492624Y-76457104D01*
X128492923Y-76161054D01*
X128554454Y-76139604D01*
X128598004Y-76125020D01*
X128621694Y-76118219D01*
X128622377Y-76118154D01*
X128624754Y-76136642D01*
X128627366Y-76187906D01*
X128629995Y-76265649D01*
X128632421Y-76363574D01*
X128634115Y-76455192D01*
X128639461Y-76792231D01*
X128756692Y-76792231D01*
X128762072Y-76484746D01*
X128767451Y-76177261D01*
X128824601Y-76147707D01*
X128866797Y-76127413D01*
X128891770Y-76118204D01*
X128892491Y-76118154D01*
X128895929Y-76136662D01*
G36*
X129387333Y-76133528D02*
X129443590Y-76159117D01*
X129487747Y-76190124D01*
X129520101Y-76224795D01*
X129542438Y-76269520D01*
X129556546Y-76330692D01*
X129564211Y-76414701D01*
X129567220Y-76527940D01*
X129567538Y-76602509D01*
X129567538Y-76893420D01*
X129517773Y-76916095D01*
X129478576Y-76932667D01*
X129459157Y-76938769D01*
X129455442Y-76920610D01*
X129452495Y-76871648D01*
X129450691Y-76800153D01*
X129450308Y-76743385D01*
X129448661Y-76661371D01*
X129444222Y-76596309D01*
X129437740Y-76556467D01*
X129432590Y-76548000D01*
X129397977Y-76556646D01*
X129343640Y-76578823D01*
X129280722Y-76608886D01*
X129220368Y-76641192D01*
X129173721Y-76670098D01*
X129151926Y-76689961D01*
X129151839Y-76690175D01*
X129153714Y-76726935D01*
X129170525Y-76762026D01*
X129200039Y-76790528D01*
X129243116Y-76800061D01*
X129279932Y-76798950D01*
X129332074Y-76798133D01*
X129359444Y-76810349D01*
X129375882Y-76842624D01*
X129377955Y-76848710D01*
X129385081Y-76894739D01*
X129366024Y-76922687D01*
X129316353Y-76936007D01*
X129262697Y-76938470D01*
X129166142Y-76920210D01*
X129116159Y-76894131D01*
X129054429Y-76832868D01*
X129021690Y-76757670D01*
X129018753Y-76678211D01*
X129046424Y-76604167D01*
X129088047Y-76557769D01*
X129129604Y-76531793D01*
X129194922Y-76498907D01*
X129271038Y-76465557D01*
X129283726Y-76460461D01*
X129367333Y-76423565D01*
X129415530Y-76391046D01*
X129431030Y-76358718D01*
X129416550Y-76322394D01*
X129391692Y-76294000D01*
X129332939Y-76259039D01*
X129268293Y-76256417D01*
X129209008Y-76283358D01*
X129166339Y-76337088D01*
X129160739Y-76350950D01*
X129128133Y-76401936D01*
X129080530Y-76439787D01*
X129020461Y-76470850D01*
X129020461Y-76382768D01*
X129023997Y-76328951D01*
X129039156Y-76286534D01*
X129072768Y-76241279D01*
X129105035Y-76206420D01*
X129155209Y-76157062D01*
X129194193Y-76130547D01*
X129236064Y-76119911D01*
X129283460Y-76118154D01*
X129387333Y-76133528D01*
X129387333Y-76133528D01*
G37*
X129387333Y-76133528D02*
X129443590Y-76159117D01*
X129487747Y-76190124D01*
X129520101Y-76224795D01*
X129542438Y-76269520D01*
X129556546Y-76330692D01*
X129564211Y-76414701D01*
X129567220Y-76527940D01*
X129567538Y-76602509D01*
X129567538Y-76893420D01*
X129517773Y-76916095D01*
X129478576Y-76932667D01*
X129459157Y-76938769D01*
X129455442Y-76920610D01*
X129452495Y-76871648D01*
X129450691Y-76800153D01*
X129450308Y-76743385D01*
X129448661Y-76661371D01*
X129444222Y-76596309D01*
X129437740Y-76556467D01*
X129432590Y-76548000D01*
X129397977Y-76556646D01*
X129343640Y-76578823D01*
X129280722Y-76608886D01*
X129220368Y-76641192D01*
X129173721Y-76670098D01*
X129151926Y-76689961D01*
X129151839Y-76690175D01*
X129153714Y-76726935D01*
X129170525Y-76762026D01*
X129200039Y-76790528D01*
X129243116Y-76800061D01*
X129279932Y-76798950D01*
X129332074Y-76798133D01*
X129359444Y-76810349D01*
X129375882Y-76842624D01*
X129377955Y-76848710D01*
X129385081Y-76894739D01*
X129366024Y-76922687D01*
X129316353Y-76936007D01*
X129262697Y-76938470D01*
X129166142Y-76920210D01*
X129116159Y-76894131D01*
X129054429Y-76832868D01*
X129021690Y-76757670D01*
X129018753Y-76678211D01*
X129046424Y-76604167D01*
X129088047Y-76557769D01*
X129129604Y-76531793D01*
X129194922Y-76498907D01*
X129271038Y-76465557D01*
X129283726Y-76460461D01*
X129367333Y-76423565D01*
X129415530Y-76391046D01*
X129431030Y-76358718D01*
X129416550Y-76322394D01*
X129391692Y-76294000D01*
X129332939Y-76259039D01*
X129268293Y-76256417D01*
X129209008Y-76283358D01*
X129166339Y-76337088D01*
X129160739Y-76350950D01*
X129128133Y-76401936D01*
X129080530Y-76439787D01*
X129020461Y-76470850D01*
X129020461Y-76382768D01*
X129023997Y-76328951D01*
X129039156Y-76286534D01*
X129072768Y-76241279D01*
X129105035Y-76206420D01*
X129155209Y-76157062D01*
X129194193Y-76130547D01*
X129236064Y-76119911D01*
X129283460Y-76118154D01*
X129387333Y-76133528D01*
G36*
X130070807Y-76136782D02*
X130094161Y-76146988D01*
X130149902Y-76191134D01*
X130197569Y-76254967D01*
X130227048Y-76323087D01*
X130231846Y-76356670D01*
X130215760Y-76403556D01*
X130180475Y-76428365D01*
X130142644Y-76443387D01*
X130125321Y-76446155D01*
X130116886Y-76426066D01*
X130100230Y-76382351D01*
X130092923Y-76362598D01*
X130051948Y-76294271D01*
X129992622Y-76260191D01*
X129916552Y-76261239D01*
X129910918Y-76262581D01*
X129870305Y-76281836D01*
X129840448Y-76319375D01*
X129820055Y-76379809D01*
X129807836Y-76467751D01*
X129802500Y-76587813D01*
X129802000Y-76651698D01*
X129801752Y-76752403D01*
X129800126Y-76821054D01*
X129795801Y-76864673D01*
X129787454Y-76890282D01*
X129773765Y-76904903D01*
X129753411Y-76915558D01*
X129752234Y-76916095D01*
X129713038Y-76932667D01*
X129693619Y-76938769D01*
X129690635Y-76920319D01*
X129688081Y-76869323D01*
X129686140Y-76792308D01*
X129684997Y-76695805D01*
X129684769Y-76625184D01*
X129685932Y-76488525D01*
X129690479Y-76384851D01*
X129699999Y-76308108D01*
X129716081Y-76252246D01*
X129740313Y-76211212D01*
X129774286Y-76178954D01*
X129807833Y-76156440D01*
X129888499Y-76126476D01*
X129982381Y-76119718D01*
X130070807Y-76136782D01*
X130070807Y-76136782D01*
G37*
X130070807Y-76136782D02*
X130094161Y-76146988D01*
X130149902Y-76191134D01*
X130197569Y-76254967D01*
X130227048Y-76323087D01*
X130231846Y-76356670D01*
X130215760Y-76403556D01*
X130180475Y-76428365D01*
X130142644Y-76443387D01*
X130125321Y-76446155D01*
X130116886Y-76426066D01*
X130100230Y-76382351D01*
X130092923Y-76362598D01*
X130051948Y-76294271D01*
X129992622Y-76260191D01*
X129916552Y-76261239D01*
X129910918Y-76262581D01*
X129870305Y-76281836D01*
X129840448Y-76319375D01*
X129820055Y-76379809D01*
X129807836Y-76467751D01*
X129802500Y-76587813D01*
X129802000Y-76651698D01*
X129801752Y-76752403D01*
X129800126Y-76821054D01*
X129795801Y-76864673D01*
X129787454Y-76890282D01*
X129773765Y-76904903D01*
X129753411Y-76915558D01*
X129752234Y-76916095D01*
X129713038Y-76932667D01*
X129693619Y-76938769D01*
X129690635Y-76920319D01*
X129688081Y-76869323D01*
X129686140Y-76792308D01*
X129684997Y-76695805D01*
X129684769Y-76625184D01*
X129685932Y-76488525D01*
X129690479Y-76384851D01*
X129699999Y-76308108D01*
X129716081Y-76252246D01*
X129740313Y-76211212D01*
X129774286Y-76178954D01*
X129807833Y-76156440D01*
X129888499Y-76126476D01*
X129982381Y-76119718D01*
X130070807Y-76136782D01*
G36*
X130745224Y-76147838D02*
X130822528Y-76198361D01*
X130859814Y-76243590D01*
X130889353Y-76325663D01*
X130891699Y-76390607D01*
X130886385Y-76477445D01*
X130686115Y-76565103D01*
X130588739Y-76609887D01*
X130525113Y-76645913D01*
X130492029Y-76677117D01*
X130486280Y-76707436D01*
X130504658Y-76740805D01*
X130524923Y-76762923D01*
X130583889Y-76798393D01*
X130648024Y-76800879D01*
X130706926Y-76773235D01*
X130750197Y-76718320D01*
X130757936Y-76698928D01*
X130795006Y-76638364D01*
X130837654Y-76612552D01*
X130896154Y-76590471D01*
X130896154Y-76674184D01*
X130890982Y-76731150D01*
X130870723Y-76779189D01*
X130828262Y-76834346D01*
X130821951Y-76841514D01*
X130774720Y-76890585D01*
X130734121Y-76916920D01*
X130683328Y-76929035D01*
X130641220Y-76933003D01*
X130565902Y-76933991D01*
X130512286Y-76921466D01*
X130478838Y-76902869D01*
X130426268Y-76861975D01*
X130389879Y-76817748D01*
X130366850Y-76762126D01*
X130354359Y-76687047D01*
X130349587Y-76584449D01*
X130349206Y-76532376D01*
X130350501Y-76469948D01*
X130468471Y-76469948D01*
X130469839Y-76503438D01*
X130473249Y-76508923D01*
X130495753Y-76501472D01*
X130544182Y-76481753D01*
X130608908Y-76453718D01*
X130622443Y-76447692D01*
X130704244Y-76406096D01*
X130749312Y-76369538D01*
X130759217Y-76335296D01*
X130735526Y-76300648D01*
X130715960Y-76285339D01*
X130645360Y-76254721D01*
X130579280Y-76259780D01*
X130523959Y-76297151D01*
X130485636Y-76363473D01*
X130473349Y-76416116D01*
X130468471Y-76469948D01*
X130350501Y-76469948D01*
X130351730Y-76410720D01*
X130361032Y-76320710D01*
X130379460Y-76255167D01*
X130409360Y-76206912D01*
X130453080Y-76168767D01*
X130472141Y-76156440D01*
X130558726Y-76124336D01*
X130653522Y-76122316D01*
X130745224Y-76147838D01*
X130745224Y-76147838D01*
G37*
X130745224Y-76147838D02*
X130822528Y-76198361D01*
X130859814Y-76243590D01*
X130889353Y-76325663D01*
X130891699Y-76390607D01*
X130886385Y-76477445D01*
X130686115Y-76565103D01*
X130588739Y-76609887D01*
X130525113Y-76645913D01*
X130492029Y-76677117D01*
X130486280Y-76707436D01*
X130504658Y-76740805D01*
X130524923Y-76762923D01*
X130583889Y-76798393D01*
X130648024Y-76800879D01*
X130706926Y-76773235D01*
X130750197Y-76718320D01*
X130757936Y-76698928D01*
X130795006Y-76638364D01*
X130837654Y-76612552D01*
X130896154Y-76590471D01*
X130896154Y-76674184D01*
X130890982Y-76731150D01*
X130870723Y-76779189D01*
X130828262Y-76834346D01*
X130821951Y-76841514D01*
X130774720Y-76890585D01*
X130734121Y-76916920D01*
X130683328Y-76929035D01*
X130641220Y-76933003D01*
X130565902Y-76933991D01*
X130512286Y-76921466D01*
X130478838Y-76902869D01*
X130426268Y-76861975D01*
X130389879Y-76817748D01*
X130366850Y-76762126D01*
X130354359Y-76687047D01*
X130349587Y-76584449D01*
X130349206Y-76532376D01*
X130350501Y-76469948D01*
X130468471Y-76469948D01*
X130469839Y-76503438D01*
X130473249Y-76508923D01*
X130495753Y-76501472D01*
X130544182Y-76481753D01*
X130608908Y-76453718D01*
X130622443Y-76447692D01*
X130704244Y-76406096D01*
X130749312Y-76369538D01*
X130759217Y-76335296D01*
X130735526Y-76300648D01*
X130715960Y-76285339D01*
X130645360Y-76254721D01*
X130579280Y-76259780D01*
X130523959Y-76297151D01*
X130485636Y-76363473D01*
X130473349Y-76416116D01*
X130468471Y-76469948D01*
X130350501Y-76469948D01*
X130351730Y-76410720D01*
X130361032Y-76320710D01*
X130379460Y-76255167D01*
X130409360Y-76206912D01*
X130453080Y-76168767D01*
X130472141Y-76156440D01*
X130558726Y-76124336D01*
X130653522Y-76122316D01*
X130745224Y-76147838D01*
G36*
X126639878Y-69787776D02*
X126745612Y-69788355D01*
X126822132Y-69789922D01*
X126874372Y-69792972D01*
X126907263Y-69797996D01*
X126925737Y-69805489D01*
X126934727Y-69815944D01*
X126939163Y-69829853D01*
X126939594Y-69831654D01*
X126946333Y-69864145D01*
X126958808Y-69928252D01*
X126975719Y-70017151D01*
X126995771Y-70124019D01*
X127017664Y-70242033D01*
X127018429Y-70246178D01*
X127040359Y-70361831D01*
X127060877Y-70464014D01*
X127078659Y-70546598D01*
X127092381Y-70603456D01*
X127100718Y-70628458D01*
X127101116Y-70628901D01*
X127125677Y-70641110D01*
X127176315Y-70661456D01*
X127242095Y-70685545D01*
X127242461Y-70685674D01*
X127325317Y-70716818D01*
X127423000Y-70756491D01*
X127515077Y-70796381D01*
X127519434Y-70798353D01*
X127669407Y-70866420D01*
X128001498Y-70639639D01*
X128103374Y-70570504D01*
X128195657Y-70508697D01*
X128273003Y-70457733D01*
X128330064Y-70421127D01*
X128361495Y-70402394D01*
X128364479Y-70401004D01*
X128387321Y-70407190D01*
X128429982Y-70437035D01*
X128494128Y-70491947D01*
X128581421Y-70573334D01*
X128670535Y-70659922D01*
X128756441Y-70745247D01*
X128833327Y-70823108D01*
X128896564Y-70888697D01*
X128941523Y-70937205D01*
X128963576Y-70963825D01*
X128964396Y-70965195D01*
X128966834Y-70983463D01*
X128957650Y-71013295D01*
X128934574Y-71058721D01*
X128895337Y-71123770D01*
X128837670Y-71212470D01*
X128760795Y-71326657D01*
X128692570Y-71427162D01*
X128631582Y-71517303D01*
X128581356Y-71591849D01*
X128545416Y-71645565D01*
X128527287Y-71673218D01*
X128526146Y-71675095D01*
X128528359Y-71701590D01*
X128545138Y-71753086D01*
X128573142Y-71819851D01*
X128583122Y-71841172D01*
X128626672Y-71936159D01*
X128673134Y-72043937D01*
X128710877Y-72137192D01*
X128738073Y-72206406D01*
X128759675Y-72259006D01*
X128772158Y-72286497D01*
X128773709Y-72288616D01*
X128796668Y-72292124D01*
X128850786Y-72301738D01*
X128928868Y-72316089D01*
X129023719Y-72333807D01*
X129128143Y-72353525D01*
X129234944Y-72373874D01*
X129336926Y-72393486D01*
X129426894Y-72410991D01*
X129497653Y-72425022D01*
X129542006Y-72434209D01*
X129552885Y-72436807D01*
X129564122Y-72443218D01*
X129572605Y-72457697D01*
X129578714Y-72485133D01*
X129582832Y-72530411D01*
X129585341Y-72598420D01*
X129586621Y-72694047D01*
X129587054Y-72822180D01*
X129587077Y-72874701D01*
X129587077Y-73301845D01*
X129484500Y-73322091D01*
X129427431Y-73333070D01*
X129342269Y-73349095D01*
X129239372Y-73368233D01*
X129129096Y-73388551D01*
X129098615Y-73394132D01*
X128996855Y-73413917D01*
X128908205Y-73433373D01*
X128840108Y-73450697D01*
X128800004Y-73464088D01*
X128793323Y-73468079D01*
X128776919Y-73496342D01*
X128753399Y-73551109D01*
X128727316Y-73621588D01*
X128722142Y-73636769D01*
X128687956Y-73730896D01*
X128645523Y-73837101D01*
X128603997Y-73932473D01*
X128603792Y-73932916D01*
X128534640Y-74082525D01*
X128989512Y-74751617D01*
X128697500Y-75044116D01*
X128609180Y-75131170D01*
X128528625Y-75207909D01*
X128460360Y-75270237D01*
X128408908Y-75314056D01*
X128378794Y-75335270D01*
X128374474Y-75336616D01*
X128349111Y-75326016D01*
X128297358Y-75296547D01*
X128224868Y-75251705D01*
X128137294Y-75194984D01*
X128042612Y-75131462D01*
X127946516Y-75066668D01*
X127860837Y-75010287D01*
X127791016Y-74965788D01*
X127742494Y-74936639D01*
X127720782Y-74926308D01*
X127694293Y-74935050D01*
X127644062Y-74958087D01*
X127580451Y-74990631D01*
X127573708Y-74994249D01*
X127488046Y-75037210D01*
X127429306Y-75058279D01*
X127392772Y-75058503D01*
X127373731Y-75038928D01*
X127373620Y-75038654D01*
X127364102Y-75015472D01*
X127341403Y-74960441D01*
X127307282Y-74877822D01*
X127263500Y-74771872D01*
X127211816Y-74646852D01*
X127153992Y-74507020D01*
X127097991Y-74371637D01*
X127036447Y-74222234D01*
X126979939Y-74083832D01*
X126930161Y-73960673D01*
X126888806Y-73857002D01*
X126857568Y-73777059D01*
X126838141Y-73725088D01*
X126832154Y-73705692D01*
X126847168Y-73683443D01*
X126886439Y-73647982D01*
X126938807Y-73608887D01*
X127087941Y-73485245D01*
X127204511Y-73343522D01*
X127287118Y-73186704D01*
X127334366Y-73017775D01*
X127344857Y-72839722D01*
X127337231Y-72757539D01*
X127295682Y-72587031D01*
X127224123Y-72436459D01*
X127126995Y-72307309D01*
X127008734Y-72201064D01*
X126873780Y-72119210D01*
X126726571Y-72063232D01*
X126571544Y-72034615D01*
X126413139Y-72034844D01*
X126255794Y-72065405D01*
X126103946Y-72127782D01*
X125962035Y-72223460D01*
X125902803Y-72277572D01*
X125789203Y-72416520D01*
X125710106Y-72568361D01*
X125664986Y-72728667D01*
X125653316Y-72893012D01*
X125674569Y-73056971D01*
X125728220Y-73216118D01*
X125813740Y-73366025D01*
X125930605Y-73502267D01*
X126061193Y-73608887D01*
X126115588Y-73649642D01*
X126154014Y-73684718D01*
X126167846Y-73705726D01*
X126160603Y-73728635D01*
X126140005Y-73783365D01*
X126107746Y-73865672D01*
X126065521Y-73971315D01*
X126015023Y-74096050D01*
X125957948Y-74235636D01*
X125901854Y-74371670D01*
X125839967Y-74521201D01*
X125782644Y-74659767D01*
X125731644Y-74783107D01*
X125688727Y-74886964D01*
X125655653Y-74967080D01*
X125634181Y-75019195D01*
X125626225Y-75038654D01*
X125607429Y-75058423D01*
X125571074Y-75058365D01*
X125512479Y-75037441D01*
X125426968Y-74994613D01*
X125426292Y-74994249D01*
X125361907Y-74961012D01*
X125309861Y-74936802D01*
X125280512Y-74926404D01*
X125279217Y-74926308D01*
X125257124Y-74936855D01*
X125208348Y-74966184D01*
X125138331Y-75010827D01*
X125052514Y-75067314D01*
X124957388Y-75131462D01*
X124860540Y-75196411D01*
X124773253Y-75252896D01*
X124701181Y-75297421D01*
X124649977Y-75326490D01*
X124625526Y-75336616D01*
X124603010Y-75323307D01*
X124557742Y-75286112D01*
X124494244Y-75229128D01*
X124417039Y-75156449D01*
X124330651Y-75072171D01*
X124302399Y-75044016D01*
X124010287Y-74751416D01*
X124232631Y-74425104D01*
X124300202Y-74324897D01*
X124359507Y-74234963D01*
X124407217Y-74160510D01*
X124440007Y-74106751D01*
X124454548Y-74078894D01*
X124454974Y-74076912D01*
X124447308Y-74050655D01*
X124426689Y-73997837D01*
X124396685Y-73927310D01*
X124375625Y-73880093D01*
X124336248Y-73789694D01*
X124299165Y-73698366D01*
X124270415Y-73621200D01*
X124262605Y-73597692D01*
X124240417Y-73534916D01*
X124218727Y-73486411D01*
X124206813Y-73468079D01*
X124180523Y-73456859D01*
X124123142Y-73440954D01*
X124042118Y-73422167D01*
X123944895Y-73402299D01*
X123901385Y-73394132D01*
X123790896Y-73373829D01*
X123684916Y-73354170D01*
X123593801Y-73337088D01*
X123527908Y-73324518D01*
X123515500Y-73322091D01*
X123412923Y-73301845D01*
X123412923Y-72874701D01*
X123413153Y-72734246D01*
X123414099Y-72627979D01*
X123416141Y-72551013D01*
X123419662Y-72498460D01*
X123425043Y-72465433D01*
X123432666Y-72447045D01*
X123442912Y-72438408D01*
X123447115Y-72436807D01*
X123472470Y-72431127D01*
X123528484Y-72419795D01*
X123607964Y-72404179D01*
X123703712Y-72385647D01*
X123808533Y-72365569D01*
X123915232Y-72345312D01*
X124016613Y-72326246D01*
X124105479Y-72309739D01*
X124174637Y-72297159D01*
X124216889Y-72289875D01*
X124226290Y-72288616D01*
X124234807Y-72271763D01*
X124253660Y-72226870D01*
X124279324Y-72162430D01*
X124289123Y-72137192D01*
X124328648Y-72039686D01*
X124375192Y-71931959D01*
X124416877Y-71841172D01*
X124447550Y-71771753D01*
X124467956Y-71714710D01*
X124474768Y-71679777D01*
X124473682Y-71675095D01*
X124459285Y-71652991D01*
X124426412Y-71603831D01*
X124378590Y-71532848D01*
X124319348Y-71445278D01*
X124252215Y-71346357D01*
X124238941Y-71326830D01*
X124161046Y-71211140D01*
X124103787Y-71123044D01*
X124064881Y-71058486D01*
X124042044Y-71013411D01*
X124032994Y-70983763D01*
X124035448Y-70965485D01*
X124035511Y-70965369D01*
X124054827Y-70941361D01*
X124097551Y-70894947D01*
X124159051Y-70830937D01*
X124234698Y-70754145D01*
X124319861Y-70669382D01*
X124329465Y-70659922D01*
X124436790Y-70555989D01*
X124519615Y-70479675D01*
X124579605Y-70429571D01*
X124618423Y-70404270D01*
X124635520Y-70401004D01*
X124660473Y-70415250D01*
X124712255Y-70448156D01*
X124785520Y-70496208D01*
X124874920Y-70555890D01*
X124975111Y-70623688D01*
X124998501Y-70639639D01*
X125330593Y-70866420D01*
X125480565Y-70798353D01*
X125571770Y-70758685D01*
X125669669Y-70718791D01*
X125753831Y-70686983D01*
X125757538Y-70685674D01*
X125823369Y-70661576D01*
X125874116Y-70641200D01*
X125898842Y-70628936D01*
X125898884Y-70628901D01*
X125906729Y-70606734D01*
X125920066Y-70552217D01*
X125937570Y-70471480D01*
X125957917Y-70370650D01*
X125979782Y-70255856D01*
X125981571Y-70246178D01*
X126003504Y-70127904D01*
X126023640Y-70020542D01*
X126040680Y-69930917D01*
X126053328Y-69865851D01*
X126060284Y-69832168D01*
X126060406Y-69831654D01*
X126064639Y-69817325D01*
X126072871Y-69806507D01*
X126090033Y-69798706D01*
X126121058Y-69793429D01*
X126170878Y-69790182D01*
X126244424Y-69788472D01*
X126346629Y-69787807D01*
X126482425Y-69787693D01*
X126500000Y-69787692D01*
X126639878Y-69787776D01*
X126639878Y-69787776D01*
G37*
X126639878Y-69787776D02*
X126745612Y-69788355D01*
X126822132Y-69789922D01*
X126874372Y-69792972D01*
X126907263Y-69797996D01*
X126925737Y-69805489D01*
X126934727Y-69815944D01*
X126939163Y-69829853D01*
X126939594Y-69831654D01*
X126946333Y-69864145D01*
X126958808Y-69928252D01*
X126975719Y-70017151D01*
X126995771Y-70124019D01*
X127017664Y-70242033D01*
X127018429Y-70246178D01*
X127040359Y-70361831D01*
X127060877Y-70464014D01*
X127078659Y-70546598D01*
X127092381Y-70603456D01*
X127100718Y-70628458D01*
X127101116Y-70628901D01*
X127125677Y-70641110D01*
X127176315Y-70661456D01*
X127242095Y-70685545D01*
X127242461Y-70685674D01*
X127325317Y-70716818D01*
X127423000Y-70756491D01*
X127515077Y-70796381D01*
X127519434Y-70798353D01*
X127669407Y-70866420D01*
X128001498Y-70639639D01*
X128103374Y-70570504D01*
X128195657Y-70508697D01*
X128273003Y-70457733D01*
X128330064Y-70421127D01*
X128361495Y-70402394D01*
X128364479Y-70401004D01*
X128387321Y-70407190D01*
X128429982Y-70437035D01*
X128494128Y-70491947D01*
X128581421Y-70573334D01*
X128670535Y-70659922D01*
X128756441Y-70745247D01*
X128833327Y-70823108D01*
X128896564Y-70888697D01*
X128941523Y-70937205D01*
X128963576Y-70963825D01*
X128964396Y-70965195D01*
X128966834Y-70983463D01*
X128957650Y-71013295D01*
X128934574Y-71058721D01*
X128895337Y-71123770D01*
X128837670Y-71212470D01*
X128760795Y-71326657D01*
X128692570Y-71427162D01*
X128631582Y-71517303D01*
X128581356Y-71591849D01*
X128545416Y-71645565D01*
X128527287Y-71673218D01*
X128526146Y-71675095D01*
X128528359Y-71701590D01*
X128545138Y-71753086D01*
X128573142Y-71819851D01*
X128583122Y-71841172D01*
X128626672Y-71936159D01*
X128673134Y-72043937D01*
X128710877Y-72137192D01*
X128738073Y-72206406D01*
X128759675Y-72259006D01*
X128772158Y-72286497D01*
X128773709Y-72288616D01*
X128796668Y-72292124D01*
X128850786Y-72301738D01*
X128928868Y-72316089D01*
X129023719Y-72333807D01*
X129128143Y-72353525D01*
X129234944Y-72373874D01*
X129336926Y-72393486D01*
X129426894Y-72410991D01*
X129497653Y-72425022D01*
X129542006Y-72434209D01*
X129552885Y-72436807D01*
X129564122Y-72443218D01*
X129572605Y-72457697D01*
X129578714Y-72485133D01*
X129582832Y-72530411D01*
X129585341Y-72598420D01*
X129586621Y-72694047D01*
X129587054Y-72822180D01*
X129587077Y-72874701D01*
X129587077Y-73301845D01*
X129484500Y-73322091D01*
X129427431Y-73333070D01*
X129342269Y-73349095D01*
X129239372Y-73368233D01*
X129129096Y-73388551D01*
X129098615Y-73394132D01*
X128996855Y-73413917D01*
X128908205Y-73433373D01*
X128840108Y-73450697D01*
X128800004Y-73464088D01*
X128793323Y-73468079D01*
X128776919Y-73496342D01*
X128753399Y-73551109D01*
X128727316Y-73621588D01*
X128722142Y-73636769D01*
X128687956Y-73730896D01*
X128645523Y-73837101D01*
X128603997Y-73932473D01*
X128603792Y-73932916D01*
X128534640Y-74082525D01*
X128989512Y-74751617D01*
X128697500Y-75044116D01*
X128609180Y-75131170D01*
X128528625Y-75207909D01*
X128460360Y-75270237D01*
X128408908Y-75314056D01*
X128378794Y-75335270D01*
X128374474Y-75336616D01*
X128349111Y-75326016D01*
X128297358Y-75296547D01*
X128224868Y-75251705D01*
X128137294Y-75194984D01*
X128042612Y-75131462D01*
X127946516Y-75066668D01*
X127860837Y-75010287D01*
X127791016Y-74965788D01*
X127742494Y-74936639D01*
X127720782Y-74926308D01*
X127694293Y-74935050D01*
X127644062Y-74958087D01*
X127580451Y-74990631D01*
X127573708Y-74994249D01*
X127488046Y-75037210D01*
X127429306Y-75058279D01*
X127392772Y-75058503D01*
X127373731Y-75038928D01*
X127373620Y-75038654D01*
X127364102Y-75015472D01*
X127341403Y-74960441D01*
X127307282Y-74877822D01*
X127263500Y-74771872D01*
X127211816Y-74646852D01*
X127153992Y-74507020D01*
X127097991Y-74371637D01*
X127036447Y-74222234D01*
X126979939Y-74083832D01*
X126930161Y-73960673D01*
X126888806Y-73857002D01*
X126857568Y-73777059D01*
X126838141Y-73725088D01*
X126832154Y-73705692D01*
X126847168Y-73683443D01*
X126886439Y-73647982D01*
X126938807Y-73608887D01*
X127087941Y-73485245D01*
X127204511Y-73343522D01*
X127287118Y-73186704D01*
X127334366Y-73017775D01*
X127344857Y-72839722D01*
X127337231Y-72757539D01*
X127295682Y-72587031D01*
X127224123Y-72436459D01*
X127126995Y-72307309D01*
X127008734Y-72201064D01*
X126873780Y-72119210D01*
X126726571Y-72063232D01*
X126571544Y-72034615D01*
X126413139Y-72034844D01*
X126255794Y-72065405D01*
X126103946Y-72127782D01*
X125962035Y-72223460D01*
X125902803Y-72277572D01*
X125789203Y-72416520D01*
X125710106Y-72568361D01*
X125664986Y-72728667D01*
X125653316Y-72893012D01*
X125674569Y-73056971D01*
X125728220Y-73216118D01*
X125813740Y-73366025D01*
X125930605Y-73502267D01*
X126061193Y-73608887D01*
X126115588Y-73649642D01*
X126154014Y-73684718D01*
X126167846Y-73705726D01*
X126160603Y-73728635D01*
X126140005Y-73783365D01*
X126107746Y-73865672D01*
X126065521Y-73971315D01*
X126015023Y-74096050D01*
X125957948Y-74235636D01*
X125901854Y-74371670D01*
X125839967Y-74521201D01*
X125782644Y-74659767D01*
X125731644Y-74783107D01*
X125688727Y-74886964D01*
X125655653Y-74967080D01*
X125634181Y-75019195D01*
X125626225Y-75038654D01*
X125607429Y-75058423D01*
X125571074Y-75058365D01*
X125512479Y-75037441D01*
X125426968Y-74994613D01*
X125426292Y-74994249D01*
X125361907Y-74961012D01*
X125309861Y-74936802D01*
X125280512Y-74926404D01*
X125279217Y-74926308D01*
X125257124Y-74936855D01*
X125208348Y-74966184D01*
X125138331Y-75010827D01*
X125052514Y-75067314D01*
X124957388Y-75131462D01*
X124860540Y-75196411D01*
X124773253Y-75252896D01*
X124701181Y-75297421D01*
X124649977Y-75326490D01*
X124625526Y-75336616D01*
X124603010Y-75323307D01*
X124557742Y-75286112D01*
X124494244Y-75229128D01*
X124417039Y-75156449D01*
X124330651Y-75072171D01*
X124302399Y-75044016D01*
X124010287Y-74751416D01*
X124232631Y-74425104D01*
X124300202Y-74324897D01*
X124359507Y-74234963D01*
X124407217Y-74160510D01*
X124440007Y-74106751D01*
X124454548Y-74078894D01*
X124454974Y-74076912D01*
X124447308Y-74050655D01*
X124426689Y-73997837D01*
X124396685Y-73927310D01*
X124375625Y-73880093D01*
X124336248Y-73789694D01*
X124299165Y-73698366D01*
X124270415Y-73621200D01*
X124262605Y-73597692D01*
X124240417Y-73534916D01*
X124218727Y-73486411D01*
X124206813Y-73468079D01*
X124180523Y-73456859D01*
X124123142Y-73440954D01*
X124042118Y-73422167D01*
X123944895Y-73402299D01*
X123901385Y-73394132D01*
X123790896Y-73373829D01*
X123684916Y-73354170D01*
X123593801Y-73337088D01*
X123527908Y-73324518D01*
X123515500Y-73322091D01*
X123412923Y-73301845D01*
X123412923Y-72874701D01*
X123413153Y-72734246D01*
X123414099Y-72627979D01*
X123416141Y-72551013D01*
X123419662Y-72498460D01*
X123425043Y-72465433D01*
X123432666Y-72447045D01*
X123442912Y-72438408D01*
X123447115Y-72436807D01*
X123472470Y-72431127D01*
X123528484Y-72419795D01*
X123607964Y-72404179D01*
X123703712Y-72385647D01*
X123808533Y-72365569D01*
X123915232Y-72345312D01*
X124016613Y-72326246D01*
X124105479Y-72309739D01*
X124174637Y-72297159D01*
X124216889Y-72289875D01*
X124226290Y-72288616D01*
X124234807Y-72271763D01*
X124253660Y-72226870D01*
X124279324Y-72162430D01*
X124289123Y-72137192D01*
X124328648Y-72039686D01*
X124375192Y-71931959D01*
X124416877Y-71841172D01*
X124447550Y-71771753D01*
X124467956Y-71714710D01*
X124474768Y-71679777D01*
X124473682Y-71675095D01*
X124459285Y-71652991D01*
X124426412Y-71603831D01*
X124378590Y-71532848D01*
X124319348Y-71445278D01*
X124252215Y-71346357D01*
X124238941Y-71326830D01*
X124161046Y-71211140D01*
X124103787Y-71123044D01*
X124064881Y-71058486D01*
X124042044Y-71013411D01*
X124032994Y-70983763D01*
X124035448Y-70965485D01*
X124035511Y-70965369D01*
X124054827Y-70941361D01*
X124097551Y-70894947D01*
X124159051Y-70830937D01*
X124234698Y-70754145D01*
X124319861Y-70669382D01*
X124329465Y-70659922D01*
X124436790Y-70555989D01*
X124519615Y-70479675D01*
X124579605Y-70429571D01*
X124618423Y-70404270D01*
X124635520Y-70401004D01*
X124660473Y-70415250D01*
X124712255Y-70448156D01*
X124785520Y-70496208D01*
X124874920Y-70555890D01*
X124975111Y-70623688D01*
X124998501Y-70639639D01*
X125330593Y-70866420D01*
X125480565Y-70798353D01*
X125571770Y-70758685D01*
X125669669Y-70718791D01*
X125753831Y-70686983D01*
X125757538Y-70685674D01*
X125823369Y-70661576D01*
X125874116Y-70641200D01*
X125898842Y-70628936D01*
X125898884Y-70628901D01*
X125906729Y-70606734D01*
X125920066Y-70552217D01*
X125937570Y-70471480D01*
X125957917Y-70370650D01*
X125979782Y-70255856D01*
X125981571Y-70246178D01*
X126003504Y-70127904D01*
X126023640Y-70020542D01*
X126040680Y-69930917D01*
X126053328Y-69865851D01*
X126060284Y-69832168D01*
X126060406Y-69831654D01*
X126064639Y-69817325D01*
X126072871Y-69806507D01*
X126090033Y-69798706D01*
X126121058Y-69793429D01*
X126170878Y-69790182D01*
X126244424Y-69788472D01*
X126346629Y-69787807D01*
X126482425Y-69787693D01*
X126500000Y-69787692D01*
X126639878Y-69787776D01*
D13*
X107652381Y-74685714D02*
X107652381Y-74876191D01*
X107700000Y-74971429D01*
X107747619Y-75019048D01*
X107890476Y-75114286D01*
X108080952Y-75161905D01*
X108461905Y-75161905D01*
X108557143Y-75114286D01*
X108604762Y-75066667D01*
X108652381Y-74971429D01*
X108652381Y-74780952D01*
X108604762Y-74685714D01*
X108557143Y-74638095D01*
X108461905Y-74590476D01*
X108223810Y-74590476D01*
X108128571Y-74638095D01*
X108080952Y-74685714D01*
X108033333Y-74780952D01*
X108033333Y-74971429D01*
X108080952Y-75066667D01*
X108128571Y-75114286D01*
X108223810Y-75161905D01*
X107652381Y-73971429D02*
X107652381Y-73876190D01*
X107700000Y-73780952D01*
X107747619Y-73733333D01*
X107842857Y-73685714D01*
X108033333Y-73638095D01*
X108271429Y-73638095D01*
X108461905Y-73685714D01*
X108557143Y-73733333D01*
X108604762Y-73780952D01*
X108652381Y-73876190D01*
X108652381Y-73971429D01*
X108604762Y-74066667D01*
X108557143Y-74114286D01*
X108461905Y-74161905D01*
X108271429Y-74209524D01*
X108033333Y-74209524D01*
X107842857Y-74161905D01*
X107747619Y-74114286D01*
X107700000Y-74066667D01*
X107652381Y-73971429D01*
X107747619Y-91485714D02*
X107700000Y-91438095D01*
X107652381Y-91342857D01*
X107652381Y-91104761D01*
X107700000Y-91009523D01*
X107747619Y-90961904D01*
X107842857Y-90914285D01*
X107938095Y-90914285D01*
X108080952Y-90961904D01*
X108652381Y-91533333D01*
X108652381Y-90914285D01*
X102052381Y-90714285D02*
X102052381Y-91285714D01*
X102052381Y-91000000D02*
X101052381Y-91000000D01*
X101195238Y-91095238D01*
X101290476Y-91190476D01*
X101338095Y-91285714D01*
X101052381Y-74638095D02*
X101052381Y-75114286D01*
X101528571Y-75161905D01*
X101480952Y-75114286D01*
X101433333Y-75019048D01*
X101433333Y-74780952D01*
X101480952Y-74685714D01*
X101528571Y-74638095D01*
X101623810Y-74590476D01*
X101861905Y-74590476D01*
X101957143Y-74638095D01*
X102004762Y-74685714D01*
X102052381Y-74780952D01*
X102052381Y-75019048D01*
X102004762Y-75114286D01*
X101957143Y-75161905D01*
X102052381Y-74114286D02*
X102052381Y-73923810D01*
X102004762Y-73828571D01*
X101957143Y-73780952D01*
X101814286Y-73685714D01*
X101623810Y-73638095D01*
X101242857Y-73638095D01*
X101147619Y-73685714D01*
X101100000Y-73733333D01*
X101052381Y-73828571D01*
X101052381Y-74019048D01*
X101100000Y-74114286D01*
X101147619Y-74161905D01*
X101242857Y-74209524D01*
X101480952Y-74209524D01*
X101576190Y-74161905D01*
X101623810Y-74114286D01*
X101671429Y-74019048D01*
X101671429Y-73828571D01*
X101623810Y-73733333D01*
X101576190Y-73685714D01*
X101480952Y-73638095D01*
M02*
