G04 #@! TF.FileFunction,Soldermask,Top*
%FSLAX46Y46*%
G04 Gerber Fmt 4.6, Leading zero omitted, Abs format (unit mm)*
G04 Created by KiCad (PCBNEW 4.0.6) date Mon Apr 10 16:51:52 2017*
%MOMM*%
%LPD*%
G01*
G04 APERTURE LIST*
%ADD10C,0.100000*%
%ADD11R,1.250000X1.000000*%
%ADD12R,1.000000X0.240000*%
%ADD13R,1.000000X0.500000*%
%ADD14R,1.020000X1.140000*%
%ADD15R,0.630000X0.800000*%
%ADD16R,0.300000X1.140000*%
%ADD17R,0.600000X0.800000*%
%ADD18C,0.600000*%
%ADD19R,0.900000X0.800000*%
%ADD20R,1.700000X0.900000*%
%ADD21R,0.600000X0.400000*%
%ADD22R,0.400000X0.600000*%
G04 APERTURE END LIST*
D10*
D11*
X84000000Y-55000000D03*
X84000000Y-57000000D03*
X82000000Y-55000000D03*
X82000000Y-57000000D03*
X79000000Y-43000000D03*
X79000000Y-41000000D03*
D12*
X86000000Y-51800000D03*
X83000000Y-51800000D03*
X86000000Y-51400000D03*
X83000000Y-51400000D03*
X86000000Y-51000000D03*
X83000000Y-51000000D03*
X86000000Y-50600000D03*
X83000000Y-50600000D03*
X86000000Y-50200000D03*
X83000000Y-50200000D03*
X86000000Y-49800000D03*
X83000000Y-49800000D03*
X86000000Y-49400000D03*
X83000000Y-49400000D03*
X86000000Y-49000000D03*
X83000000Y-49000000D03*
X86000000Y-48600000D03*
X83000000Y-48600000D03*
X86000000Y-48200000D03*
X83000000Y-48200000D03*
X86000000Y-47800000D03*
X83000000Y-47800000D03*
X86000000Y-47400000D03*
X83000000Y-47400000D03*
X86000000Y-47000000D03*
X83000000Y-47000000D03*
X86000000Y-46600000D03*
X83000000Y-46600000D03*
X86000000Y-46200000D03*
X83000000Y-46200000D03*
D13*
X83000000Y-52550000D03*
X86000000Y-52550000D03*
X83000000Y-45450000D03*
X86000000Y-45450000D03*
D14*
X65730000Y-57500000D03*
D15*
X66555000Y-57500000D03*
D16*
X64620000Y-57500000D03*
D17*
X64170000Y-57500000D03*
D14*
X74730000Y-57500000D03*
D15*
X75555000Y-57500000D03*
D16*
X73620000Y-57500000D03*
D17*
X73170000Y-57500000D03*
D14*
X74730000Y-40500000D03*
D15*
X75555000Y-40500000D03*
D16*
X73620000Y-40500000D03*
D17*
X73170000Y-40500000D03*
D14*
X66230000Y-40500000D03*
D15*
X67055000Y-40500000D03*
D16*
X65120000Y-40500000D03*
D17*
X64670000Y-40500000D03*
D18*
X76000000Y-81900000D03*
X64000000Y-81900000D03*
D19*
X66400000Y-63350000D03*
X66400000Y-65250000D03*
X68400000Y-64300000D03*
D20*
X57500000Y-50050000D03*
X57500000Y-52950000D03*
D21*
X64800000Y-63850000D03*
X64800000Y-64750000D03*
D20*
X60500000Y-50050000D03*
X60500000Y-52950000D03*
X60500000Y-47450000D03*
X60500000Y-44550000D03*
X57500000Y-47450000D03*
X57500000Y-44550000D03*
D11*
X86000000Y-55000000D03*
X86000000Y-57000000D03*
D22*
X56550000Y-80500000D03*
X57450000Y-80500000D03*
X56550000Y-77500000D03*
X57450000Y-77500000D03*
X56550000Y-79000000D03*
X57450000Y-79000000D03*
M02*
