M48
;DRILL file {KiCad 4.0.6} date Mon Apr 10 16:51:57 2017
;FORMAT={-:-/ absolute / inch / decimal}
FMAT,2
INCH,TZ
T1C0.012
T2C0.020
%
G90
G05
M72
T1
X2.3016Y-3.0591
X2.3047Y-3.1098
X2.3854Y-3.4217
X2.4008Y-2.7539
X2.5051Y-3.3272
X2.524Y-3.302
X2.528Y-2.7555
X2.5323Y-2.9972
X2.5331Y-2.9654
X2.5504Y-3.3575
X2.5717Y-2.9445
X2.6146Y-2.8248
X2.6248Y-3.3937
X2.628Y-3.3374
X2.663Y-3.3378
X2.7165Y-2.9035
X2.763Y-2.9551
X2.7665Y-2.6831
X2.8248Y-3.3165
X2.8862Y-3.3102
X3.0047Y-3.3157
X3.0752Y-2.4945
X3.098Y-2.461
X3.1331Y-2.437
X3.148Y-3.3126
X3.1484Y-1.7886
X3.1693Y-1.8307
X3.1787Y-1.7709
X3.1803Y-1.9378
X3.2059Y-2.0831
X3.2083Y-2.0524
X3.2118Y-1.9028
X3.237Y-3.3094
X3.2886Y-3.2535
X3.31Y-2.1171
X3.3268Y-1.753
X3.3461Y-3.2012
X3.3469Y-3.3043
X3.376Y-2.7362
X3.376Y-2.8248
X3.376Y-3.0118
X3.378Y-2.1171
X3.4272Y-3.2205
X3.4449Y-2.0394
X3.4449Y-3.0807
X3.5126Y-1.9709
X3.513Y-2.0516
X3.5138Y-2.1457
X3.5138Y-2.2244
X3.5138Y-2.3031
X3.5138Y-2.3819
X3.5138Y-2.4606
X3.5138Y-2.5394
X3.5138Y-2.6181
X3.5138Y-2.6969
X3.5138Y-2.7461
X3.5154Y-1.7992
X3.5169Y-3.211
X3.524Y-1.8283
X3.5627Y-1.856
X3.5837Y-1.877
X3.6161Y-1.8984
X3.626Y-1.9283
X3.6492Y-1.974
X3.6567Y-1.9437
X3.6614Y-2.0079
X3.6614Y-2.0669
X3.6614Y-2.1457
X3.6614Y-2.2244
X3.6614Y-2.3031
X3.6614Y-2.3819
X3.6614Y-2.4606
X3.6614Y-2.5394
X3.6614Y-2.6181
X3.6614Y-2.6969
X3.6614Y-2.7756
X3.6614Y-2.8543
X3.6614Y-2.9331
X3.6614Y-3.0118
X3.6614Y-3.0906
T2
X2.587Y-3.3799
X2.6425Y-2.9417
X2.6551Y-2.9004
X2.6732Y-3.3776
X2.8165Y-2.8657
X2.8622Y-2.8409
X2.9252Y-2.8016
X2.9669Y-2.9748
X3.0343Y-2.8988
X3.0791Y-3.3106
X3.0823Y-3.0587
X3.1028Y-3.2181
X3.124Y-2.9016
X3.124Y-3.0051
X3.1835Y-2.7504
X3.1969Y-3.0398
X3.2Y-2.9035
X3.2012Y-2.4661
X3.2642Y-2.2996
X3.2665Y-2.9016
X3.2717Y-2.126
X3.3087Y-3.0437
X3.4398Y-3.3906
X3.4783Y-3.4638
X3.4945Y-3.337
X3.5484Y-3.2791
X3.5549Y-3.3872
X3.6205Y-3.3228
X3.6366Y-3.2118
T0
M30
