G04 #@! TF.FileFunction,Copper,L4,Bot,Signal*
%FSLAX46Y46*%
G04 Gerber Fmt 4.6, Leading zero omitted, Abs format (unit mm)*
G04 Created by KiCad (PCBNEW 4.0.6) date Mon Apr 10 16:51:52 2017*
%MOMM*%
%LPD*%
G01*
G04 APERTURE LIST*
%ADD10C,0.100000*%
%ADD11R,0.250000X1.500000*%
%ADD12R,1.400000X2.100000*%
%ADD13C,0.800000*%
%ADD14C,0.600000*%
%ADD15C,0.254000*%
%ADD16C,0.381000*%
%ADD17C,0.762000*%
%ADD18C,0.150000*%
%ADD19C,0.203200*%
%ADD20C,0.180000*%
%ADD21C,0.508000*%
%ADD22C,0.200000*%
G04 APERTURE END LIST*
D10*
D11*
X65250000Y-82750000D03*
X65250000Y-77250000D03*
X65750000Y-82750000D03*
X65750000Y-77250000D03*
X66250000Y-82750000D03*
X66250000Y-77250000D03*
X66750000Y-82750000D03*
X66750000Y-77250000D03*
X67250000Y-82750000D03*
X67250000Y-77250000D03*
X67750000Y-82750000D03*
X67750000Y-77250000D03*
X68250000Y-82750000D03*
X68250000Y-77250000D03*
X68750000Y-82750000D03*
X68750000Y-77250000D03*
X69250000Y-82750000D03*
X69250000Y-77250000D03*
X69750000Y-82750000D03*
X69750000Y-77250000D03*
X70250000Y-82750000D03*
X70250000Y-77250000D03*
X70750000Y-82750000D03*
X70750000Y-77250000D03*
X71250000Y-82750000D03*
X71250000Y-77250000D03*
X71750000Y-82750000D03*
X71750000Y-77250000D03*
X72250000Y-82750000D03*
X72250000Y-77250000D03*
X72750000Y-82750000D03*
X72750000Y-77250000D03*
X73250000Y-82750000D03*
X73250000Y-77250000D03*
X73750000Y-82750000D03*
X73750000Y-77250000D03*
X74250000Y-82750000D03*
X74250000Y-77250000D03*
X74750000Y-82750000D03*
X74750000Y-77250000D03*
D12*
X77000000Y-80000000D03*
X63000000Y-80000000D03*
D13*
X67440000Y-73670000D03*
X71540000Y-72790000D03*
D14*
X81430000Y-52910000D03*
D13*
X65710000Y-85850000D03*
D14*
X81490000Y-52130000D03*
X58540000Y-78990000D03*
X66750000Y-84770000D03*
X58460000Y-77700000D03*
X67640000Y-84780000D03*
X79580000Y-61900000D03*
X92690000Y-50140000D03*
X92880000Y-49370000D03*
X92100000Y-48980000D03*
X78690000Y-62510000D03*
X91850000Y-48220000D03*
X91026932Y-47676932D03*
X78110000Y-63360000D03*
X90493068Y-47143068D03*
X66670000Y-86200000D03*
X60590000Y-86910000D03*
X71750000Y-84240000D03*
X89510000Y-46440000D03*
X79970000Y-45430000D03*
X89290000Y-45700000D03*
X80740000Y-44980000D03*
X76320000Y-84220000D03*
D13*
X78210000Y-84090000D03*
X75360000Y-75560000D03*
D14*
X64780000Y-85280000D03*
X63630000Y-84510000D03*
X64110000Y-83870000D03*
X65320000Y-74790000D03*
X66410000Y-71750000D03*
X70270000Y-68150000D03*
X64340000Y-75320000D03*
X64320000Y-76130000D03*
X70180000Y-75060000D03*
X69000000Y-73750000D03*
X87500000Y-78250000D03*
X85750000Y-76500000D03*
X85750000Y-71750000D03*
X85750000Y-69500000D03*
X89250000Y-54500000D03*
X89250000Y-56500000D03*
X89250000Y-58500000D03*
X89250000Y-60500000D03*
X89250000Y-62500000D03*
X89250000Y-64500000D03*
X89250000Y-66500000D03*
X89250000Y-68500000D03*
X89250000Y-69750000D03*
X89230000Y-52110000D03*
X89220000Y-50060000D03*
X87500000Y-51800000D03*
X85800000Y-53775000D03*
X84075000Y-53775000D03*
X84500000Y-44525000D03*
X80780000Y-49220000D03*
X81580000Y-48330000D03*
X80500000Y-46500000D03*
X93000000Y-56500000D03*
X93000000Y-54500000D03*
X93000000Y-52500000D03*
X93000000Y-51000000D03*
X93000000Y-68500000D03*
X93000000Y-66500000D03*
X93000000Y-64500000D03*
X93000000Y-62500000D03*
X93000000Y-60500000D03*
X93000000Y-58500000D03*
X93000000Y-78500000D03*
X93000000Y-76500000D03*
X93000000Y-74500000D03*
X93000000Y-72500000D03*
X93000000Y-70500000D03*
D13*
X78810000Y-81740000D03*
D14*
X87050000Y-81800000D03*
X85010000Y-83930000D03*
X89330000Y-81560000D03*
X84990000Y-81310000D03*
X83530000Y-82640000D03*
X82220000Y-84060000D03*
X79960000Y-84140000D03*
D13*
X87370000Y-86120000D03*
X88760000Y-84760000D03*
X90130000Y-83290000D03*
X90295000Y-86035000D03*
X92370000Y-81580000D03*
X91960000Y-84400000D03*
X88350000Y-87980000D03*
X67900000Y-85790000D03*
X81310000Y-62640000D03*
X80860000Y-69860000D03*
X74300000Y-71160000D03*
X72700000Y-72160000D03*
X78290000Y-77690000D03*
X79350000Y-76330000D03*
X81280000Y-73750000D03*
X82970000Y-73700000D03*
X84040000Y-77310000D03*
X81200000Y-77210000D03*
X79350000Y-73700000D03*
X77070000Y-73630000D03*
D14*
X73310000Y-84080000D03*
X64210000Y-69990000D03*
X60980000Y-69950000D03*
D13*
X82910000Y-58410000D03*
X83100000Y-54000000D03*
X67120000Y-74720000D03*
D15*
X67750000Y-75270000D02*
X67870000Y-75150000D01*
X67870000Y-75150000D02*
X67870000Y-74100000D01*
X67440000Y-73670000D02*
X67870000Y-74100000D01*
X67750000Y-77250000D02*
X67750000Y-75270000D01*
D16*
X71250000Y-75620000D02*
X71250000Y-75184498D01*
X71165502Y-73164498D02*
X71540000Y-72790000D01*
X71165502Y-75100000D02*
X71165502Y-73164498D01*
X71250000Y-75184498D02*
X71165502Y-75100000D01*
X71250000Y-73080000D02*
X71540000Y-72790000D01*
D15*
X71250000Y-77250000D02*
X71250000Y-75620000D01*
X71250000Y-75620000D02*
X71250000Y-75570000D01*
D17*
X71540000Y-72790000D02*
X71530000Y-72790000D01*
D18*
X80120000Y-53480000D02*
X80120000Y-60000000D01*
X81020000Y-51590000D02*
X80120000Y-52490000D01*
X80120000Y-52490000D02*
X80120000Y-53480000D01*
X81770000Y-51590000D02*
X81330000Y-51590000D01*
X82040000Y-51860000D02*
X81770000Y-51590000D01*
X82040000Y-52410000D02*
X82040000Y-51860000D01*
X81560000Y-52890000D02*
X82040000Y-52410000D01*
X81450000Y-52890000D02*
X81560000Y-52890000D01*
X81430000Y-52910000D02*
X81450000Y-52890000D01*
X81330000Y-51590000D02*
X81020000Y-51590000D01*
X66250000Y-75980000D02*
X66250000Y-77250000D01*
X65970000Y-75700000D02*
X66250000Y-75980000D01*
X65970000Y-73270000D02*
X65970000Y-75700000D01*
X76232867Y-63007133D02*
X65970000Y-73270000D01*
X76232867Y-62527133D02*
X76232867Y-63007133D01*
X78200000Y-60560000D02*
X76232867Y-62527133D01*
X79560000Y-60560000D02*
X78200000Y-60560000D01*
X80120000Y-60000000D02*
X79560000Y-60560000D01*
D15*
X66750000Y-82750000D02*
X66750000Y-83790000D01*
D16*
X65710000Y-84880000D02*
X66120000Y-84470000D01*
X65710000Y-85850000D02*
X65710000Y-84880000D01*
D15*
X66120000Y-84420000D02*
X66120000Y-84470000D01*
X66750000Y-83790000D02*
X66120000Y-84420000D01*
D18*
X80510000Y-53870000D02*
X80510000Y-52880000D01*
X73450000Y-66410000D02*
X76620000Y-63240000D01*
X76620000Y-63240000D02*
X76620000Y-62730000D01*
X76620000Y-62730000D02*
X78430000Y-60920000D01*
X78430000Y-60920000D02*
X79760000Y-60920000D01*
X79760000Y-60920000D02*
X80510000Y-60170000D01*
X80510000Y-60170000D02*
X80510000Y-53870000D01*
X66370000Y-74010000D02*
X66370000Y-73350000D01*
X66750000Y-75900000D02*
X66370000Y-75520000D01*
X66370000Y-75520000D02*
X66370000Y-74010000D01*
X66750000Y-77250000D02*
X66750000Y-75900000D01*
X66370000Y-73350000D02*
X73310000Y-66410000D01*
X73310000Y-66410000D02*
X73450000Y-66410000D01*
X81260000Y-52130000D02*
X81490000Y-52130000D01*
X80510000Y-52880000D02*
X81260000Y-52130000D01*
X58540000Y-78990000D02*
X58550000Y-78980000D01*
X58550000Y-78980000D02*
X60330000Y-78980000D01*
X60330000Y-78980000D02*
X60670000Y-78640000D01*
X60670000Y-78640000D02*
X64900000Y-78640000D01*
X64900000Y-78640000D02*
X67250000Y-80990000D01*
X67250000Y-80990000D02*
X67250000Y-82750000D01*
X67250000Y-84270000D02*
X67250000Y-82750000D01*
X66750000Y-84770000D02*
X67250000Y-84270000D01*
X63280000Y-78320000D02*
X59080000Y-78320000D01*
X59080000Y-78320000D02*
X58460000Y-77700000D01*
X67750000Y-82750000D02*
X67750000Y-80720000D01*
X67750000Y-80720000D02*
X65350000Y-78320000D01*
X65350000Y-78320000D02*
X63280000Y-78320000D01*
X67750000Y-84670000D02*
X67750000Y-82750000D01*
X67640000Y-84780000D02*
X67750000Y-84670000D01*
X68250000Y-72150000D02*
X68250000Y-77250000D01*
X77080000Y-63320000D02*
X68250000Y-72150000D01*
X77080000Y-62890000D02*
X77080000Y-63320000D01*
X78130000Y-61840000D02*
X77080000Y-62890000D01*
X79520000Y-61840000D02*
X78130000Y-61840000D01*
X79580000Y-61900000D02*
X79520000Y-61840000D01*
D19*
X92459100Y-49909100D02*
X92690000Y-50140000D01*
X91689100Y-50074184D02*
X91854184Y-49909100D01*
X91689100Y-83534184D02*
X91689100Y-50074184D01*
X87204184Y-88019100D02*
X91689100Y-83534184D01*
X69825816Y-88019100D02*
X87204184Y-88019100D01*
X68820900Y-87014184D02*
X69825816Y-88019100D01*
X68750000Y-82750000D02*
X68750000Y-83875000D01*
X68750000Y-83875000D02*
X68820900Y-83945900D01*
X68820900Y-83945900D02*
X68820900Y-87014184D01*
X91854184Y-49909100D02*
X92459100Y-49909100D01*
X69250000Y-82750000D02*
X69250000Y-83875000D01*
X87148262Y-87340518D02*
X87148261Y-87318288D01*
X69179100Y-86865816D02*
X69974184Y-87660900D01*
X69250000Y-83875000D02*
X69179100Y-83945900D01*
X87190577Y-87416983D02*
X87162855Y-87382221D01*
X87703970Y-86998847D02*
X87724000Y-86989200D01*
X69179100Y-83945900D02*
X69179100Y-86865816D01*
X87497992Y-86951832D02*
X87519665Y-86946886D01*
X69974184Y-87660900D02*
X87055816Y-87660900D01*
X87200222Y-87502591D02*
X87205169Y-87480918D01*
X87055816Y-87660900D02*
X87176716Y-87540000D01*
X87477962Y-86961479D02*
X87497992Y-86951832D01*
X87176716Y-87540000D02*
X87190576Y-87522621D01*
X87190576Y-87522621D02*
X87200222Y-87502591D01*
X87618362Y-86989201D02*
X87638392Y-86998847D01*
X87563570Y-86951832D02*
X87583600Y-86961478D01*
X88025244Y-86691473D02*
X91330900Y-83385816D01*
X87153209Y-87362191D02*
X87148262Y-87340518D01*
X87153209Y-87296613D02*
X87162854Y-87276585D01*
X87205169Y-87480918D02*
X87205170Y-87458686D01*
X87660065Y-87003794D02*
X87682297Y-87003793D01*
X87583600Y-86961478D02*
X87618362Y-86989201D01*
X87519665Y-86946886D02*
X87541897Y-86946885D01*
X87205170Y-87458686D02*
X87200222Y-87437013D01*
X87200222Y-87437013D02*
X87190577Y-87416983D01*
X87162855Y-87382221D02*
X87153209Y-87362191D01*
X87176715Y-87259204D02*
X87460582Y-86975338D01*
X87148261Y-87318288D02*
X87153209Y-87296613D01*
X92713789Y-49536211D02*
X92880000Y-49370000D01*
X87162854Y-87276585D02*
X87176715Y-87259204D01*
X87460582Y-86975338D02*
X87477962Y-86961479D01*
X91330900Y-83385816D02*
X91330900Y-49925816D01*
X87541897Y-86946885D02*
X87563570Y-86951832D01*
X87638392Y-86998847D02*
X87660065Y-87003794D01*
X87682297Y-87003793D02*
X87703970Y-86998847D01*
X87724000Y-86989200D02*
X87741381Y-86975339D01*
X87741381Y-86975339D02*
X88025244Y-86691473D01*
X91330900Y-49925816D02*
X91705816Y-49550900D01*
X91705816Y-49550900D02*
X92713789Y-49550900D01*
X92713789Y-49550900D02*
X92713789Y-49536211D01*
X90688146Y-76835565D02*
X90617787Y-76810946D01*
X90543713Y-78117200D02*
X90617787Y-78108853D01*
X90548615Y-78715400D02*
X89816701Y-78715400D01*
X90803972Y-76927933D02*
X90751263Y-76875224D01*
X90808874Y-79904666D02*
X90848533Y-79841549D01*
X90881499Y-79048283D02*
X90873152Y-78974209D01*
X90622689Y-78723746D02*
X90548615Y-78715400D01*
X90876597Y-77135483D02*
X90868250Y-77061409D01*
X90548615Y-80030000D02*
X90622689Y-80021653D01*
X90340754Y-75935786D02*
X90349100Y-75861712D01*
X90622689Y-80021653D02*
X90693048Y-79997034D01*
X89816701Y-78715400D02*
X89816701Y-78107396D01*
X90688146Y-78084234D02*
X90751263Y-78044575D01*
X90876597Y-77784316D02*
X90876597Y-77135483D01*
X90170000Y-78117200D02*
X90543713Y-78117200D01*
X90756165Y-78788024D02*
X90693048Y-78748365D01*
X90751263Y-78044575D02*
X90803972Y-77991866D01*
X90160650Y-76161630D02*
X90223767Y-76121971D01*
X90349100Y-48984184D02*
X90404184Y-48929100D01*
X90349100Y-80030000D02*
X90548615Y-80030000D01*
X90276476Y-76069262D02*
X90316135Y-76006145D01*
X69750000Y-82750000D02*
X69750000Y-83875000D01*
X69820900Y-85924184D02*
X71115816Y-87219100D01*
X69750000Y-83875000D02*
X69820900Y-83945900D01*
X89816701Y-78107396D02*
X90170000Y-78107396D01*
X90751263Y-76875224D02*
X90688146Y-76835565D01*
X69820900Y-83945900D02*
X69820900Y-85924184D01*
X71115816Y-87219100D02*
X85084184Y-87219100D01*
X85084184Y-87219100D02*
X90349100Y-81954184D01*
X90170000Y-78107396D02*
X90170000Y-78117200D01*
X90617787Y-76810946D02*
X90543713Y-76802600D01*
X90349100Y-81954184D02*
X90349100Y-80030000D01*
X90693048Y-79997034D02*
X90756165Y-79957375D01*
X89816701Y-76802600D02*
X89816701Y-76194596D01*
X90756165Y-79957375D02*
X90808874Y-79904666D01*
X90848533Y-79841549D02*
X90873152Y-79771190D01*
X90873152Y-79771190D02*
X90881499Y-79697116D01*
X90881499Y-79697116D02*
X90881499Y-79048283D01*
X90873152Y-78974209D02*
X90848533Y-78903850D01*
X90693048Y-78748365D02*
X90622689Y-78723746D01*
X90848533Y-78903850D02*
X90808874Y-78840733D01*
X90808874Y-78840733D02*
X90756165Y-78788024D01*
X90868250Y-77858390D02*
X90876597Y-77784316D01*
X90617787Y-78108853D02*
X90688146Y-78084234D01*
X90868250Y-77061409D02*
X90843631Y-76991050D01*
X90803972Y-77991866D02*
X90843631Y-77928749D01*
X90843631Y-77928749D02*
X90868250Y-77858390D01*
X90843631Y-76991050D02*
X90803972Y-76927933D01*
X90543713Y-76802600D02*
X89816701Y-76802600D01*
X89816701Y-76194596D02*
X90016217Y-76194596D01*
X90016217Y-76194596D02*
X90090291Y-76186249D01*
X90090291Y-76186249D02*
X90160650Y-76161630D01*
X90223767Y-76121971D02*
X90276476Y-76069262D01*
X90316135Y-76006145D02*
X90340754Y-75935786D01*
X90349100Y-75861712D02*
X90349100Y-48984184D01*
X90404184Y-48929100D02*
X92049100Y-48929100D01*
X92049100Y-48929100D02*
X92100000Y-48980000D01*
D18*
X69576602Y-75440000D02*
X69576602Y-73366602D01*
X69576602Y-73366602D02*
X69300000Y-73090000D01*
X69300000Y-73090000D02*
X69300000Y-71640000D01*
X69300000Y-71640000D02*
X69750000Y-71190000D01*
X69750000Y-77250000D02*
X69750000Y-76273398D01*
X69750000Y-76273398D02*
X69576602Y-76100000D01*
X69576602Y-76100000D02*
X69576602Y-75440000D01*
X77920000Y-62510000D02*
X78690000Y-62510000D01*
X78690000Y-62510000D02*
X78700000Y-62510000D01*
X77460000Y-62970000D02*
X77920000Y-62510000D01*
X77460000Y-63480000D02*
X77460000Y-62970000D01*
X69750000Y-71190000D02*
X77460000Y-63480000D01*
D19*
X70250000Y-82750000D02*
X70250000Y-83875000D01*
X89536028Y-78948266D02*
X89496369Y-78885149D01*
X90023865Y-79865152D02*
X90063524Y-79802035D01*
X89588737Y-77831624D02*
X89651854Y-77791965D01*
X70250000Y-83875000D02*
X70179100Y-83945900D01*
X70179100Y-83945900D02*
X70179100Y-85775816D01*
X89999246Y-79935511D02*
X90023865Y-79865152D01*
X90523299Y-79676702D02*
X90523299Y-79068698D01*
X70179100Y-85775816D02*
X71264184Y-86860900D01*
X71264184Y-86860900D02*
X84935816Y-86860900D01*
X90249709Y-79685048D02*
X90323783Y-79676702D01*
X91711684Y-48570900D02*
X91840000Y-48442584D01*
X89651854Y-79040634D02*
X89588737Y-79000975D01*
X84935816Y-86860900D02*
X89990900Y-81805816D01*
X89990900Y-81805816D02*
X89990900Y-80009585D01*
X89990900Y-80009585D02*
X89999246Y-79935511D01*
X89463403Y-76827916D02*
X89463403Y-76179083D01*
X90063524Y-79802035D02*
X90116233Y-79749326D01*
X89995802Y-75846200D02*
X89990900Y-72227599D01*
X90116233Y-79749326D02*
X90179350Y-79709667D01*
X89796287Y-79073600D02*
X89722213Y-79065253D01*
X90179350Y-79709667D02*
X90249709Y-79685048D01*
X90170000Y-79068698D02*
X90170000Y-79073600D01*
X89588737Y-75918824D02*
X89651854Y-75879165D01*
X90323783Y-79676702D02*
X90523299Y-79676702D01*
X90170000Y-79073600D02*
X89796287Y-79073600D01*
X90523299Y-79068698D02*
X90170000Y-79068698D01*
X89722213Y-79065253D02*
X89651854Y-79040634D01*
X89588737Y-79000975D02*
X89536028Y-78948266D01*
X89496369Y-78885149D02*
X89471750Y-78814790D01*
X89796287Y-75846200D02*
X89995802Y-75846200D01*
X90523299Y-77150996D02*
X90170000Y-77150996D01*
X89471750Y-78814790D02*
X89463403Y-78740716D01*
X89463403Y-78740716D02*
X89463403Y-78091883D01*
X89463403Y-78091883D02*
X89471750Y-78017809D01*
X89471750Y-76901990D02*
X89463403Y-76827916D01*
X89471750Y-78017809D02*
X89496369Y-77947450D01*
X89496369Y-77947450D02*
X89536028Y-77884333D01*
X89536028Y-77884333D02*
X89588737Y-77831624D01*
X89588737Y-77088175D02*
X89536028Y-77035466D01*
X89651854Y-77791965D02*
X89722213Y-77767346D01*
X89722213Y-77767346D02*
X89796287Y-77759000D01*
X89651854Y-75879165D02*
X89722213Y-75854546D01*
X89796287Y-77759000D02*
X90523299Y-77759000D01*
X90523299Y-77759000D02*
X90523299Y-77150996D01*
X90170000Y-77150996D02*
X90170000Y-77160800D01*
X90170000Y-77160800D02*
X89796287Y-77160800D01*
X89463403Y-76179083D02*
X89471750Y-76105009D01*
X89796287Y-77160800D02*
X89722213Y-77152453D01*
X89722213Y-77152453D02*
X89651854Y-77127834D01*
X89722213Y-75854546D02*
X89796287Y-75846200D01*
X89651854Y-77127834D02*
X89588737Y-77088175D01*
X89536028Y-77035466D02*
X89496369Y-76972349D01*
X89496369Y-76972349D02*
X89471750Y-76901990D01*
X89471750Y-76105009D02*
X89496369Y-76034650D01*
X89496369Y-76034650D02*
X89536028Y-75971533D01*
X89536028Y-75971533D02*
X89588737Y-75918824D01*
X89990900Y-72227599D02*
X89990900Y-48835816D01*
X89990900Y-48835816D02*
X90255816Y-48570900D01*
X90255816Y-48570900D02*
X91711684Y-48570900D01*
X91840000Y-48442584D02*
X91840000Y-48230000D01*
X91840000Y-48230000D02*
X91850000Y-48220000D01*
X87759928Y-73582325D02*
X87740412Y-73551267D01*
X88747083Y-70580505D02*
X88704134Y-70565476D01*
X89025049Y-73644000D02*
X87887995Y-73644000D01*
X88594194Y-70427616D02*
X88589100Y-70382400D01*
X89540747Y-72826344D02*
X89554010Y-72708639D01*
X88665606Y-74811131D02*
X88704134Y-74786923D01*
X89354850Y-73122197D02*
X89438607Y-73038440D01*
X88633431Y-74843306D02*
X88665606Y-74811131D01*
X89540747Y-74355544D02*
X89554010Y-74237839D01*
X89554010Y-74172960D02*
X89540747Y-74055255D01*
X88589100Y-81754184D02*
X88589100Y-74970000D01*
X89254556Y-71656016D02*
X89354850Y-71592997D01*
X87816923Y-71724621D02*
X87851545Y-71712506D01*
X88704134Y-74786923D02*
X88747083Y-74771894D01*
X89254556Y-70637983D02*
X89142754Y-70598862D01*
X89554010Y-72708639D02*
X89554010Y-72643760D01*
X89025049Y-71708400D02*
X89142754Y-71695137D01*
X87740412Y-73330332D02*
X87759928Y-73299274D01*
X87724190Y-73401405D02*
X87728297Y-73364954D01*
X88747083Y-74771894D02*
X88792300Y-74766800D01*
X89254556Y-73185216D02*
X89354850Y-73122197D01*
X89142754Y-73657262D02*
X89025049Y-73644000D01*
X87816923Y-73627778D02*
X87785865Y-73608262D01*
X89025049Y-74766800D02*
X89142754Y-74753537D01*
X87724190Y-71872205D02*
X87728297Y-71835754D01*
X89142754Y-73224337D02*
X89254556Y-73185216D01*
X88589100Y-47944184D02*
X88856352Y-47676932D01*
X87816923Y-73253821D02*
X87851545Y-73241706D01*
X89501626Y-74467346D02*
X89540747Y-74355544D01*
X87887995Y-71708400D02*
X89025049Y-71708400D01*
X90210562Y-47676932D02*
X90228299Y-47694669D01*
X89254556Y-74714416D02*
X89354850Y-74651397D01*
X88792300Y-70585600D02*
X88747083Y-70580505D01*
X88594194Y-74924783D02*
X88609223Y-74881834D01*
X89540747Y-74055255D02*
X89501626Y-73943453D01*
X89354850Y-74651397D02*
X89438607Y-74567640D01*
X88792300Y-74766800D02*
X89025049Y-74766800D01*
X87785865Y-72079062D02*
X87759928Y-72053125D01*
X70750000Y-83875000D02*
X70820900Y-83945900D01*
X89142754Y-74753537D02*
X89254556Y-74714416D01*
X87785865Y-73273337D02*
X87816923Y-73253821D01*
X87724190Y-71950995D02*
X87724190Y-71872205D01*
X72115816Y-86099100D02*
X84244184Y-86099100D01*
X70820900Y-84804184D02*
X72115816Y-86099100D01*
X87816923Y-72098578D02*
X87785865Y-72079062D01*
X87887995Y-73644000D02*
X87851545Y-73639893D01*
X70750000Y-82750000D02*
X70750000Y-83875000D01*
X70820900Y-83945900D02*
X70820900Y-84804184D01*
X88609223Y-74881834D02*
X88633431Y-74843306D01*
X89438607Y-73843159D02*
X89354850Y-73759402D01*
X89501626Y-72414253D02*
X89438607Y-72313959D01*
X84244184Y-86099100D02*
X88589100Y-81754184D01*
X88589100Y-74970000D02*
X88594194Y-74924783D01*
X89554010Y-71114560D02*
X89540747Y-70996855D01*
X89438607Y-74567640D02*
X89501626Y-74467346D01*
X89554010Y-74237839D02*
X89554010Y-74172960D01*
X89501626Y-71408946D02*
X89540747Y-71297144D01*
X89501626Y-73943453D02*
X89438607Y-73843159D01*
X89354850Y-73759402D02*
X89254556Y-73696383D01*
X89438607Y-71509240D02*
X89501626Y-71408946D01*
X89254556Y-73696383D02*
X89142754Y-73657262D01*
X87851545Y-73639893D02*
X87816923Y-73627778D01*
X89354850Y-71592997D02*
X89438607Y-71509240D01*
X87785865Y-73608262D02*
X87759928Y-73582325D01*
X88633431Y-70509093D02*
X88609223Y-70470565D01*
X87740412Y-73551267D02*
X87728297Y-73516645D01*
X87728297Y-73516645D02*
X87724190Y-73480195D01*
X87724190Y-73480195D02*
X87724190Y-73401405D01*
X87728297Y-73364954D02*
X87740412Y-73330332D01*
X87759928Y-73299274D02*
X87785865Y-73273337D01*
X87851545Y-73241706D02*
X87887995Y-73237600D01*
X87887995Y-73237600D02*
X89025049Y-73237600D01*
X89025049Y-73237600D02*
X89142754Y-73224337D01*
X89438607Y-73038440D02*
X89501626Y-72938146D01*
X89501626Y-72938146D02*
X89540747Y-72826344D01*
X89540747Y-70996855D02*
X89501626Y-70885053D01*
X89554010Y-72643760D02*
X89540747Y-72526055D01*
X89540747Y-72526055D02*
X89501626Y-72414253D01*
X89254556Y-72167183D02*
X89142754Y-72128062D01*
X87759928Y-72053125D02*
X87740412Y-72022067D01*
X87785865Y-71744137D02*
X87816923Y-71724621D01*
X89438607Y-72313959D02*
X89354850Y-72230202D01*
X89540747Y-71297144D02*
X89554010Y-71179439D01*
X89354850Y-72230202D02*
X89254556Y-72167183D01*
X89142754Y-72128062D02*
X89025049Y-72114800D01*
X89025049Y-72114800D02*
X87887995Y-72114800D01*
X87887995Y-72114800D02*
X87851545Y-72110693D01*
X87851545Y-72110693D02*
X87816923Y-72098578D01*
X87740412Y-72022067D02*
X87728297Y-71987445D01*
X87728297Y-71987445D02*
X87724190Y-71950995D01*
X90775574Y-47676932D02*
X91026932Y-47676932D01*
X87728297Y-71835754D02*
X87740412Y-71801132D01*
X90757837Y-47694669D02*
X90775574Y-47676932D01*
X87740412Y-71801132D02*
X87759928Y-71770074D01*
X87759928Y-71770074D02*
X87785865Y-71744137D01*
X87851545Y-71712506D02*
X87887995Y-71708400D01*
X89142754Y-71695137D02*
X89254556Y-71656016D01*
X89554010Y-71179439D02*
X89554010Y-71114560D01*
X89501626Y-70885053D02*
X89438607Y-70784759D01*
X89438607Y-70784759D02*
X89354850Y-70701002D01*
X88609223Y-70470565D02*
X88594194Y-70427616D01*
X89354850Y-70701002D02*
X89254556Y-70637983D01*
X89142754Y-70598862D02*
X89025049Y-70585600D01*
X89025049Y-70585600D02*
X88792300Y-70585600D01*
X88704134Y-70565476D02*
X88665606Y-70541268D01*
X88665606Y-70541268D02*
X88633431Y-70509093D01*
X88589100Y-70382400D02*
X88589100Y-47944184D01*
X88856352Y-47676932D02*
X90210562Y-47676932D01*
X90228299Y-47694669D02*
X90757837Y-47694669D01*
D18*
X70750000Y-70720000D02*
X70750000Y-77250000D01*
X78110000Y-63360000D02*
X70750000Y-70720000D01*
D19*
X84622132Y-84790321D02*
X84648394Y-84769378D01*
X84890789Y-84825838D02*
X84923537Y-84833311D01*
X89175686Y-72764365D02*
X89190715Y-72721416D01*
X87414698Y-73723760D02*
X87378322Y-73619803D01*
X84430943Y-85400455D02*
X84445516Y-85370193D01*
X88174423Y-48267274D02*
X88198174Y-48243523D01*
X84957125Y-84833312D02*
X84989873Y-84825837D01*
X71250000Y-82750000D02*
X71250000Y-83875000D01*
X87857832Y-71350200D02*
X88992610Y-71350200D01*
X84860527Y-84811263D02*
X84890789Y-84825838D01*
X87857832Y-72879400D02*
X88992610Y-72879400D01*
X84711404Y-84747330D02*
X84744992Y-84747331D01*
X71250000Y-83875000D02*
X71179100Y-83945900D01*
X71179100Y-83945900D02*
X71179100Y-84655816D01*
X87551174Y-72986704D02*
X87644430Y-72928107D01*
X89119303Y-74046531D02*
X89080775Y-74022323D01*
X87930900Y-48450000D02*
X87934660Y-48416621D01*
X84410000Y-85426716D02*
X84430943Y-85400455D01*
X88530353Y-74460983D02*
X88642155Y-74421862D01*
X84374483Y-85058978D02*
X84389058Y-85028714D01*
X88196071Y-81130461D02*
X88170792Y-81105182D01*
X88244162Y-74819855D02*
X88283283Y-74708053D01*
X71179100Y-84655816D02*
X72264184Y-85740900D01*
X84452990Y-85303857D02*
X84445517Y-85271109D01*
X84410000Y-85214584D02*
X84389057Y-85188324D01*
X88226898Y-80346230D02*
X88230900Y-80310706D01*
X84367010Y-85091724D02*
X84374483Y-85058978D01*
X88430059Y-74524002D02*
X88530353Y-74460983D01*
X72264184Y-85740900D02*
X84095816Y-85740900D01*
X84095816Y-85740900D02*
X84410000Y-85426716D01*
X89195810Y-74205400D02*
X89190715Y-74160183D01*
X84389057Y-85188324D02*
X84374484Y-85158060D01*
X89080775Y-74022323D02*
X89037826Y-74007294D01*
X84445516Y-85370193D02*
X84452991Y-85337445D01*
X88140522Y-80454542D02*
X88170792Y-80435523D01*
X84410000Y-85002452D02*
X84622132Y-84790321D01*
X87365990Y-71842041D02*
X87378322Y-71732596D01*
X84445517Y-85271109D02*
X84430942Y-85240847D01*
X88174423Y-48932725D02*
X88145982Y-48914854D01*
X84452991Y-85337445D02*
X84452990Y-85303857D01*
X88226898Y-81194475D02*
X88215090Y-81160731D01*
X87365990Y-73510358D02*
X87365990Y-73371241D01*
X90317403Y-47318733D02*
X90493068Y-47143068D01*
X84430942Y-85240847D02*
X84410000Y-85214584D01*
X89119303Y-72835068D02*
X89151478Y-72802893D01*
X88230900Y-47795816D02*
X88707983Y-47318733D01*
X89175686Y-74293565D02*
X89190715Y-74250616D01*
X88035728Y-79866350D02*
X88001984Y-79854542D01*
X88170792Y-80435523D02*
X88196071Y-80410244D01*
X88346302Y-74607759D02*
X88430059Y-74524002D01*
X84374484Y-85158060D02*
X84367009Y-85125314D01*
X89151478Y-71273693D02*
X89175686Y-71235165D01*
X84367009Y-85125314D02*
X84367010Y-85091724D01*
X88215090Y-80379974D02*
X88226898Y-80346230D01*
X84389058Y-85028714D02*
X84410000Y-85002452D01*
X88015817Y-48314854D02*
X88047521Y-48303760D01*
X84648394Y-84769378D02*
X84678656Y-84754805D01*
X84678656Y-84754805D02*
X84711404Y-84747330D01*
X87911605Y-79430000D02*
X87915608Y-79394475D01*
X84744992Y-84747331D02*
X84777740Y-84754804D01*
X88230900Y-80310706D02*
X88230900Y-80030000D01*
X84777740Y-84754804D02*
X84808002Y-84769379D01*
X88230900Y-74937560D02*
X88244162Y-74819855D01*
X84808002Y-84769379D02*
X84860527Y-84811263D01*
X87911605Y-80910706D02*
X87911605Y-80630000D01*
X87644430Y-71398907D02*
X87748387Y-71362531D01*
X84923537Y-84833311D02*
X84957125Y-84833312D01*
X84989873Y-84825837D02*
X85020135Y-84811264D01*
X88198174Y-48243523D02*
X88216045Y-48215082D01*
X88227139Y-48183378D02*
X88230900Y-48150000D01*
X88140522Y-81086163D02*
X88106778Y-81074355D01*
X85020135Y-84811264D02*
X85046398Y-84790320D01*
X88035728Y-80474355D02*
X88106778Y-80466350D01*
X88001984Y-80486163D02*
X88035728Y-80474355D01*
X85046398Y-84790320D02*
X88230900Y-81605816D01*
X87971714Y-80505182D02*
X88001984Y-80486163D01*
X88230900Y-81605816D02*
X88230900Y-81230000D01*
X89151478Y-72802893D02*
X89175686Y-72764365D01*
X88230900Y-81230000D02*
X88226898Y-81194475D01*
X88215090Y-81160731D02*
X88196071Y-81130461D01*
X88992610Y-71350200D02*
X89037826Y-71345105D01*
X88170792Y-81105182D02*
X88140522Y-81086163D01*
X88226898Y-79994475D02*
X88215090Y-79960731D01*
X88196071Y-80410244D02*
X88215090Y-80379974D01*
X88106778Y-81074355D02*
X88035728Y-81066350D01*
X87414698Y-72194560D02*
X87378322Y-72090603D01*
X88230900Y-80030000D02*
X88226898Y-79994475D01*
X87946435Y-81010244D02*
X87927416Y-80979974D01*
X88035728Y-81066350D02*
X88001984Y-81054542D01*
X88170792Y-79235523D02*
X88196071Y-79210244D01*
X88001984Y-81054542D02*
X87971714Y-81035523D01*
X87644430Y-72424292D02*
X87551174Y-72365695D01*
X87971714Y-81035523D02*
X87946435Y-81010244D01*
X88216045Y-48984917D02*
X88198174Y-48956476D01*
X87911605Y-79710706D02*
X87911605Y-79430000D01*
X87927416Y-80979974D02*
X87915608Y-80946230D01*
X87857832Y-72473000D02*
X87748387Y-72460668D01*
X87915608Y-80946230D02*
X87911605Y-80910706D01*
X88759860Y-70943800D02*
X88642155Y-70930537D01*
X87945754Y-48815082D02*
X87934660Y-48783378D01*
X88114278Y-48296239D02*
X88145982Y-48285145D01*
X87911605Y-80630000D02*
X87915608Y-80594475D01*
X87915608Y-80594475D02*
X87927416Y-80560731D01*
X88230900Y-79110706D02*
X88230900Y-74937560D01*
X88035728Y-79274355D02*
X88106778Y-79266350D01*
X89037826Y-70948894D02*
X88992610Y-70943800D01*
X87987376Y-48867274D02*
X87963625Y-48843523D01*
X89151478Y-74078706D02*
X89119303Y-74046531D01*
X89080775Y-70963923D02*
X89037826Y-70948894D01*
X87551174Y-73894895D02*
X87473295Y-73817016D01*
X87927416Y-80560731D02*
X87946435Y-80530461D01*
X87946435Y-80530461D02*
X87971714Y-80505182D01*
X87473295Y-73817016D02*
X87414698Y-73723760D01*
X88106778Y-80466350D02*
X88140522Y-80454542D01*
X88215090Y-79960731D02*
X88196071Y-79930461D01*
X88001984Y-79286163D02*
X88035728Y-79274355D01*
X88196071Y-79930461D02*
X88170792Y-79905182D01*
X87378322Y-73261796D02*
X87414698Y-73157839D01*
X88170792Y-79905182D02*
X88140522Y-79886163D01*
X88140522Y-79886163D02*
X88106778Y-79874355D01*
X88106778Y-79874355D02*
X88035728Y-79866350D01*
X88001984Y-79854542D02*
X87971714Y-79835523D01*
X89080775Y-74388476D02*
X89119303Y-74364268D01*
X87971714Y-79835523D02*
X87946435Y-79810244D01*
X87934660Y-48416621D02*
X87945754Y-48384917D01*
X87946435Y-79810244D02*
X87927416Y-79779974D01*
X87927416Y-79779974D02*
X87915608Y-79746230D01*
X87915608Y-79746230D02*
X87911605Y-79710706D01*
X88992610Y-72473000D02*
X87857832Y-72473000D01*
X87915608Y-79394475D02*
X87927416Y-79360731D01*
X87473295Y-72287816D02*
X87414698Y-72194560D01*
X87927416Y-79360731D02*
X87946435Y-79330461D01*
X89119303Y-74364268D02*
X89151478Y-74332093D01*
X88047521Y-48896239D02*
X88015817Y-48885145D01*
X89037826Y-74007294D02*
X88992610Y-74002200D01*
X87946435Y-79330461D02*
X87971714Y-79305182D01*
X88047521Y-48303760D02*
X88114278Y-48296239D01*
X87971714Y-79305182D02*
X88001984Y-79286163D01*
X88215090Y-79179974D02*
X88226898Y-79146230D01*
X88106778Y-79266350D02*
X88140522Y-79254542D01*
X88230900Y-49050000D02*
X88227139Y-49016621D01*
X88140522Y-79254542D02*
X88170792Y-79235523D01*
X87414698Y-73157839D02*
X87473295Y-73064583D01*
X88196071Y-79210244D02*
X88215090Y-79179974D01*
X88226898Y-79146230D02*
X88230900Y-79110706D01*
X88283283Y-74708053D02*
X88346302Y-74607759D01*
X87963625Y-48356476D02*
X87987376Y-48332725D01*
X88642155Y-74421862D02*
X88759860Y-74408600D01*
X88015817Y-48885145D02*
X87987376Y-48867274D01*
X88759860Y-74408600D02*
X88992610Y-74408600D01*
X89119303Y-70988131D02*
X89080775Y-70963923D01*
X88992610Y-74408600D02*
X89037826Y-74403505D01*
X89037826Y-74403505D02*
X89080775Y-74388476D01*
X87748387Y-73989868D02*
X87644430Y-73953492D01*
X89151478Y-74332093D02*
X89175686Y-74293565D01*
X89190715Y-74250616D02*
X89195810Y-74205400D01*
X89190715Y-74160183D02*
X89175686Y-74117234D01*
X89175686Y-74117234D02*
X89151478Y-74078706D01*
X88992610Y-74002200D02*
X87857832Y-74002200D01*
X87857832Y-74002200D02*
X87748387Y-73989868D01*
X88230900Y-70414839D02*
X88230900Y-49050000D01*
X87644430Y-73953492D02*
X87551174Y-73894895D01*
X89151478Y-72549506D02*
X89119303Y-72517331D01*
X87378322Y-73619803D02*
X87365990Y-73510358D01*
X87365990Y-73371241D02*
X87378322Y-73261796D01*
X87934660Y-48783378D02*
X87930900Y-48750000D01*
X87473295Y-73064583D02*
X87551174Y-72986704D01*
X87644430Y-72928107D02*
X87748387Y-72891731D01*
X88283283Y-70644346D02*
X88244162Y-70532544D01*
X87748387Y-72891731D02*
X87857832Y-72879400D01*
X88992610Y-72879400D02*
X89037826Y-72874305D01*
X89037826Y-72874305D02*
X89080775Y-72859276D01*
X89080775Y-72859276D02*
X89119303Y-72835068D01*
X89190715Y-72721416D02*
X89195810Y-72676200D01*
X89195810Y-72676200D02*
X89190715Y-72630983D01*
X89190715Y-72630983D02*
X89175686Y-72588034D01*
X89175686Y-72588034D02*
X89151478Y-72549506D01*
X89119303Y-72517331D02*
X89080775Y-72493123D01*
X89080775Y-72493123D02*
X89037826Y-72478094D01*
X89037826Y-72478094D02*
X88992610Y-72473000D01*
X87748387Y-72460668D02*
X87644430Y-72424292D01*
X88642155Y-70930537D02*
X88530353Y-70891416D01*
X87551174Y-72365695D02*
X87473295Y-72287816D01*
X87378322Y-72090603D02*
X87365990Y-71981158D01*
X87414698Y-71628639D02*
X87473295Y-71535383D01*
X87365990Y-71981158D02*
X87365990Y-71842041D01*
X87378322Y-71732596D02*
X87414698Y-71628639D01*
X87473295Y-71535383D02*
X87551174Y-71457504D01*
X87748387Y-71362531D02*
X87857832Y-71350200D01*
X88227139Y-49016621D02*
X88216045Y-48984917D01*
X87551174Y-71457504D02*
X87644430Y-71398907D01*
X89037826Y-71345105D02*
X89080775Y-71330076D01*
X89080775Y-71330076D02*
X89119303Y-71305868D01*
X89119303Y-71305868D02*
X89151478Y-71273693D01*
X89175686Y-71235165D02*
X89190715Y-71192216D01*
X89190715Y-71192216D02*
X89195810Y-71147000D01*
X89195810Y-71147000D02*
X89190715Y-71101783D01*
X88145982Y-48914854D02*
X88114278Y-48903760D01*
X89190715Y-71101783D02*
X89175686Y-71058834D01*
X89175686Y-71058834D02*
X89151478Y-71020306D01*
X89151478Y-71020306D02*
X89119303Y-70988131D01*
X88530353Y-70891416D02*
X88430059Y-70828397D01*
X88992610Y-70943800D02*
X88759860Y-70943800D01*
X88430059Y-70828397D02*
X88346302Y-70744640D01*
X88346302Y-70744640D02*
X88283283Y-70644346D01*
X88244162Y-70532544D02*
X88230900Y-70414839D01*
X88198174Y-48956476D02*
X88174423Y-48932725D01*
X88114278Y-48903760D02*
X88047521Y-48896239D01*
X87963625Y-48843523D02*
X87945754Y-48815082D01*
X87930900Y-48750000D02*
X87930900Y-48450000D01*
X87945754Y-48384917D02*
X87963625Y-48356476D01*
X87987376Y-48332725D02*
X88015817Y-48314854D01*
X88145982Y-48285145D02*
X88174423Y-48267274D01*
X88216045Y-48215082D02*
X88227139Y-48183378D01*
X88230900Y-48150000D02*
X88230900Y-47795816D01*
X88707983Y-47318733D02*
X90317403Y-47318733D01*
D18*
X60590000Y-86910000D02*
X61040000Y-87360000D01*
X61040000Y-87360000D02*
X66010000Y-87360000D01*
X66010000Y-87360000D02*
X66670000Y-86700000D01*
X66670000Y-86700000D02*
X66670000Y-86200000D01*
X71750000Y-82750000D02*
X71750000Y-84240000D01*
D19*
X87308560Y-68329706D02*
X87212853Y-68318923D01*
X87632170Y-68653316D02*
X87600360Y-68562409D01*
X86175246Y-66668823D02*
X86175246Y-66458977D01*
X87600360Y-62422986D02*
X87549119Y-62341437D01*
X86175246Y-61871377D02*
X86177711Y-61849508D01*
X86251655Y-68293835D02*
X86230883Y-68286567D01*
X87399467Y-62222093D02*
X87308560Y-62190283D01*
X89113424Y-46559100D02*
X89229164Y-46443360D01*
X86909100Y-61342999D02*
X86909100Y-46594184D01*
X87308560Y-67879116D02*
X87399467Y-67847306D01*
X87632170Y-69107329D02*
X87642954Y-69011622D01*
X86175246Y-62081223D02*
X86175246Y-61871377D01*
X87549119Y-66929037D02*
X87481016Y-66860934D01*
X87212853Y-66360700D02*
X87308560Y-66349916D01*
X86273523Y-67889900D02*
X87212853Y-67889900D01*
X86177711Y-66437108D02*
X86184979Y-66416336D01*
X86747163Y-61679265D02*
X86815266Y-61611162D01*
X87212853Y-65237900D02*
X86273523Y-65237900D01*
X86273523Y-65237900D02*
X86251655Y-65235435D01*
X86930540Y-69478725D02*
X86946102Y-69463163D01*
X87600360Y-68562409D02*
X87549119Y-68480860D01*
X87600360Y-66117213D02*
X87632170Y-66026306D01*
X86230883Y-63698967D02*
X86212249Y-63687259D01*
X87632170Y-64497106D02*
X87642954Y-64401399D01*
X86212249Y-63687259D02*
X86196687Y-63671697D01*
X87642954Y-62609600D02*
X87632170Y-62513893D01*
X87481016Y-67796065D02*
X87549119Y-67727962D01*
X87308560Y-66349916D02*
X87399467Y-66318106D01*
X87212853Y-67889900D02*
X87308560Y-67879116D01*
X86273523Y-62179500D02*
X86251655Y-62177035D01*
X87399467Y-64788906D02*
X87481016Y-64737665D01*
X87642954Y-64401399D02*
X87642954Y-64138800D01*
X87600360Y-67010586D02*
X87549119Y-66929037D01*
X86175246Y-68198023D02*
X86175246Y-67988177D01*
X86230883Y-63312032D02*
X86251655Y-63304764D01*
X86574707Y-61762316D02*
X86665614Y-61730506D01*
X86175246Y-63400577D02*
X86177711Y-63378708D01*
X87481016Y-63802534D02*
X87399467Y-63751293D01*
X87308560Y-64820716D02*
X87399467Y-64788906D01*
X86175246Y-65139623D02*
X86175246Y-64929777D01*
X87549119Y-69279785D02*
X87600360Y-69198236D01*
X86273523Y-66767100D02*
X86251655Y-66764635D01*
X86175246Y-63610423D02*
X86175246Y-63400577D01*
X87549119Y-63140362D02*
X87600360Y-63058813D01*
X86909100Y-80904184D02*
X86909100Y-69540000D01*
X87481016Y-66266865D02*
X87549119Y-66198762D01*
X87308560Y-63719483D02*
X87212853Y-63708700D01*
X86273523Y-68296300D02*
X86251655Y-68293835D01*
X86909100Y-69540000D02*
X86911564Y-69518131D01*
X86196687Y-64868502D02*
X86212249Y-64852940D01*
X86273523Y-63708700D02*
X86251655Y-63706235D01*
X86273523Y-61773100D02*
X86479000Y-61773100D01*
X86175246Y-66458977D02*
X86177711Y-66437108D01*
X86230883Y-64841232D02*
X86251655Y-64833964D01*
X87600360Y-69198236D02*
X87632170Y-69107329D01*
X87481016Y-68412757D02*
X87399467Y-68361516D01*
X72320900Y-83945900D02*
X72320900Y-84614184D01*
X86184979Y-66711463D02*
X86177711Y-66690691D01*
X87212853Y-69441723D02*
X87308560Y-69430939D01*
X87212853Y-64831500D02*
X87308560Y-64820716D01*
X86177711Y-67966308D02*
X86184979Y-67945536D01*
X87549119Y-67727962D02*
X87600360Y-67646413D01*
X86251655Y-67892364D02*
X86273523Y-67889900D01*
X86212249Y-68274859D02*
X86196687Y-68259297D01*
X86730000Y-68296300D02*
X86273523Y-68296300D01*
X86730000Y-68318923D02*
X86730000Y-68296300D01*
X86815266Y-61611162D02*
X86866507Y-61529613D01*
X72250000Y-82750000D02*
X72250000Y-83875000D01*
X72250000Y-83875000D02*
X72320900Y-83945900D01*
X86918832Y-69497359D02*
X86930540Y-69478725D01*
X82624184Y-85189100D02*
X86909100Y-80904184D01*
X86251655Y-62177035D02*
X86230883Y-62169767D01*
X72320900Y-84614184D02*
X72895816Y-85189100D01*
X72895816Y-85189100D02*
X82624184Y-85189100D01*
X86911564Y-69518131D02*
X86918832Y-69497359D01*
X86273523Y-63302300D02*
X87212853Y-63302300D01*
X86177711Y-68219891D02*
X86175246Y-68198023D01*
X86251655Y-66764635D02*
X86230883Y-66757367D01*
X86946102Y-69463163D02*
X86964736Y-69451455D01*
X86964736Y-69451455D02*
X86985508Y-69444187D01*
X86985508Y-69444187D02*
X87007377Y-69441723D01*
X87632170Y-66026306D02*
X87642954Y-65930599D01*
X87481016Y-69347888D02*
X87549119Y-69279785D01*
X87007377Y-69441723D02*
X87212853Y-69441723D01*
X87308560Y-69430939D02*
X87399467Y-69399129D01*
X87399467Y-69399129D02*
X87481016Y-69347888D01*
X86230883Y-66370432D02*
X86251655Y-66363164D01*
X87642954Y-69011622D02*
X87642954Y-68749023D01*
X87549119Y-68480860D02*
X87481016Y-68412757D01*
X86909100Y-46594184D02*
X86944184Y-46559100D01*
X87642954Y-68749023D02*
X87632170Y-68653316D01*
X87399467Y-68361516D02*
X87308560Y-68329706D01*
X87212853Y-68318923D02*
X86730000Y-68318923D01*
X86230883Y-68286567D02*
X86212249Y-68274859D01*
X86175246Y-64929777D02*
X86177711Y-64907908D01*
X87600360Y-67646413D02*
X87632170Y-67555506D01*
X86196687Y-68259297D02*
X86184979Y-68240663D01*
X89229164Y-46443360D02*
X89506640Y-46443360D01*
X86184979Y-68240663D02*
X86177711Y-68219891D01*
X86177711Y-66690691D02*
X86175246Y-66668823D01*
X86175246Y-67988177D02*
X86177711Y-67966308D01*
X86184979Y-67945536D02*
X86196687Y-67926902D01*
X86196687Y-67926902D02*
X86212249Y-67911340D01*
X86212249Y-67911340D02*
X86230883Y-67899632D01*
X87632170Y-62513893D02*
X87600360Y-62422986D01*
X86230883Y-67899632D02*
X86251655Y-67892364D01*
X87212853Y-62179500D02*
X86273523Y-62179500D01*
X87399467Y-67847306D02*
X87481016Y-67796065D01*
X87632170Y-67555506D02*
X87642954Y-67459799D01*
X87642954Y-67459799D02*
X87642954Y-67197200D01*
X87481016Y-66860934D02*
X87399467Y-66809693D01*
X87642954Y-67197200D02*
X87632170Y-67101493D01*
X87632170Y-67101493D02*
X87600360Y-67010586D01*
X87399467Y-66809693D02*
X87308560Y-66777883D01*
X87308560Y-66777883D02*
X87212853Y-66767100D01*
X87212853Y-66767100D02*
X86273523Y-66767100D01*
X86230883Y-66757367D02*
X86212249Y-66745659D01*
X86212249Y-66745659D02*
X86196687Y-66730097D01*
X86196687Y-66730097D02*
X86184979Y-66711463D01*
X86184979Y-66416336D02*
X86196687Y-66397702D01*
X87642954Y-64138800D02*
X87632170Y-64043093D01*
X86196687Y-66397702D02*
X86212249Y-66382140D01*
X86212249Y-66382140D02*
X86230883Y-66370432D01*
X86251655Y-66363164D02*
X86273523Y-66360700D01*
X86273523Y-66360700D02*
X87212853Y-66360700D01*
X87399467Y-66318106D02*
X87481016Y-66266865D01*
X87549119Y-66198762D02*
X87600360Y-66117213D01*
X87642954Y-65930599D02*
X87642954Y-65668000D01*
X87642954Y-65668000D02*
X87632170Y-65572293D01*
X87399467Y-63751293D02*
X87308560Y-63719483D01*
X87632170Y-65572293D02*
X87600360Y-65481386D01*
X87600360Y-65481386D02*
X87549119Y-65399837D01*
X87549119Y-65399837D02*
X87481016Y-65331734D01*
X87481016Y-65331734D02*
X87399467Y-65280493D01*
X86251655Y-65235435D02*
X86230883Y-65228167D01*
X87399467Y-65280493D02*
X87308560Y-65248683D01*
X87308560Y-65248683D02*
X87212853Y-65237900D01*
X86177711Y-65161491D02*
X86175246Y-65139623D01*
X86230883Y-65228167D02*
X86212249Y-65216459D01*
X86212249Y-65216459D02*
X86196687Y-65200897D01*
X87481016Y-64737665D02*
X87549119Y-64669562D01*
X86196687Y-65200897D02*
X86184979Y-65182263D01*
X86184979Y-65182263D02*
X86177711Y-65161491D01*
X86177711Y-64907908D02*
X86184979Y-64887136D01*
X86184979Y-64887136D02*
X86196687Y-64868502D01*
X86212249Y-64852940D02*
X86230883Y-64841232D01*
X86251655Y-64833964D02*
X86273523Y-64831500D01*
X86184979Y-61828736D02*
X86196687Y-61810102D01*
X86273523Y-64831500D02*
X87212853Y-64831500D01*
X87549119Y-64669562D02*
X87600360Y-64588013D01*
X87600360Y-64588013D02*
X87632170Y-64497106D01*
X87632170Y-64043093D02*
X87600360Y-63952186D01*
X87481016Y-63208465D02*
X87549119Y-63140362D01*
X87600360Y-63952186D02*
X87549119Y-63870637D01*
X87549119Y-63870637D02*
X87481016Y-63802534D01*
X86212249Y-62158059D02*
X86196687Y-62142497D01*
X87212853Y-63708700D02*
X86273523Y-63708700D01*
X86251655Y-63706235D02*
X86230883Y-63698967D01*
X86196687Y-63671697D02*
X86184979Y-63653063D01*
X86184979Y-63653063D02*
X86177711Y-63632291D01*
X86177711Y-63632291D02*
X86175246Y-63610423D01*
X86177711Y-63378708D02*
X86184979Y-63357936D01*
X86184979Y-63357936D02*
X86196687Y-63339302D01*
X86196687Y-63339302D02*
X86212249Y-63323740D01*
X86212249Y-63323740D02*
X86230883Y-63312032D01*
X86251655Y-63304764D02*
X86273523Y-63302300D01*
X87212853Y-63302300D02*
X87308560Y-63291516D01*
X87308560Y-63291516D02*
X87399467Y-63259706D01*
X87399467Y-63259706D02*
X87481016Y-63208465D01*
X87600360Y-63058813D02*
X87632170Y-62967906D01*
X87632170Y-62967906D02*
X87642954Y-62872199D01*
X87642954Y-62872199D02*
X87642954Y-62609600D01*
X87549119Y-62341437D02*
X87481016Y-62273334D01*
X87481016Y-62273334D02*
X87399467Y-62222093D01*
X87308560Y-62190283D02*
X87212853Y-62179500D01*
X86230883Y-62169767D02*
X86212249Y-62158059D01*
X86196687Y-62142497D02*
X86184979Y-62123863D01*
X86184979Y-62123863D02*
X86177711Y-62103091D01*
X86177711Y-62103091D02*
X86175246Y-62081223D01*
X86177711Y-61849508D02*
X86184979Y-61828736D01*
X86196687Y-61810102D02*
X86212249Y-61794540D01*
X86212249Y-61794540D02*
X86230883Y-61782832D01*
X86230883Y-61782832D02*
X86251655Y-61775564D01*
X86251655Y-61775564D02*
X86273523Y-61773100D01*
X86479000Y-61773100D02*
X86574707Y-61762316D01*
X86665614Y-61730506D02*
X86747163Y-61679265D01*
X86866507Y-61529613D02*
X86898317Y-61438706D01*
X86898317Y-61438706D02*
X86909100Y-61342999D01*
X86944184Y-46559100D02*
X89113424Y-46559100D01*
X89506640Y-46443360D02*
X89510000Y-46440000D01*
X85666941Y-74532034D02*
X85680898Y-74571921D01*
X84726568Y-71696693D02*
X84694393Y-71728868D01*
X79504184Y-72210900D02*
X74145816Y-72210900D01*
X84612916Y-71768105D02*
X84567700Y-71773200D01*
X83719433Y-72184455D02*
X83706171Y-72302160D01*
X85538908Y-74429931D02*
X85578795Y-74443888D01*
X85538908Y-73297668D02*
X85496915Y-73302400D01*
X83758554Y-72072653D02*
X83719433Y-72184455D01*
X85685629Y-73113686D02*
X85680898Y-73155678D01*
X84005624Y-71825583D02*
X83905330Y-71888602D01*
X83821573Y-71972359D02*
X83758554Y-72072653D01*
X85538908Y-74826868D02*
X85496915Y-74831600D01*
X84765805Y-71615216D02*
X84750776Y-71658165D01*
X84235131Y-71773200D02*
X84117426Y-71786462D01*
X85496915Y-73302400D02*
X84235131Y-73302400D01*
X72320900Y-76054100D02*
X72250000Y-76125000D01*
X84750776Y-71658165D02*
X84726568Y-71696693D01*
X84770900Y-75346911D02*
X84770900Y-78435816D01*
X85644458Y-73231347D02*
X85614577Y-73261228D01*
X85685629Y-74642886D02*
X85680898Y-74684878D01*
X85538908Y-72900731D02*
X85578795Y-72914688D01*
X80930900Y-45994185D02*
X80930900Y-46004184D01*
X84117426Y-71786462D02*
X84005624Y-71825583D01*
X74145816Y-72210900D02*
X72320900Y-74035816D01*
X83825816Y-46629100D02*
X84770900Y-47574184D01*
X85666941Y-74724765D02*
X85644458Y-74760547D01*
X84694393Y-71728868D02*
X84655865Y-71753076D01*
X72250000Y-76125000D02*
X72250000Y-77250000D01*
X83905330Y-71888602D02*
X83821573Y-71972359D01*
X83719433Y-74013944D02*
X83758554Y-74125746D01*
X85685629Y-73084714D02*
X85685629Y-73113686D01*
X85578795Y-73283711D02*
X85538908Y-73297668D01*
X84117426Y-73315662D02*
X84005624Y-73354783D01*
X85680898Y-73042721D02*
X85685629Y-73084714D01*
X85171544Y-74844519D02*
X85062627Y-74882631D01*
X85666941Y-73002834D02*
X85680898Y-73042721D01*
X79975314Y-45435314D02*
X80372029Y-45435314D01*
X83821573Y-74226040D02*
X83905330Y-74309797D01*
X84235131Y-72896000D02*
X85496915Y-72896000D01*
X85680898Y-74571921D02*
X85685629Y-74613914D01*
X83706171Y-72367039D02*
X83719433Y-72484744D01*
X83706171Y-72302160D02*
X83706171Y-72367039D01*
X79970000Y-45430000D02*
X79975314Y-45435314D01*
X84770900Y-71570000D02*
X84765805Y-71615216D01*
X80372029Y-45435314D02*
X80930900Y-45994185D01*
X80930900Y-46004184D02*
X81555816Y-46629100D01*
X81555816Y-46629100D02*
X83825816Y-46629100D01*
X84770900Y-47574184D02*
X84770900Y-71570000D01*
X84655865Y-71753076D02*
X84612916Y-71768105D01*
X85614577Y-73261228D02*
X85578795Y-73283711D01*
X84567700Y-71773200D02*
X84235131Y-71773200D01*
X85680898Y-73155678D02*
X85666941Y-73195565D01*
X83719433Y-72484744D02*
X83758554Y-72596546D01*
X85496915Y-74831600D02*
X85286212Y-74831600D01*
X83758554Y-72596546D02*
X83821573Y-72696840D01*
X83821573Y-72696840D02*
X83905330Y-72780597D01*
X85666941Y-73195565D02*
X85644458Y-73231347D01*
X83905330Y-72780597D02*
X84005624Y-72843616D01*
X85614577Y-74466371D02*
X85644458Y-74496252D01*
X84005624Y-72843616D02*
X84117426Y-72882737D01*
X84117426Y-72882737D02*
X84235131Y-72896000D01*
X85496915Y-72896000D02*
X85538908Y-72900731D01*
X85578795Y-72914688D02*
X85614577Y-72937171D01*
X80429100Y-79915816D02*
X80429100Y-73135816D01*
X85614577Y-72937171D02*
X85644458Y-72967052D01*
X85644458Y-72967052D02*
X85666941Y-73002834D01*
X84235131Y-73302400D02*
X84117426Y-73315662D01*
X84005624Y-73354783D02*
X83905330Y-73417802D01*
X83905330Y-73417802D02*
X83821573Y-73501559D01*
X83821573Y-73501559D02*
X83758554Y-73601853D01*
X83758554Y-73601853D02*
X83719433Y-73713655D01*
X83706171Y-73896239D02*
X83719433Y-74013944D01*
X83719433Y-73713655D02*
X83706171Y-73831360D01*
X83706171Y-73831360D02*
X83706171Y-73896239D01*
X83758554Y-74125746D02*
X83821573Y-74226040D01*
X83905330Y-74309797D02*
X84005624Y-74372816D01*
X84005624Y-74372816D02*
X84117426Y-74411937D01*
X84117426Y-74411937D02*
X84235131Y-74425200D01*
X84235131Y-74425200D02*
X85496915Y-74425200D01*
X85496915Y-74425200D02*
X85538908Y-74429931D01*
X85578795Y-74443888D02*
X85614577Y-74466371D01*
X80429100Y-73135816D02*
X79504184Y-72210900D01*
X85644458Y-74496252D02*
X85666941Y-74532034D01*
X85685629Y-74613914D02*
X85685629Y-74642886D01*
X85680898Y-74684878D02*
X85666941Y-74724765D01*
X85644458Y-74760547D02*
X85614577Y-74790428D01*
X85614577Y-74790428D02*
X85578795Y-74812911D01*
X85578795Y-74812911D02*
X85538908Y-74826868D01*
X85286212Y-74831600D02*
X85171544Y-74844519D01*
X85062627Y-74882631D02*
X84964921Y-74944024D01*
X84964921Y-74944024D02*
X84883325Y-75025620D01*
X84883325Y-75025620D02*
X84821932Y-75123326D01*
X84821932Y-75123326D02*
X84783820Y-75232243D01*
X84783820Y-75232243D02*
X84770900Y-75346911D01*
X84770900Y-78435816D02*
X82845816Y-80360900D01*
X82845816Y-80360900D02*
X80874184Y-80360900D01*
X80874184Y-80360900D02*
X80429100Y-79915816D01*
X72320900Y-74035816D02*
X72320900Y-76054100D01*
X87186477Y-67125300D02*
X86247147Y-67125300D01*
X86561683Y-69417916D02*
X86593493Y-69327009D01*
X72750000Y-82750000D02*
X72750000Y-83875000D01*
X72750000Y-83875000D02*
X72679100Y-83945900D01*
X73973674Y-84587377D02*
X73991545Y-84615818D01*
X74262800Y-84830900D02*
X74296178Y-84827140D01*
X85910881Y-63106037D02*
X85978984Y-63037934D01*
X87282289Y-62867691D02*
X87284754Y-62845823D01*
X74762723Y-84563626D02*
X74786474Y-84587377D01*
X85978984Y-63973065D02*
X85910881Y-63904962D01*
X73614854Y-84615818D02*
X73632725Y-84587377D01*
X72679100Y-83945900D02*
X72679100Y-84465816D01*
X74969200Y-84830900D02*
X82475816Y-84830900D01*
X87275021Y-68732759D02*
X87263313Y-68714125D01*
X87284754Y-68985246D02*
X87284754Y-68775400D01*
X73515082Y-84816046D02*
X73543523Y-84798175D01*
X72679100Y-84465816D02*
X73044184Y-84830900D01*
X85859640Y-68411013D02*
X85827830Y-68320106D01*
X87247751Y-68698563D02*
X87229117Y-68686855D01*
X73603760Y-84647522D02*
X73614854Y-84615818D01*
X73889778Y-84534661D02*
X73921482Y-84545755D01*
X73856400Y-84530900D02*
X73889778Y-84534661D01*
X73044184Y-84830900D02*
X73450000Y-84830900D01*
X74445525Y-84587377D02*
X74469276Y-84563626D01*
X86151440Y-61425683D02*
X86247147Y-61414900D01*
X87208345Y-68679587D02*
X87186477Y-68677123D01*
X86730000Y-68677123D02*
X86730000Y-68654500D01*
X73921482Y-84545755D02*
X73949923Y-84563626D01*
X87186477Y-62944100D02*
X87208345Y-62941635D01*
X73656476Y-84563626D02*
X73684917Y-84545755D01*
X86060533Y-66045093D02*
X86151440Y-66013283D01*
X87186477Y-65596100D02*
X86247147Y-65596100D01*
X74123021Y-84827140D02*
X74156400Y-84830900D01*
X73450000Y-84830900D02*
X73483378Y-84827140D01*
X87229117Y-62934367D02*
X87247751Y-62922659D01*
X73483378Y-84827140D02*
X73515082Y-84816046D01*
X87247751Y-65617540D02*
X87229117Y-65605832D01*
X74702578Y-84534661D02*
X74734282Y-84545755D01*
X87208345Y-64069364D02*
X87186477Y-64066900D01*
X85859640Y-63187586D02*
X85910881Y-63106037D01*
X87247751Y-67510259D02*
X87263313Y-67494697D01*
X87229117Y-67521967D02*
X87247751Y-67510259D01*
X73543523Y-84798175D02*
X73567274Y-84774424D01*
X85817046Y-63374200D02*
X85827830Y-63278493D01*
X86247147Y-68654500D02*
X86151440Y-68643716D01*
X73567274Y-84774424D02*
X73585145Y-84745983D01*
X73585145Y-84745983D02*
X73596239Y-84714279D01*
X74380074Y-84774424D02*
X74397945Y-84745983D01*
X73596239Y-84714279D02*
X73603760Y-84647522D01*
X86712837Y-69177357D02*
X86794386Y-69126116D01*
X73632725Y-84587377D02*
X73656476Y-84563626D01*
X74935821Y-84827140D02*
X74969200Y-84830900D01*
X87186477Y-67531700D02*
X87208345Y-67529235D01*
X87229117Y-69073790D02*
X87247751Y-69062082D01*
X86151440Y-64056116D02*
X86060533Y-64024306D01*
X74021254Y-84745983D02*
X74039125Y-84774424D01*
X87247751Y-69062082D02*
X87263313Y-69046520D01*
X86730000Y-68654500D02*
X86247147Y-68654500D01*
X73684917Y-84545755D02*
X73716621Y-84534661D01*
X74039125Y-84774424D02*
X74062876Y-84798175D01*
X87284754Y-62635977D02*
X87282289Y-62614108D01*
X87275021Y-67476063D02*
X87282289Y-67455291D01*
X85910881Y-62375762D02*
X85859640Y-62294213D01*
X73716621Y-84534661D02*
X73750000Y-84530900D01*
X85827830Y-65261706D02*
X85817046Y-65165999D01*
X73991545Y-84615818D02*
X74002639Y-84647522D01*
X74851925Y-84774424D02*
X74875676Y-84798175D01*
X87263313Y-67162302D02*
X87247751Y-67146740D01*
X73750000Y-84530900D02*
X73856400Y-84530900D01*
X87263313Y-67494697D02*
X87275021Y-67476063D01*
X73949923Y-84563626D02*
X73973674Y-84587377D01*
X86247147Y-62944100D02*
X87186477Y-62944100D01*
X86151440Y-67114516D02*
X86060533Y-67082706D01*
X85910881Y-68492562D02*
X85859640Y-68411013D01*
X74091317Y-84816046D02*
X74123021Y-84827140D01*
X74562800Y-84530900D02*
X74669200Y-84530900D01*
X87208345Y-66000035D02*
X87229117Y-65992767D01*
X74002639Y-84647522D02*
X74010160Y-84714279D01*
X74010160Y-84714279D02*
X74021254Y-84745983D01*
X74062876Y-84798175D02*
X74091317Y-84816046D01*
X74815439Y-84647522D02*
X74822960Y-84714279D01*
X74156400Y-84830900D02*
X74262800Y-84830900D01*
X87247751Y-62922659D02*
X87263313Y-62907097D01*
X74804345Y-84615818D02*
X74815439Y-84647522D01*
X74296178Y-84827140D02*
X74327882Y-84816046D01*
X85827830Y-62203306D02*
X85817046Y-62107599D01*
X85827830Y-61749293D02*
X85859640Y-61658386D01*
X74327882Y-84816046D02*
X74356323Y-84798175D01*
X74356323Y-84798175D02*
X74380074Y-84774424D01*
X86151440Y-64484083D02*
X86247147Y-64473300D01*
X74734282Y-84545755D02*
X74762723Y-84563626D01*
X85817046Y-66695199D02*
X85817046Y-66432600D01*
X87282289Y-69007114D02*
X87284754Y-68985246D01*
X74397945Y-84745983D02*
X74409039Y-84714279D01*
X82475816Y-84830900D02*
X86550900Y-80755816D01*
X85859640Y-61658386D02*
X85910881Y-61576837D01*
X74409039Y-84714279D02*
X74416560Y-84647522D01*
X74416560Y-84647522D02*
X74427654Y-84615818D01*
X74427654Y-84615818D02*
X74445525Y-84587377D01*
X87282289Y-68753531D02*
X87275021Y-68732759D01*
X74822960Y-84714279D02*
X74834054Y-84745983D01*
X85817046Y-62107599D02*
X85817046Y-61845000D01*
X87263313Y-68714125D02*
X87247751Y-68698563D01*
X86060533Y-61457493D02*
X86151440Y-61425683D01*
X74469276Y-84563626D02*
X74497717Y-84545755D01*
X74497717Y-84545755D02*
X74529421Y-84534661D01*
X85910881Y-63904962D02*
X85859640Y-63823413D01*
X74529421Y-84534661D02*
X74562800Y-84530900D01*
X74669200Y-84530900D02*
X74702578Y-84534661D01*
X85859640Y-62294213D02*
X85827830Y-62203306D01*
X74786474Y-84587377D02*
X74804345Y-84615818D01*
X85910881Y-66164437D02*
X85978984Y-66096334D01*
X86795816Y-46200900D02*
X88789100Y-46200900D01*
X74834054Y-84745983D02*
X74851925Y-84774424D01*
X85978984Y-64567134D02*
X86060533Y-64515893D01*
X85910881Y-61576837D02*
X85978984Y-61508734D01*
X86529460Y-61377897D02*
X86541168Y-61359263D01*
X86794386Y-69126116D02*
X86885293Y-69094306D01*
X74875676Y-84798175D02*
X74904117Y-84816046D01*
X86060533Y-64515893D02*
X86151440Y-64484083D01*
X87284754Y-62845823D02*
X87284754Y-62635977D01*
X74904117Y-84816046D02*
X74935821Y-84827140D01*
X86885293Y-69094306D02*
X86981000Y-69083523D01*
X86550900Y-80755816D02*
X86550900Y-69513623D01*
X86550900Y-69513623D02*
X86561683Y-69417916D01*
X85817046Y-63636799D02*
X85817046Y-63374200D01*
X87284754Y-68775400D02*
X87282289Y-68753531D01*
X87282289Y-65926091D02*
X87284754Y-65904223D01*
X87263313Y-62574702D02*
X87247751Y-62559140D01*
X86452623Y-61414900D02*
X86474492Y-61412435D01*
X86593493Y-69327009D02*
X86644734Y-69245460D01*
X85827830Y-66790906D02*
X85817046Y-66695199D01*
X86644734Y-69245460D02*
X86712837Y-69177357D01*
X86981000Y-69083523D02*
X87186477Y-69083523D01*
X86060533Y-67574293D02*
X86151440Y-67542483D01*
X87186477Y-69083523D02*
X87208345Y-69081058D01*
X87275021Y-69027886D02*
X87282289Y-69007114D01*
X87208345Y-69081058D02*
X87229117Y-69073790D01*
X87284754Y-67433423D02*
X87284754Y-67223577D01*
X87263313Y-69046520D02*
X87275021Y-69027886D01*
X87229117Y-68686855D02*
X87208345Y-68679587D01*
X87186477Y-68677123D02*
X86730000Y-68677123D01*
X85910881Y-66963362D02*
X85859640Y-66881813D01*
X86151440Y-68643716D02*
X86060533Y-68611906D01*
X85978984Y-63037934D02*
X86060533Y-62986693D01*
X86060533Y-68611906D02*
X85978984Y-68560665D01*
X85817046Y-68224399D02*
X85817046Y-67961800D01*
X85978984Y-68560665D02*
X85910881Y-68492562D01*
X87275021Y-65651736D02*
X87263313Y-65633102D01*
X87229117Y-67135032D02*
X87208345Y-67127764D01*
X87282289Y-67455291D02*
X87284754Y-67433423D01*
X85827830Y-68320106D02*
X85817046Y-68224399D01*
X85817046Y-67961800D02*
X85827830Y-67866093D01*
X85827830Y-67866093D02*
X85859640Y-67775186D01*
X87229117Y-65605832D02*
X87208345Y-65598564D01*
X87208345Y-67529235D02*
X87229117Y-67521967D01*
X85859640Y-67775186D02*
X85910881Y-67693637D01*
X85910881Y-67693637D02*
X85978984Y-67625534D01*
X85978984Y-67625534D02*
X86060533Y-67574293D01*
X86151440Y-67542483D02*
X86247147Y-67531700D01*
X87284754Y-65904223D02*
X87284754Y-65694377D01*
X87284754Y-64165177D02*
X87282289Y-64143308D01*
X86247147Y-67531700D02*
X87186477Y-67531700D01*
X87284754Y-67223577D02*
X87282289Y-67201708D01*
X87282289Y-67201708D02*
X87275021Y-67180936D01*
X87275021Y-67180936D02*
X87263313Y-67162302D01*
X87247751Y-67146740D02*
X87229117Y-67135032D01*
X87208345Y-67127764D02*
X87186477Y-67125300D01*
X86247147Y-67125300D02*
X86151440Y-67114516D01*
X87275021Y-62888463D02*
X87282289Y-62867691D01*
X86060533Y-67082706D02*
X85978984Y-67031465D01*
X85978984Y-67031465D02*
X85910881Y-66963362D01*
X85859640Y-66881813D02*
X85827830Y-66790906D01*
X85817046Y-66432600D02*
X85827830Y-66336893D01*
X85827830Y-66336893D02*
X85859640Y-66245986D01*
X85859640Y-66245986D02*
X85910881Y-66164437D01*
X85978984Y-66096334D02*
X86060533Y-66045093D01*
X86151440Y-66013283D02*
X86247147Y-66002500D01*
X87208345Y-62540164D02*
X87186477Y-62537700D01*
X86247147Y-66002500D02*
X87186477Y-66002500D01*
X87208345Y-62941635D02*
X87229117Y-62934367D01*
X87186477Y-66002500D02*
X87208345Y-66000035D01*
X87229117Y-65992767D02*
X87247751Y-65981059D01*
X87247751Y-65981059D02*
X87263313Y-65965497D01*
X85827830Y-63732506D02*
X85817046Y-63636799D01*
X87263313Y-65965497D02*
X87275021Y-65946863D01*
X87275021Y-65946863D02*
X87282289Y-65926091D01*
X86550900Y-61316623D02*
X86550900Y-46445816D01*
X87284754Y-65694377D02*
X87282289Y-65672508D01*
X86495264Y-61405167D02*
X86513898Y-61393459D01*
X87282289Y-65672508D02*
X87275021Y-65651736D01*
X87263313Y-65633102D02*
X87247751Y-65617540D01*
X87208345Y-65598564D02*
X87186477Y-65596100D01*
X86247147Y-65596100D02*
X86151440Y-65585316D01*
X86247147Y-64066900D02*
X86151440Y-64056116D01*
X86151440Y-65585316D02*
X86060533Y-65553506D01*
X86060533Y-65553506D02*
X85978984Y-65502265D01*
X85978984Y-65502265D02*
X85910881Y-65434162D01*
X85910881Y-65434162D02*
X85859640Y-65352613D01*
X87263313Y-62907097D02*
X87275021Y-62888463D01*
X85859640Y-65352613D02*
X85827830Y-65261706D01*
X85817046Y-65165999D02*
X85817046Y-64903400D01*
X85817046Y-64903400D02*
X85827830Y-64807693D01*
X86060533Y-62495106D02*
X85978984Y-62443865D01*
X85827830Y-64807693D02*
X85859640Y-64716786D01*
X85859640Y-64716786D02*
X85910881Y-64635237D01*
X85910881Y-64635237D02*
X85978984Y-64567134D01*
X86247147Y-64473300D02*
X87186477Y-64473300D01*
X87186477Y-64473300D02*
X87208345Y-64470835D01*
X87208345Y-64470835D02*
X87229117Y-64463567D01*
X87229117Y-64463567D02*
X87247751Y-64451859D01*
X87247751Y-64451859D02*
X87263313Y-64436297D01*
X87263313Y-64436297D02*
X87275021Y-64417663D01*
X87275021Y-64417663D02*
X87282289Y-64396891D01*
X87282289Y-64396891D02*
X87284754Y-64375023D01*
X87284754Y-64375023D02*
X87284754Y-64165177D01*
X87282289Y-64143308D02*
X87275021Y-64122536D01*
X87275021Y-64122536D02*
X87263313Y-64103902D01*
X87263313Y-64103902D02*
X87247751Y-64088340D01*
X87247751Y-64088340D02*
X87229117Y-64076632D01*
X87186477Y-62537700D02*
X86247147Y-62537700D01*
X87229117Y-64076632D02*
X87208345Y-64069364D01*
X87186477Y-64066900D02*
X86247147Y-64066900D01*
X86060533Y-64024306D02*
X85978984Y-63973065D01*
X85859640Y-63823413D02*
X85827830Y-63732506D01*
X85827830Y-63278493D02*
X85859640Y-63187586D01*
X86060533Y-62986693D02*
X86151440Y-62954883D01*
X87275021Y-62593336D02*
X87263313Y-62574702D01*
X86151440Y-62954883D02*
X86247147Y-62944100D01*
X87282289Y-62614108D02*
X87275021Y-62593336D01*
X87247751Y-62559140D02*
X87229117Y-62547432D01*
X86247147Y-61414900D02*
X86452623Y-61414900D01*
X88789100Y-46200900D02*
X89290000Y-45700000D01*
X87229117Y-62547432D02*
X87208345Y-62540164D01*
X86247147Y-62537700D02*
X86151440Y-62526916D01*
X86151440Y-62526916D02*
X86060533Y-62495106D01*
X85978984Y-62443865D02*
X85910881Y-62375762D01*
X85817046Y-61845000D02*
X85827830Y-61749293D01*
X85978984Y-61508734D02*
X86060533Y-61457493D01*
X86474492Y-61412435D02*
X86495264Y-61405167D01*
X86513898Y-61393459D02*
X86529460Y-61377897D01*
X86541168Y-61359263D02*
X86548436Y-61338491D01*
X86548436Y-61338491D02*
X86550900Y-61316623D01*
X86550900Y-46445816D02*
X86795816Y-46200900D01*
X72679100Y-76054100D02*
X72679100Y-74184184D01*
X72750000Y-77250000D02*
X72750000Y-76125000D01*
X85931405Y-74261020D02*
X85849809Y-74179424D01*
X85849809Y-72650224D02*
X85752103Y-72588831D01*
X75476778Y-72569100D02*
X79355816Y-72569100D01*
X74896849Y-72940414D02*
X74936361Y-72965241D01*
X75289025Y-72687072D02*
X75313852Y-72647560D01*
X84222354Y-73665694D02*
X84267571Y-73660600D01*
X75346849Y-72614563D02*
X75386361Y-72589736D01*
X84140877Y-74022668D02*
X84108702Y-73990493D01*
X85849809Y-74179424D02*
X85752103Y-74118031D01*
X72750000Y-76125000D02*
X72679100Y-76054100D01*
X74656370Y-72574324D02*
X74700416Y-72589736D01*
X74797752Y-72687072D02*
X74813164Y-72731118D01*
X74863852Y-72907417D02*
X74896849Y-72940414D01*
X72679100Y-74184184D02*
X74294184Y-72569100D01*
X74294184Y-72569100D02*
X74610000Y-72569100D01*
X85992798Y-74358726D02*
X85931405Y-74261020D01*
X74610000Y-72569100D02*
X74656370Y-72574324D01*
X81289100Y-45855816D02*
X81289100Y-45845815D01*
X79355816Y-72569100D02*
X80070900Y-73284184D01*
X74700416Y-72589736D02*
X74739928Y-72614563D01*
X84600139Y-72131400D02*
X84717844Y-72118137D01*
X85931405Y-74995779D02*
X85992798Y-74898073D01*
X85643186Y-75176880D02*
X85752103Y-75138768D01*
X85129100Y-78584184D02*
X85129100Y-75378514D01*
X74739928Y-72614563D02*
X74772925Y-72647560D01*
X83974184Y-46270900D02*
X81704184Y-46270900D01*
X75060000Y-72985878D02*
X75106370Y-72980653D01*
X85115837Y-71720144D02*
X85129100Y-71602439D01*
X80625314Y-45094686D02*
X80740000Y-44980000D01*
X85235935Y-75208488D02*
X85275822Y-75194531D01*
X74772925Y-72647560D02*
X74797752Y-72687072D01*
X74813164Y-72731118D02*
X74823613Y-72823859D01*
X80070900Y-73284184D02*
X80070900Y-80064184D01*
X74823613Y-72823859D02*
X74839025Y-72867905D01*
X75222925Y-72907417D02*
X75247752Y-72867905D01*
X74839025Y-72867905D02*
X74863852Y-72907417D01*
X75150416Y-72965241D02*
X75189928Y-72940414D01*
X74936361Y-72965241D02*
X74980407Y-72980653D01*
X85317814Y-75189800D02*
X85528518Y-75189800D01*
X85643186Y-72550719D02*
X85528518Y-72537800D01*
X75263164Y-72823859D02*
X75273613Y-72731118D01*
X74980407Y-72980653D02*
X75026778Y-72985878D01*
X75106370Y-72980653D02*
X75150416Y-72965241D01*
X85147789Y-75296634D02*
X85170272Y-75260852D01*
X75026778Y-72985878D02*
X75060000Y-72985878D01*
X75189928Y-72940414D02*
X75222925Y-72907417D01*
X84108702Y-73990493D02*
X84084494Y-73951965D01*
X75247752Y-72867905D02*
X75263164Y-72823859D01*
X84069465Y-73909016D02*
X84064371Y-73863800D01*
X85752103Y-74118031D02*
X85643186Y-74079919D01*
X75273613Y-72731118D02*
X75289025Y-72687072D01*
X86030910Y-73259956D02*
X86043829Y-73145288D01*
X75313852Y-72647560D02*
X75346849Y-72614563D01*
X75386361Y-72589736D02*
X75430407Y-72574324D01*
X84222354Y-74061905D02*
X84179405Y-74046876D01*
X86043829Y-73053111D02*
X86030910Y-72938443D01*
X75430407Y-72574324D02*
X75476778Y-72569100D01*
X80070900Y-80064184D02*
X80725816Y-80719100D01*
X86030910Y-74789156D02*
X86043829Y-74674488D01*
X84267571Y-74067000D02*
X84222354Y-74061905D01*
X80725816Y-80719100D02*
X82994184Y-80719100D01*
X84179405Y-74046876D02*
X84140877Y-74022668D01*
X85129100Y-75378514D02*
X85133832Y-75336521D01*
X82994184Y-80719100D02*
X85129100Y-78584184D01*
X85752103Y-73609568D02*
X85849809Y-73548175D01*
X84179405Y-72151523D02*
X84222354Y-72136494D01*
X85133832Y-75336521D02*
X85147789Y-75296634D01*
X85992798Y-72829526D02*
X85931405Y-72731820D01*
X85170272Y-75260852D02*
X85200153Y-75230971D01*
X85931405Y-72731820D02*
X85849809Y-72650224D01*
X86030910Y-74467643D02*
X85992798Y-74358726D01*
X85200153Y-75230971D02*
X85235935Y-75208488D01*
X84179405Y-72517676D02*
X84140877Y-72493468D01*
X85275822Y-75194531D02*
X85317814Y-75189800D01*
X86043829Y-73145288D02*
X86043829Y-73053111D01*
X85528518Y-75189800D02*
X85643186Y-75176880D01*
X85849809Y-73548175D02*
X85931405Y-73466579D01*
X85752103Y-75138768D02*
X85849809Y-75077375D01*
X85528518Y-72537800D02*
X84267571Y-72537800D01*
X80625314Y-45182029D02*
X80625314Y-45094686D01*
X85849809Y-75077375D02*
X85931405Y-74995779D01*
X85931405Y-73466579D02*
X85992798Y-73368873D01*
X85076716Y-71831946D02*
X85115837Y-71720144D01*
X85992798Y-74898073D02*
X86030910Y-74789156D01*
X85528518Y-74067000D02*
X84267571Y-74067000D01*
X86043829Y-74674488D02*
X86043829Y-74582311D01*
X84140877Y-72493468D02*
X84108702Y-72461293D01*
X86043829Y-74582311D02*
X86030910Y-74467643D01*
X84064371Y-73863800D02*
X84069465Y-73818583D01*
X85643186Y-74079919D02*
X85528518Y-74067000D01*
X84084494Y-73951965D02*
X84069465Y-73909016D01*
X84267571Y-72131400D02*
X84600139Y-72131400D01*
X84069465Y-73818583D02*
X84084494Y-73775634D01*
X84929940Y-72015997D02*
X85013697Y-71932240D01*
X84084494Y-73775634D02*
X84108702Y-73737106D01*
X84108702Y-73737106D02*
X84140877Y-73704931D01*
X84140877Y-73704931D02*
X84179405Y-73680723D01*
X84179405Y-73680723D02*
X84222354Y-73665694D01*
X84267571Y-73660600D02*
X85528518Y-73660600D01*
X85528518Y-73660600D02*
X85643186Y-73647680D01*
X85643186Y-73647680D02*
X85752103Y-73609568D01*
X84064371Y-72334600D02*
X84069465Y-72289383D01*
X85992798Y-73368873D02*
X86030910Y-73259956D01*
X84717844Y-72118137D02*
X84829646Y-72079016D01*
X86030910Y-72938443D02*
X85992798Y-72829526D01*
X85752103Y-72588831D02*
X85643186Y-72550719D01*
X84267571Y-72537800D02*
X84222354Y-72532705D01*
X84222354Y-72532705D02*
X84179405Y-72517676D01*
X84108702Y-72461293D02*
X84084494Y-72422765D01*
X84084494Y-72422765D02*
X84069465Y-72379816D01*
X84069465Y-72379816D02*
X84064371Y-72334600D01*
X84069465Y-72289383D02*
X84084494Y-72246434D01*
X84108702Y-72207906D02*
X84140877Y-72175731D01*
X84084494Y-72246434D02*
X84108702Y-72207906D01*
X84140877Y-72175731D02*
X84179405Y-72151523D01*
X84222354Y-72136494D02*
X84267571Y-72131400D01*
X84829646Y-72079016D02*
X84929940Y-72015997D01*
X85013697Y-71932240D02*
X85076716Y-71831946D01*
X85129100Y-71602439D02*
X85129100Y-47425816D01*
X85129100Y-47425816D02*
X83974184Y-46270900D01*
X81704184Y-46270900D02*
X81289100Y-45855816D01*
X81289100Y-45845815D02*
X80625314Y-45182029D01*
D18*
X75110000Y-84150000D02*
X75290000Y-84330000D01*
X75290000Y-84330000D02*
X76210000Y-84330000D01*
X76210000Y-84330000D02*
X76320000Y-84220000D01*
X73750000Y-82750000D02*
X73750000Y-83620000D01*
X73750000Y-83620000D02*
X74280000Y-84150000D01*
X74280000Y-84150000D02*
X75110000Y-84150000D01*
D16*
X75560000Y-83550000D02*
X77670000Y-83550000D01*
D15*
X75370000Y-83740000D02*
X75560000Y-83550000D01*
X74800000Y-83740000D02*
X75370000Y-83740000D01*
D16*
X77670000Y-83550000D02*
X78210000Y-84090000D01*
X78210000Y-84090000D02*
X78230000Y-84110000D01*
D15*
X74750000Y-82750000D02*
X74750000Y-83740000D01*
X74800000Y-83730000D02*
X74800000Y-83740000D01*
X74760000Y-83730000D02*
X74800000Y-83730000D01*
X74750000Y-83740000D02*
X74760000Y-83730000D01*
X74250000Y-82750000D02*
X74250000Y-83530000D01*
X74460000Y-83740000D02*
X74800000Y-83740000D01*
X74250000Y-83530000D02*
X74460000Y-83740000D01*
X74250000Y-77250000D02*
X74250000Y-76160000D01*
X74850000Y-75560000D02*
X75360000Y-75560000D01*
X74250000Y-76160000D02*
X74850000Y-75560000D01*
X74750000Y-77250000D02*
X74750000Y-76420000D01*
X75360000Y-75810000D02*
X75360000Y-75560000D01*
X74750000Y-76420000D02*
X75360000Y-75810000D01*
D17*
X75360000Y-75560000D02*
X75350000Y-75570000D01*
D18*
X66250000Y-82750000D02*
X66250000Y-83530000D01*
X66250000Y-83530000D02*
X64780000Y-85000000D01*
X64780000Y-85000000D02*
X64780000Y-85280000D01*
X65750000Y-82750000D02*
X65750000Y-83400000D01*
X65750000Y-83400000D02*
X64640000Y-84510000D01*
X64640000Y-84510000D02*
X63630000Y-84510000D01*
X65250000Y-82750000D02*
X65250000Y-83610000D01*
X65250000Y-83610000D02*
X64990000Y-83870000D01*
X64990000Y-83870000D02*
X64110000Y-83870000D01*
X64870000Y-75350000D02*
X64980000Y-75350000D01*
X64980000Y-75350000D02*
X65320000Y-75010000D01*
X65320000Y-75010000D02*
X65320000Y-74790000D01*
X66410000Y-71750000D02*
X70010000Y-68150000D01*
X70010000Y-68150000D02*
X70270000Y-68150000D01*
X65750000Y-77250000D02*
X65750000Y-76230000D01*
X65750000Y-76230000D02*
X64870000Y-75350000D01*
X64870000Y-75350000D02*
X64840000Y-75320000D01*
X64840000Y-75320000D02*
X64340000Y-75320000D01*
X65250000Y-77250000D02*
X65250000Y-76310000D01*
X65250000Y-76310000D02*
X65070000Y-76130000D01*
X65070000Y-76130000D02*
X64320000Y-76130000D01*
X70250000Y-77250000D02*
X70250000Y-75980000D01*
X70250000Y-75980000D02*
X70180000Y-75910000D01*
X70180000Y-75910000D02*
X70180000Y-75060000D01*
D19*
X69250000Y-77250000D02*
X69250000Y-74000000D01*
X69250000Y-74000000D02*
X69000000Y-73750000D01*
X89250000Y-54500000D02*
X89250000Y-56500000D01*
X89250000Y-58500000D02*
X89250000Y-60500000D01*
X89250000Y-62500000D02*
X89250000Y-64500000D01*
X89250000Y-66500000D02*
X89250000Y-68500000D01*
D16*
X89220000Y-50060000D02*
X89220000Y-52100000D01*
X89220000Y-52100000D02*
X89230000Y-52110000D01*
D20*
X87500000Y-51800000D02*
X87475000Y-51800000D01*
D15*
X93000000Y-56500000D02*
X93000000Y-54500000D01*
X93000000Y-52500000D02*
X93000000Y-51000000D01*
X93000000Y-68500000D02*
X93000000Y-66500000D01*
X93000000Y-64500000D02*
X93000000Y-62500000D01*
X93000000Y-60500000D02*
X93000000Y-58500000D01*
X92370000Y-81580000D02*
X92370000Y-79130000D01*
X92370000Y-79130000D02*
X93000000Y-78500000D01*
X93000000Y-76500000D02*
X93000000Y-74500000D01*
X93000000Y-72500000D02*
X93000000Y-70500000D01*
X83530000Y-82640000D02*
X79710000Y-82640000D01*
D21*
X77000000Y-81170000D02*
X77570000Y-81740000D01*
X77570000Y-81740000D02*
X78810000Y-81740000D01*
X77000000Y-81170000D02*
X77000000Y-80000000D01*
D15*
X79710000Y-82640000D02*
X78810000Y-81740000D01*
X87050000Y-81800000D02*
X85010000Y-83840000D01*
X85010000Y-83840000D02*
X85010000Y-83930000D01*
X84860000Y-81310000D02*
X84990000Y-81310000D01*
X83530000Y-82640000D02*
X84860000Y-81310000D01*
X80040000Y-84060000D02*
X82220000Y-84060000D01*
X79960000Y-84140000D02*
X80040000Y-84060000D01*
X88760000Y-84760000D02*
X88760000Y-84660000D01*
X88760000Y-84660000D02*
X90130000Y-83290000D01*
X90295000Y-86035000D02*
X90300000Y-86040000D01*
X68380000Y-85310000D02*
X68380000Y-87600000D01*
X92370000Y-83990000D02*
X92370000Y-81580000D01*
X91960000Y-84400000D02*
X92370000Y-83990000D01*
X87820000Y-88510000D02*
X88350000Y-87980000D01*
X69290000Y-88510000D02*
X87820000Y-88510000D01*
X68380000Y-87600000D02*
X69290000Y-88510000D01*
X68250000Y-82750000D02*
X68250000Y-84280000D01*
X68380000Y-85310000D02*
X67900000Y-85790000D01*
X68380000Y-84410000D02*
X68380000Y-85310000D01*
X68250000Y-84280000D02*
X68380000Y-84410000D01*
D16*
X71750000Y-74890000D02*
X71750000Y-73780000D01*
D15*
X71750000Y-77250000D02*
X71750000Y-74890000D01*
D16*
X75600000Y-69860000D02*
X80860000Y-69860000D01*
X74300000Y-71160000D02*
X75600000Y-69860000D01*
X72700000Y-72830000D02*
X72700000Y-72160000D01*
X71750000Y-73780000D02*
X72700000Y-72830000D01*
D21*
X78290000Y-78270000D02*
X78290000Y-77690000D01*
X77000000Y-79560000D02*
X78290000Y-78270000D01*
D15*
X81280000Y-73750000D02*
X81330000Y-73700000D01*
X81330000Y-73700000D02*
X82970000Y-73700000D01*
X84040000Y-77310000D02*
X83940000Y-77210000D01*
X83940000Y-77210000D02*
X81200000Y-77210000D01*
X77070000Y-73630000D02*
X79280000Y-73630000D01*
X79280000Y-73630000D02*
X79350000Y-73700000D01*
X73250000Y-77250000D02*
X73250000Y-75190000D01*
X74810000Y-73630000D02*
X77070000Y-73630000D01*
X73250000Y-75190000D02*
X74810000Y-73630000D01*
D21*
X77000000Y-80000000D02*
X77000000Y-79560000D01*
D18*
X73250000Y-82750000D02*
X73250000Y-84020000D01*
X73250000Y-84020000D02*
X73310000Y-84080000D01*
D16*
X64210000Y-69990000D02*
X64170000Y-69950000D01*
X64170000Y-69950000D02*
X60980000Y-69950000D01*
D21*
X83470000Y-57850000D02*
X82910000Y-58410000D01*
X83470000Y-55750000D02*
X83470000Y-54370000D01*
X83100000Y-54000000D02*
X83470000Y-54370000D01*
X83470000Y-55750000D02*
X83470000Y-57850000D01*
D15*
X67250000Y-77250000D02*
X67250000Y-76210000D01*
X67250000Y-76210000D02*
X67120000Y-76080000D01*
X67120000Y-76080000D02*
X67120000Y-74720000D01*
D22*
G36*
X94625000Y-88625000D02*
X55375000Y-88625000D01*
X55375000Y-80306000D01*
X61692000Y-80306000D01*
X61692000Y-81170938D01*
X61784562Y-81394404D01*
X61955595Y-81565437D01*
X62179061Y-81658000D01*
X62694000Y-81658000D01*
X62846000Y-81506000D01*
X62846000Y-80154000D01*
X63154000Y-80154000D01*
X63154000Y-81506000D01*
X63306000Y-81658000D01*
X63450816Y-81658000D01*
X63400104Y-81780129D01*
X63399896Y-82018824D01*
X63491048Y-82239429D01*
X63659683Y-82408359D01*
X63880129Y-82499896D01*
X64118824Y-82500104D01*
X64339429Y-82408952D01*
X64508359Y-82240317D01*
X64517000Y-82219507D01*
X64517000Y-82444000D01*
X64669000Y-82596000D01*
X65875000Y-82596000D01*
X65875000Y-82904000D01*
X64669000Y-82904000D01*
X64517000Y-83056000D01*
X64517000Y-83620938D01*
X64609562Y-83844404D01*
X64780595Y-84015437D01*
X65004061Y-84108000D01*
X65035500Y-84108000D01*
X65187500Y-83956000D01*
X65187500Y-83922342D01*
X65280595Y-84015437D01*
X65436526Y-84080026D01*
X65464500Y-84108000D01*
X65495939Y-84108000D01*
X65500000Y-84106318D01*
X65504061Y-84108000D01*
X65535500Y-84108000D01*
X65563474Y-84080026D01*
X65719405Y-84015437D01*
X65750000Y-83984842D01*
X65780595Y-84015437D01*
X65875535Y-84054762D01*
X65773164Y-84123164D01*
X65363164Y-84533164D01*
X65256837Y-84692294D01*
X65219500Y-84880000D01*
X65219500Y-85350558D01*
X65116915Y-85452964D01*
X65010122Y-85710150D01*
X65009879Y-85988628D01*
X65116223Y-86246000D01*
X65312964Y-86443085D01*
X65570150Y-86549878D01*
X65848628Y-86550121D01*
X66106000Y-86443777D01*
X66303085Y-86247036D01*
X66409878Y-85989850D01*
X66410121Y-85711372D01*
X66303777Y-85454000D01*
X66200500Y-85350542D01*
X66200500Y-85083172D01*
X66221515Y-85062157D01*
X66241048Y-85109429D01*
X66409683Y-85278359D01*
X66630129Y-85369896D01*
X66868824Y-85370104D01*
X67089429Y-85278952D01*
X67190036Y-85178520D01*
X67299683Y-85288359D01*
X67520129Y-85379896D01*
X67758824Y-85380104D01*
X67979429Y-85288952D01*
X68148359Y-85120317D01*
X68239896Y-84899871D01*
X68240104Y-84661176D01*
X68148952Y-84440571D01*
X68125000Y-84416577D01*
X68125000Y-84018500D01*
X68187500Y-83956000D01*
X68187500Y-82904000D01*
X68180877Y-82904000D01*
X68180877Y-82596000D01*
X68187500Y-82596000D01*
X68187500Y-81544000D01*
X68312500Y-81544000D01*
X68312500Y-82596000D01*
X68319123Y-82596000D01*
X68319123Y-82904000D01*
X68312500Y-82904000D01*
X68312500Y-83956000D01*
X68377427Y-84020927D01*
X68378970Y-84028686D01*
X68419300Y-84089044D01*
X68419300Y-87014184D01*
X68449870Y-87167870D01*
X68536926Y-87298158D01*
X69541842Y-88303074D01*
X69672130Y-88390130D01*
X69825816Y-88420700D01*
X87204184Y-88420700D01*
X87357870Y-88390130D01*
X87488158Y-88303074D01*
X91973074Y-83818158D01*
X91982838Y-83803545D01*
X92060130Y-83687870D01*
X92090700Y-83534184D01*
X92090700Y-50310700D01*
X92111331Y-50310700D01*
X92181048Y-50479429D01*
X92349683Y-50648359D01*
X92570129Y-50739896D01*
X92808824Y-50740104D01*
X93029429Y-50648952D01*
X93198359Y-50480317D01*
X93289896Y-50259871D01*
X93290104Y-50021176D01*
X93227861Y-49870535D01*
X93388359Y-49710317D01*
X93479896Y-49489871D01*
X93480104Y-49251176D01*
X93388952Y-49030571D01*
X93220317Y-48861641D01*
X92999871Y-48770104D01*
X92761176Y-48769896D01*
X92676794Y-48804762D01*
X92608952Y-48640571D01*
X92440317Y-48471641D01*
X92401818Y-48455655D01*
X92449896Y-48339871D01*
X92450104Y-48101176D01*
X92358952Y-47880571D01*
X92190317Y-47711641D01*
X91969871Y-47620104D01*
X91731176Y-47619896D01*
X91626945Y-47662963D01*
X91627036Y-47558108D01*
X91535884Y-47337503D01*
X91367249Y-47168573D01*
X91146803Y-47077036D01*
X91093126Y-47076989D01*
X91093172Y-47024244D01*
X91002020Y-46803639D01*
X90833385Y-46634709D01*
X90612939Y-46543172D01*
X90374244Y-46542964D01*
X90153639Y-46634116D01*
X90026272Y-46761261D01*
X90109896Y-46559871D01*
X90110104Y-46321176D01*
X90018952Y-46100571D01*
X89850317Y-45931641D01*
X89844490Y-45929221D01*
X89889896Y-45819871D01*
X89890104Y-45581176D01*
X89798952Y-45360571D01*
X89630317Y-45191641D01*
X89409871Y-45100104D01*
X89171176Y-45099896D01*
X88950571Y-45191048D01*
X88781641Y-45359683D01*
X88690104Y-45580129D01*
X88689972Y-45732080D01*
X88622752Y-45799300D01*
X86795816Y-45799300D01*
X86642131Y-45829869D01*
X86511842Y-45916926D01*
X86266926Y-46161842D01*
X86179870Y-46292130D01*
X86149300Y-46445816D01*
X86149300Y-61021783D01*
X86106477Y-61026608D01*
X86063480Y-61040312D01*
X86018799Y-61046620D01*
X85927892Y-61078430D01*
X85889028Y-61101356D01*
X85846868Y-61117449D01*
X85765319Y-61168690D01*
X85732529Y-61199690D01*
X85695010Y-61224760D01*
X85626907Y-61292863D01*
X85601838Y-61330381D01*
X85570837Y-61363172D01*
X85530700Y-61427049D01*
X85530700Y-47425816D01*
X85500130Y-47272130D01*
X85413074Y-47141842D01*
X84258158Y-45986926D01*
X84186360Y-45938952D01*
X84127870Y-45899870D01*
X83974184Y-45869300D01*
X81870532Y-45869300D01*
X81593213Y-45591981D01*
X81573074Y-45561841D01*
X81272768Y-45261535D01*
X81339896Y-45099871D01*
X81340104Y-44861176D01*
X81248952Y-44640571D01*
X81080317Y-44471641D01*
X80859871Y-44380104D01*
X80621176Y-44379896D01*
X80400571Y-44471048D01*
X80231641Y-44639683D01*
X80143350Y-44852311D01*
X80089871Y-44830104D01*
X79851176Y-44829896D01*
X79630571Y-44921048D01*
X79461641Y-45089683D01*
X79370104Y-45310129D01*
X79369896Y-45548824D01*
X79461048Y-45769429D01*
X79629683Y-45938359D01*
X79850129Y-46029896D01*
X80088824Y-46030104D01*
X80308219Y-45939452D01*
X80626792Y-46258025D01*
X80646926Y-46288158D01*
X81271842Y-46913074D01*
X81402130Y-47000130D01*
X81555816Y-47030700D01*
X83659468Y-47030700D01*
X84369300Y-47740532D01*
X84369300Y-71371600D01*
X84235131Y-71371600D01*
X84212827Y-71376036D01*
X84190167Y-71374125D01*
X84072462Y-71387387D01*
X84029468Y-71401090D01*
X83984787Y-71407398D01*
X83872985Y-71446519D01*
X83834118Y-71469446D01*
X83791959Y-71485539D01*
X83691666Y-71548558D01*
X83658877Y-71579558D01*
X83621356Y-71604628D01*
X83537599Y-71688385D01*
X83512530Y-71725903D01*
X83481528Y-71758695D01*
X83418510Y-71858989D01*
X83402419Y-71901143D01*
X83379490Y-71940013D01*
X83340369Y-72051816D01*
X83334061Y-72096496D01*
X83320358Y-72139490D01*
X83307096Y-72257196D01*
X83309007Y-72279856D01*
X83304571Y-72302160D01*
X83304571Y-72367039D01*
X83309007Y-72389343D01*
X83307096Y-72412003D01*
X83320358Y-72529709D01*
X83334061Y-72572703D01*
X83340369Y-72617383D01*
X83379490Y-72729186D01*
X83402419Y-72768056D01*
X83418510Y-72810210D01*
X83481528Y-72910504D01*
X83512530Y-72943296D01*
X83537599Y-72980814D01*
X83621356Y-73064571D01*
X83658877Y-73089641D01*
X83668986Y-73099200D01*
X83658877Y-73108758D01*
X83621356Y-73133828D01*
X83537599Y-73217585D01*
X83512530Y-73255103D01*
X83481528Y-73287895D01*
X83418510Y-73388189D01*
X83402419Y-73430343D01*
X83379490Y-73469213D01*
X83340369Y-73581016D01*
X83334061Y-73625696D01*
X83320358Y-73668690D01*
X83307096Y-73786396D01*
X83309007Y-73809056D01*
X83304571Y-73831360D01*
X83304571Y-73896239D01*
X83309007Y-73918543D01*
X83307096Y-73941203D01*
X83320358Y-74058909D01*
X83334061Y-74101903D01*
X83340369Y-74146583D01*
X83379490Y-74258386D01*
X83402419Y-74297256D01*
X83418510Y-74339410D01*
X83481528Y-74439704D01*
X83512530Y-74472496D01*
X83537599Y-74510014D01*
X83621356Y-74593771D01*
X83658877Y-74618841D01*
X83691666Y-74649841D01*
X83791959Y-74712860D01*
X83834118Y-74728953D01*
X83872985Y-74751880D01*
X83984787Y-74791001D01*
X84029465Y-74797308D01*
X84072458Y-74811012D01*
X84190163Y-74824275D01*
X84212827Y-74822363D01*
X84235131Y-74826800D01*
X84533953Y-74826800D01*
X84481888Y-74909661D01*
X84465795Y-74951820D01*
X84442869Y-74990685D01*
X84404757Y-75099602D01*
X84398449Y-75144281D01*
X84384745Y-75187278D01*
X84371825Y-75301946D01*
X84373737Y-75324607D01*
X84369300Y-75346911D01*
X84369300Y-78269468D01*
X82679468Y-79959300D01*
X81040532Y-79959300D01*
X80830700Y-79749468D01*
X80830700Y-73135816D01*
X80800130Y-72982130D01*
X80713074Y-72851842D01*
X79788158Y-71926926D01*
X79770230Y-71914947D01*
X79657870Y-71839870D01*
X79504184Y-71809300D01*
X74145816Y-71809300D01*
X73992130Y-71839870D01*
X73879770Y-71914947D01*
X73861842Y-71926926D01*
X72036926Y-73751842D01*
X71949870Y-73882130D01*
X71919300Y-74035816D01*
X71919300Y-75910956D01*
X71878970Y-75971314D01*
X71877427Y-75979073D01*
X71812500Y-76044000D01*
X71812500Y-77096000D01*
X71819123Y-77096000D01*
X71819123Y-77404000D01*
X71812500Y-77404000D01*
X71812500Y-78456000D01*
X71964500Y-78608000D01*
X71995939Y-78608000D01*
X72219405Y-78515437D01*
X72390438Y-78344404D01*
X72409050Y-78299470D01*
X72486173Y-78284958D01*
X72498779Y-78276846D01*
X72505997Y-78281778D01*
X72590729Y-78298937D01*
X72609562Y-78344404D01*
X72780595Y-78515437D01*
X73004061Y-78608000D01*
X73035500Y-78608000D01*
X73187500Y-78456000D01*
X73187500Y-77404000D01*
X73180877Y-77404000D01*
X73180877Y-77096000D01*
X73187500Y-77096000D01*
X73187500Y-76044000D01*
X73312500Y-76044000D01*
X73312500Y-77096000D01*
X73319123Y-77096000D01*
X73319123Y-77404000D01*
X73312500Y-77404000D01*
X73312500Y-78456000D01*
X73464500Y-78608000D01*
X73495939Y-78608000D01*
X73719405Y-78515437D01*
X73890438Y-78344404D01*
X73909050Y-78299470D01*
X73986173Y-78284958D01*
X73998779Y-78276846D01*
X74005997Y-78281778D01*
X74125000Y-78305877D01*
X74375000Y-78305877D01*
X74486173Y-78284958D01*
X74498779Y-78276846D01*
X74505997Y-78281778D01*
X74625000Y-78305877D01*
X74875000Y-78305877D01*
X74986173Y-78284958D01*
X75088279Y-78219255D01*
X75156778Y-78119003D01*
X75180877Y-78000000D01*
X75180877Y-76592993D01*
X75524395Y-76249474D01*
X75756000Y-76153777D01*
X75953085Y-75957036D01*
X76059878Y-75699850D01*
X76060121Y-75421372D01*
X75953777Y-75164000D01*
X75757036Y-74966915D01*
X75499850Y-74860122D01*
X75221372Y-74859879D01*
X74964000Y-74966223D01*
X74783726Y-75146183D01*
X74686594Y-75165503D01*
X74548065Y-75258065D01*
X74548063Y-75258068D01*
X73948065Y-75858065D01*
X73855503Y-75996594D01*
X73834919Y-76100077D01*
X73719405Y-75984563D01*
X73495939Y-75892000D01*
X73464500Y-75892000D01*
X73312500Y-76044000D01*
X73187500Y-76044000D01*
X73122573Y-75979073D01*
X73121030Y-75971314D01*
X73080700Y-75910956D01*
X73080700Y-74350532D01*
X74452373Y-72978859D01*
X74459961Y-73000543D01*
X74482887Y-73039408D01*
X74498980Y-73081569D01*
X74523808Y-73121081D01*
X74554808Y-73153871D01*
X74579878Y-73191391D01*
X74612875Y-73224388D01*
X74650393Y-73249457D01*
X74683185Y-73280459D01*
X74722698Y-73305286D01*
X74764855Y-73321378D01*
X74803724Y-73344306D01*
X74847770Y-73359718D01*
X74892448Y-73366025D01*
X74935440Y-73379728D01*
X74981811Y-73384953D01*
X75004474Y-73383041D01*
X75026778Y-73387478D01*
X75060000Y-73387478D01*
X75082307Y-73383041D01*
X75104968Y-73384952D01*
X75151338Y-73379728D01*
X75194329Y-73366025D01*
X75239007Y-73359718D01*
X75283054Y-73344305D01*
X75321919Y-73321379D01*
X75364080Y-73305286D01*
X75403592Y-73280458D01*
X75436382Y-73249458D01*
X75473902Y-73224388D01*
X75506899Y-73191391D01*
X75531968Y-73153873D01*
X75562970Y-73121081D01*
X75587797Y-73081568D01*
X75603889Y-73039411D01*
X75626817Y-73000542D01*
X75637259Y-72970700D01*
X79189468Y-72970700D01*
X79669300Y-73450532D01*
X79669300Y-80064184D01*
X79699870Y-80217870D01*
X79784134Y-80343979D01*
X79786926Y-80348158D01*
X80441842Y-81003074D01*
X80572130Y-81090130D01*
X80725816Y-81120700D01*
X82994184Y-81120700D01*
X83147870Y-81090130D01*
X83278158Y-81003074D01*
X85413074Y-78868158D01*
X85500130Y-78737870D01*
X85530700Y-78584184D01*
X85530700Y-75590966D01*
X85550822Y-75586963D01*
X85573483Y-75588875D01*
X85688151Y-75575955D01*
X85731148Y-75562251D01*
X85775827Y-75555943D01*
X85884744Y-75517831D01*
X85923609Y-75494905D01*
X85965768Y-75478812D01*
X86063474Y-75417419D01*
X86096266Y-75386417D01*
X86133783Y-75361349D01*
X86149300Y-75345832D01*
X86149300Y-80589468D01*
X82309468Y-84429300D01*
X78827059Y-84429300D01*
X78909878Y-84229850D01*
X78910121Y-83951372D01*
X78803777Y-83694000D01*
X78607036Y-83496915D01*
X78349850Y-83390122D01*
X78203666Y-83389994D01*
X78016836Y-83203164D01*
X77857706Y-83096837D01*
X77670000Y-83059500D01*
X75560000Y-83059500D01*
X75372294Y-83096837D01*
X75213164Y-83203164D01*
X75180877Y-83251485D01*
X75180877Y-82018824D01*
X75399896Y-82018824D01*
X75491048Y-82239429D01*
X75659683Y-82408359D01*
X75880129Y-82499896D01*
X76118824Y-82500104D01*
X76339429Y-82408952D01*
X76508359Y-82240317D01*
X76599896Y-82019871D01*
X76600104Y-81781176D01*
X76549209Y-81658000D01*
X76694000Y-81658000D01*
X76846000Y-81506000D01*
X76846000Y-80154000D01*
X77154000Y-80154000D01*
X77154000Y-81506000D01*
X77306000Y-81658000D01*
X77820939Y-81658000D01*
X78044405Y-81565437D01*
X78215438Y-81394404D01*
X78308000Y-81170938D01*
X78308000Y-80306000D01*
X78156000Y-80154000D01*
X77154000Y-80154000D01*
X76846000Y-80154000D01*
X75844000Y-80154000D01*
X75692000Y-80306000D01*
X75692000Y-81170938D01*
X75765255Y-81347793D01*
X75660571Y-81391048D01*
X75491641Y-81559683D01*
X75400104Y-81780129D01*
X75399896Y-82018824D01*
X75180877Y-82018824D01*
X75180877Y-82000000D01*
X75159958Y-81888827D01*
X75094255Y-81786721D01*
X74994003Y-81718222D01*
X74875000Y-81694123D01*
X74625000Y-81694123D01*
X74513827Y-81715042D01*
X74501221Y-81723154D01*
X74494003Y-81718222D01*
X74375000Y-81694123D01*
X74125000Y-81694123D01*
X74013827Y-81715042D01*
X74001221Y-81723154D01*
X73994003Y-81718222D01*
X73909271Y-81701063D01*
X73890438Y-81655596D01*
X73719405Y-81484563D01*
X73495939Y-81392000D01*
X73464500Y-81392000D01*
X73312500Y-81544000D01*
X73312500Y-82596000D01*
X73319123Y-82596000D01*
X73319123Y-82904000D01*
X73312500Y-82904000D01*
X73312500Y-83956000D01*
X73464500Y-84108000D01*
X73495939Y-84108000D01*
X73645655Y-84045985D01*
X73732459Y-84132789D01*
X73727696Y-84133736D01*
X73705034Y-84131825D01*
X73671655Y-84135586D01*
X73628657Y-84149291D01*
X73623652Y-84149998D01*
X73617644Y-84149829D01*
X73613417Y-84151443D01*
X73583978Y-84155599D01*
X73552274Y-84166693D01*
X73526666Y-84181799D01*
X73522358Y-84183172D01*
X73517769Y-84187047D01*
X73513410Y-84189618D01*
X73508676Y-84191425D01*
X73502791Y-84192596D01*
X73499035Y-84195106D01*
X73471250Y-84205712D01*
X73442809Y-84223583D01*
X73421204Y-84244010D01*
X73417309Y-84246307D01*
X73413697Y-84251107D01*
X73410019Y-84254584D01*
X73405818Y-84257391D01*
X73400334Y-84259845D01*
X73397227Y-84263131D01*
X73372502Y-84279652D01*
X73348751Y-84303403D01*
X73332229Y-84328130D01*
X73328945Y-84331235D01*
X73326493Y-84336714D01*
X73323682Y-84340922D01*
X73320208Y-84344596D01*
X73315406Y-84348210D01*
X73313107Y-84352107D01*
X73292683Y-84373710D01*
X73274811Y-84402151D01*
X73264448Y-84429300D01*
X73210532Y-84429300D01*
X73080700Y-84299468D01*
X73080700Y-84089044D01*
X73121030Y-84028686D01*
X73122573Y-84020927D01*
X73187500Y-83956000D01*
X73187500Y-82904000D01*
X73180877Y-82904000D01*
X73180877Y-82596000D01*
X73187500Y-82596000D01*
X73187500Y-81544000D01*
X73035500Y-81392000D01*
X73004061Y-81392000D01*
X72780595Y-81484563D01*
X72609562Y-81655596D01*
X72590950Y-81700530D01*
X72513827Y-81715042D01*
X72501221Y-81723154D01*
X72494003Y-81718222D01*
X72375000Y-81694123D01*
X72125000Y-81694123D01*
X72013827Y-81715042D01*
X72001221Y-81723154D01*
X71994003Y-81718222D01*
X71875000Y-81694123D01*
X71625000Y-81694123D01*
X71513827Y-81715042D01*
X71501221Y-81723154D01*
X71494003Y-81718222D01*
X71375000Y-81694123D01*
X71125000Y-81694123D01*
X71013827Y-81715042D01*
X71001221Y-81723154D01*
X70994003Y-81718222D01*
X70875000Y-81694123D01*
X70625000Y-81694123D01*
X70513827Y-81715042D01*
X70501221Y-81723154D01*
X70494003Y-81718222D01*
X70375000Y-81694123D01*
X70125000Y-81694123D01*
X70013827Y-81715042D01*
X70001221Y-81723154D01*
X69994003Y-81718222D01*
X69875000Y-81694123D01*
X69625000Y-81694123D01*
X69513827Y-81715042D01*
X69501221Y-81723154D01*
X69494003Y-81718222D01*
X69375000Y-81694123D01*
X69125000Y-81694123D01*
X69013827Y-81715042D01*
X69001221Y-81723154D01*
X68994003Y-81718222D01*
X68909271Y-81701063D01*
X68890438Y-81655596D01*
X68719405Y-81484563D01*
X68495939Y-81392000D01*
X68464500Y-81392000D01*
X68312500Y-81544000D01*
X68187500Y-81544000D01*
X68035500Y-81392000D01*
X68004061Y-81392000D01*
X67780595Y-81484563D01*
X67609562Y-81655596D01*
X67590950Y-81700530D01*
X67513827Y-81715042D01*
X67501221Y-81723154D01*
X67494003Y-81718222D01*
X67375000Y-81694123D01*
X67125000Y-81694123D01*
X67013827Y-81715042D01*
X67001221Y-81723154D01*
X66994003Y-81718222D01*
X66909271Y-81701063D01*
X66890438Y-81655596D01*
X66719405Y-81484563D01*
X66495939Y-81392000D01*
X66464500Y-81392000D01*
X66312500Y-81544000D01*
X66312500Y-81577658D01*
X66219405Y-81484563D01*
X66063474Y-81419974D01*
X66035500Y-81392000D01*
X66004061Y-81392000D01*
X66000000Y-81393682D01*
X65995939Y-81392000D01*
X65964500Y-81392000D01*
X65936526Y-81419974D01*
X65780595Y-81484563D01*
X65750000Y-81515158D01*
X65719405Y-81484563D01*
X65563474Y-81419974D01*
X65535500Y-81392000D01*
X65504061Y-81392000D01*
X65500000Y-81393682D01*
X65495939Y-81392000D01*
X65464500Y-81392000D01*
X65436526Y-81419974D01*
X65280595Y-81484563D01*
X65187500Y-81577658D01*
X65187500Y-81544000D01*
X65035500Y-81392000D01*
X65004061Y-81392000D01*
X64780595Y-81484563D01*
X64609562Y-81655596D01*
X64578851Y-81729740D01*
X64508952Y-81560571D01*
X64340317Y-81391641D01*
X64234741Y-81347802D01*
X64308000Y-81170938D01*
X64308000Y-80306000D01*
X64156000Y-80154000D01*
X63154000Y-80154000D01*
X62846000Y-80154000D01*
X61844000Y-80154000D01*
X61692000Y-80306000D01*
X55375000Y-80306000D01*
X55375000Y-78829062D01*
X61692000Y-78829062D01*
X61692000Y-79694000D01*
X61844000Y-79846000D01*
X62846000Y-79846000D01*
X62846000Y-78494000D01*
X63154000Y-78494000D01*
X63154000Y-79846000D01*
X64156000Y-79846000D01*
X64308000Y-79694000D01*
X64308000Y-78829062D01*
X75692000Y-78829062D01*
X75692000Y-79694000D01*
X75844000Y-79846000D01*
X76846000Y-79846000D01*
X76846000Y-78494000D01*
X77154000Y-78494000D01*
X77154000Y-79846000D01*
X78156000Y-79846000D01*
X78308000Y-79694000D01*
X78308000Y-78829062D01*
X78215438Y-78605596D01*
X78044405Y-78434563D01*
X77820939Y-78342000D01*
X77306000Y-78342000D01*
X77154000Y-78494000D01*
X76846000Y-78494000D01*
X76694000Y-78342000D01*
X76179061Y-78342000D01*
X75955595Y-78434563D01*
X75784562Y-78605596D01*
X75692000Y-78829062D01*
X64308000Y-78829062D01*
X64215438Y-78605596D01*
X64044405Y-78434563D01*
X63820939Y-78342000D01*
X63306000Y-78342000D01*
X63154000Y-78494000D01*
X62846000Y-78494000D01*
X62694000Y-78342000D01*
X62179061Y-78342000D01*
X61955595Y-78434563D01*
X61784562Y-78605596D01*
X61692000Y-78829062D01*
X55375000Y-78829062D01*
X55375000Y-76379062D01*
X64517000Y-76379062D01*
X64517000Y-76944000D01*
X64669000Y-77096000D01*
X65375000Y-77096000D01*
X65375000Y-77404000D01*
X64669000Y-77404000D01*
X64517000Y-77556000D01*
X64517000Y-78120938D01*
X64609562Y-78344404D01*
X64780595Y-78515437D01*
X65004061Y-78608000D01*
X65035500Y-78608000D01*
X65187500Y-78456000D01*
X65187500Y-78422342D01*
X65280595Y-78515437D01*
X65436526Y-78580026D01*
X65464500Y-78608000D01*
X65495939Y-78608000D01*
X65500000Y-78606318D01*
X65504061Y-78608000D01*
X65535500Y-78608000D01*
X65563474Y-78580026D01*
X65719405Y-78515437D01*
X65812500Y-78422342D01*
X65812500Y-78456000D01*
X65964500Y-78608000D01*
X65995939Y-78608000D01*
X66219405Y-78515437D01*
X66390438Y-78344404D01*
X66409050Y-78299470D01*
X66486173Y-78284958D01*
X66498779Y-78276846D01*
X66505997Y-78281778D01*
X66625000Y-78305877D01*
X66875000Y-78305877D01*
X66986173Y-78284958D01*
X66998779Y-78276846D01*
X67005997Y-78281778D01*
X67125000Y-78305877D01*
X67375000Y-78305877D01*
X67486173Y-78284958D01*
X67498779Y-78276846D01*
X67505997Y-78281778D01*
X67625000Y-78305877D01*
X67875000Y-78305877D01*
X67986173Y-78284958D01*
X67998779Y-78276846D01*
X68005997Y-78281778D01*
X68125000Y-78305877D01*
X68375000Y-78305877D01*
X68486173Y-78284958D01*
X68498779Y-78276846D01*
X68505997Y-78281778D01*
X68590729Y-78298937D01*
X68609562Y-78344404D01*
X68780595Y-78515437D01*
X69004061Y-78608000D01*
X69035500Y-78608000D01*
X69187500Y-78456000D01*
X69187500Y-77404000D01*
X69180877Y-77404000D01*
X69180877Y-77096000D01*
X69187500Y-77096000D01*
X69187500Y-77076000D01*
X69312500Y-77076000D01*
X69312500Y-77096000D01*
X69319123Y-77096000D01*
X69319123Y-77404000D01*
X69312500Y-77404000D01*
X69312500Y-78456000D01*
X69464500Y-78608000D01*
X69495939Y-78608000D01*
X69719405Y-78515437D01*
X69750000Y-78484842D01*
X69780595Y-78515437D01*
X70004061Y-78608000D01*
X70035500Y-78608000D01*
X70187500Y-78456000D01*
X70187500Y-77404000D01*
X70180877Y-77404000D01*
X70180877Y-77096000D01*
X70187500Y-77096000D01*
X70187500Y-76044000D01*
X70035500Y-75892000D01*
X70004061Y-75892000D01*
X69951602Y-75913729D01*
X69951602Y-73366602D01*
X69945057Y-73333696D01*
X69923057Y-73223095D01*
X69841767Y-73101437D01*
X69675000Y-72934670D01*
X69675000Y-71795330D01*
X70375000Y-71095330D01*
X70375000Y-75981500D01*
X70312500Y-76044000D01*
X70312500Y-77096000D01*
X70319123Y-77096000D01*
X70319123Y-77404000D01*
X70312500Y-77404000D01*
X70312500Y-78456000D01*
X70464500Y-78608000D01*
X70495939Y-78608000D01*
X70719405Y-78515437D01*
X70890438Y-78344404D01*
X70909050Y-78299470D01*
X70986173Y-78284958D01*
X70998779Y-78276846D01*
X71005997Y-78281778D01*
X71090729Y-78298937D01*
X71109562Y-78344404D01*
X71280595Y-78515437D01*
X71504061Y-78608000D01*
X71535500Y-78608000D01*
X71687500Y-78456000D01*
X71687500Y-77404000D01*
X71680877Y-77404000D01*
X71680877Y-77096000D01*
X71687500Y-77096000D01*
X71687500Y-76044000D01*
X71677000Y-76033500D01*
X71677000Y-75846862D01*
X71703163Y-75807706D01*
X71740500Y-75620000D01*
X71740500Y-75184498D01*
X71735167Y-75157689D01*
X71703163Y-74996791D01*
X71656002Y-74926210D01*
X71656002Y-73490101D01*
X71678628Y-73490121D01*
X71936000Y-73383777D01*
X72133085Y-73187036D01*
X72239878Y-72929850D01*
X72240121Y-72651372D01*
X72133777Y-72394000D01*
X71937036Y-72196915D01*
X71679850Y-72090122D01*
X71401372Y-72089879D01*
X71144000Y-72196223D01*
X71125000Y-72215190D01*
X71125000Y-70875330D01*
X78040390Y-63959940D01*
X78228824Y-63960104D01*
X78449429Y-63868952D01*
X78618359Y-63700317D01*
X78709896Y-63479871D01*
X78710104Y-63241176D01*
X78655891Y-63109971D01*
X78808824Y-63110104D01*
X79029429Y-63018952D01*
X79198359Y-62850317D01*
X79289896Y-62629871D01*
X79290071Y-62429282D01*
X79460129Y-62499896D01*
X79698824Y-62500104D01*
X79919429Y-62408952D01*
X80088359Y-62240317D01*
X80179896Y-62019871D01*
X80180104Y-61781176D01*
X80088952Y-61560571D01*
X79920317Y-61391641D01*
X79699871Y-61300104D01*
X79461176Y-61299896D01*
X79240571Y-61391048D01*
X79166490Y-61465000D01*
X78415330Y-61465000D01*
X78585330Y-61295000D01*
X79760000Y-61295000D01*
X79903507Y-61266455D01*
X80025165Y-61185165D01*
X80775165Y-60435165D01*
X80856455Y-60313507D01*
X80885000Y-60170000D01*
X80885000Y-58548628D01*
X82209879Y-58548628D01*
X82316223Y-58806000D01*
X82512964Y-59003085D01*
X82770150Y-59109878D01*
X83048628Y-59110121D01*
X83306000Y-59003777D01*
X83503085Y-58807036D01*
X83609878Y-58549850D01*
X83609927Y-58493547D01*
X83861737Y-58241737D01*
X83981830Y-58062006D01*
X84024000Y-57850000D01*
X84024000Y-54370000D01*
X83981829Y-54157993D01*
X83861737Y-53978263D01*
X83800073Y-53916599D01*
X83800121Y-53861372D01*
X83693777Y-53604000D01*
X83497036Y-53406915D01*
X83239850Y-53300122D01*
X82961372Y-53299879D01*
X82704000Y-53406223D01*
X82506915Y-53602964D01*
X82400122Y-53860150D01*
X82399879Y-54138628D01*
X82506223Y-54396000D01*
X82702964Y-54593085D01*
X82916000Y-54681545D01*
X82916000Y-57620526D01*
X82826599Y-57709927D01*
X82771372Y-57709879D01*
X82514000Y-57816223D01*
X82316915Y-58012964D01*
X82210122Y-58270150D01*
X82209879Y-58548628D01*
X80885000Y-58548628D01*
X80885000Y-53162186D01*
X80921048Y-53249429D01*
X81089683Y-53418359D01*
X81310129Y-53509896D01*
X81548824Y-53510104D01*
X81769429Y-53418952D01*
X81938359Y-53250317D01*
X82029896Y-53029871D01*
X82029965Y-52950365D01*
X82305165Y-52675165D01*
X82386455Y-52553506D01*
X82415000Y-52410000D01*
X82415000Y-51860000D01*
X82386455Y-51716494D01*
X82305165Y-51594835D01*
X82035165Y-51324835D01*
X81913507Y-51243545D01*
X81770000Y-51215000D01*
X81020000Y-51215000D01*
X80876493Y-51243545D01*
X80754835Y-51324835D01*
X79854835Y-52224835D01*
X79773545Y-52346493D01*
X79762576Y-52401641D01*
X79745000Y-52490000D01*
X79745000Y-59844670D01*
X79404670Y-60185000D01*
X78200000Y-60185000D01*
X78056493Y-60213545D01*
X77934835Y-60294835D01*
X75967702Y-62261968D01*
X75886412Y-62383626D01*
X75869227Y-62470022D01*
X75857867Y-62527133D01*
X75857867Y-62851803D01*
X65704835Y-73004835D01*
X65623545Y-73126493D01*
X65601445Y-73237600D01*
X65595000Y-73270000D01*
X65595000Y-75700000D01*
X65623545Y-75843507D01*
X65655947Y-75892000D01*
X65595998Y-75892000D01*
X65595998Y-75933446D01*
X65563474Y-75919974D01*
X65535500Y-75892000D01*
X65504061Y-75892000D01*
X65500000Y-75893682D01*
X65495939Y-75892000D01*
X65464500Y-75892000D01*
X65436526Y-75919974D01*
X65280595Y-75984563D01*
X65187500Y-76077658D01*
X65187500Y-76044000D01*
X65035500Y-75892000D01*
X65004061Y-75892000D01*
X64780595Y-75984563D01*
X64609562Y-76155596D01*
X64517000Y-76379062D01*
X55375000Y-76379062D01*
X55375000Y-39375000D01*
X94625000Y-39375000D01*
X94625000Y-88625000D01*
X94625000Y-88625000D01*
G37*
X94625000Y-88625000D02*
X55375000Y-88625000D01*
X55375000Y-80306000D01*
X61692000Y-80306000D01*
X61692000Y-81170938D01*
X61784562Y-81394404D01*
X61955595Y-81565437D01*
X62179061Y-81658000D01*
X62694000Y-81658000D01*
X62846000Y-81506000D01*
X62846000Y-80154000D01*
X63154000Y-80154000D01*
X63154000Y-81506000D01*
X63306000Y-81658000D01*
X63450816Y-81658000D01*
X63400104Y-81780129D01*
X63399896Y-82018824D01*
X63491048Y-82239429D01*
X63659683Y-82408359D01*
X63880129Y-82499896D01*
X64118824Y-82500104D01*
X64339429Y-82408952D01*
X64508359Y-82240317D01*
X64517000Y-82219507D01*
X64517000Y-82444000D01*
X64669000Y-82596000D01*
X65875000Y-82596000D01*
X65875000Y-82904000D01*
X64669000Y-82904000D01*
X64517000Y-83056000D01*
X64517000Y-83620938D01*
X64609562Y-83844404D01*
X64780595Y-84015437D01*
X65004061Y-84108000D01*
X65035500Y-84108000D01*
X65187500Y-83956000D01*
X65187500Y-83922342D01*
X65280595Y-84015437D01*
X65436526Y-84080026D01*
X65464500Y-84108000D01*
X65495939Y-84108000D01*
X65500000Y-84106318D01*
X65504061Y-84108000D01*
X65535500Y-84108000D01*
X65563474Y-84080026D01*
X65719405Y-84015437D01*
X65750000Y-83984842D01*
X65780595Y-84015437D01*
X65875535Y-84054762D01*
X65773164Y-84123164D01*
X65363164Y-84533164D01*
X65256837Y-84692294D01*
X65219500Y-84880000D01*
X65219500Y-85350558D01*
X65116915Y-85452964D01*
X65010122Y-85710150D01*
X65009879Y-85988628D01*
X65116223Y-86246000D01*
X65312964Y-86443085D01*
X65570150Y-86549878D01*
X65848628Y-86550121D01*
X66106000Y-86443777D01*
X66303085Y-86247036D01*
X66409878Y-85989850D01*
X66410121Y-85711372D01*
X66303777Y-85454000D01*
X66200500Y-85350542D01*
X66200500Y-85083172D01*
X66221515Y-85062157D01*
X66241048Y-85109429D01*
X66409683Y-85278359D01*
X66630129Y-85369896D01*
X66868824Y-85370104D01*
X67089429Y-85278952D01*
X67190036Y-85178520D01*
X67299683Y-85288359D01*
X67520129Y-85379896D01*
X67758824Y-85380104D01*
X67979429Y-85288952D01*
X68148359Y-85120317D01*
X68239896Y-84899871D01*
X68240104Y-84661176D01*
X68148952Y-84440571D01*
X68125000Y-84416577D01*
X68125000Y-84018500D01*
X68187500Y-83956000D01*
X68187500Y-82904000D01*
X68180877Y-82904000D01*
X68180877Y-82596000D01*
X68187500Y-82596000D01*
X68187500Y-81544000D01*
X68312500Y-81544000D01*
X68312500Y-82596000D01*
X68319123Y-82596000D01*
X68319123Y-82904000D01*
X68312500Y-82904000D01*
X68312500Y-83956000D01*
X68377427Y-84020927D01*
X68378970Y-84028686D01*
X68419300Y-84089044D01*
X68419300Y-87014184D01*
X68449870Y-87167870D01*
X68536926Y-87298158D01*
X69541842Y-88303074D01*
X69672130Y-88390130D01*
X69825816Y-88420700D01*
X87204184Y-88420700D01*
X87357870Y-88390130D01*
X87488158Y-88303074D01*
X91973074Y-83818158D01*
X91982838Y-83803545D01*
X92060130Y-83687870D01*
X92090700Y-83534184D01*
X92090700Y-50310700D01*
X92111331Y-50310700D01*
X92181048Y-50479429D01*
X92349683Y-50648359D01*
X92570129Y-50739896D01*
X92808824Y-50740104D01*
X93029429Y-50648952D01*
X93198359Y-50480317D01*
X93289896Y-50259871D01*
X93290104Y-50021176D01*
X93227861Y-49870535D01*
X93388359Y-49710317D01*
X93479896Y-49489871D01*
X93480104Y-49251176D01*
X93388952Y-49030571D01*
X93220317Y-48861641D01*
X92999871Y-48770104D01*
X92761176Y-48769896D01*
X92676794Y-48804762D01*
X92608952Y-48640571D01*
X92440317Y-48471641D01*
X92401818Y-48455655D01*
X92449896Y-48339871D01*
X92450104Y-48101176D01*
X92358952Y-47880571D01*
X92190317Y-47711641D01*
X91969871Y-47620104D01*
X91731176Y-47619896D01*
X91626945Y-47662963D01*
X91627036Y-47558108D01*
X91535884Y-47337503D01*
X91367249Y-47168573D01*
X91146803Y-47077036D01*
X91093126Y-47076989D01*
X91093172Y-47024244D01*
X91002020Y-46803639D01*
X90833385Y-46634709D01*
X90612939Y-46543172D01*
X90374244Y-46542964D01*
X90153639Y-46634116D01*
X90026272Y-46761261D01*
X90109896Y-46559871D01*
X90110104Y-46321176D01*
X90018952Y-46100571D01*
X89850317Y-45931641D01*
X89844490Y-45929221D01*
X89889896Y-45819871D01*
X89890104Y-45581176D01*
X89798952Y-45360571D01*
X89630317Y-45191641D01*
X89409871Y-45100104D01*
X89171176Y-45099896D01*
X88950571Y-45191048D01*
X88781641Y-45359683D01*
X88690104Y-45580129D01*
X88689972Y-45732080D01*
X88622752Y-45799300D01*
X86795816Y-45799300D01*
X86642131Y-45829869D01*
X86511842Y-45916926D01*
X86266926Y-46161842D01*
X86179870Y-46292130D01*
X86149300Y-46445816D01*
X86149300Y-61021783D01*
X86106477Y-61026608D01*
X86063480Y-61040312D01*
X86018799Y-61046620D01*
X85927892Y-61078430D01*
X85889028Y-61101356D01*
X85846868Y-61117449D01*
X85765319Y-61168690D01*
X85732529Y-61199690D01*
X85695010Y-61224760D01*
X85626907Y-61292863D01*
X85601838Y-61330381D01*
X85570837Y-61363172D01*
X85530700Y-61427049D01*
X85530700Y-47425816D01*
X85500130Y-47272130D01*
X85413074Y-47141842D01*
X84258158Y-45986926D01*
X84186360Y-45938952D01*
X84127870Y-45899870D01*
X83974184Y-45869300D01*
X81870532Y-45869300D01*
X81593213Y-45591981D01*
X81573074Y-45561841D01*
X81272768Y-45261535D01*
X81339896Y-45099871D01*
X81340104Y-44861176D01*
X81248952Y-44640571D01*
X81080317Y-44471641D01*
X80859871Y-44380104D01*
X80621176Y-44379896D01*
X80400571Y-44471048D01*
X80231641Y-44639683D01*
X80143350Y-44852311D01*
X80089871Y-44830104D01*
X79851176Y-44829896D01*
X79630571Y-44921048D01*
X79461641Y-45089683D01*
X79370104Y-45310129D01*
X79369896Y-45548824D01*
X79461048Y-45769429D01*
X79629683Y-45938359D01*
X79850129Y-46029896D01*
X80088824Y-46030104D01*
X80308219Y-45939452D01*
X80626792Y-46258025D01*
X80646926Y-46288158D01*
X81271842Y-46913074D01*
X81402130Y-47000130D01*
X81555816Y-47030700D01*
X83659468Y-47030700D01*
X84369300Y-47740532D01*
X84369300Y-71371600D01*
X84235131Y-71371600D01*
X84212827Y-71376036D01*
X84190167Y-71374125D01*
X84072462Y-71387387D01*
X84029468Y-71401090D01*
X83984787Y-71407398D01*
X83872985Y-71446519D01*
X83834118Y-71469446D01*
X83791959Y-71485539D01*
X83691666Y-71548558D01*
X83658877Y-71579558D01*
X83621356Y-71604628D01*
X83537599Y-71688385D01*
X83512530Y-71725903D01*
X83481528Y-71758695D01*
X83418510Y-71858989D01*
X83402419Y-71901143D01*
X83379490Y-71940013D01*
X83340369Y-72051816D01*
X83334061Y-72096496D01*
X83320358Y-72139490D01*
X83307096Y-72257196D01*
X83309007Y-72279856D01*
X83304571Y-72302160D01*
X83304571Y-72367039D01*
X83309007Y-72389343D01*
X83307096Y-72412003D01*
X83320358Y-72529709D01*
X83334061Y-72572703D01*
X83340369Y-72617383D01*
X83379490Y-72729186D01*
X83402419Y-72768056D01*
X83418510Y-72810210D01*
X83481528Y-72910504D01*
X83512530Y-72943296D01*
X83537599Y-72980814D01*
X83621356Y-73064571D01*
X83658877Y-73089641D01*
X83668986Y-73099200D01*
X83658877Y-73108758D01*
X83621356Y-73133828D01*
X83537599Y-73217585D01*
X83512530Y-73255103D01*
X83481528Y-73287895D01*
X83418510Y-73388189D01*
X83402419Y-73430343D01*
X83379490Y-73469213D01*
X83340369Y-73581016D01*
X83334061Y-73625696D01*
X83320358Y-73668690D01*
X83307096Y-73786396D01*
X83309007Y-73809056D01*
X83304571Y-73831360D01*
X83304571Y-73896239D01*
X83309007Y-73918543D01*
X83307096Y-73941203D01*
X83320358Y-74058909D01*
X83334061Y-74101903D01*
X83340369Y-74146583D01*
X83379490Y-74258386D01*
X83402419Y-74297256D01*
X83418510Y-74339410D01*
X83481528Y-74439704D01*
X83512530Y-74472496D01*
X83537599Y-74510014D01*
X83621356Y-74593771D01*
X83658877Y-74618841D01*
X83691666Y-74649841D01*
X83791959Y-74712860D01*
X83834118Y-74728953D01*
X83872985Y-74751880D01*
X83984787Y-74791001D01*
X84029465Y-74797308D01*
X84072458Y-74811012D01*
X84190163Y-74824275D01*
X84212827Y-74822363D01*
X84235131Y-74826800D01*
X84533953Y-74826800D01*
X84481888Y-74909661D01*
X84465795Y-74951820D01*
X84442869Y-74990685D01*
X84404757Y-75099602D01*
X84398449Y-75144281D01*
X84384745Y-75187278D01*
X84371825Y-75301946D01*
X84373737Y-75324607D01*
X84369300Y-75346911D01*
X84369300Y-78269468D01*
X82679468Y-79959300D01*
X81040532Y-79959300D01*
X80830700Y-79749468D01*
X80830700Y-73135816D01*
X80800130Y-72982130D01*
X80713074Y-72851842D01*
X79788158Y-71926926D01*
X79770230Y-71914947D01*
X79657870Y-71839870D01*
X79504184Y-71809300D01*
X74145816Y-71809300D01*
X73992130Y-71839870D01*
X73879770Y-71914947D01*
X73861842Y-71926926D01*
X72036926Y-73751842D01*
X71949870Y-73882130D01*
X71919300Y-74035816D01*
X71919300Y-75910956D01*
X71878970Y-75971314D01*
X71877427Y-75979073D01*
X71812500Y-76044000D01*
X71812500Y-77096000D01*
X71819123Y-77096000D01*
X71819123Y-77404000D01*
X71812500Y-77404000D01*
X71812500Y-78456000D01*
X71964500Y-78608000D01*
X71995939Y-78608000D01*
X72219405Y-78515437D01*
X72390438Y-78344404D01*
X72409050Y-78299470D01*
X72486173Y-78284958D01*
X72498779Y-78276846D01*
X72505997Y-78281778D01*
X72590729Y-78298937D01*
X72609562Y-78344404D01*
X72780595Y-78515437D01*
X73004061Y-78608000D01*
X73035500Y-78608000D01*
X73187500Y-78456000D01*
X73187500Y-77404000D01*
X73180877Y-77404000D01*
X73180877Y-77096000D01*
X73187500Y-77096000D01*
X73187500Y-76044000D01*
X73312500Y-76044000D01*
X73312500Y-77096000D01*
X73319123Y-77096000D01*
X73319123Y-77404000D01*
X73312500Y-77404000D01*
X73312500Y-78456000D01*
X73464500Y-78608000D01*
X73495939Y-78608000D01*
X73719405Y-78515437D01*
X73890438Y-78344404D01*
X73909050Y-78299470D01*
X73986173Y-78284958D01*
X73998779Y-78276846D01*
X74005997Y-78281778D01*
X74125000Y-78305877D01*
X74375000Y-78305877D01*
X74486173Y-78284958D01*
X74498779Y-78276846D01*
X74505997Y-78281778D01*
X74625000Y-78305877D01*
X74875000Y-78305877D01*
X74986173Y-78284958D01*
X75088279Y-78219255D01*
X75156778Y-78119003D01*
X75180877Y-78000000D01*
X75180877Y-76592993D01*
X75524395Y-76249474D01*
X75756000Y-76153777D01*
X75953085Y-75957036D01*
X76059878Y-75699850D01*
X76060121Y-75421372D01*
X75953777Y-75164000D01*
X75757036Y-74966915D01*
X75499850Y-74860122D01*
X75221372Y-74859879D01*
X74964000Y-74966223D01*
X74783726Y-75146183D01*
X74686594Y-75165503D01*
X74548065Y-75258065D01*
X74548063Y-75258068D01*
X73948065Y-75858065D01*
X73855503Y-75996594D01*
X73834919Y-76100077D01*
X73719405Y-75984563D01*
X73495939Y-75892000D01*
X73464500Y-75892000D01*
X73312500Y-76044000D01*
X73187500Y-76044000D01*
X73122573Y-75979073D01*
X73121030Y-75971314D01*
X73080700Y-75910956D01*
X73080700Y-74350532D01*
X74452373Y-72978859D01*
X74459961Y-73000543D01*
X74482887Y-73039408D01*
X74498980Y-73081569D01*
X74523808Y-73121081D01*
X74554808Y-73153871D01*
X74579878Y-73191391D01*
X74612875Y-73224388D01*
X74650393Y-73249457D01*
X74683185Y-73280459D01*
X74722698Y-73305286D01*
X74764855Y-73321378D01*
X74803724Y-73344306D01*
X74847770Y-73359718D01*
X74892448Y-73366025D01*
X74935440Y-73379728D01*
X74981811Y-73384953D01*
X75004474Y-73383041D01*
X75026778Y-73387478D01*
X75060000Y-73387478D01*
X75082307Y-73383041D01*
X75104968Y-73384952D01*
X75151338Y-73379728D01*
X75194329Y-73366025D01*
X75239007Y-73359718D01*
X75283054Y-73344305D01*
X75321919Y-73321379D01*
X75364080Y-73305286D01*
X75403592Y-73280458D01*
X75436382Y-73249458D01*
X75473902Y-73224388D01*
X75506899Y-73191391D01*
X75531968Y-73153873D01*
X75562970Y-73121081D01*
X75587797Y-73081568D01*
X75603889Y-73039411D01*
X75626817Y-73000542D01*
X75637259Y-72970700D01*
X79189468Y-72970700D01*
X79669300Y-73450532D01*
X79669300Y-80064184D01*
X79699870Y-80217870D01*
X79784134Y-80343979D01*
X79786926Y-80348158D01*
X80441842Y-81003074D01*
X80572130Y-81090130D01*
X80725816Y-81120700D01*
X82994184Y-81120700D01*
X83147870Y-81090130D01*
X83278158Y-81003074D01*
X85413074Y-78868158D01*
X85500130Y-78737870D01*
X85530700Y-78584184D01*
X85530700Y-75590966D01*
X85550822Y-75586963D01*
X85573483Y-75588875D01*
X85688151Y-75575955D01*
X85731148Y-75562251D01*
X85775827Y-75555943D01*
X85884744Y-75517831D01*
X85923609Y-75494905D01*
X85965768Y-75478812D01*
X86063474Y-75417419D01*
X86096266Y-75386417D01*
X86133783Y-75361349D01*
X86149300Y-75345832D01*
X86149300Y-80589468D01*
X82309468Y-84429300D01*
X78827059Y-84429300D01*
X78909878Y-84229850D01*
X78910121Y-83951372D01*
X78803777Y-83694000D01*
X78607036Y-83496915D01*
X78349850Y-83390122D01*
X78203666Y-83389994D01*
X78016836Y-83203164D01*
X77857706Y-83096837D01*
X77670000Y-83059500D01*
X75560000Y-83059500D01*
X75372294Y-83096837D01*
X75213164Y-83203164D01*
X75180877Y-83251485D01*
X75180877Y-82018824D01*
X75399896Y-82018824D01*
X75491048Y-82239429D01*
X75659683Y-82408359D01*
X75880129Y-82499896D01*
X76118824Y-82500104D01*
X76339429Y-82408952D01*
X76508359Y-82240317D01*
X76599896Y-82019871D01*
X76600104Y-81781176D01*
X76549209Y-81658000D01*
X76694000Y-81658000D01*
X76846000Y-81506000D01*
X76846000Y-80154000D01*
X77154000Y-80154000D01*
X77154000Y-81506000D01*
X77306000Y-81658000D01*
X77820939Y-81658000D01*
X78044405Y-81565437D01*
X78215438Y-81394404D01*
X78308000Y-81170938D01*
X78308000Y-80306000D01*
X78156000Y-80154000D01*
X77154000Y-80154000D01*
X76846000Y-80154000D01*
X75844000Y-80154000D01*
X75692000Y-80306000D01*
X75692000Y-81170938D01*
X75765255Y-81347793D01*
X75660571Y-81391048D01*
X75491641Y-81559683D01*
X75400104Y-81780129D01*
X75399896Y-82018824D01*
X75180877Y-82018824D01*
X75180877Y-82000000D01*
X75159958Y-81888827D01*
X75094255Y-81786721D01*
X74994003Y-81718222D01*
X74875000Y-81694123D01*
X74625000Y-81694123D01*
X74513827Y-81715042D01*
X74501221Y-81723154D01*
X74494003Y-81718222D01*
X74375000Y-81694123D01*
X74125000Y-81694123D01*
X74013827Y-81715042D01*
X74001221Y-81723154D01*
X73994003Y-81718222D01*
X73909271Y-81701063D01*
X73890438Y-81655596D01*
X73719405Y-81484563D01*
X73495939Y-81392000D01*
X73464500Y-81392000D01*
X73312500Y-81544000D01*
X73312500Y-82596000D01*
X73319123Y-82596000D01*
X73319123Y-82904000D01*
X73312500Y-82904000D01*
X73312500Y-83956000D01*
X73464500Y-84108000D01*
X73495939Y-84108000D01*
X73645655Y-84045985D01*
X73732459Y-84132789D01*
X73727696Y-84133736D01*
X73705034Y-84131825D01*
X73671655Y-84135586D01*
X73628657Y-84149291D01*
X73623652Y-84149998D01*
X73617644Y-84149829D01*
X73613417Y-84151443D01*
X73583978Y-84155599D01*
X73552274Y-84166693D01*
X73526666Y-84181799D01*
X73522358Y-84183172D01*
X73517769Y-84187047D01*
X73513410Y-84189618D01*
X73508676Y-84191425D01*
X73502791Y-84192596D01*
X73499035Y-84195106D01*
X73471250Y-84205712D01*
X73442809Y-84223583D01*
X73421204Y-84244010D01*
X73417309Y-84246307D01*
X73413697Y-84251107D01*
X73410019Y-84254584D01*
X73405818Y-84257391D01*
X73400334Y-84259845D01*
X73397227Y-84263131D01*
X73372502Y-84279652D01*
X73348751Y-84303403D01*
X73332229Y-84328130D01*
X73328945Y-84331235D01*
X73326493Y-84336714D01*
X73323682Y-84340922D01*
X73320208Y-84344596D01*
X73315406Y-84348210D01*
X73313107Y-84352107D01*
X73292683Y-84373710D01*
X73274811Y-84402151D01*
X73264448Y-84429300D01*
X73210532Y-84429300D01*
X73080700Y-84299468D01*
X73080700Y-84089044D01*
X73121030Y-84028686D01*
X73122573Y-84020927D01*
X73187500Y-83956000D01*
X73187500Y-82904000D01*
X73180877Y-82904000D01*
X73180877Y-82596000D01*
X73187500Y-82596000D01*
X73187500Y-81544000D01*
X73035500Y-81392000D01*
X73004061Y-81392000D01*
X72780595Y-81484563D01*
X72609562Y-81655596D01*
X72590950Y-81700530D01*
X72513827Y-81715042D01*
X72501221Y-81723154D01*
X72494003Y-81718222D01*
X72375000Y-81694123D01*
X72125000Y-81694123D01*
X72013827Y-81715042D01*
X72001221Y-81723154D01*
X71994003Y-81718222D01*
X71875000Y-81694123D01*
X71625000Y-81694123D01*
X71513827Y-81715042D01*
X71501221Y-81723154D01*
X71494003Y-81718222D01*
X71375000Y-81694123D01*
X71125000Y-81694123D01*
X71013827Y-81715042D01*
X71001221Y-81723154D01*
X70994003Y-81718222D01*
X70875000Y-81694123D01*
X70625000Y-81694123D01*
X70513827Y-81715042D01*
X70501221Y-81723154D01*
X70494003Y-81718222D01*
X70375000Y-81694123D01*
X70125000Y-81694123D01*
X70013827Y-81715042D01*
X70001221Y-81723154D01*
X69994003Y-81718222D01*
X69875000Y-81694123D01*
X69625000Y-81694123D01*
X69513827Y-81715042D01*
X69501221Y-81723154D01*
X69494003Y-81718222D01*
X69375000Y-81694123D01*
X69125000Y-81694123D01*
X69013827Y-81715042D01*
X69001221Y-81723154D01*
X68994003Y-81718222D01*
X68909271Y-81701063D01*
X68890438Y-81655596D01*
X68719405Y-81484563D01*
X68495939Y-81392000D01*
X68464500Y-81392000D01*
X68312500Y-81544000D01*
X68187500Y-81544000D01*
X68035500Y-81392000D01*
X68004061Y-81392000D01*
X67780595Y-81484563D01*
X67609562Y-81655596D01*
X67590950Y-81700530D01*
X67513827Y-81715042D01*
X67501221Y-81723154D01*
X67494003Y-81718222D01*
X67375000Y-81694123D01*
X67125000Y-81694123D01*
X67013827Y-81715042D01*
X67001221Y-81723154D01*
X66994003Y-81718222D01*
X66909271Y-81701063D01*
X66890438Y-81655596D01*
X66719405Y-81484563D01*
X66495939Y-81392000D01*
X66464500Y-81392000D01*
X66312500Y-81544000D01*
X66312500Y-81577658D01*
X66219405Y-81484563D01*
X66063474Y-81419974D01*
X66035500Y-81392000D01*
X66004061Y-81392000D01*
X66000000Y-81393682D01*
X65995939Y-81392000D01*
X65964500Y-81392000D01*
X65936526Y-81419974D01*
X65780595Y-81484563D01*
X65750000Y-81515158D01*
X65719405Y-81484563D01*
X65563474Y-81419974D01*
X65535500Y-81392000D01*
X65504061Y-81392000D01*
X65500000Y-81393682D01*
X65495939Y-81392000D01*
X65464500Y-81392000D01*
X65436526Y-81419974D01*
X65280595Y-81484563D01*
X65187500Y-81577658D01*
X65187500Y-81544000D01*
X65035500Y-81392000D01*
X65004061Y-81392000D01*
X64780595Y-81484563D01*
X64609562Y-81655596D01*
X64578851Y-81729740D01*
X64508952Y-81560571D01*
X64340317Y-81391641D01*
X64234741Y-81347802D01*
X64308000Y-81170938D01*
X64308000Y-80306000D01*
X64156000Y-80154000D01*
X63154000Y-80154000D01*
X62846000Y-80154000D01*
X61844000Y-80154000D01*
X61692000Y-80306000D01*
X55375000Y-80306000D01*
X55375000Y-78829062D01*
X61692000Y-78829062D01*
X61692000Y-79694000D01*
X61844000Y-79846000D01*
X62846000Y-79846000D01*
X62846000Y-78494000D01*
X63154000Y-78494000D01*
X63154000Y-79846000D01*
X64156000Y-79846000D01*
X64308000Y-79694000D01*
X64308000Y-78829062D01*
X75692000Y-78829062D01*
X75692000Y-79694000D01*
X75844000Y-79846000D01*
X76846000Y-79846000D01*
X76846000Y-78494000D01*
X77154000Y-78494000D01*
X77154000Y-79846000D01*
X78156000Y-79846000D01*
X78308000Y-79694000D01*
X78308000Y-78829062D01*
X78215438Y-78605596D01*
X78044405Y-78434563D01*
X77820939Y-78342000D01*
X77306000Y-78342000D01*
X77154000Y-78494000D01*
X76846000Y-78494000D01*
X76694000Y-78342000D01*
X76179061Y-78342000D01*
X75955595Y-78434563D01*
X75784562Y-78605596D01*
X75692000Y-78829062D01*
X64308000Y-78829062D01*
X64215438Y-78605596D01*
X64044405Y-78434563D01*
X63820939Y-78342000D01*
X63306000Y-78342000D01*
X63154000Y-78494000D01*
X62846000Y-78494000D01*
X62694000Y-78342000D01*
X62179061Y-78342000D01*
X61955595Y-78434563D01*
X61784562Y-78605596D01*
X61692000Y-78829062D01*
X55375000Y-78829062D01*
X55375000Y-76379062D01*
X64517000Y-76379062D01*
X64517000Y-76944000D01*
X64669000Y-77096000D01*
X65375000Y-77096000D01*
X65375000Y-77404000D01*
X64669000Y-77404000D01*
X64517000Y-77556000D01*
X64517000Y-78120938D01*
X64609562Y-78344404D01*
X64780595Y-78515437D01*
X65004061Y-78608000D01*
X65035500Y-78608000D01*
X65187500Y-78456000D01*
X65187500Y-78422342D01*
X65280595Y-78515437D01*
X65436526Y-78580026D01*
X65464500Y-78608000D01*
X65495939Y-78608000D01*
X65500000Y-78606318D01*
X65504061Y-78608000D01*
X65535500Y-78608000D01*
X65563474Y-78580026D01*
X65719405Y-78515437D01*
X65812500Y-78422342D01*
X65812500Y-78456000D01*
X65964500Y-78608000D01*
X65995939Y-78608000D01*
X66219405Y-78515437D01*
X66390438Y-78344404D01*
X66409050Y-78299470D01*
X66486173Y-78284958D01*
X66498779Y-78276846D01*
X66505997Y-78281778D01*
X66625000Y-78305877D01*
X66875000Y-78305877D01*
X66986173Y-78284958D01*
X66998779Y-78276846D01*
X67005997Y-78281778D01*
X67125000Y-78305877D01*
X67375000Y-78305877D01*
X67486173Y-78284958D01*
X67498779Y-78276846D01*
X67505997Y-78281778D01*
X67625000Y-78305877D01*
X67875000Y-78305877D01*
X67986173Y-78284958D01*
X67998779Y-78276846D01*
X68005997Y-78281778D01*
X68125000Y-78305877D01*
X68375000Y-78305877D01*
X68486173Y-78284958D01*
X68498779Y-78276846D01*
X68505997Y-78281778D01*
X68590729Y-78298937D01*
X68609562Y-78344404D01*
X68780595Y-78515437D01*
X69004061Y-78608000D01*
X69035500Y-78608000D01*
X69187500Y-78456000D01*
X69187500Y-77404000D01*
X69180877Y-77404000D01*
X69180877Y-77096000D01*
X69187500Y-77096000D01*
X69187500Y-77076000D01*
X69312500Y-77076000D01*
X69312500Y-77096000D01*
X69319123Y-77096000D01*
X69319123Y-77404000D01*
X69312500Y-77404000D01*
X69312500Y-78456000D01*
X69464500Y-78608000D01*
X69495939Y-78608000D01*
X69719405Y-78515437D01*
X69750000Y-78484842D01*
X69780595Y-78515437D01*
X70004061Y-78608000D01*
X70035500Y-78608000D01*
X70187500Y-78456000D01*
X70187500Y-77404000D01*
X70180877Y-77404000D01*
X70180877Y-77096000D01*
X70187500Y-77096000D01*
X70187500Y-76044000D01*
X70035500Y-75892000D01*
X70004061Y-75892000D01*
X69951602Y-75913729D01*
X69951602Y-73366602D01*
X69945057Y-73333696D01*
X69923057Y-73223095D01*
X69841767Y-73101437D01*
X69675000Y-72934670D01*
X69675000Y-71795330D01*
X70375000Y-71095330D01*
X70375000Y-75981500D01*
X70312500Y-76044000D01*
X70312500Y-77096000D01*
X70319123Y-77096000D01*
X70319123Y-77404000D01*
X70312500Y-77404000D01*
X70312500Y-78456000D01*
X70464500Y-78608000D01*
X70495939Y-78608000D01*
X70719405Y-78515437D01*
X70890438Y-78344404D01*
X70909050Y-78299470D01*
X70986173Y-78284958D01*
X70998779Y-78276846D01*
X71005997Y-78281778D01*
X71090729Y-78298937D01*
X71109562Y-78344404D01*
X71280595Y-78515437D01*
X71504061Y-78608000D01*
X71535500Y-78608000D01*
X71687500Y-78456000D01*
X71687500Y-77404000D01*
X71680877Y-77404000D01*
X71680877Y-77096000D01*
X71687500Y-77096000D01*
X71687500Y-76044000D01*
X71677000Y-76033500D01*
X71677000Y-75846862D01*
X71703163Y-75807706D01*
X71740500Y-75620000D01*
X71740500Y-75184498D01*
X71735167Y-75157689D01*
X71703163Y-74996791D01*
X71656002Y-74926210D01*
X71656002Y-73490101D01*
X71678628Y-73490121D01*
X71936000Y-73383777D01*
X72133085Y-73187036D01*
X72239878Y-72929850D01*
X72240121Y-72651372D01*
X72133777Y-72394000D01*
X71937036Y-72196915D01*
X71679850Y-72090122D01*
X71401372Y-72089879D01*
X71144000Y-72196223D01*
X71125000Y-72215190D01*
X71125000Y-70875330D01*
X78040390Y-63959940D01*
X78228824Y-63960104D01*
X78449429Y-63868952D01*
X78618359Y-63700317D01*
X78709896Y-63479871D01*
X78710104Y-63241176D01*
X78655891Y-63109971D01*
X78808824Y-63110104D01*
X79029429Y-63018952D01*
X79198359Y-62850317D01*
X79289896Y-62629871D01*
X79290071Y-62429282D01*
X79460129Y-62499896D01*
X79698824Y-62500104D01*
X79919429Y-62408952D01*
X80088359Y-62240317D01*
X80179896Y-62019871D01*
X80180104Y-61781176D01*
X80088952Y-61560571D01*
X79920317Y-61391641D01*
X79699871Y-61300104D01*
X79461176Y-61299896D01*
X79240571Y-61391048D01*
X79166490Y-61465000D01*
X78415330Y-61465000D01*
X78585330Y-61295000D01*
X79760000Y-61295000D01*
X79903507Y-61266455D01*
X80025165Y-61185165D01*
X80775165Y-60435165D01*
X80856455Y-60313507D01*
X80885000Y-60170000D01*
X80885000Y-58548628D01*
X82209879Y-58548628D01*
X82316223Y-58806000D01*
X82512964Y-59003085D01*
X82770150Y-59109878D01*
X83048628Y-59110121D01*
X83306000Y-59003777D01*
X83503085Y-58807036D01*
X83609878Y-58549850D01*
X83609927Y-58493547D01*
X83861737Y-58241737D01*
X83981830Y-58062006D01*
X84024000Y-57850000D01*
X84024000Y-54370000D01*
X83981829Y-54157993D01*
X83861737Y-53978263D01*
X83800073Y-53916599D01*
X83800121Y-53861372D01*
X83693777Y-53604000D01*
X83497036Y-53406915D01*
X83239850Y-53300122D01*
X82961372Y-53299879D01*
X82704000Y-53406223D01*
X82506915Y-53602964D01*
X82400122Y-53860150D01*
X82399879Y-54138628D01*
X82506223Y-54396000D01*
X82702964Y-54593085D01*
X82916000Y-54681545D01*
X82916000Y-57620526D01*
X82826599Y-57709927D01*
X82771372Y-57709879D01*
X82514000Y-57816223D01*
X82316915Y-58012964D01*
X82210122Y-58270150D01*
X82209879Y-58548628D01*
X80885000Y-58548628D01*
X80885000Y-53162186D01*
X80921048Y-53249429D01*
X81089683Y-53418359D01*
X81310129Y-53509896D01*
X81548824Y-53510104D01*
X81769429Y-53418952D01*
X81938359Y-53250317D01*
X82029896Y-53029871D01*
X82029965Y-52950365D01*
X82305165Y-52675165D01*
X82386455Y-52553506D01*
X82415000Y-52410000D01*
X82415000Y-51860000D01*
X82386455Y-51716494D01*
X82305165Y-51594835D01*
X82035165Y-51324835D01*
X81913507Y-51243545D01*
X81770000Y-51215000D01*
X81020000Y-51215000D01*
X80876493Y-51243545D01*
X80754835Y-51324835D01*
X79854835Y-52224835D01*
X79773545Y-52346493D01*
X79762576Y-52401641D01*
X79745000Y-52490000D01*
X79745000Y-59844670D01*
X79404670Y-60185000D01*
X78200000Y-60185000D01*
X78056493Y-60213545D01*
X77934835Y-60294835D01*
X75967702Y-62261968D01*
X75886412Y-62383626D01*
X75869227Y-62470022D01*
X75857867Y-62527133D01*
X75857867Y-62851803D01*
X65704835Y-73004835D01*
X65623545Y-73126493D01*
X65601445Y-73237600D01*
X65595000Y-73270000D01*
X65595000Y-75700000D01*
X65623545Y-75843507D01*
X65655947Y-75892000D01*
X65595998Y-75892000D01*
X65595998Y-75933446D01*
X65563474Y-75919974D01*
X65535500Y-75892000D01*
X65504061Y-75892000D01*
X65500000Y-75893682D01*
X65495939Y-75892000D01*
X65464500Y-75892000D01*
X65436526Y-75919974D01*
X65280595Y-75984563D01*
X65187500Y-76077658D01*
X65187500Y-76044000D01*
X65035500Y-75892000D01*
X65004061Y-75892000D01*
X64780595Y-75984563D01*
X64609562Y-76155596D01*
X64517000Y-76379062D01*
X55375000Y-76379062D01*
X55375000Y-39375000D01*
X94625000Y-39375000D01*
X94625000Y-88625000D01*
G36*
X90929300Y-83219468D02*
X87741272Y-86407497D01*
X87741268Y-86407500D01*
X87595482Y-86553287D01*
X87587946Y-86551343D01*
X87586948Y-86550962D01*
X87586516Y-86550974D01*
X87586089Y-86550864D01*
X87585010Y-86551016D01*
X87572467Y-86551368D01*
X87541879Y-86545285D01*
X87519647Y-86545286D01*
X87489097Y-86551364D01*
X87476485Y-86551010D01*
X87475457Y-86550865D01*
X87475051Y-86550970D01*
X87474631Y-86550958D01*
X87473660Y-86551329D01*
X87461447Y-86554479D01*
X87430313Y-86555352D01*
X87408640Y-86560298D01*
X87380172Y-86573036D01*
X87367901Y-86575477D01*
X87366800Y-86575570D01*
X87366402Y-86575775D01*
X87365962Y-86575863D01*
X87365040Y-86576479D01*
X87353929Y-86582218D01*
X87323729Y-86590010D01*
X87303699Y-86599657D01*
X87278812Y-86618388D01*
X87265608Y-86624296D01*
X87259054Y-86631227D01*
X87227580Y-86647486D01*
X87210201Y-86661345D01*
X87195524Y-86678724D01*
X87176609Y-86691363D01*
X86892741Y-86975229D01*
X86880107Y-86994137D01*
X86862732Y-87008809D01*
X86848871Y-87026190D01*
X86832614Y-87057659D01*
X86825688Y-87064206D01*
X86819771Y-87077428D01*
X86801025Y-87102337D01*
X86791380Y-87122365D01*
X86783595Y-87152544D01*
X86777811Y-87163741D01*
X86777224Y-87164619D01*
X86777141Y-87165038D01*
X86776950Y-87165407D01*
X86776864Y-87166431D01*
X86774403Y-87178807D01*
X86761681Y-87207234D01*
X86756733Y-87228909D01*
X86755879Y-87259300D01*
X85611932Y-87259300D01*
X90633074Y-82238158D01*
X90720131Y-82107869D01*
X90750700Y-81954184D01*
X90750700Y-80401371D01*
X90755326Y-80400718D01*
X90825685Y-80376099D01*
X90864553Y-80353172D01*
X90906712Y-80337079D01*
X90929300Y-80322886D01*
X90929300Y-83219468D01*
X90929300Y-83219468D01*
G37*
X90929300Y-83219468D02*
X87741272Y-86407497D01*
X87741268Y-86407500D01*
X87595482Y-86553287D01*
X87587946Y-86551343D01*
X87586948Y-86550962D01*
X87586516Y-86550974D01*
X87586089Y-86550864D01*
X87585010Y-86551016D01*
X87572467Y-86551368D01*
X87541879Y-86545285D01*
X87519647Y-86545286D01*
X87489097Y-86551364D01*
X87476485Y-86551010D01*
X87475457Y-86550865D01*
X87475051Y-86550970D01*
X87474631Y-86550958D01*
X87473660Y-86551329D01*
X87461447Y-86554479D01*
X87430313Y-86555352D01*
X87408640Y-86560298D01*
X87380172Y-86573036D01*
X87367901Y-86575477D01*
X87366800Y-86575570D01*
X87366402Y-86575775D01*
X87365962Y-86575863D01*
X87365040Y-86576479D01*
X87353929Y-86582218D01*
X87323729Y-86590010D01*
X87303699Y-86599657D01*
X87278812Y-86618388D01*
X87265608Y-86624296D01*
X87259054Y-86631227D01*
X87227580Y-86647486D01*
X87210201Y-86661345D01*
X87195524Y-86678724D01*
X87176609Y-86691363D01*
X86892741Y-86975229D01*
X86880107Y-86994137D01*
X86862732Y-87008809D01*
X86848871Y-87026190D01*
X86832614Y-87057659D01*
X86825688Y-87064206D01*
X86819771Y-87077428D01*
X86801025Y-87102337D01*
X86791380Y-87122365D01*
X86783595Y-87152544D01*
X86777811Y-87163741D01*
X86777224Y-87164619D01*
X86777141Y-87165038D01*
X86776950Y-87165407D01*
X86776864Y-87166431D01*
X86774403Y-87178807D01*
X86761681Y-87207234D01*
X86756733Y-87228909D01*
X86755879Y-87259300D01*
X85611932Y-87259300D01*
X90633074Y-82238158D01*
X90720131Y-82107869D01*
X90750700Y-81954184D01*
X90750700Y-80401371D01*
X90755326Y-80400718D01*
X90825685Y-80376099D01*
X90864553Y-80353172D01*
X90906712Y-80337079D01*
X90929300Y-80322886D01*
X90929300Y-83219468D01*
G36*
X89593698Y-75474899D02*
X89589576Y-75475481D01*
X89519217Y-75500100D01*
X89480349Y-75523027D01*
X89438190Y-75539120D01*
X89375073Y-75578779D01*
X89342281Y-75609781D01*
X89304763Y-75634850D01*
X89252054Y-75687559D01*
X89226984Y-75725079D01*
X89195984Y-75757869D01*
X89156324Y-75820986D01*
X89140231Y-75863145D01*
X89117304Y-75902013D01*
X89092685Y-75972372D01*
X89086378Y-76017052D01*
X89072676Y-76060039D01*
X89064329Y-76134113D01*
X89066240Y-76156776D01*
X89061803Y-76179083D01*
X89061803Y-76827916D01*
X89066240Y-76850223D01*
X89064329Y-76872886D01*
X89072676Y-76946960D01*
X89086378Y-76989947D01*
X89092685Y-77034627D01*
X89117304Y-77104986D01*
X89140231Y-77143854D01*
X89156324Y-77186013D01*
X89195984Y-77249130D01*
X89226984Y-77281920D01*
X89252054Y-77319440D01*
X89304763Y-77372149D01*
X89342281Y-77397218D01*
X89375073Y-77428220D01*
X89425491Y-77459900D01*
X89375073Y-77491579D01*
X89342281Y-77522581D01*
X89304763Y-77547650D01*
X89252054Y-77600359D01*
X89226984Y-77637879D01*
X89195984Y-77670669D01*
X89156324Y-77733786D01*
X89140231Y-77775945D01*
X89117304Y-77814813D01*
X89092685Y-77885172D01*
X89086378Y-77929852D01*
X89072676Y-77972839D01*
X89064329Y-78046913D01*
X89066240Y-78069576D01*
X89061803Y-78091883D01*
X89061803Y-78740716D01*
X89066240Y-78763023D01*
X89064329Y-78785686D01*
X89072676Y-78859760D01*
X89086378Y-78902747D01*
X89092685Y-78947427D01*
X89117304Y-79017786D01*
X89140231Y-79056654D01*
X89156324Y-79098813D01*
X89195984Y-79161930D01*
X89226984Y-79194720D01*
X89252054Y-79232240D01*
X89304763Y-79284949D01*
X89342281Y-79310018D01*
X89375073Y-79341020D01*
X89438190Y-79380679D01*
X89480349Y-79396772D01*
X89519217Y-79419699D01*
X89589576Y-79444318D01*
X89634256Y-79450625D01*
X89677243Y-79464327D01*
X89751318Y-79472674D01*
X89773980Y-79470763D01*
X89796287Y-79475200D01*
X89822411Y-79475200D01*
X89779550Y-79518061D01*
X89754480Y-79555581D01*
X89723480Y-79588371D01*
X89683820Y-79651488D01*
X89667727Y-79693647D01*
X89644800Y-79732515D01*
X89620181Y-79802874D01*
X89613874Y-79847554D01*
X89600171Y-79890546D01*
X89591825Y-79964621D01*
X89593736Y-79987281D01*
X89589300Y-80009585D01*
X89589300Y-81639468D01*
X84769468Y-86459300D01*
X84414078Y-86459300D01*
X84528158Y-86383074D01*
X88873074Y-82038158D01*
X88960130Y-81907870D01*
X88990700Y-81754184D01*
X88990700Y-75168400D01*
X89025049Y-75168400D01*
X89047353Y-75163963D01*
X89070017Y-75165875D01*
X89187722Y-75152611D01*
X89230711Y-75138909D01*
X89275393Y-75132601D01*
X89387196Y-75093480D01*
X89426066Y-75070551D01*
X89468220Y-75054460D01*
X89568514Y-74991442D01*
X89593012Y-74968281D01*
X89593698Y-75474899D01*
X89593698Y-75474899D01*
G37*
X89593698Y-75474899D02*
X89589576Y-75475481D01*
X89519217Y-75500100D01*
X89480349Y-75523027D01*
X89438190Y-75539120D01*
X89375073Y-75578779D01*
X89342281Y-75609781D01*
X89304763Y-75634850D01*
X89252054Y-75687559D01*
X89226984Y-75725079D01*
X89195984Y-75757869D01*
X89156324Y-75820986D01*
X89140231Y-75863145D01*
X89117304Y-75902013D01*
X89092685Y-75972372D01*
X89086378Y-76017052D01*
X89072676Y-76060039D01*
X89064329Y-76134113D01*
X89066240Y-76156776D01*
X89061803Y-76179083D01*
X89061803Y-76827916D01*
X89066240Y-76850223D01*
X89064329Y-76872886D01*
X89072676Y-76946960D01*
X89086378Y-76989947D01*
X89092685Y-77034627D01*
X89117304Y-77104986D01*
X89140231Y-77143854D01*
X89156324Y-77186013D01*
X89195984Y-77249130D01*
X89226984Y-77281920D01*
X89252054Y-77319440D01*
X89304763Y-77372149D01*
X89342281Y-77397218D01*
X89375073Y-77428220D01*
X89425491Y-77459900D01*
X89375073Y-77491579D01*
X89342281Y-77522581D01*
X89304763Y-77547650D01*
X89252054Y-77600359D01*
X89226984Y-77637879D01*
X89195984Y-77670669D01*
X89156324Y-77733786D01*
X89140231Y-77775945D01*
X89117304Y-77814813D01*
X89092685Y-77885172D01*
X89086378Y-77929852D01*
X89072676Y-77972839D01*
X89064329Y-78046913D01*
X89066240Y-78069576D01*
X89061803Y-78091883D01*
X89061803Y-78740716D01*
X89066240Y-78763023D01*
X89064329Y-78785686D01*
X89072676Y-78859760D01*
X89086378Y-78902747D01*
X89092685Y-78947427D01*
X89117304Y-79017786D01*
X89140231Y-79056654D01*
X89156324Y-79098813D01*
X89195984Y-79161930D01*
X89226984Y-79194720D01*
X89252054Y-79232240D01*
X89304763Y-79284949D01*
X89342281Y-79310018D01*
X89375073Y-79341020D01*
X89438190Y-79380679D01*
X89480349Y-79396772D01*
X89519217Y-79419699D01*
X89589576Y-79444318D01*
X89634256Y-79450625D01*
X89677243Y-79464327D01*
X89751318Y-79472674D01*
X89773980Y-79470763D01*
X89796287Y-79475200D01*
X89822411Y-79475200D01*
X89779550Y-79518061D01*
X89754480Y-79555581D01*
X89723480Y-79588371D01*
X89683820Y-79651488D01*
X89667727Y-79693647D01*
X89644800Y-79732515D01*
X89620181Y-79802874D01*
X89613874Y-79847554D01*
X89600171Y-79890546D01*
X89591825Y-79964621D01*
X89593736Y-79987281D01*
X89589300Y-80009585D01*
X89589300Y-81639468D01*
X84769468Y-86459300D01*
X84414078Y-86459300D01*
X84528158Y-86383074D01*
X88873074Y-82038158D01*
X88960130Y-81907870D01*
X88990700Y-81754184D01*
X88990700Y-75168400D01*
X89025049Y-75168400D01*
X89047353Y-75163963D01*
X89070017Y-75165875D01*
X89187722Y-75152611D01*
X89230711Y-75138909D01*
X89275393Y-75132601D01*
X89387196Y-75093480D01*
X89426066Y-75070551D01*
X89468220Y-75054460D01*
X89568514Y-74991442D01*
X89593012Y-74968281D01*
X89593698Y-75474899D01*
G36*
X87337509Y-74234939D02*
X87430765Y-74293536D01*
X87472922Y-74309628D01*
X87511790Y-74332556D01*
X87615748Y-74368932D01*
X87660426Y-74375239D01*
X87703420Y-74388943D01*
X87812866Y-74401275D01*
X87835528Y-74399364D01*
X87857832Y-74403800D01*
X88000159Y-74403800D01*
X87943239Y-74494389D01*
X87927148Y-74536543D01*
X87904219Y-74575413D01*
X87865098Y-74687216D01*
X87858790Y-74731896D01*
X87845087Y-74774890D01*
X87831825Y-74892596D01*
X87833736Y-74915256D01*
X87829300Y-74937560D01*
X87829300Y-78930475D01*
X87821448Y-78933472D01*
X87818029Y-78934152D01*
X87815848Y-78935610D01*
X87788327Y-78946114D01*
X87758057Y-78965133D01*
X87736638Y-78985382D01*
X87734375Y-78986717D01*
X87732277Y-78989505D01*
X87725262Y-78996137D01*
X87717219Y-79001511D01*
X87714034Y-79002936D01*
X87712230Y-79004845D01*
X87687740Y-79021208D01*
X87662461Y-79046487D01*
X87646098Y-79070977D01*
X87644189Y-79072781D01*
X87642764Y-79075966D01*
X87637390Y-79084009D01*
X87630757Y-79091025D01*
X87627969Y-79093123D01*
X87626634Y-79095386D01*
X87606386Y-79116804D01*
X87587367Y-79147074D01*
X87576863Y-79174595D01*
X87575405Y-79176776D01*
X87574725Y-79180195D01*
X87571278Y-79189227D01*
X87566371Y-79197544D01*
X87564120Y-79200210D01*
X87563322Y-79202712D01*
X87548354Y-79228087D01*
X87536546Y-79261830D01*
X87532425Y-79291016D01*
X87531489Y-79293469D01*
X87531587Y-79296954D01*
X87530237Y-79306516D01*
X87516534Y-79349507D01*
X87512531Y-79385032D01*
X87514442Y-79407693D01*
X87510005Y-79430000D01*
X87510005Y-79710706D01*
X87514442Y-79733013D01*
X87512531Y-79755675D01*
X87516534Y-79791200D01*
X87530237Y-79834191D01*
X87531587Y-79843751D01*
X87531489Y-79847236D01*
X87532425Y-79849689D01*
X87536546Y-79878875D01*
X87548354Y-79912618D01*
X87563324Y-79937995D01*
X87564121Y-79940496D01*
X87566371Y-79943160D01*
X87571278Y-79951478D01*
X87574725Y-79960510D01*
X87575405Y-79963929D01*
X87576863Y-79966110D01*
X87587367Y-79993631D01*
X87606386Y-80023901D01*
X87626634Y-80045319D01*
X87627969Y-80047582D01*
X87630757Y-80049680D01*
X87637390Y-80056696D01*
X87642764Y-80064739D01*
X87644189Y-80067924D01*
X87646098Y-80069728D01*
X87662461Y-80094218D01*
X87687740Y-80119497D01*
X87712230Y-80135860D01*
X87714034Y-80137769D01*
X87717219Y-80139194D01*
X87725262Y-80144568D01*
X87732277Y-80151200D01*
X87734375Y-80153988D01*
X87736638Y-80155323D01*
X87752536Y-80170353D01*
X87736638Y-80185382D01*
X87734375Y-80186717D01*
X87732277Y-80189505D01*
X87725262Y-80196137D01*
X87717219Y-80201511D01*
X87714034Y-80202936D01*
X87712230Y-80204845D01*
X87687740Y-80221208D01*
X87662461Y-80246487D01*
X87646098Y-80270977D01*
X87644189Y-80272781D01*
X87642764Y-80275966D01*
X87637390Y-80284009D01*
X87630757Y-80291025D01*
X87627969Y-80293123D01*
X87626634Y-80295386D01*
X87606386Y-80316804D01*
X87587367Y-80347074D01*
X87576863Y-80374595D01*
X87575405Y-80376776D01*
X87574725Y-80380195D01*
X87571278Y-80389227D01*
X87566371Y-80397544D01*
X87564120Y-80400210D01*
X87563322Y-80402712D01*
X87548354Y-80428087D01*
X87536546Y-80461830D01*
X87532425Y-80491016D01*
X87531489Y-80493469D01*
X87531587Y-80496954D01*
X87530237Y-80506516D01*
X87516534Y-80549507D01*
X87512531Y-80585032D01*
X87514442Y-80607693D01*
X87510005Y-80630000D01*
X87510005Y-80910706D01*
X87514442Y-80933013D01*
X87512531Y-80955675D01*
X87516534Y-80991200D01*
X87530237Y-81034191D01*
X87531587Y-81043751D01*
X87531489Y-81047236D01*
X87532425Y-81049689D01*
X87536546Y-81078875D01*
X87548354Y-81112618D01*
X87563324Y-81137995D01*
X87564121Y-81140496D01*
X87566371Y-81143160D01*
X87571278Y-81151478D01*
X87574725Y-81160510D01*
X87575405Y-81163929D01*
X87576863Y-81166110D01*
X87587367Y-81193631D01*
X87606386Y-81223901D01*
X87626634Y-81245319D01*
X87627969Y-81247582D01*
X87630757Y-81249680D01*
X87637390Y-81256696D01*
X87642764Y-81264739D01*
X87644189Y-81267924D01*
X87646098Y-81269728D01*
X87662461Y-81294218D01*
X87687740Y-81319497D01*
X87712230Y-81335860D01*
X87714034Y-81337769D01*
X87717219Y-81339194D01*
X87725262Y-81344568D01*
X87732277Y-81351200D01*
X87734375Y-81353988D01*
X87736638Y-81355323D01*
X87758057Y-81375572D01*
X87788327Y-81394591D01*
X87815848Y-81405095D01*
X87818029Y-81406553D01*
X87821448Y-81407233D01*
X87829300Y-81410230D01*
X87829300Y-81439468D01*
X84893627Y-84375143D01*
X84867087Y-84363269D01*
X84834339Y-84355796D01*
X84804644Y-84354964D01*
X84800275Y-84353837D01*
X84794335Y-84354675D01*
X84789246Y-84354533D01*
X84784280Y-84353545D01*
X84778669Y-84351403D01*
X84774152Y-84351530D01*
X84745004Y-84345731D01*
X84711416Y-84345730D01*
X84682229Y-84351535D01*
X84677704Y-84351408D01*
X84672091Y-84353551D01*
X84667150Y-84354534D01*
X84662089Y-84354676D01*
X84656143Y-84353836D01*
X84651764Y-84354965D01*
X84622034Y-84355800D01*
X84589286Y-84363275D01*
X84562159Y-84375414D01*
X84557729Y-84376295D01*
X84552737Y-84379630D01*
X84548102Y-84381705D01*
X84543202Y-84382968D01*
X84537219Y-84383473D01*
X84533203Y-84385547D01*
X84504412Y-84392974D01*
X84474150Y-84407547D01*
X84450385Y-84425432D01*
X84446257Y-84427279D01*
X84442131Y-84431643D01*
X84438094Y-84434681D01*
X84398002Y-84455393D01*
X84371740Y-84476336D01*
X84357068Y-84493711D01*
X84338158Y-84506346D01*
X84126027Y-84718477D01*
X84113390Y-84737389D01*
X84096009Y-84752067D01*
X84075067Y-84778330D01*
X84054361Y-84818413D01*
X84051307Y-84822471D01*
X84046947Y-84826593D01*
X84045103Y-84830714D01*
X84027232Y-84854460D01*
X84012657Y-84884724D01*
X84005226Y-84913529D01*
X84003150Y-84917548D01*
X84002645Y-84923533D01*
X84001383Y-84928427D01*
X83999322Y-84933033D01*
X83995985Y-84938027D01*
X83995102Y-84942464D01*
X83982949Y-84969626D01*
X83975476Y-85002372D01*
X83974643Y-85032080D01*
X83973515Y-85036454D01*
X83974354Y-85042399D01*
X83974212Y-85047468D01*
X83973222Y-85052445D01*
X83971081Y-85058054D01*
X83971208Y-85062569D01*
X83965410Y-85091712D01*
X83965409Y-85125302D01*
X83971213Y-85154484D01*
X83971086Y-85159007D01*
X83973228Y-85164618D01*
X83974213Y-85169570D01*
X83974355Y-85174617D01*
X83973515Y-85180563D01*
X83974645Y-85184943D01*
X83975480Y-85214689D01*
X83982955Y-85247435D01*
X83994820Y-85273948D01*
X83929468Y-85339300D01*
X83041932Y-85339300D01*
X87193074Y-81188158D01*
X87280130Y-81057870D01*
X87310700Y-80904184D01*
X87310700Y-74209593D01*
X87337509Y-74234939D01*
X87337509Y-74234939D01*
G37*
X87337509Y-74234939D02*
X87430765Y-74293536D01*
X87472922Y-74309628D01*
X87511790Y-74332556D01*
X87615748Y-74368932D01*
X87660426Y-74375239D01*
X87703420Y-74388943D01*
X87812866Y-74401275D01*
X87835528Y-74399364D01*
X87857832Y-74403800D01*
X88000159Y-74403800D01*
X87943239Y-74494389D01*
X87927148Y-74536543D01*
X87904219Y-74575413D01*
X87865098Y-74687216D01*
X87858790Y-74731896D01*
X87845087Y-74774890D01*
X87831825Y-74892596D01*
X87833736Y-74915256D01*
X87829300Y-74937560D01*
X87829300Y-78930475D01*
X87821448Y-78933472D01*
X87818029Y-78934152D01*
X87815848Y-78935610D01*
X87788327Y-78946114D01*
X87758057Y-78965133D01*
X87736638Y-78985382D01*
X87734375Y-78986717D01*
X87732277Y-78989505D01*
X87725262Y-78996137D01*
X87717219Y-79001511D01*
X87714034Y-79002936D01*
X87712230Y-79004845D01*
X87687740Y-79021208D01*
X87662461Y-79046487D01*
X87646098Y-79070977D01*
X87644189Y-79072781D01*
X87642764Y-79075966D01*
X87637390Y-79084009D01*
X87630757Y-79091025D01*
X87627969Y-79093123D01*
X87626634Y-79095386D01*
X87606386Y-79116804D01*
X87587367Y-79147074D01*
X87576863Y-79174595D01*
X87575405Y-79176776D01*
X87574725Y-79180195D01*
X87571278Y-79189227D01*
X87566371Y-79197544D01*
X87564120Y-79200210D01*
X87563322Y-79202712D01*
X87548354Y-79228087D01*
X87536546Y-79261830D01*
X87532425Y-79291016D01*
X87531489Y-79293469D01*
X87531587Y-79296954D01*
X87530237Y-79306516D01*
X87516534Y-79349507D01*
X87512531Y-79385032D01*
X87514442Y-79407693D01*
X87510005Y-79430000D01*
X87510005Y-79710706D01*
X87514442Y-79733013D01*
X87512531Y-79755675D01*
X87516534Y-79791200D01*
X87530237Y-79834191D01*
X87531587Y-79843751D01*
X87531489Y-79847236D01*
X87532425Y-79849689D01*
X87536546Y-79878875D01*
X87548354Y-79912618D01*
X87563324Y-79937995D01*
X87564121Y-79940496D01*
X87566371Y-79943160D01*
X87571278Y-79951478D01*
X87574725Y-79960510D01*
X87575405Y-79963929D01*
X87576863Y-79966110D01*
X87587367Y-79993631D01*
X87606386Y-80023901D01*
X87626634Y-80045319D01*
X87627969Y-80047582D01*
X87630757Y-80049680D01*
X87637390Y-80056696D01*
X87642764Y-80064739D01*
X87644189Y-80067924D01*
X87646098Y-80069728D01*
X87662461Y-80094218D01*
X87687740Y-80119497D01*
X87712230Y-80135860D01*
X87714034Y-80137769D01*
X87717219Y-80139194D01*
X87725262Y-80144568D01*
X87732277Y-80151200D01*
X87734375Y-80153988D01*
X87736638Y-80155323D01*
X87752536Y-80170353D01*
X87736638Y-80185382D01*
X87734375Y-80186717D01*
X87732277Y-80189505D01*
X87725262Y-80196137D01*
X87717219Y-80201511D01*
X87714034Y-80202936D01*
X87712230Y-80204845D01*
X87687740Y-80221208D01*
X87662461Y-80246487D01*
X87646098Y-80270977D01*
X87644189Y-80272781D01*
X87642764Y-80275966D01*
X87637390Y-80284009D01*
X87630757Y-80291025D01*
X87627969Y-80293123D01*
X87626634Y-80295386D01*
X87606386Y-80316804D01*
X87587367Y-80347074D01*
X87576863Y-80374595D01*
X87575405Y-80376776D01*
X87574725Y-80380195D01*
X87571278Y-80389227D01*
X87566371Y-80397544D01*
X87564120Y-80400210D01*
X87563322Y-80402712D01*
X87548354Y-80428087D01*
X87536546Y-80461830D01*
X87532425Y-80491016D01*
X87531489Y-80493469D01*
X87531587Y-80496954D01*
X87530237Y-80506516D01*
X87516534Y-80549507D01*
X87512531Y-80585032D01*
X87514442Y-80607693D01*
X87510005Y-80630000D01*
X87510005Y-80910706D01*
X87514442Y-80933013D01*
X87512531Y-80955675D01*
X87516534Y-80991200D01*
X87530237Y-81034191D01*
X87531587Y-81043751D01*
X87531489Y-81047236D01*
X87532425Y-81049689D01*
X87536546Y-81078875D01*
X87548354Y-81112618D01*
X87563324Y-81137995D01*
X87564121Y-81140496D01*
X87566371Y-81143160D01*
X87571278Y-81151478D01*
X87574725Y-81160510D01*
X87575405Y-81163929D01*
X87576863Y-81166110D01*
X87587367Y-81193631D01*
X87606386Y-81223901D01*
X87626634Y-81245319D01*
X87627969Y-81247582D01*
X87630757Y-81249680D01*
X87637390Y-81256696D01*
X87642764Y-81264739D01*
X87644189Y-81267924D01*
X87646098Y-81269728D01*
X87662461Y-81294218D01*
X87687740Y-81319497D01*
X87712230Y-81335860D01*
X87714034Y-81337769D01*
X87717219Y-81339194D01*
X87725262Y-81344568D01*
X87732277Y-81351200D01*
X87734375Y-81353988D01*
X87736638Y-81355323D01*
X87758057Y-81375572D01*
X87788327Y-81394591D01*
X87815848Y-81405095D01*
X87818029Y-81406553D01*
X87821448Y-81407233D01*
X87829300Y-81410230D01*
X87829300Y-81439468D01*
X84893627Y-84375143D01*
X84867087Y-84363269D01*
X84834339Y-84355796D01*
X84804644Y-84354964D01*
X84800275Y-84353837D01*
X84794335Y-84354675D01*
X84789246Y-84354533D01*
X84784280Y-84353545D01*
X84778669Y-84351403D01*
X84774152Y-84351530D01*
X84745004Y-84345731D01*
X84711416Y-84345730D01*
X84682229Y-84351535D01*
X84677704Y-84351408D01*
X84672091Y-84353551D01*
X84667150Y-84354534D01*
X84662089Y-84354676D01*
X84656143Y-84353836D01*
X84651764Y-84354965D01*
X84622034Y-84355800D01*
X84589286Y-84363275D01*
X84562159Y-84375414D01*
X84557729Y-84376295D01*
X84552737Y-84379630D01*
X84548102Y-84381705D01*
X84543202Y-84382968D01*
X84537219Y-84383473D01*
X84533203Y-84385547D01*
X84504412Y-84392974D01*
X84474150Y-84407547D01*
X84450385Y-84425432D01*
X84446257Y-84427279D01*
X84442131Y-84431643D01*
X84438094Y-84434681D01*
X84398002Y-84455393D01*
X84371740Y-84476336D01*
X84357068Y-84493711D01*
X84338158Y-84506346D01*
X84126027Y-84718477D01*
X84113390Y-84737389D01*
X84096009Y-84752067D01*
X84075067Y-84778330D01*
X84054361Y-84818413D01*
X84051307Y-84822471D01*
X84046947Y-84826593D01*
X84045103Y-84830714D01*
X84027232Y-84854460D01*
X84012657Y-84884724D01*
X84005226Y-84913529D01*
X84003150Y-84917548D01*
X84002645Y-84923533D01*
X84001383Y-84928427D01*
X83999322Y-84933033D01*
X83995985Y-84938027D01*
X83995102Y-84942464D01*
X83982949Y-84969626D01*
X83975476Y-85002372D01*
X83974643Y-85032080D01*
X83973515Y-85036454D01*
X83974354Y-85042399D01*
X83974212Y-85047468D01*
X83973222Y-85052445D01*
X83971081Y-85058054D01*
X83971208Y-85062569D01*
X83965410Y-85091712D01*
X83965409Y-85125302D01*
X83971213Y-85154484D01*
X83971086Y-85159007D01*
X83973228Y-85164618D01*
X83974213Y-85169570D01*
X83974355Y-85174617D01*
X83973515Y-85180563D01*
X83974645Y-85184943D01*
X83975480Y-85214689D01*
X83982955Y-85247435D01*
X83994820Y-85273948D01*
X83929468Y-85339300D01*
X83041932Y-85339300D01*
X87193074Y-81188158D01*
X87280130Y-81057870D01*
X87310700Y-80904184D01*
X87310700Y-74209593D01*
X87337509Y-74234939D01*
G36*
X85570837Y-68706227D02*
X85601838Y-68739018D01*
X85626907Y-68776536D01*
X85695010Y-68844639D01*
X85732529Y-68869709D01*
X85765319Y-68900709D01*
X85846868Y-68951950D01*
X85889028Y-68968043D01*
X85927892Y-68990969D01*
X86018799Y-69022779D01*
X86063477Y-69029087D01*
X86106473Y-69042791D01*
X86202181Y-69053575D01*
X86224843Y-69051664D01*
X86247147Y-69056100D01*
X86289418Y-69056100D01*
X86253449Y-69113344D01*
X86237356Y-69155503D01*
X86214430Y-69194368D01*
X86182620Y-69285275D01*
X86176312Y-69329956D01*
X86162608Y-69372953D01*
X86151825Y-69468660D01*
X86153736Y-69491320D01*
X86149300Y-69513623D01*
X86149300Y-72381767D01*
X86133783Y-72366250D01*
X86096266Y-72341182D01*
X86063474Y-72310180D01*
X85965768Y-72248787D01*
X85923609Y-72232694D01*
X85884744Y-72209768D01*
X85775827Y-72171656D01*
X85731142Y-72165347D01*
X85688147Y-72151644D01*
X85573480Y-72138725D01*
X85550822Y-72140636D01*
X85528518Y-72136200D01*
X85359838Y-72136200D01*
X85416760Y-72045611D01*
X85432853Y-72003452D01*
X85455780Y-71964585D01*
X85494901Y-71852783D01*
X85501208Y-71808105D01*
X85514912Y-71765112D01*
X85528175Y-71647407D01*
X85526263Y-71624743D01*
X85530700Y-71602439D01*
X85530700Y-68642350D01*
X85570837Y-68706227D01*
X85570837Y-68706227D01*
G37*
X85570837Y-68706227D02*
X85601838Y-68739018D01*
X85626907Y-68776536D01*
X85695010Y-68844639D01*
X85732529Y-68869709D01*
X85765319Y-68900709D01*
X85846868Y-68951950D01*
X85889028Y-68968043D01*
X85927892Y-68990969D01*
X86018799Y-69022779D01*
X86063477Y-69029087D01*
X86106473Y-69042791D01*
X86202181Y-69053575D01*
X86224843Y-69051664D01*
X86247147Y-69056100D01*
X86289418Y-69056100D01*
X86253449Y-69113344D01*
X86237356Y-69155503D01*
X86214430Y-69194368D01*
X86182620Y-69285275D01*
X86176312Y-69329956D01*
X86162608Y-69372953D01*
X86151825Y-69468660D01*
X86153736Y-69491320D01*
X86149300Y-69513623D01*
X86149300Y-72381767D01*
X86133783Y-72366250D01*
X86096266Y-72341182D01*
X86063474Y-72310180D01*
X85965768Y-72248787D01*
X85923609Y-72232694D01*
X85884744Y-72209768D01*
X85775827Y-72171656D01*
X85731142Y-72165347D01*
X85688147Y-72151644D01*
X85573480Y-72138725D01*
X85550822Y-72140636D01*
X85528518Y-72136200D01*
X85359838Y-72136200D01*
X85416760Y-72045611D01*
X85432853Y-72003452D01*
X85455780Y-71964585D01*
X85494901Y-71852783D01*
X85501208Y-71808105D01*
X85514912Y-71765112D01*
X85528175Y-71647407D01*
X85526263Y-71624743D01*
X85530700Y-71602439D01*
X85530700Y-68642350D01*
X85570837Y-68706227D01*
G36*
X90228299Y-48096269D02*
X90597748Y-48096269D01*
X90670652Y-48169300D01*
X90255816Y-48169300D01*
X90102130Y-48199870D01*
X90001491Y-48267115D01*
X89971842Y-48286926D01*
X89706926Y-48551842D01*
X89619870Y-48682130D01*
X89589300Y-48835816D01*
X89589300Y-70380609D01*
X89568514Y-70360957D01*
X89468220Y-70297939D01*
X89426066Y-70281848D01*
X89387196Y-70258919D01*
X89275393Y-70219798D01*
X89230713Y-70213490D01*
X89187719Y-70199787D01*
X89070013Y-70186525D01*
X89047353Y-70188436D01*
X89025049Y-70184000D01*
X88990700Y-70184000D01*
X88990700Y-48110532D01*
X89022700Y-48078532D01*
X90139129Y-48078532D01*
X90228299Y-48096269D01*
X90228299Y-48096269D01*
G37*
X90228299Y-48096269D02*
X90597748Y-48096269D01*
X90670652Y-48169300D01*
X90255816Y-48169300D01*
X90102130Y-48199870D01*
X90001491Y-48267115D01*
X89971842Y-48286926D01*
X89706926Y-48551842D01*
X89619870Y-48682130D01*
X89589300Y-48835816D01*
X89589300Y-70380609D01*
X89568514Y-70360957D01*
X89468220Y-70297939D01*
X89426066Y-70281848D01*
X89387196Y-70258919D01*
X89275393Y-70219798D01*
X89230713Y-70213490D01*
X89187719Y-70199787D01*
X89070013Y-70186525D01*
X89047353Y-70188436D01*
X89025049Y-70184000D01*
X88990700Y-70184000D01*
X88990700Y-48110532D01*
X89022700Y-48078532D01*
X90139129Y-48078532D01*
X90228299Y-48096269D01*
G36*
X88424009Y-47034759D02*
X87946926Y-47511842D01*
X87859870Y-47642130D01*
X87829300Y-47795816D01*
X87829300Y-47964447D01*
X87802150Y-47974811D01*
X87773709Y-47992682D01*
X87752104Y-48013109D01*
X87748209Y-48015406D01*
X87744597Y-48020206D01*
X87740919Y-48023683D01*
X87736718Y-48026490D01*
X87731234Y-48028944D01*
X87728127Y-48032230D01*
X87703402Y-48048751D01*
X87679651Y-48072502D01*
X87663129Y-48097229D01*
X87659845Y-48100334D01*
X87657393Y-48105813D01*
X87654582Y-48110021D01*
X87651108Y-48113695D01*
X87646306Y-48117309D01*
X87644007Y-48121206D01*
X87623583Y-48142809D01*
X87605711Y-48171250D01*
X87595105Y-48199035D01*
X87592595Y-48202791D01*
X87591424Y-48208677D01*
X87589618Y-48213410D01*
X87587039Y-48217781D01*
X87583165Y-48222369D01*
X87581793Y-48226674D01*
X87566692Y-48252274D01*
X87555598Y-48283978D01*
X87551441Y-48313419D01*
X87549829Y-48317643D01*
X87549997Y-48323647D01*
X87549289Y-48328664D01*
X87535584Y-48371667D01*
X87531824Y-48405046D01*
X87533736Y-48427701D01*
X87529300Y-48450000D01*
X87529300Y-48750000D01*
X87533736Y-48772299D01*
X87531824Y-48794956D01*
X87535584Y-48828333D01*
X87549289Y-48871335D01*
X87549997Y-48876352D01*
X87549829Y-48882356D01*
X87551441Y-48886580D01*
X87555598Y-48916021D01*
X87566692Y-48947725D01*
X87581794Y-48973327D01*
X87583166Y-48977631D01*
X87587038Y-48982217D01*
X87589618Y-48986589D01*
X87591424Y-48991322D01*
X87592595Y-48997208D01*
X87595105Y-49000964D01*
X87605711Y-49028749D01*
X87623583Y-49057190D01*
X87644007Y-49078793D01*
X87646306Y-49082690D01*
X87651108Y-49086304D01*
X87654582Y-49089978D01*
X87657393Y-49094186D01*
X87659845Y-49099665D01*
X87663129Y-49102770D01*
X87679651Y-49127497D01*
X87703402Y-49151248D01*
X87728127Y-49167769D01*
X87731234Y-49171055D01*
X87736718Y-49173509D01*
X87740919Y-49176316D01*
X87744597Y-49179793D01*
X87748209Y-49184593D01*
X87752104Y-49186890D01*
X87773709Y-49207317D01*
X87802150Y-49225188D01*
X87829300Y-49235552D01*
X87829300Y-62053670D01*
X87764990Y-61989360D01*
X87727472Y-61964291D01*
X87694681Y-61933290D01*
X87613132Y-61882049D01*
X87570973Y-61865956D01*
X87532108Y-61843030D01*
X87441201Y-61811220D01*
X87396520Y-61804912D01*
X87353523Y-61791208D01*
X87257816Y-61780425D01*
X87235156Y-61782336D01*
X87212853Y-61777900D01*
X87184796Y-61777900D01*
X87206551Y-61743278D01*
X87222644Y-61701118D01*
X87245570Y-61662254D01*
X87277380Y-61571347D01*
X87283688Y-61526666D01*
X87297392Y-61483669D01*
X87308175Y-61387961D01*
X87306264Y-61365302D01*
X87310700Y-61342999D01*
X87310700Y-46960700D01*
X88534846Y-46960700D01*
X88424009Y-47034759D01*
X88424009Y-47034759D01*
G37*
X88424009Y-47034759D02*
X87946926Y-47511842D01*
X87859870Y-47642130D01*
X87829300Y-47795816D01*
X87829300Y-47964447D01*
X87802150Y-47974811D01*
X87773709Y-47992682D01*
X87752104Y-48013109D01*
X87748209Y-48015406D01*
X87744597Y-48020206D01*
X87740919Y-48023683D01*
X87736718Y-48026490D01*
X87731234Y-48028944D01*
X87728127Y-48032230D01*
X87703402Y-48048751D01*
X87679651Y-48072502D01*
X87663129Y-48097229D01*
X87659845Y-48100334D01*
X87657393Y-48105813D01*
X87654582Y-48110021D01*
X87651108Y-48113695D01*
X87646306Y-48117309D01*
X87644007Y-48121206D01*
X87623583Y-48142809D01*
X87605711Y-48171250D01*
X87595105Y-48199035D01*
X87592595Y-48202791D01*
X87591424Y-48208677D01*
X87589618Y-48213410D01*
X87587039Y-48217781D01*
X87583165Y-48222369D01*
X87581793Y-48226674D01*
X87566692Y-48252274D01*
X87555598Y-48283978D01*
X87551441Y-48313419D01*
X87549829Y-48317643D01*
X87549997Y-48323647D01*
X87549289Y-48328664D01*
X87535584Y-48371667D01*
X87531824Y-48405046D01*
X87533736Y-48427701D01*
X87529300Y-48450000D01*
X87529300Y-48750000D01*
X87533736Y-48772299D01*
X87531824Y-48794956D01*
X87535584Y-48828333D01*
X87549289Y-48871335D01*
X87549997Y-48876352D01*
X87549829Y-48882356D01*
X87551441Y-48886580D01*
X87555598Y-48916021D01*
X87566692Y-48947725D01*
X87581794Y-48973327D01*
X87583166Y-48977631D01*
X87587038Y-48982217D01*
X87589618Y-48986589D01*
X87591424Y-48991322D01*
X87592595Y-48997208D01*
X87595105Y-49000964D01*
X87605711Y-49028749D01*
X87623583Y-49057190D01*
X87644007Y-49078793D01*
X87646306Y-49082690D01*
X87651108Y-49086304D01*
X87654582Y-49089978D01*
X87657393Y-49094186D01*
X87659845Y-49099665D01*
X87663129Y-49102770D01*
X87679651Y-49127497D01*
X87703402Y-49151248D01*
X87728127Y-49167769D01*
X87731234Y-49171055D01*
X87736718Y-49173509D01*
X87740919Y-49176316D01*
X87744597Y-49179793D01*
X87748209Y-49184593D01*
X87752104Y-49186890D01*
X87773709Y-49207317D01*
X87802150Y-49225188D01*
X87829300Y-49235552D01*
X87829300Y-62053670D01*
X87764990Y-61989360D01*
X87727472Y-61964291D01*
X87694681Y-61933290D01*
X87613132Y-61882049D01*
X87570973Y-61865956D01*
X87532108Y-61843030D01*
X87441201Y-61811220D01*
X87396520Y-61804912D01*
X87353523Y-61791208D01*
X87257816Y-61780425D01*
X87235156Y-61782336D01*
X87212853Y-61777900D01*
X87184796Y-61777900D01*
X87206551Y-61743278D01*
X87222644Y-61701118D01*
X87245570Y-61662254D01*
X87277380Y-61571347D01*
X87283688Y-61526666D01*
X87297392Y-61483669D01*
X87308175Y-61387961D01*
X87306264Y-61365302D01*
X87310700Y-61342999D01*
X87310700Y-46960700D01*
X88534846Y-46960700D01*
X88424009Y-47034759D01*
G36*
X68925000Y-73090000D02*
X68953545Y-73233507D01*
X69034835Y-73355165D01*
X69201602Y-73521932D01*
X69201602Y-75892000D01*
X69095998Y-75892000D01*
X69095998Y-75952498D01*
X69035500Y-75892000D01*
X69004061Y-75892000D01*
X68780595Y-75984563D01*
X68625000Y-76140158D01*
X68625000Y-72305330D01*
X68925000Y-72005330D01*
X68925000Y-73090000D01*
X68925000Y-73090000D01*
G37*
X68925000Y-73090000D02*
X68953545Y-73233507D01*
X69034835Y-73355165D01*
X69201602Y-73521932D01*
X69201602Y-75892000D01*
X69095998Y-75892000D01*
X69095998Y-75952498D01*
X69035500Y-75892000D01*
X69004061Y-75892000D01*
X68780595Y-75984563D01*
X68625000Y-76140158D01*
X68625000Y-72305330D01*
X68925000Y-72005330D01*
X68925000Y-73090000D01*
M02*
