G04 #@! TF.FileFunction,Copper,L3,Inr,Signal*
%FSLAX46Y46*%
G04 Gerber Fmt 4.6, Leading zero omitted, Abs format (unit mm)*
G04 Created by KiCad (PCBNEW 4.0.6) date Mon Apr 10 16:51:52 2017*
%MOMM*%
%LPD*%
G01*
G04 APERTURE LIST*
%ADD10C,0.100000*%
%ADD11C,0.800000*%
%ADD12C,0.600000*%
%ADD13C,0.200000*%
G04 APERTURE END LIST*
D10*
D11*
X67440000Y-73670000D03*
X71540000Y-72790000D03*
D12*
X81430000Y-52910000D03*
D11*
X65710000Y-85850000D03*
D12*
X81490000Y-52130000D03*
X58540000Y-78990000D03*
X66750000Y-84770000D03*
X58460000Y-77700000D03*
X67640000Y-84780000D03*
X79580000Y-61900000D03*
X92690000Y-50140000D03*
X92880000Y-49370000D03*
X92100000Y-48980000D03*
X78690000Y-62510000D03*
X91850000Y-48220000D03*
X91026932Y-47676932D03*
X78110000Y-63360000D03*
X90493068Y-47143068D03*
X66670000Y-86200000D03*
X60590000Y-86910000D03*
X71750000Y-84240000D03*
X89510000Y-46440000D03*
X79970000Y-45430000D03*
X89290000Y-45700000D03*
X80740000Y-44980000D03*
X76320000Y-84220000D03*
D11*
X78210000Y-84090000D03*
X75360000Y-75560000D03*
D12*
X64780000Y-85280000D03*
X63630000Y-84510000D03*
X64110000Y-83870000D03*
X65320000Y-74790000D03*
X66410000Y-71750000D03*
X70270000Y-68150000D03*
X64340000Y-75320000D03*
X64320000Y-76130000D03*
X70180000Y-75060000D03*
X69000000Y-73750000D03*
X87500000Y-78250000D03*
X85750000Y-76500000D03*
X85750000Y-71750000D03*
X85750000Y-69500000D03*
X89250000Y-54500000D03*
X89250000Y-56500000D03*
X89250000Y-58500000D03*
X89250000Y-60500000D03*
X89250000Y-62500000D03*
X89250000Y-64500000D03*
X89250000Y-66500000D03*
X89250000Y-68500000D03*
X89250000Y-69750000D03*
X89230000Y-52110000D03*
X89220000Y-50060000D03*
X87500000Y-51800000D03*
X85800000Y-53775000D03*
X84075000Y-53775000D03*
X84500000Y-44525000D03*
X80780000Y-49220000D03*
X81580000Y-48330000D03*
X80500000Y-46500000D03*
X93000000Y-56500000D03*
X93000000Y-54500000D03*
X93000000Y-52500000D03*
X93000000Y-51000000D03*
X93000000Y-68500000D03*
X93000000Y-66500000D03*
X93000000Y-64500000D03*
X93000000Y-62500000D03*
X93000000Y-60500000D03*
X93000000Y-58500000D03*
X93000000Y-78500000D03*
X93000000Y-76500000D03*
X93000000Y-74500000D03*
X93000000Y-72500000D03*
X93000000Y-70500000D03*
D11*
X78810000Y-81740000D03*
D12*
X87050000Y-81800000D03*
X85010000Y-83930000D03*
X89330000Y-81560000D03*
X84990000Y-81310000D03*
X83530000Y-82640000D03*
X82220000Y-84060000D03*
X79960000Y-84140000D03*
D11*
X87370000Y-86120000D03*
X88760000Y-84760000D03*
X90130000Y-83290000D03*
X90295000Y-86035000D03*
X92370000Y-81580000D03*
X91960000Y-84400000D03*
X88350000Y-87980000D03*
X67900000Y-85790000D03*
X81310000Y-62640000D03*
X80860000Y-69860000D03*
X74300000Y-71160000D03*
X72700000Y-72160000D03*
X78290000Y-77690000D03*
X79350000Y-76330000D03*
X81280000Y-73750000D03*
X82970000Y-73700000D03*
X84040000Y-77310000D03*
X81200000Y-77210000D03*
X79350000Y-73700000D03*
X77070000Y-73630000D03*
D12*
X73310000Y-84080000D03*
X64210000Y-69990000D03*
X60980000Y-69950000D03*
D11*
X82910000Y-58410000D03*
X83100000Y-54000000D03*
X67120000Y-74720000D03*
D13*
G36*
X94625000Y-88625000D02*
X55375000Y-88625000D01*
X55375000Y-85988628D01*
X65009879Y-85988628D01*
X65116223Y-86246000D01*
X65312964Y-86443085D01*
X65570150Y-86549878D01*
X65848628Y-86550121D01*
X66106000Y-86443777D01*
X66303085Y-86247036D01*
X66409878Y-85989850D01*
X66410121Y-85711372D01*
X66303777Y-85454000D01*
X66107036Y-85256915D01*
X65849850Y-85150122D01*
X65571372Y-85149879D01*
X65314000Y-85256223D01*
X65116915Y-85452964D01*
X65010122Y-85710150D01*
X65009879Y-85988628D01*
X55375000Y-85988628D01*
X55375000Y-84888824D01*
X66149896Y-84888824D01*
X66241048Y-85109429D01*
X66409683Y-85278359D01*
X66630129Y-85369896D01*
X66868824Y-85370104D01*
X67089429Y-85278952D01*
X67190036Y-85178520D01*
X67299683Y-85288359D01*
X67520129Y-85379896D01*
X67758824Y-85380104D01*
X67979429Y-85288952D01*
X68148359Y-85120317D01*
X68239896Y-84899871D01*
X68240104Y-84661176D01*
X68148952Y-84440571D01*
X68067348Y-84358824D01*
X71149896Y-84358824D01*
X71241048Y-84579429D01*
X71409683Y-84748359D01*
X71630129Y-84839896D01*
X71868824Y-84840104D01*
X72089429Y-84748952D01*
X72258359Y-84580317D01*
X72349896Y-84359871D01*
X72349914Y-84338824D01*
X75719896Y-84338824D01*
X75811048Y-84559429D01*
X75979683Y-84728359D01*
X76200129Y-84819896D01*
X76438824Y-84820104D01*
X76659429Y-84728952D01*
X76828359Y-84560317D01*
X76919896Y-84339871D01*
X76919992Y-84228628D01*
X77509879Y-84228628D01*
X77616223Y-84486000D01*
X77812964Y-84683085D01*
X78070150Y-84789878D01*
X78348628Y-84790121D01*
X78606000Y-84683777D01*
X78803085Y-84487036D01*
X78909878Y-84229850D01*
X78910121Y-83951372D01*
X78803777Y-83694000D01*
X78607036Y-83496915D01*
X78349850Y-83390122D01*
X78071372Y-83389879D01*
X77814000Y-83496223D01*
X77616915Y-83692964D01*
X77510122Y-83950150D01*
X77509879Y-84228628D01*
X76919992Y-84228628D01*
X76920104Y-84101176D01*
X76828952Y-83880571D01*
X76660317Y-83711641D01*
X76439871Y-83620104D01*
X76201176Y-83619896D01*
X75980571Y-83711048D01*
X75811641Y-83879683D01*
X75720104Y-84100129D01*
X75719896Y-84338824D01*
X72349914Y-84338824D01*
X72350104Y-84121176D01*
X72258952Y-83900571D01*
X72090317Y-83731641D01*
X71869871Y-83640104D01*
X71631176Y-83639896D01*
X71410571Y-83731048D01*
X71241641Y-83899683D01*
X71150104Y-84120129D01*
X71149896Y-84358824D01*
X68067348Y-84358824D01*
X67980317Y-84271641D01*
X67759871Y-84180104D01*
X67521176Y-84179896D01*
X67300571Y-84271048D01*
X67199964Y-84371480D01*
X67090317Y-84261641D01*
X66869871Y-84170104D01*
X66631176Y-84169896D01*
X66410571Y-84261048D01*
X66241641Y-84429683D01*
X66150104Y-84650129D01*
X66149896Y-84888824D01*
X55375000Y-84888824D01*
X55375000Y-82018824D01*
X63399896Y-82018824D01*
X63491048Y-82239429D01*
X63659683Y-82408359D01*
X63880129Y-82499896D01*
X64118824Y-82500104D01*
X64339429Y-82408952D01*
X64508359Y-82240317D01*
X64599896Y-82019871D01*
X64599896Y-82018824D01*
X75399896Y-82018824D01*
X75491048Y-82239429D01*
X75659683Y-82408359D01*
X75880129Y-82499896D01*
X76118824Y-82500104D01*
X76339429Y-82408952D01*
X76508359Y-82240317D01*
X76599896Y-82019871D01*
X76600104Y-81781176D01*
X76508952Y-81560571D01*
X76340317Y-81391641D01*
X76119871Y-81300104D01*
X75881176Y-81299896D01*
X75660571Y-81391048D01*
X75491641Y-81559683D01*
X75400104Y-81780129D01*
X75399896Y-82018824D01*
X64599896Y-82018824D01*
X64600104Y-81781176D01*
X64508952Y-81560571D01*
X64340317Y-81391641D01*
X64119871Y-81300104D01*
X63881176Y-81299896D01*
X63660571Y-81391048D01*
X63491641Y-81559683D01*
X63400104Y-81780129D01*
X63399896Y-82018824D01*
X55375000Y-82018824D01*
X55375000Y-75698628D01*
X74659879Y-75698628D01*
X74766223Y-75956000D01*
X74962964Y-76153085D01*
X75220150Y-76259878D01*
X75498628Y-76260121D01*
X75756000Y-76153777D01*
X75953085Y-75957036D01*
X76059878Y-75699850D01*
X76060121Y-75421372D01*
X75953777Y-75164000D01*
X75757036Y-74966915D01*
X75499850Y-74860122D01*
X75221372Y-74859879D01*
X74964000Y-74966223D01*
X74766915Y-75162964D01*
X74660122Y-75420150D01*
X74659879Y-75698628D01*
X55375000Y-75698628D01*
X55375000Y-74858628D01*
X66419879Y-74858628D01*
X66526223Y-75116000D01*
X66722964Y-75313085D01*
X66980150Y-75419878D01*
X67258628Y-75420121D01*
X67516000Y-75313777D01*
X67713085Y-75117036D01*
X67819878Y-74859850D01*
X67820121Y-74581372D01*
X67713777Y-74324000D01*
X67706906Y-74317117D01*
X67836000Y-74263777D01*
X68033085Y-74067036D01*
X68139878Y-73809850D01*
X68140121Y-73531372D01*
X68033777Y-73274000D01*
X67837036Y-73076915D01*
X67579850Y-72970122D01*
X67301372Y-72969879D01*
X67044000Y-73076223D01*
X66846915Y-73272964D01*
X66740122Y-73530150D01*
X66739879Y-73808628D01*
X66846223Y-74066000D01*
X66853094Y-74072883D01*
X66724000Y-74126223D01*
X66526915Y-74322964D01*
X66420122Y-74580150D01*
X66419879Y-74858628D01*
X55375000Y-74858628D01*
X55375000Y-72928628D01*
X70839879Y-72928628D01*
X70946223Y-73186000D01*
X71142964Y-73383085D01*
X71400150Y-73489878D01*
X71678628Y-73490121D01*
X71936000Y-73383777D01*
X72133085Y-73187036D01*
X72239878Y-72929850D01*
X72240121Y-72651372D01*
X72133777Y-72394000D01*
X71937036Y-72196915D01*
X71679850Y-72090122D01*
X71401372Y-72089879D01*
X71144000Y-72196223D01*
X70946915Y-72392964D01*
X70840122Y-72650150D01*
X70839879Y-72928628D01*
X55375000Y-72928628D01*
X55375000Y-63478824D01*
X77509896Y-63478824D01*
X77601048Y-63699429D01*
X77769683Y-63868359D01*
X77990129Y-63959896D01*
X78228824Y-63960104D01*
X78449429Y-63868952D01*
X78618359Y-63700317D01*
X78709896Y-63479871D01*
X78710104Y-63241176D01*
X78655891Y-63109971D01*
X78808824Y-63110104D01*
X79029429Y-63018952D01*
X79198359Y-62850317D01*
X79289896Y-62629871D01*
X79290071Y-62429282D01*
X79460129Y-62499896D01*
X79698824Y-62500104D01*
X79919429Y-62408952D01*
X80088359Y-62240317D01*
X80179896Y-62019871D01*
X80180104Y-61781176D01*
X80088952Y-61560571D01*
X79920317Y-61391641D01*
X79699871Y-61300104D01*
X79461176Y-61299896D01*
X79240571Y-61391048D01*
X79071641Y-61559683D01*
X78980104Y-61780129D01*
X78979929Y-61980718D01*
X78809871Y-61910104D01*
X78571176Y-61909896D01*
X78350571Y-62001048D01*
X78181641Y-62169683D01*
X78090104Y-62390129D01*
X78089896Y-62628824D01*
X78144109Y-62760029D01*
X77991176Y-62759896D01*
X77770571Y-62851048D01*
X77601641Y-63019683D01*
X77510104Y-63240129D01*
X77509896Y-63478824D01*
X55375000Y-63478824D01*
X55375000Y-58548628D01*
X82209879Y-58548628D01*
X82316223Y-58806000D01*
X82512964Y-59003085D01*
X82770150Y-59109878D01*
X83048628Y-59110121D01*
X83306000Y-59003777D01*
X83503085Y-58807036D01*
X83609878Y-58549850D01*
X83610121Y-58271372D01*
X83503777Y-58014000D01*
X83307036Y-57816915D01*
X83049850Y-57710122D01*
X82771372Y-57709879D01*
X82514000Y-57816223D01*
X82316915Y-58012964D01*
X82210122Y-58270150D01*
X82209879Y-58548628D01*
X55375000Y-58548628D01*
X55375000Y-54138628D01*
X82399879Y-54138628D01*
X82506223Y-54396000D01*
X82702964Y-54593085D01*
X82960150Y-54699878D01*
X83238628Y-54700121D01*
X83496000Y-54593777D01*
X83693085Y-54397036D01*
X83799878Y-54139850D01*
X83800121Y-53861372D01*
X83693777Y-53604000D01*
X83497036Y-53406915D01*
X83239850Y-53300122D01*
X82961372Y-53299879D01*
X82704000Y-53406223D01*
X82506915Y-53602964D01*
X82400122Y-53860150D01*
X82399879Y-54138628D01*
X55375000Y-54138628D01*
X55375000Y-53028824D01*
X80829896Y-53028824D01*
X80921048Y-53249429D01*
X81089683Y-53418359D01*
X81310129Y-53509896D01*
X81548824Y-53510104D01*
X81769429Y-53418952D01*
X81938359Y-53250317D01*
X82029896Y-53029871D01*
X82030104Y-52791176D01*
X81938952Y-52570571D01*
X81918477Y-52550060D01*
X81998359Y-52470317D01*
X82089896Y-52249871D01*
X82090104Y-52011176D01*
X81998952Y-51790571D01*
X81830317Y-51621641D01*
X81609871Y-51530104D01*
X81371176Y-51529896D01*
X81150571Y-51621048D01*
X80981641Y-51789683D01*
X80890104Y-52010129D01*
X80889896Y-52248824D01*
X80981048Y-52469429D01*
X81001523Y-52489940D01*
X80921641Y-52569683D01*
X80830104Y-52790129D01*
X80829896Y-53028824D01*
X55375000Y-53028824D01*
X55375000Y-45548824D01*
X79369896Y-45548824D01*
X79461048Y-45769429D01*
X79629683Y-45938359D01*
X79850129Y-46029896D01*
X80088824Y-46030104D01*
X80309429Y-45938952D01*
X80429767Y-45818824D01*
X88689896Y-45818824D01*
X88781048Y-46039429D01*
X88949683Y-46208359D01*
X88955510Y-46210779D01*
X88910104Y-46320129D01*
X88909896Y-46558824D01*
X89001048Y-46779429D01*
X89169683Y-46948359D01*
X89390129Y-47039896D01*
X89628824Y-47040104D01*
X89849429Y-46948952D01*
X89976796Y-46821807D01*
X89893172Y-47023197D01*
X89892964Y-47261892D01*
X89984116Y-47482497D01*
X90152751Y-47651427D01*
X90373197Y-47742964D01*
X90426874Y-47743011D01*
X90426828Y-47795756D01*
X90517980Y-48016361D01*
X90686615Y-48185291D01*
X90907061Y-48276828D01*
X91145756Y-48277036D01*
X91249987Y-48233969D01*
X91249896Y-48338824D01*
X91341048Y-48559429D01*
X91509683Y-48728359D01*
X91548182Y-48744345D01*
X91500104Y-48860129D01*
X91499896Y-49098824D01*
X91591048Y-49319429D01*
X91759683Y-49488359D01*
X91980129Y-49579896D01*
X92218824Y-49580104D01*
X92303206Y-49545238D01*
X92342139Y-49639465D01*
X92181641Y-49799683D01*
X92090104Y-50020129D01*
X92089896Y-50258824D01*
X92181048Y-50479429D01*
X92349683Y-50648359D01*
X92570129Y-50739896D01*
X92808824Y-50740104D01*
X93029429Y-50648952D01*
X93198359Y-50480317D01*
X93289896Y-50259871D01*
X93290104Y-50021176D01*
X93227861Y-49870535D01*
X93388359Y-49710317D01*
X93479896Y-49489871D01*
X93480104Y-49251176D01*
X93388952Y-49030571D01*
X93220317Y-48861641D01*
X92999871Y-48770104D01*
X92761176Y-48769896D01*
X92676794Y-48804762D01*
X92608952Y-48640571D01*
X92440317Y-48471641D01*
X92401818Y-48455655D01*
X92449896Y-48339871D01*
X92450104Y-48101176D01*
X92358952Y-47880571D01*
X92190317Y-47711641D01*
X91969871Y-47620104D01*
X91731176Y-47619896D01*
X91626945Y-47662963D01*
X91627036Y-47558108D01*
X91535884Y-47337503D01*
X91367249Y-47168573D01*
X91146803Y-47077036D01*
X91093126Y-47076989D01*
X91093172Y-47024244D01*
X91002020Y-46803639D01*
X90833385Y-46634709D01*
X90612939Y-46543172D01*
X90374244Y-46542964D01*
X90153639Y-46634116D01*
X90026272Y-46761261D01*
X90109896Y-46559871D01*
X90110104Y-46321176D01*
X90018952Y-46100571D01*
X89850317Y-45931641D01*
X89844490Y-45929221D01*
X89889896Y-45819871D01*
X89890104Y-45581176D01*
X89798952Y-45360571D01*
X89630317Y-45191641D01*
X89409871Y-45100104D01*
X89171176Y-45099896D01*
X88950571Y-45191048D01*
X88781641Y-45359683D01*
X88690104Y-45580129D01*
X88689896Y-45818824D01*
X80429767Y-45818824D01*
X80478359Y-45770317D01*
X80566650Y-45557689D01*
X80620129Y-45579896D01*
X80858824Y-45580104D01*
X81079429Y-45488952D01*
X81248359Y-45320317D01*
X81339896Y-45099871D01*
X81340104Y-44861176D01*
X81248952Y-44640571D01*
X81080317Y-44471641D01*
X80859871Y-44380104D01*
X80621176Y-44379896D01*
X80400571Y-44471048D01*
X80231641Y-44639683D01*
X80143350Y-44852311D01*
X80089871Y-44830104D01*
X79851176Y-44829896D01*
X79630571Y-44921048D01*
X79461641Y-45089683D01*
X79370104Y-45310129D01*
X79369896Y-45548824D01*
X55375000Y-45548824D01*
X55375000Y-39375000D01*
X94625000Y-39375000D01*
X94625000Y-88625000D01*
X94625000Y-88625000D01*
G37*
X94625000Y-88625000D02*
X55375000Y-88625000D01*
X55375000Y-85988628D01*
X65009879Y-85988628D01*
X65116223Y-86246000D01*
X65312964Y-86443085D01*
X65570150Y-86549878D01*
X65848628Y-86550121D01*
X66106000Y-86443777D01*
X66303085Y-86247036D01*
X66409878Y-85989850D01*
X66410121Y-85711372D01*
X66303777Y-85454000D01*
X66107036Y-85256915D01*
X65849850Y-85150122D01*
X65571372Y-85149879D01*
X65314000Y-85256223D01*
X65116915Y-85452964D01*
X65010122Y-85710150D01*
X65009879Y-85988628D01*
X55375000Y-85988628D01*
X55375000Y-84888824D01*
X66149896Y-84888824D01*
X66241048Y-85109429D01*
X66409683Y-85278359D01*
X66630129Y-85369896D01*
X66868824Y-85370104D01*
X67089429Y-85278952D01*
X67190036Y-85178520D01*
X67299683Y-85288359D01*
X67520129Y-85379896D01*
X67758824Y-85380104D01*
X67979429Y-85288952D01*
X68148359Y-85120317D01*
X68239896Y-84899871D01*
X68240104Y-84661176D01*
X68148952Y-84440571D01*
X68067348Y-84358824D01*
X71149896Y-84358824D01*
X71241048Y-84579429D01*
X71409683Y-84748359D01*
X71630129Y-84839896D01*
X71868824Y-84840104D01*
X72089429Y-84748952D01*
X72258359Y-84580317D01*
X72349896Y-84359871D01*
X72349914Y-84338824D01*
X75719896Y-84338824D01*
X75811048Y-84559429D01*
X75979683Y-84728359D01*
X76200129Y-84819896D01*
X76438824Y-84820104D01*
X76659429Y-84728952D01*
X76828359Y-84560317D01*
X76919896Y-84339871D01*
X76919992Y-84228628D01*
X77509879Y-84228628D01*
X77616223Y-84486000D01*
X77812964Y-84683085D01*
X78070150Y-84789878D01*
X78348628Y-84790121D01*
X78606000Y-84683777D01*
X78803085Y-84487036D01*
X78909878Y-84229850D01*
X78910121Y-83951372D01*
X78803777Y-83694000D01*
X78607036Y-83496915D01*
X78349850Y-83390122D01*
X78071372Y-83389879D01*
X77814000Y-83496223D01*
X77616915Y-83692964D01*
X77510122Y-83950150D01*
X77509879Y-84228628D01*
X76919992Y-84228628D01*
X76920104Y-84101176D01*
X76828952Y-83880571D01*
X76660317Y-83711641D01*
X76439871Y-83620104D01*
X76201176Y-83619896D01*
X75980571Y-83711048D01*
X75811641Y-83879683D01*
X75720104Y-84100129D01*
X75719896Y-84338824D01*
X72349914Y-84338824D01*
X72350104Y-84121176D01*
X72258952Y-83900571D01*
X72090317Y-83731641D01*
X71869871Y-83640104D01*
X71631176Y-83639896D01*
X71410571Y-83731048D01*
X71241641Y-83899683D01*
X71150104Y-84120129D01*
X71149896Y-84358824D01*
X68067348Y-84358824D01*
X67980317Y-84271641D01*
X67759871Y-84180104D01*
X67521176Y-84179896D01*
X67300571Y-84271048D01*
X67199964Y-84371480D01*
X67090317Y-84261641D01*
X66869871Y-84170104D01*
X66631176Y-84169896D01*
X66410571Y-84261048D01*
X66241641Y-84429683D01*
X66150104Y-84650129D01*
X66149896Y-84888824D01*
X55375000Y-84888824D01*
X55375000Y-82018824D01*
X63399896Y-82018824D01*
X63491048Y-82239429D01*
X63659683Y-82408359D01*
X63880129Y-82499896D01*
X64118824Y-82500104D01*
X64339429Y-82408952D01*
X64508359Y-82240317D01*
X64599896Y-82019871D01*
X64599896Y-82018824D01*
X75399896Y-82018824D01*
X75491048Y-82239429D01*
X75659683Y-82408359D01*
X75880129Y-82499896D01*
X76118824Y-82500104D01*
X76339429Y-82408952D01*
X76508359Y-82240317D01*
X76599896Y-82019871D01*
X76600104Y-81781176D01*
X76508952Y-81560571D01*
X76340317Y-81391641D01*
X76119871Y-81300104D01*
X75881176Y-81299896D01*
X75660571Y-81391048D01*
X75491641Y-81559683D01*
X75400104Y-81780129D01*
X75399896Y-82018824D01*
X64599896Y-82018824D01*
X64600104Y-81781176D01*
X64508952Y-81560571D01*
X64340317Y-81391641D01*
X64119871Y-81300104D01*
X63881176Y-81299896D01*
X63660571Y-81391048D01*
X63491641Y-81559683D01*
X63400104Y-81780129D01*
X63399896Y-82018824D01*
X55375000Y-82018824D01*
X55375000Y-75698628D01*
X74659879Y-75698628D01*
X74766223Y-75956000D01*
X74962964Y-76153085D01*
X75220150Y-76259878D01*
X75498628Y-76260121D01*
X75756000Y-76153777D01*
X75953085Y-75957036D01*
X76059878Y-75699850D01*
X76060121Y-75421372D01*
X75953777Y-75164000D01*
X75757036Y-74966915D01*
X75499850Y-74860122D01*
X75221372Y-74859879D01*
X74964000Y-74966223D01*
X74766915Y-75162964D01*
X74660122Y-75420150D01*
X74659879Y-75698628D01*
X55375000Y-75698628D01*
X55375000Y-74858628D01*
X66419879Y-74858628D01*
X66526223Y-75116000D01*
X66722964Y-75313085D01*
X66980150Y-75419878D01*
X67258628Y-75420121D01*
X67516000Y-75313777D01*
X67713085Y-75117036D01*
X67819878Y-74859850D01*
X67820121Y-74581372D01*
X67713777Y-74324000D01*
X67706906Y-74317117D01*
X67836000Y-74263777D01*
X68033085Y-74067036D01*
X68139878Y-73809850D01*
X68140121Y-73531372D01*
X68033777Y-73274000D01*
X67837036Y-73076915D01*
X67579850Y-72970122D01*
X67301372Y-72969879D01*
X67044000Y-73076223D01*
X66846915Y-73272964D01*
X66740122Y-73530150D01*
X66739879Y-73808628D01*
X66846223Y-74066000D01*
X66853094Y-74072883D01*
X66724000Y-74126223D01*
X66526915Y-74322964D01*
X66420122Y-74580150D01*
X66419879Y-74858628D01*
X55375000Y-74858628D01*
X55375000Y-72928628D01*
X70839879Y-72928628D01*
X70946223Y-73186000D01*
X71142964Y-73383085D01*
X71400150Y-73489878D01*
X71678628Y-73490121D01*
X71936000Y-73383777D01*
X72133085Y-73187036D01*
X72239878Y-72929850D01*
X72240121Y-72651372D01*
X72133777Y-72394000D01*
X71937036Y-72196915D01*
X71679850Y-72090122D01*
X71401372Y-72089879D01*
X71144000Y-72196223D01*
X70946915Y-72392964D01*
X70840122Y-72650150D01*
X70839879Y-72928628D01*
X55375000Y-72928628D01*
X55375000Y-63478824D01*
X77509896Y-63478824D01*
X77601048Y-63699429D01*
X77769683Y-63868359D01*
X77990129Y-63959896D01*
X78228824Y-63960104D01*
X78449429Y-63868952D01*
X78618359Y-63700317D01*
X78709896Y-63479871D01*
X78710104Y-63241176D01*
X78655891Y-63109971D01*
X78808824Y-63110104D01*
X79029429Y-63018952D01*
X79198359Y-62850317D01*
X79289896Y-62629871D01*
X79290071Y-62429282D01*
X79460129Y-62499896D01*
X79698824Y-62500104D01*
X79919429Y-62408952D01*
X80088359Y-62240317D01*
X80179896Y-62019871D01*
X80180104Y-61781176D01*
X80088952Y-61560571D01*
X79920317Y-61391641D01*
X79699871Y-61300104D01*
X79461176Y-61299896D01*
X79240571Y-61391048D01*
X79071641Y-61559683D01*
X78980104Y-61780129D01*
X78979929Y-61980718D01*
X78809871Y-61910104D01*
X78571176Y-61909896D01*
X78350571Y-62001048D01*
X78181641Y-62169683D01*
X78090104Y-62390129D01*
X78089896Y-62628824D01*
X78144109Y-62760029D01*
X77991176Y-62759896D01*
X77770571Y-62851048D01*
X77601641Y-63019683D01*
X77510104Y-63240129D01*
X77509896Y-63478824D01*
X55375000Y-63478824D01*
X55375000Y-58548628D01*
X82209879Y-58548628D01*
X82316223Y-58806000D01*
X82512964Y-59003085D01*
X82770150Y-59109878D01*
X83048628Y-59110121D01*
X83306000Y-59003777D01*
X83503085Y-58807036D01*
X83609878Y-58549850D01*
X83610121Y-58271372D01*
X83503777Y-58014000D01*
X83307036Y-57816915D01*
X83049850Y-57710122D01*
X82771372Y-57709879D01*
X82514000Y-57816223D01*
X82316915Y-58012964D01*
X82210122Y-58270150D01*
X82209879Y-58548628D01*
X55375000Y-58548628D01*
X55375000Y-54138628D01*
X82399879Y-54138628D01*
X82506223Y-54396000D01*
X82702964Y-54593085D01*
X82960150Y-54699878D01*
X83238628Y-54700121D01*
X83496000Y-54593777D01*
X83693085Y-54397036D01*
X83799878Y-54139850D01*
X83800121Y-53861372D01*
X83693777Y-53604000D01*
X83497036Y-53406915D01*
X83239850Y-53300122D01*
X82961372Y-53299879D01*
X82704000Y-53406223D01*
X82506915Y-53602964D01*
X82400122Y-53860150D01*
X82399879Y-54138628D01*
X55375000Y-54138628D01*
X55375000Y-53028824D01*
X80829896Y-53028824D01*
X80921048Y-53249429D01*
X81089683Y-53418359D01*
X81310129Y-53509896D01*
X81548824Y-53510104D01*
X81769429Y-53418952D01*
X81938359Y-53250317D01*
X82029896Y-53029871D01*
X82030104Y-52791176D01*
X81938952Y-52570571D01*
X81918477Y-52550060D01*
X81998359Y-52470317D01*
X82089896Y-52249871D01*
X82090104Y-52011176D01*
X81998952Y-51790571D01*
X81830317Y-51621641D01*
X81609871Y-51530104D01*
X81371176Y-51529896D01*
X81150571Y-51621048D01*
X80981641Y-51789683D01*
X80890104Y-52010129D01*
X80889896Y-52248824D01*
X80981048Y-52469429D01*
X81001523Y-52489940D01*
X80921641Y-52569683D01*
X80830104Y-52790129D01*
X80829896Y-53028824D01*
X55375000Y-53028824D01*
X55375000Y-45548824D01*
X79369896Y-45548824D01*
X79461048Y-45769429D01*
X79629683Y-45938359D01*
X79850129Y-46029896D01*
X80088824Y-46030104D01*
X80309429Y-45938952D01*
X80429767Y-45818824D01*
X88689896Y-45818824D01*
X88781048Y-46039429D01*
X88949683Y-46208359D01*
X88955510Y-46210779D01*
X88910104Y-46320129D01*
X88909896Y-46558824D01*
X89001048Y-46779429D01*
X89169683Y-46948359D01*
X89390129Y-47039896D01*
X89628824Y-47040104D01*
X89849429Y-46948952D01*
X89976796Y-46821807D01*
X89893172Y-47023197D01*
X89892964Y-47261892D01*
X89984116Y-47482497D01*
X90152751Y-47651427D01*
X90373197Y-47742964D01*
X90426874Y-47743011D01*
X90426828Y-47795756D01*
X90517980Y-48016361D01*
X90686615Y-48185291D01*
X90907061Y-48276828D01*
X91145756Y-48277036D01*
X91249987Y-48233969D01*
X91249896Y-48338824D01*
X91341048Y-48559429D01*
X91509683Y-48728359D01*
X91548182Y-48744345D01*
X91500104Y-48860129D01*
X91499896Y-49098824D01*
X91591048Y-49319429D01*
X91759683Y-49488359D01*
X91980129Y-49579896D01*
X92218824Y-49580104D01*
X92303206Y-49545238D01*
X92342139Y-49639465D01*
X92181641Y-49799683D01*
X92090104Y-50020129D01*
X92089896Y-50258824D01*
X92181048Y-50479429D01*
X92349683Y-50648359D01*
X92570129Y-50739896D01*
X92808824Y-50740104D01*
X93029429Y-50648952D01*
X93198359Y-50480317D01*
X93289896Y-50259871D01*
X93290104Y-50021176D01*
X93227861Y-49870535D01*
X93388359Y-49710317D01*
X93479896Y-49489871D01*
X93480104Y-49251176D01*
X93388952Y-49030571D01*
X93220317Y-48861641D01*
X92999871Y-48770104D01*
X92761176Y-48769896D01*
X92676794Y-48804762D01*
X92608952Y-48640571D01*
X92440317Y-48471641D01*
X92401818Y-48455655D01*
X92449896Y-48339871D01*
X92450104Y-48101176D01*
X92358952Y-47880571D01*
X92190317Y-47711641D01*
X91969871Y-47620104D01*
X91731176Y-47619896D01*
X91626945Y-47662963D01*
X91627036Y-47558108D01*
X91535884Y-47337503D01*
X91367249Y-47168573D01*
X91146803Y-47077036D01*
X91093126Y-47076989D01*
X91093172Y-47024244D01*
X91002020Y-46803639D01*
X90833385Y-46634709D01*
X90612939Y-46543172D01*
X90374244Y-46542964D01*
X90153639Y-46634116D01*
X90026272Y-46761261D01*
X90109896Y-46559871D01*
X90110104Y-46321176D01*
X90018952Y-46100571D01*
X89850317Y-45931641D01*
X89844490Y-45929221D01*
X89889896Y-45819871D01*
X89890104Y-45581176D01*
X89798952Y-45360571D01*
X89630317Y-45191641D01*
X89409871Y-45100104D01*
X89171176Y-45099896D01*
X88950571Y-45191048D01*
X88781641Y-45359683D01*
X88690104Y-45580129D01*
X88689896Y-45818824D01*
X80429767Y-45818824D01*
X80478359Y-45770317D01*
X80566650Y-45557689D01*
X80620129Y-45579896D01*
X80858824Y-45580104D01*
X81079429Y-45488952D01*
X81248359Y-45320317D01*
X81339896Y-45099871D01*
X81340104Y-44861176D01*
X81248952Y-44640571D01*
X81080317Y-44471641D01*
X80859871Y-44380104D01*
X80621176Y-44379896D01*
X80400571Y-44471048D01*
X80231641Y-44639683D01*
X80143350Y-44852311D01*
X80089871Y-44830104D01*
X79851176Y-44829896D01*
X79630571Y-44921048D01*
X79461641Y-45089683D01*
X79370104Y-45310129D01*
X79369896Y-45548824D01*
X55375000Y-45548824D01*
X55375000Y-39375000D01*
X94625000Y-39375000D01*
X94625000Y-88625000D01*
M02*
