G04 #@! TF.FileFunction,Legend,Top*
%FSLAX46Y46*%
G04 Gerber Fmt 4.6, Leading zero omitted, Abs format (unit mm)*
G04 Created by KiCad (PCBNEW 4.0.6) date Mon Apr 10 16:51:52 2017*
%MOMM*%
%LPD*%
G01*
G04 APERTURE LIST*
%ADD10C,0.100000*%
%ADD11C,0.300000*%
%ADD12C,0.120000*%
%ADD13C,0.150000*%
G04 APERTURE END LIST*
D10*
D11*
X62500001Y-80760714D02*
X62428572Y-80832143D01*
X62214286Y-80903571D01*
X62071429Y-80903571D01*
X61857144Y-80832143D01*
X61714286Y-80689286D01*
X61642858Y-80546429D01*
X61571429Y-80260714D01*
X61571429Y-80046429D01*
X61642858Y-79760714D01*
X61714286Y-79617857D01*
X61857144Y-79475000D01*
X62071429Y-79403571D01*
X62214286Y-79403571D01*
X62428572Y-79475000D01*
X62500001Y-79546429D01*
X63785715Y-80903571D02*
X63785715Y-80117857D01*
X63714286Y-79975000D01*
X63571429Y-79903571D01*
X63285715Y-79903571D01*
X63142858Y-79975000D01*
X63785715Y-80832143D02*
X63642858Y-80903571D01*
X63285715Y-80903571D01*
X63142858Y-80832143D01*
X63071429Y-80689286D01*
X63071429Y-80546429D01*
X63142858Y-80403571D01*
X63285715Y-80332143D01*
X63642858Y-80332143D01*
X63785715Y-80260714D01*
X64500001Y-80903571D02*
X64500001Y-79903571D01*
X64500001Y-80046429D02*
X64571429Y-79975000D01*
X64714287Y-79903571D01*
X64928572Y-79903571D01*
X65071429Y-79975000D01*
X65142858Y-80117857D01*
X65142858Y-80903571D01*
X65142858Y-80117857D02*
X65214287Y-79975000D01*
X65357144Y-79903571D01*
X65571429Y-79903571D01*
X65714287Y-79975000D01*
X65785715Y-80117857D01*
X65785715Y-80903571D01*
X67071429Y-80832143D02*
X66928572Y-80903571D01*
X66642858Y-80903571D01*
X66500001Y-80832143D01*
X66428572Y-80689286D01*
X66428572Y-80117857D01*
X66500001Y-79975000D01*
X66642858Y-79903571D01*
X66928572Y-79903571D01*
X67071429Y-79975000D01*
X67142858Y-80117857D01*
X67142858Y-80260714D01*
X66428572Y-80403571D01*
X67785715Y-80903571D02*
X67785715Y-79903571D01*
X67785715Y-80189286D02*
X67857143Y-80046429D01*
X67928572Y-79975000D01*
X68071429Y-79903571D01*
X68214286Y-79903571D01*
X69357143Y-80903571D02*
X69357143Y-80117857D01*
X69285714Y-79975000D01*
X69142857Y-79903571D01*
X68857143Y-79903571D01*
X68714286Y-79975000D01*
X69357143Y-80832143D02*
X69214286Y-80903571D01*
X68857143Y-80903571D01*
X68714286Y-80832143D01*
X68642857Y-80689286D01*
X68642857Y-80546429D01*
X68714286Y-80403571D01*
X68857143Y-80332143D01*
X69214286Y-80332143D01*
X69357143Y-80260714D01*
X71214286Y-80903571D02*
X71214286Y-79403571D01*
X71714286Y-80475000D01*
X72214286Y-79403571D01*
X72214286Y-80903571D01*
X73142858Y-80903571D02*
X73000000Y-80832143D01*
X72928572Y-80760714D01*
X72857143Y-80617857D01*
X72857143Y-80189286D01*
X72928572Y-80046429D01*
X73000000Y-79975000D01*
X73142858Y-79903571D01*
X73357143Y-79903571D01*
X73500000Y-79975000D01*
X73571429Y-80046429D01*
X73642858Y-80189286D01*
X73642858Y-80617857D01*
X73571429Y-80760714D01*
X73500000Y-80832143D01*
X73357143Y-80903571D01*
X73142858Y-80903571D01*
X74928572Y-80903571D02*
X74928572Y-79403571D01*
X74928572Y-80832143D02*
X74785715Y-80903571D01*
X74500001Y-80903571D01*
X74357143Y-80832143D01*
X74285715Y-80760714D01*
X74214286Y-80617857D01*
X74214286Y-80189286D01*
X74285715Y-80046429D01*
X74357143Y-79975000D01*
X74500001Y-79903571D01*
X74785715Y-79903571D01*
X74928572Y-79975000D01*
X76285715Y-79903571D02*
X76285715Y-80903571D01*
X75642858Y-79903571D02*
X75642858Y-80689286D01*
X75714286Y-80832143D01*
X75857144Y-80903571D01*
X76071429Y-80903571D01*
X76214286Y-80832143D01*
X76285715Y-80760714D01*
X77214287Y-80903571D02*
X77071429Y-80832143D01*
X77000001Y-80689286D01*
X77000001Y-79403571D01*
X78357143Y-80832143D02*
X78214286Y-80903571D01*
X77928572Y-80903571D01*
X77785715Y-80832143D01*
X77714286Y-80689286D01*
X77714286Y-80117857D01*
X77785715Y-79975000D01*
X77928572Y-79903571D01*
X78214286Y-79903571D01*
X78357143Y-79975000D01*
X78428572Y-80117857D01*
X78428572Y-80260714D01*
X77714286Y-80403571D01*
X66892858Y-83453571D02*
X66392858Y-82739286D01*
X66035715Y-83453571D02*
X66035715Y-81953571D01*
X66607143Y-81953571D01*
X66750001Y-82025000D01*
X66821429Y-82096429D01*
X66892858Y-82239286D01*
X66892858Y-82453571D01*
X66821429Y-82596429D01*
X66750001Y-82667857D01*
X66607143Y-82739286D01*
X66035715Y-82739286D01*
X68107143Y-83382143D02*
X67964286Y-83453571D01*
X67678572Y-83453571D01*
X67535715Y-83382143D01*
X67464286Y-83239286D01*
X67464286Y-82667857D01*
X67535715Y-82525000D01*
X67678572Y-82453571D01*
X67964286Y-82453571D01*
X68107143Y-82525000D01*
X68178572Y-82667857D01*
X68178572Y-82810714D01*
X67464286Y-82953571D01*
X68678572Y-82453571D02*
X69035715Y-83453571D01*
X69392857Y-82453571D01*
X71892857Y-83453571D02*
X71035714Y-83453571D01*
X71464286Y-83453571D02*
X71464286Y-81953571D01*
X71321429Y-82167857D01*
X71178571Y-82310714D01*
X71035714Y-82382143D01*
X72535714Y-83310714D02*
X72607142Y-83382143D01*
X72535714Y-83453571D01*
X72464285Y-83382143D01*
X72535714Y-83310714D01*
X72535714Y-83453571D01*
X73535714Y-81953571D02*
X73678571Y-81953571D01*
X73821428Y-82025000D01*
X73892857Y-82096429D01*
X73964286Y-82239286D01*
X74035714Y-82525000D01*
X74035714Y-82882143D01*
X73964286Y-83167857D01*
X73892857Y-83310714D01*
X73821428Y-83382143D01*
X73678571Y-83453571D01*
X73535714Y-83453571D01*
X73392857Y-83382143D01*
X73321428Y-83310714D01*
X73250000Y-83167857D01*
X73178571Y-82882143D01*
X73178571Y-82525000D01*
X73250000Y-82239286D01*
X73321428Y-82096429D01*
X73392857Y-82025000D01*
X73535714Y-81953571D01*
X64385715Y-78314286D02*
X64214287Y-78228571D01*
X64128572Y-78142857D01*
X64042858Y-77971429D01*
X64042858Y-77457143D01*
X64128572Y-77285714D01*
X64214287Y-77200000D01*
X64385715Y-77114286D01*
X64642858Y-77114286D01*
X64814287Y-77200000D01*
X64900001Y-77285714D01*
X64985715Y-77457143D01*
X64985715Y-77971429D01*
X64900001Y-78142857D01*
X64814287Y-78228571D01*
X64642858Y-78314286D01*
X64385715Y-78314286D01*
X65757143Y-77114286D02*
X65757143Y-78914286D01*
X65757143Y-77200000D02*
X65928572Y-77114286D01*
X66271429Y-77114286D01*
X66442858Y-77200000D01*
X66528572Y-77285714D01*
X66614286Y-77457143D01*
X66614286Y-77971429D01*
X66528572Y-78142857D01*
X66442858Y-78228571D01*
X66271429Y-78314286D01*
X65928572Y-78314286D01*
X65757143Y-78228571D01*
X68071429Y-78228571D02*
X67900000Y-78314286D01*
X67557143Y-78314286D01*
X67385714Y-78228571D01*
X67300000Y-78057143D01*
X67300000Y-77371429D01*
X67385714Y-77200000D01*
X67557143Y-77114286D01*
X67900000Y-77114286D01*
X68071429Y-77200000D01*
X68157143Y-77371429D01*
X68157143Y-77542857D01*
X67300000Y-77714286D01*
X68928571Y-77114286D02*
X68928571Y-78314286D01*
X68928571Y-77285714D02*
X69014286Y-77200000D01*
X69185714Y-77114286D01*
X69442857Y-77114286D01*
X69614286Y-77200000D01*
X69700000Y-77371429D01*
X69700000Y-78314286D01*
X70557142Y-78314286D02*
X70557142Y-76514286D01*
X71157142Y-77800000D01*
X71757142Y-76514286D01*
X71757142Y-78314286D01*
X72614285Y-78314286D02*
X72614285Y-77114286D01*
X72614285Y-76514286D02*
X72528571Y-76600000D01*
X72614285Y-76685714D01*
X72700000Y-76600000D01*
X72614285Y-76514286D01*
X72614285Y-76685714D01*
X73300000Y-78314286D02*
X74242857Y-77114286D01*
X73300000Y-77114286D02*
X74242857Y-78314286D01*
X75957143Y-78314286D02*
X75357143Y-77457143D01*
X74928571Y-78314286D02*
X74928571Y-76514286D01*
X75614286Y-76514286D01*
X75785714Y-76600000D01*
X75871429Y-76685714D01*
X75957143Y-76857143D01*
X75957143Y-77114286D01*
X75871429Y-77285714D01*
X75785714Y-77371429D01*
X75614286Y-77457143D01*
X74928571Y-77457143D01*
D12*
X84850000Y-56500000D02*
X84850000Y-55500000D01*
X83150000Y-55500000D02*
X83150000Y-56500000D01*
X82850000Y-56500000D02*
X82850000Y-55500000D01*
X81150000Y-55500000D02*
X81150000Y-56500000D01*
X78150000Y-41500000D02*
X78150000Y-42500000D01*
X79850000Y-42500000D02*
X79850000Y-41500000D01*
D13*
X71000000Y-49000000D02*
G75*
G03X71000000Y-49000000I-1000000J0D01*
G01*
X71581139Y-49000000D02*
G75*
G03X71581139Y-49000000I-1581139J0D01*
G01*
X74000000Y-49000000D02*
G75*
G03X74000000Y-49000000I-4000000J0D01*
G01*
X82700000Y-44900000D02*
X82700000Y-45100000D01*
X86300000Y-44900000D02*
X86300000Y-45100000D01*
X86300000Y-53100000D02*
X86300000Y-52900000D01*
X82700000Y-53100000D02*
X82700000Y-52900000D01*
X85800000Y-53600000D02*
X83200000Y-53600000D01*
X83200000Y-44400000D02*
X85800000Y-44400000D01*
X82700000Y-53100000D02*
G75*
G03X83200000Y-53600000I500000J0D01*
G01*
X85800000Y-53600000D02*
G75*
G03X86300000Y-53100000I0J500000D01*
G01*
X86300000Y-44900000D02*
G75*
G03X85800000Y-44400000I-500000J0D01*
G01*
X83200000Y-44400000D02*
G75*
G03X82700000Y-44900000I0J-500000D01*
G01*
X76500000Y-46500000D02*
X82000000Y-46500000D01*
X76500000Y-51500000D02*
X82000000Y-51500000D01*
X76000000Y-52000000D02*
X76000000Y-54500000D01*
X75500000Y-55000000D02*
X64500000Y-55000000D01*
X64000000Y-43500000D02*
X64000000Y-54500000D01*
X75500000Y-43000000D02*
X64500000Y-43000000D01*
X76000000Y-46000000D02*
X76000000Y-43500000D01*
X76000000Y-46000000D02*
G75*
G03X76500000Y-46500000I500000J0D01*
G01*
X76000000Y-43500000D02*
G75*
G03X75500000Y-43000000I-500000J0D01*
G01*
X64500000Y-43000000D02*
G75*
G03X64000000Y-43500000I0J-500000D01*
G01*
X64000000Y-54500000D02*
G75*
G03X64500000Y-55000000I500000J0D01*
G01*
X75500000Y-55000000D02*
G75*
G03X76000000Y-54500000I0J500000D01*
G01*
X76500000Y-51500000D02*
G75*
G03X76000000Y-52000000I0J-500000D01*
G01*
X85800000Y-52900000D02*
X85800000Y-53100000D01*
X85800000Y-53100000D02*
X83200000Y-53100000D01*
X83200000Y-53100000D02*
X83200000Y-52900000D01*
X85800000Y-52200000D02*
X85800000Y-52000000D01*
X85800000Y-45800000D02*
X85800000Y-46000000D01*
X85800000Y-44900000D02*
X85800000Y-45100000D01*
X85800000Y-44900000D02*
X83200000Y-44900000D01*
X83200000Y-44900000D02*
X83200000Y-45100000D01*
X66350000Y-57000000D02*
X66350000Y-56700000D01*
X66350000Y-56700000D02*
X64350000Y-56700000D01*
X64350000Y-56700000D02*
X64350000Y-57000000D01*
X66350000Y-58300000D02*
X66350000Y-58000000D01*
X66350000Y-58300000D02*
X64350000Y-58300000D01*
X64350000Y-58300000D02*
X64350000Y-58000000D01*
X75350000Y-57000000D02*
X75350000Y-56700000D01*
X75350000Y-56700000D02*
X73350000Y-56700000D01*
X73350000Y-56700000D02*
X73350000Y-57000000D01*
X75350000Y-58300000D02*
X75350000Y-58000000D01*
X75350000Y-58300000D02*
X73350000Y-58300000D01*
X73350000Y-58300000D02*
X73350000Y-58000000D01*
X75350000Y-40000000D02*
X75350000Y-39700000D01*
X75350000Y-39700000D02*
X73350000Y-39700000D01*
X73350000Y-39700000D02*
X73350000Y-40000000D01*
X75350000Y-41300000D02*
X75350000Y-41000000D01*
X75350000Y-41300000D02*
X73350000Y-41300000D01*
X73350000Y-41300000D02*
X73350000Y-41000000D01*
X66850000Y-40000000D02*
X66850000Y-39700000D01*
X66850000Y-39700000D02*
X64850000Y-39700000D01*
X64850000Y-39700000D02*
X64850000Y-40000000D01*
X66850000Y-41300000D02*
X66850000Y-41000000D01*
X66850000Y-41300000D02*
X64850000Y-41300000D01*
X64850000Y-41300000D02*
X64850000Y-41000000D01*
D12*
X68160000Y-65880000D02*
X68160000Y-64950000D01*
X68160000Y-62720000D02*
X68160000Y-63650000D01*
X68160000Y-62720000D02*
X66000000Y-62720000D01*
X68160000Y-65880000D02*
X66700000Y-65880000D01*
D13*
X56425000Y-52500000D02*
X56425000Y-50500000D01*
X58575000Y-50500000D02*
X58575000Y-52500000D01*
X65325000Y-64550000D02*
X65325000Y-64050000D01*
X64275000Y-64050000D02*
X64275000Y-64550000D01*
X59425000Y-52500000D02*
X59425000Y-50500000D01*
X61575000Y-50500000D02*
X61575000Y-52500000D01*
X61575000Y-45000000D02*
X61575000Y-47000000D01*
X59425000Y-47000000D02*
X59425000Y-45000000D01*
X58575000Y-45000000D02*
X58575000Y-47000000D01*
X56425000Y-47000000D02*
X56425000Y-45000000D01*
D12*
X86850000Y-56500000D02*
X86850000Y-55500000D01*
X85150000Y-55500000D02*
X85150000Y-56500000D01*
D13*
X57250000Y-79975000D02*
X56750000Y-79975000D01*
X56750000Y-81025000D02*
X57250000Y-81025000D01*
X57250000Y-76975000D02*
X56750000Y-76975000D01*
X56750000Y-78025000D02*
X57250000Y-78025000D01*
X57250000Y-78475000D02*
X56750000Y-78475000D01*
X56750000Y-79525000D02*
X57250000Y-79525000D01*
D12*
X81538095Y-52728571D02*
X81500000Y-52690476D01*
X81461905Y-52614285D01*
X81461905Y-52423809D01*
X81500000Y-52347619D01*
X81538095Y-52309523D01*
X81614286Y-52271428D01*
X81690476Y-52271428D01*
X81804762Y-52309523D01*
X82261905Y-52766666D01*
X82261905Y-52271428D01*
X81461905Y-45947619D02*
X81461905Y-45452381D01*
X81766667Y-45719048D01*
X81766667Y-45604762D01*
X81804762Y-45528572D01*
X81842857Y-45490476D01*
X81919048Y-45452381D01*
X82109524Y-45452381D01*
X82185714Y-45490476D01*
X82223810Y-45528572D01*
X82261905Y-45604762D01*
X82261905Y-45833334D01*
X82223810Y-45909524D01*
X82185714Y-45947619D01*
X81461905Y-44957143D02*
X81461905Y-44880952D01*
X81500000Y-44804762D01*
X81538095Y-44766667D01*
X81614286Y-44728571D01*
X81766667Y-44690476D01*
X81957143Y-44690476D01*
X82109524Y-44728571D01*
X82185714Y-44766667D01*
X82223810Y-44804762D01*
X82261905Y-44880952D01*
X82261905Y-44957143D01*
X82223810Y-45033333D01*
X82185714Y-45071429D01*
X82109524Y-45109524D01*
X81957143Y-45147619D01*
X81766667Y-45147619D01*
X81614286Y-45109524D01*
X81538095Y-45071429D01*
X81500000Y-45033333D01*
X81461905Y-44957143D01*
X86838095Y-45909524D02*
X86800000Y-45871429D01*
X86761905Y-45795238D01*
X86761905Y-45604762D01*
X86800000Y-45528572D01*
X86838095Y-45490476D01*
X86914286Y-45452381D01*
X86990476Y-45452381D01*
X87104762Y-45490476D01*
X87561905Y-45947619D01*
X87561905Y-45452381D01*
X87561905Y-45071429D02*
X87561905Y-44919048D01*
X87523810Y-44842857D01*
X87485714Y-44804762D01*
X87371429Y-44728571D01*
X87219048Y-44690476D01*
X86914286Y-44690476D01*
X86838095Y-44728571D01*
X86800000Y-44766667D01*
X86761905Y-44842857D01*
X86761905Y-44995238D01*
X86800000Y-45071429D01*
X86838095Y-45109524D01*
X86914286Y-45147619D01*
X87104762Y-45147619D01*
X87180952Y-45109524D01*
X87219048Y-45071429D01*
X87257143Y-44995238D01*
X87257143Y-44842857D01*
X87219048Y-44766667D01*
X87180952Y-44728571D01*
X87104762Y-44690476D01*
X87561905Y-52271428D02*
X87561905Y-52728571D01*
X87561905Y-52500000D02*
X86761905Y-52500000D01*
X86876190Y-52576190D01*
X86952381Y-52652381D01*
X86990476Y-52728571D01*
M02*
